<svg width="32" height="32" viewBox="0 0 32 32" fill="none" xmlns="http://www.w3.org/2000/svg">
<rect width="32" height="32" rx="16" fill="#26A69A"/>
<path fill-rule="evenodd" clip-rule="evenodd" d="M8.80005 7.2002H23.2V11.2002H18.4001V13.6813C21.7627 13.9055 25.5999 14.6375 25.5999 16.4001C25.5999 18.1627 21.7627 18.8947 18.4001 19.1189V25.6H13.6001V19.119C10.2374 18.8948 6.3999 18.1628 6.3999 16.4001C6.3999 14.6374 10.2374 13.9054 13.6001 13.6812V11.2002H8.80005V7.2002ZM18.4001 17.5269C18.0689 17.5477 17.7265 17.5624 17.3785 17.5744C17.2897 17.5776 17.2001 17.58 17.1097 17.5824C16.7457 17.5928 16.3777 17.6 16.0001 17.6C15.6225 17.6 15.2545 17.5928 14.8905 17.5832C14.8001 17.5808 14.7105 17.5784 14.6217 17.5752C14.3683 17.5664 14.1178 17.556 13.8725 17.5429C10.4868 17.3567 7.9999 16.7367 7.9999 16.0001C7.9999 15.2834 10.3543 14.6771 13.6001 14.4733V15.9218C14.3257 15.9706 15.1241 16.0002 16.0001 16.0002C16.8761 16.0002 17.6745 15.9706 18.4001 15.9218V14.4733C21.6457 14.6771 23.9999 15.2834 23.9999 16.0001C23.9999 16.7168 21.6457 17.3231 18.4001 17.5269Z" fill="white"/>
</svg>
