<svg width="32" height="32" viewBox="0 0 32 32" fill="none" xmlns="http://www.w3.org/2000/svg">
<g clip-path="url(#clip0_1095_2024)">
<rect x="32" y="32" width="32" height="32" rx="16" transform="rotate(-180 32 32)" fill="white"/>
<path fill-rule="evenodd" clip-rule="evenodd" d="M17.2698 22.4707V22.8396C17.2698 23.5368 16.7039 24.1027 16.0066 24.1027C15.3093 24.1027 14.7435 23.5368 14.7435 22.8396V22.5027H14.6963C12.8083 22.5027 11.2723 20.9617 11.2723 19.0669C11.2723 18.3697 11.8382 17.8038 12.5355 17.8038C13.2327 17.8038 13.7986 18.3697 13.7986 19.0669C13.7986 19.5688 14.2011 19.9764 14.6963 19.9764H16.9565C17.6437 19.9764 18.2028 19.4173 18.2028 18.7301C18.2028 18.0413 17.6437 17.4821 16.9565 17.4821H15.1443C13.0087 17.4821 11.2723 15.7457 11.2723 13.6101C11.2723 11.6109 12.7982 9.98063 14.7435 9.77684V9.19579C14.7435 8.49853 15.3093 7.93263 16.0066 7.93263C16.7039 7.93263 17.2698 8.49853 17.2698 9.19579V9.73642H17.3051C19.1931 9.73642 20.7275 11.2707 20.7275 13.1554C20.7275 13.8526 20.1616 14.4859 19.4643 14.4859C18.767 14.4859 18.2011 13.9874 18.2011 13.2901V13.1554C18.2011 12.6636 17.7986 12.2627 17.3051 12.2627H15.1443C14.4016 12.2627 13.7986 12.8657 13.7986 13.6101C13.7986 14.3528 14.4016 14.9558 15.1443 14.9558H16.9565C19.0365 14.9558 20.7291 16.6484 20.7291 18.7301C20.7291 20.7023 19.2016 22.3091 17.2698 22.4707ZM15.9999 0C7.17798 0 -0.00012207 7.17811 -0.00012207 16C-0.00012207 24.8236 7.17798 32 15.9999 32C24.8218 32 31.9999 24.8236 31.9999 16C31.9999 7.17811 24.8218 0 15.9999 0Z" fill="#1BD1D5"/>
</g>
<defs>
<clipPath id="clip0_1095_2024">
<rect x="32" y="32" width="32" height="32" rx="16" transform="rotate(-180 32 32)" fill="white"/>
</clipPath>
</defs>
</svg>
