<svg width="32" height="32" viewBox="0 0 32 32" fill="none" xmlns="http://www.w3.org/2000/svg">
<rect width="32" height="32" rx="16" fill="url(#paint0_linear_1122_926)"/>
<path d="M11.1955 12.6204C11.0311 13.3008 9.8374 14.748 9.26112 15.3866C9.26112 15.1529 9.26112 12.5457 9.32653 11.7046C9.39194 10.8636 9.86854 9.65809 10.9339 9.51792C11.9992 9.37775 16.6997 9.31232 17.9706 9.34036C18.9874 9.36278 19.5406 9.46808 19.6901 9.51792C19.3387 10.5272 18.5469 10.8792 18.1949 10.929C17.0953 10.9539 14.5093 11.015 12.9617 11.0598C11.394 11.1053 11.3423 11.5436 11.2696 12.1608C11.2527 12.3051 11.2345 12.4593 11.1955 12.6204Z" fill="white"/>
<path d="M11.2259 22.6497V16.6912H13.7842C14.0815 16.6912 14.3226 16.4501 14.3226 16.1528V15.5416C14.3226 15.2576 14.102 15.0223 13.8184 15.0087C12.9919 14.9692 11.8304 14.9421 11.416 15.0366C10.7787 15.182 9.91793 16.5235 9.57137 17.0824C9.29412 17.5296 9.23227 18.3569 9.236 18.7146V22.6497H11.2259Z" fill="white"/>
<path d="M23.7178 9.34036H22.0824C21.9205 9.32479 21.4675 9.46559 20.9517 10.1534C20.4358 10.8412 17.7339 14.7013 16.4474 16.5453C16.3322 16.7167 16.096 17.2537 16.0736 18.0312C16.0512 18.8087 16.0643 21.4452 16.0736 22.6663H17.737V16.9098L21.1573 21.7412C21.366 22.0495 21.9367 22.6663 22.5497 22.6663H24.0355L19.8209 16.3771C19.6341 16.1279 19.35 15.5118 19.7088 15.0408C20.0677 14.5698 22.531 11.0443 23.7178 9.34036Z" fill="white"/>
<defs>
<linearGradient id="paint0_linear_1122_926" x1="0.83982" y1="-1.3058e-07" x2="31.0545" y2="32.3757" gradientUnits="userSpaceOnUse">
<stop stop-color="#197AFF"/>
<stop offset="1" stop-color="#9815FF"/>
</linearGradient>
</defs>
</svg>
