<svg width="32" height="32" viewBox="0 0 32 32" fill="none" xmlns="http://www.w3.org/2000/svg">
<rect width="32" height="32" rx="16" fill="white"/>
<path d="M18.7903 11.6421H13.9403V20.3578H18.7903V11.6421Z" fill="#FF5F00"/>
<path d="M14.2483 15.9999C14.2475 15.1606 14.4377 14.332 14.8045 13.577C15.1713 12.822 15.705 12.1603 16.3653 11.6421C15.5476 10.9994 14.5656 10.5997 13.5315 10.4887C12.4974 10.3777 11.4529 10.5599 10.5174 11.0144C9.58197 11.469 8.79326 12.1776 8.24147 13.0592C7.68967 13.9408 7.39706 14.9599 7.39706 15.9999C7.39706 17.04 7.68967 18.0591 8.24147 18.9407C8.79326 19.8223 9.58197 20.5309 10.5174 20.9854C11.4529 21.44 12.4974 21.6222 13.5315 21.5112C14.5656 21.4002 15.5476 21.0005 16.3653 20.3578C15.705 19.8395 15.1713 19.1779 14.8045 18.4229C14.4377 17.6679 14.2475 16.8393 14.2483 15.9999Z" fill="#EB001B"/>
<path d="M25.3333 15.9999C25.3334 17.04 25.0408 18.0591 24.489 18.9407C23.9373 19.8223 23.1486 20.5309 22.2131 20.9854C21.2777 21.44 20.2332 21.6222 19.1991 21.5112C18.165 21.4002 17.183 21.0005 16.3653 20.3578C17.0251 19.839 17.5584 19.1773 17.9251 18.4224C18.2919 17.6675 18.4824 16.8392 18.4824 15.9999C18.4824 15.1607 18.2919 14.3324 17.9251 13.5775C17.5584 12.8226 17.0251 12.1609 16.3653 11.6421C17.183 10.9994 18.165 10.5997 19.1991 10.4887C20.2332 10.3777 21.2777 10.5599 22.2131 11.0145C23.1486 11.469 23.9373 12.1776 24.489 13.0592C25.0408 13.9408 25.3334 14.9599 25.3333 15.9999Z" fill="#F79E1B"/>
<rect x="0.25" y="0.25" width="31.5" height="31.5" rx="15.75" stroke="#E5E6E8" stroke-opacity="0.8" stroke-width="0.5"/>
</svg>