<svg width="32" height="32" viewBox="0 0 32 32" fill="none" xmlns="http://www.w3.org/2000/svg">
<rect width="32" height="32" rx="16" fill="#4DB45E"/>
<path d="M10.7367 12.0031V12H12.9617V19H10.7367V14.8459H10.5513L9.2534 19H7.70828L6.41038 14.8428H6.22497V19H4V12H6.22497C6.22497 12 7.20148 11.9969 7.46106 12.917C7.7021 13.776 8.38813 16.1572 8.38813 16.1572H8.57355C8.59209 16.093 9.26267 13.7638 9.50062 12.9201C9.75967 12.0019 10.7297 12.003 10.7367 12.0031Z" fill="white"/>
<path d="M17.9061 12.7336C18.212 12.0581 18.8641 12 18.8641 12H20.9654V19H18.7404V14.8428H18.555L17.0099 18.2664C16.704 18.9389 16.021 19 16.021 19H13.9197V12H16.1446V16.1572H16.3301L17.9061 12.7336Z" fill="white"/>
<path d="M21.9542 15.1792V19.0002H24.1792V16.7687H26.5896C27.6403 16.7687 28.5302 16.1054 28.8609 15.1792H21.9542Z" fill="white"/>
<path d="M21.6421 12H26.5896C27.9214 12 28.9999 13.0668 28.9999 14.3843C28.9999 14.5524 28.9845 14.7144 28.9505 14.8734H25.1371C24.8158 14.8734 24.5036 14.8306 24.207 14.7511C22.8998 14.4026 21.8893 13.3328 21.6421 12Z" fill="white"/>
</svg>