<svg width="32" height="32" viewBox="0 0 32 32" fill="none" xmlns="http://www.w3.org/2000/svg">
<rect width="32" height="32" rx="16" fill="#3252FC"/>
<path fill-rule="evenodd" clip-rule="evenodd" d="M13.7143 8C13.7932 8 13.8572 8.07163 13.8572 8.16V8.8C13.8572 9.24183 14.177 9.6 14.5715 9.6H17.4286C17.8231 9.6 18.1429 9.24183 18.1429 8.8V8.16C18.1429 8.07163 18.2069 8 18.2858 8C19.4859 8 20.0859 8 20.5443 8.26158C20.9475 8.49168 21.2753 8.85883 21.4808 9.31042C21.7143 9.82381 21.7143 10.4959 21.7143 11.84V20.16C21.7143 21.5041 21.7143 22.1762 21.4808 22.6896C21.2753 23.1412 20.9475 23.5083 20.5443 23.7384C20.0859 24 19.4859 24 18.2858 24H13.7143C12.5142 24 11.9142 24 11.4558 23.7384C11.0526 23.5083 10.7248 23.1412 10.5193 22.6896C10.2858 22.1762 10.2858 21.5041 10.2858 20.16V11.84C10.2858 10.4959 10.2858 9.82381 10.5193 9.31042C10.7248 8.85883 11.0526 8.49168 11.4558 8.26158C11.9142 8 12.5142 8 13.7143 8ZM16.0001 22.8571C16.6312 22.8571 17.1429 22.3455 17.1429 21.7143C17.1429 21.0831 16.6312 20.5714 16.0001 20.5714C15.3689 20.5714 14.8572 21.0831 14.8572 21.7143C14.8572 22.3455 15.3689 22.8571 16.0001 22.8571Z" fill="white"/>
</svg>
