<svg width="32" height="32" viewBox="0 0 32 32" fill="none" xmlns="http://www.w3.org/2000/svg">
<rect x="0.25" y="0.25" width="31.5" height="31.5" rx="15.75" fill="white"/>
<path d="M18.3263 16.0002C18.3263 17.285 17.2847 18.3265 16 18.3265C14.7152 18.3265 13.6737 17.285 13.6737 16.0002C13.6737 14.7155 14.7152 13.6739 16 13.6739C17.2847 13.6739 18.3263 14.7155 18.3263 16.0002Z" fill="#FCDB04"/>
<path d="M14.6604 13.1996C14.004 11.8236 13.5305 9.0901 16.1264 7.30273C16.5246 7.73891 17.4198 8.97915 17.8142 10.4508C17.3537 10.9053 16.4507 12.0004 16.329 12.9137C16.2209 12.9023 16.1111 12.8964 16 12.8964C15.5202 12.8964 15.0659 13.0053 14.6604 13.1996Z" fill="#FF4083"/>
<path d="M13.1994 17.3398C11.8234 17.9962 9.08986 18.4697 7.30249 15.8738C7.73866 15.4755 8.97891 14.5804 10.4505 14.186C10.9051 14.6465 12.0001 15.5495 12.9134 15.6712C12.902 15.7793 12.8962 15.8891 12.8962 16.0002C12.8962 16.4799 13.005 16.9342 13.1994 17.3398Z" fill="#FF4083"/>
<path d="M13.0724 14.9671C11.6353 14.4583 9.36757 12.8602 9.93931 9.76078C10.5293 9.78759 12.0393 10.0316 13.3588 10.7933C13.3545 11.4403 13.4904 12.8532 14.0501 13.585C13.9656 13.6534 13.8839 13.7269 13.8053 13.8055C13.466 14.1447 13.2218 14.5429 13.0724 14.9671Z" fill="#FF4083"/>
<path d="M14.9669 18.9278C14.4581 20.3649 12.86 22.6326 9.76053 22.0609C9.78735 21.4708 10.0314 19.9609 10.7931 18.6414C11.4401 18.6456 12.853 18.5098 13.5848 17.9501C13.6532 18.0346 13.7267 18.1163 13.8053 18.1949C14.1445 18.5341 14.5427 18.7784 14.9669 18.9278Z" fill="#FF4083"/>
<path d="M18.9275 17.0333C20.3647 17.5421 22.6324 19.1402 22.0606 22.2396C21.4706 22.2128 19.9607 21.9688 18.6412 21.2071C18.6454 20.5601 18.5096 19.1472 17.9498 18.4154C18.0343 18.347 18.1161 18.2735 18.1947 18.1949C18.5339 17.8557 18.7782 17.4575 18.9275 17.0333Z" fill="#FF4083"/>
<path d="M17.3396 18.8008C17.996 20.1768 18.4695 22.9103 15.8736 24.6977C15.4753 24.2615 14.5802 23.0213 14.1857 21.5497C14.6463 21.0951 15.5493 20.0001 15.6709 19.0867C15.7791 19.0981 15.8888 19.104 16 19.104C16.4797 19.104 16.934 18.9951 17.3396 18.8008Z" fill="#FF4083"/>
<path d="M17.0331 13.0727C17.5419 11.6355 19.1399 9.36781 22.2394 9.93956C22.2126 10.5296 21.9685 12.0395 21.2069 13.359C20.5598 13.3548 19.147 13.4906 18.4151 14.0504C18.3467 13.9659 18.2732 13.8841 18.1947 13.8055C17.8554 13.4663 17.4572 13.222 17.0331 13.0727Z" fill="#FF4083"/>
<path d="M18.8006 14.6606C20.1766 14.0042 22.9101 13.5307 24.6974 16.1266C24.2613 16.5249 23.021 17.42 21.5494 17.8144C21.0949 17.3539 19.9998 16.4509 19.0865 16.3292C19.0979 16.2211 19.1037 16.1113 19.1037 16.0002C19.1037 15.5205 18.9949 15.0662 18.8006 14.6606Z" fill="#FF4083"/>
<rect x="0.25" y="0.25" width="31.5" height="31.5" rx="15.75" stroke="#E5E6E8" stroke-width="0.5"/>
</svg>
