<svg width="32" height="32" viewBox="0 0 32 32" fill="none" xmlns="http://www.w3.org/2000/svg">
<rect width="32" height="32" rx="16" fill="#FF8C00"/>
<path d="M21.9566 20.1047C22.002 20.4536 21.8998 20.6047 21.7862 20.6047C21.6727 20.6047 21.5137 20.4652 21.3434 20.1861C21.173 19.9071 21.1049 19.5931 21.1957 19.4303C21.2525 19.3257 21.3661 19.2792 21.5251 19.3373C21.809 19.442 21.9225 19.8954 21.9566 20.1047ZM20.344 20.8722C20.6961 21.1745 20.7983 21.535 20.6166 21.7792C20.5144 21.9187 20.344 21.9885 20.151 21.9885C19.9579 21.9885 19.7535 21.9187 19.6172 21.7908C19.2993 21.5117 19.2084 21.0466 19.4128 20.7908C19.4923 20.6861 19.6286 20.628 19.7762 20.628C19.9693 20.6396 20.1737 20.721 20.344 20.8722ZM19.7649 23.7792C21.2639 23.7792 22.8878 24.3024 24.682 25.942C24.8637 26.1047 25.1022 25.9071 24.9432 25.6978C23.1717 23.4071 21.5364 22.9768 19.9125 22.6047C17.9252 22.1513 16.8918 21.0117 16.1764 19.7443C16.0287 19.4885 15.9719 19.535 15.9606 19.8606C15.9492 20.2559 15.9719 20.7792 16.0628 21.2908C15.9833 21.2908 15.9038 21.2908 15.8243 21.2908C12.9739 21.2908 10.6573 18.9187 10.6573 16.0001C10.6573 13.0815 12.9739 10.7094 15.8243 10.7094C18.6747 10.7094 20.9913 13.0815 20.9913 16.0001C20.9913 16.2094 20.98 16.4187 20.9572 16.6164C20.5825 16.5466 19.833 16.535 19.3106 16.5815C19.1176 16.5931 19.1403 16.6978 19.2879 16.721C20.9913 17.035 22.1723 18.1164 22.4335 20.0931C22.4449 20.1396 22.5017 20.1513 22.5244 20.1164C23.2285 18.9187 23.6259 17.5117 23.6259 16.0117C23.6259 11.5931 20.1283 8.01172 15.813 8.01172C11.4977 8.01172 8 11.5815 8 16.0001C8 20.4187 11.4977 24.0001 15.813 24.0001C16.9599 24.0117 18.0955 23.7792 19.7649 23.7792Z" fill="white"/>
</svg>