<svg width="32" height="32" viewBox="0 0 32 32" fill="none" xmlns="http://www.w3.org/2000/svg">
<g clip-path="url(#clip0_1095_2025)">
<rect width="32" height="32" rx="16" fill="white"/>
<path d="M15.4302 11.92H18.0222C18.9822 11.92 19.7618 12.7008 19.7618 13.6608C19.7618 14.6131 18.9822 15.3888 18.0222 15.3888H15.4302V11.92Z" fill="#42B8EB"/>
<path fill-rule="evenodd" clip-rule="evenodd" d="M0 16C0 7.17811 7.17811 0 16 0C24.8219 0 32 7.17811 32 16C32 24.8219 24.8219 32 16 32C7.17811 32 0 24.8219 0 16ZM15.2505 18.4589H18.6611C21.3154 18.4589 23.4762 16.3065 23.4762 13.6589C23.4762 11.0029 21.3154 8.84211 18.6611 8.84211H13.9874C13.2901 8.84211 12.7242 9.408 12.7242 10.1053V15.9326H12.4632C11.7659 15.9326 11.2 16.4985 11.2 17.1958C11.2 17.8931 11.7659 18.4589 12.4632 18.4589H12.7242V19.1326H12.4632C11.7659 19.1326 11.2 19.6985 11.2 20.3958C11.2 21.0931 11.7659 21.6589 12.4632 21.6589H12.7242V23.1579C12.7242 23.8552 13.2901 24.4211 13.9874 24.4211C14.6846 24.4211 15.2505 23.8552 15.2505 23.1579V21.6589H16.5592C17.2564 21.6589 17.8223 21.0931 17.8223 20.3958C17.8223 19.6985 17.2564 19.1326 16.5592 19.1326H15.2505V18.4589Z" fill="#42B8EB"/>
</g>
<defs>
<clipPath id="clip0_1095_2025">
<rect width="32" height="32" rx="16" fill="white"/>
</clipPath>
</defs>
</svg>
