<svg width="32" height="32" viewBox="0 0 32 32" fill="none" xmlns="http://www.w3.org/2000/svg">
<rect width="32" height="32" rx="16" fill="white"/>
<path d="M7.99988 10.4417L10.471 14.8588V17.5531L8.00277 21.9615L7.99988 10.4417Z" fill="#5B57A2"/>
<path d="M17.4881 13.2515L19.8037 11.8322L24.5427 11.8278L17.4881 16.1495V13.2515Z" fill="#D90751"/>
<path d="M17.4751 10.4157L17.4882 16.2637L15.0112 14.7418V6L17.4751 10.4157Z" fill="#FAB718"/>
<path d="M24.5427 11.8278L19.8037 11.8322L17.4751 10.4157L15.0112 6L24.5427 11.8278Z" fill="#ED6F26"/>
<path d="M17.4882 21.9859V19.1486L15.0112 17.6556L15.0126 26.406L17.4882 21.9859Z" fill="#63B22F"/>
<path d="M19.798 20.5796L10.471 14.8588L7.99988 10.4417L24.5327 20.5738L19.798 20.5796Z" fill="#1487C9"/>
<path d="M15.0126 26.406L17.4882 21.9859L19.798 20.5796L24.5327 20.5738L15.0126 26.406Z" fill="#017F36"/>
<path d="M8.00277 21.9615L15.0315 17.6558L12.6685 16.2059L10.471 17.5531L8.00277 21.9615Z" fill="#984995"/>
<rect x="0.25" y="0.25" width="31.5" height="31.5" rx="15.75" stroke="#E5E6E8" stroke-opacity="0.8" stroke-width="0.5"/>
</svg>
