<svg width="32" height="32" viewBox="0 0 32 32" fill="none" xmlns="http://www.w3.org/2000/svg">
<rect width="32" height="32" rx="16" fill="#8A8E98" fill-opacity="0.5"/>
<path fill-rule="evenodd" clip-rule="evenodd" d="M18.9084 18.4635C18.7909 18.6593 18.5834 18.7677 18.3709 18.7677C18.2625 18.7677 18.1517 18.7393 18.0517 18.6785L15.4059 17.0952C15.2167 16.9827 15.1017 16.7785 15.1017 16.5585V13.151C15.1017 12.8052 15.3817 12.526 15.7267 12.526C16.0717 12.526 16.3517 12.8052 16.3517 13.151V16.2043L18.6925 17.606C18.9892 17.7835 19.0859 18.1677 18.9084 18.4635ZM16 8.0835C11.6342 8.0835 8.08337 11.6352 8.08337 16.0002C8.08337 20.366 11.6342 23.9168 16 23.9168C20.365 23.9168 23.9167 20.366 23.9167 16.0002C23.9167 11.6352 20.365 8.0835 16 8.0835Z" fill="white"/>
</svg>
