<svg width="32" height="32" viewBox="0 0 32 32" fill="none" xmlns="http://www.w3.org/2000/svg">
<rect width="32" height="32" rx="16" fill="#E87E04"/>
<path d="M14.2966 19.2731H12.6409L13.6757 12.9134H15.3316L14.2966 19.2731ZM11.2479 12.9134L9.6694 17.2877L9.48261 16.3458L9.48278 16.3461L8.92564 13.4861C8.92564 13.4861 8.85828 12.9134 8.14021 12.9134H5.53059L5.49997 13.0211C5.49997 13.0211 6.29799 13.1872 7.23195 13.748L8.67047 19.2733H10.3956L13.0299 12.9134H11.2479ZM24.2713 19.2731H25.7917L24.4661 12.9133H23.1351C22.5205 12.9133 22.3708 13.3872 22.3708 13.3872L19.9013 19.2731H21.6274L21.9725 18.3285H24.0774L24.2713 19.2731ZM22.4494 17.0235L23.3194 14.6435L23.8088 17.0235H22.4494ZM20.0308 14.4428L20.2671 13.0771C20.2671 13.0771 19.538 12.7998 18.7779 12.7998C17.9562 12.7998 16.005 13.1589 16.005 14.9052C16.005 16.5482 18.2951 16.5686 18.2951 17.4316C18.2951 18.2946 16.2409 18.14 15.563 17.5958L15.3168 19.0238C15.3168 19.0238 16.0562 19.3829 17.1857 19.3829C18.3157 19.3829 20.0203 18.7978 20.0203 17.2055C20.0203 15.552 17.7095 15.398 17.7095 14.6791C17.7097 13.96 19.3223 14.0524 20.0308 14.4428Z" fill="white"/>
</svg>