<svg width="32" height="32" viewBox="0 0 32 32" fill="none" xmlns="http://www.w3.org/2000/svg">
<rect width="32" height="32" rx="16" fill="#9C00FF"/>
<path fill-rule="evenodd" clip-rule="evenodd" d="M12.2178 16.5C12.2178 12.9209 15.049 10 18.6083 10C22.1271 10 24.9988 12.9209 24.9988 16.5C24.9988 20.0791 22.1271 23 18.6083 23C15.0895 23 12.2178 20.1203 12.2178 16.5ZM16.222 16.5C16.222 17.8165 17.314 18.9272 18.6083 18.9272C19.9026 18.9272 20.9542 17.8165 20.9946 16.5C20.9946 15.1835 19.9026 14.0728 18.6083 14.0728C17.314 14.0728 16.222 15.1835 16.222 16.5Z" fill="white"/>
<path d="M12.1771 21.3546V11.8926H7L9.91214 21.3546H12.1771Z" fill="white"/>
</svg>
