<svg width="20" height="20" viewBox="0 0 20 20" fill="none" xmlns="http://www.w3.org/2000/svg">
<path d="M11.8174 4.11367C11.5239 3.82141 11.049 3.82243 10.7568 4.11595C10.4645 4.40948 10.4655 4.88435 10.7591 5.17661L14.85 9.24996H3.33331C2.9191 9.24996 2.58331 9.58574 2.58331 9.99996C2.58331 10.4142 2.9191 10.75 3.33331 10.75H14.8499L10.759 14.8239C10.4655 15.1162 10.4645 15.5911 10.7568 15.8846C11.0491 16.1781 11.524 16.1791 11.8175 15.8868L17.1745 10.5519C17.3234 10.4148 17.4166 10.2183 17.4166 9.99996C17.4166 9.78405 17.3254 9.58946 17.1794 9.45262L11.8174 4.11367Z" fill="#3252FC"/>
</svg>