<svg width="25" height="24" viewBox="0 0 25 24" fill="none" xmlns="http://www.w3.org/2000/svg">
<path d="M15.1978 5.29093C14.8083 4.90188 14.178 4.90319 13.7901 5.29386C13.4022 5.68452 13.4035 6.3166 13.793 6.70565L18.0927 11H4.55945C3.97433 11 3.5 11.4477 3.5 12C3.5 12.5523 3.97433 13 4.55945 13H18.0927L13.793 17.2944C13.4035 17.6834 13.4022 18.3155 13.7901 18.7061C14.178 19.0968 14.8083 19.0981 15.1978 18.7091L21.207 12.7074C21.3946 12.52 21.5 12.2655 21.5 12C21.5 11.7345 21.3946 11.48 21.207 11.2926L15.1978 5.29093Z" fill="white"/>
</svg>