<svg width="943" height="784" viewBox="0 0 943 784" fill="none" xmlns="http://www.w3.org/2000/svg">
<path opacity="0.8" fill-rule="evenodd" clip-rule="evenodd" d="M756.788 81.8507C731.662 103.883 705.792 146.658 690.273 217.521C665.723 329.625 692.081 440.403 736.414 534.262C787.826 487.67 833.316 413 864.686 303.904C884.989 233.294 884.438 176.797 873.429 136.563C862.329 95.9966 841.47 74.0344 822.162 66.0195C804.135 58.5365 781.116 60.5181 756.788 81.8507ZM766.138 590.531C833.934 534.522 888.646 444.922 924.266 321.046C946.959 242.123 947.885 173.772 933.224 120.191C918.654 66.9425 887.798 26.124 845.924 8.74165C802.768 -9.17263 755.135 0.831828 715.921 35.2179C677.505 68.9043 646.943 125.58 629.714 204.251C600.387 338.164 634.361 467.103 685.176 570.754C613.153 609.429 529.83 605.97 446.503 563.803C411.344 546.011 389.59 524.169 376.866 500.854C405.854 503.746 434.097 503.112 460.2 498.026C502.012 489.879 539.994 469.849 564.335 433.136C600.477 378.625 610.724 310.528 584.115 261.025C570.294 235.313 546.958 216.044 515.543 208.692C484.931 201.529 449.448 206.27 410.71 222.223C394.666 228.831 379.642 242.34 367.134 256.873C354.024 272.107 341.262 291.303 330.443 312.843C314.912 343.761 302.476 381.37 299.81 420.861C254.309 405.899 208.408 383.128 168.183 354.993C116.03 318.515 75.9413 274.816 57.0823 230.296L0 254.491C24.9644 313.424 74.8838 365.407 132.657 405.815C184.986 442.416 245.83 470.995 305.493 487.319C318.624 538.864 353.495 586.235 418.518 619.139C516.759 668.853 622.069 675.207 714.671 625.318C755.667 694.59 802.284 749.961 838.14 784L880.817 739.019C848.548 708.384 804.631 656.313 766.138 590.531ZM361.281 436.233C393.743 441.652 423.463 442.005 448.346 437.156C478.501 431.281 499.823 418.238 512.67 398.861C540.523 356.85 542.026 313.673 529.512 290.393C523.772 279.713 514.83 272.214 501.42 269.076C487.207 265.75 465.319 266.797 434.312 279.567C431.56 280.701 424.198 285.619 414.118 297.332C404.642 308.343 394.616 323.212 385.839 340.685C371.273 369.682 361.326 403.427 361.281 436.233Z" fill="url(#paint0_linear_1081_372)"/>
<defs>
<linearGradient id="paint0_linear_1081_372" x1="878.477" y1="611.542" x2="-284.518" y2="184.172" gradientUnits="userSpaceOnUse">
<stop stop-color="#42B8EB" stop-opacity="0.12"/>
<stop offset="1" stop-color="#42B8EB" stop-opacity="0"/>
</linearGradient>
</defs>
</svg>