<svg width="24" height="24" viewBox="0 0 24 24" fill="none" xmlns="http://www.w3.org/2000/svg">
<rect x="24" y="24" width="24" height="24" rx="12" transform="rotate(-180 24 24)" fill="#1BD1D5"/>
<path d="M11 18.2001C11 18.7523 11.4477 19.2001 12 19.2001C12.5523 19.2001 13 18.7523 13 18.2001L13 8.21427L16.2929 11.5072C16.6834 11.8977 17.3166 11.8977 17.7071 11.5072C18.0976 11.1166 18.0976 10.4835 17.7071 10.093L12.7099 5.09575C12.701 5.08674 12.6919 5.0779 12.6826 5.06923C12.5957 4.98798 12.4979 4.92513 12.394 4.88066C12.2731 4.82878 12.1399 4.80005 12 4.80005C11.8605 4.80005 11.7277 4.82861 11.6071 4.8802C11.502 4.92505 11.403 4.98871 11.3153 5.07118C11.3069 5.07912 11.2986 5.0872 11.2904 5.09542L6.29289 10.093C5.90237 10.4835 5.90237 11.1166 6.29289 11.5072C6.68342 11.8977 7.31658 11.8977 7.70711 11.5072L11 8.21427L11 18.2001Z" fill="white"/>
</svg>