<svg width="57" height="56" viewBox="0 0 57 56" fill="none" xmlns="http://www.w3.org/2000/svg">
<path d="M25.9672 10.3468C22.4754 9.6511 18.8553 10.0067 15.5648 11.3686C12.2744 12.7306 9.46137 15.0377 7.48168 17.9981C5.50198 20.9585 4.44454 24.4392 4.44312 27.9999C4.4417 31.5606 5.49636 35.0413 7.47369 38.0017C9.45102 40.9621 12.2622 43.2692 15.5516 44.6311C18.841 45.9931 22.4608 46.3487 25.9531 45.6529C29.4454 44.9572 32.6534 43.2414 35.1712 40.7226C35.6593 40.2343 36.4508 40.2339 36.9389 40.7219C37.4271 41.2098 37.4271 42.0013 36.9389 42.4897C34.0715 45.3583 30.418 47.3124 26.4406 48.1048C22.4632 48.8971 18.3407 48.4921 14.5944 46.941C10.8482 45.3899 7.64657 42.7624 5.3946 39.3908C3.14264 36.0192 1.9415 32.0551 1.94312 27.9999C1.94474 23.9447 3.14904 19.9805 5.4037 16.609C7.65835 13.2374 10.8621 10.6099 14.6095 9.05876C18.357 7.50765 22.4799 7.10266 26.4567 7.89501C30.433 8.68728 34.0845 10.641 36.9496 13.5092L36.9505 13.5101L42.2516 18.7977L42.2539 13.0593C42.2542 12.3689 42.814 11.8093 43.5044 11.8093C44.1948 11.8093 44.7542 12.3689 44.7539 13.0593L44.7504 21.8093C44.7501 22.4996 44.1903 23.0593 43.4999 23.0593H34.7499C34.0596 23.0593 33.5001 22.4996 33.5004 21.8093C33.5007 21.1189 34.0606 20.5593 34.7509 20.5593H40.4769L35.183 15.2788L35.1813 15.2772C32.6656 12.7583 29.459 11.0426 25.9672 10.3468Z" fill="white"/>
<path d="M22.4589 16.2499C23.1492 16.2499 23.7086 16.8096 23.7084 17.4999L23.7045 27.278L32.1771 32.1672C32.775 32.5122 32.9797 33.2766 32.6345 33.8746C32.2893 34.4725 31.5248 34.6776 30.9269 34.3326L21.85 29.0947C21.8071 29.071 21.7657 29.0448 21.726 29.0164C21.5727 28.9069 21.4507 28.7675 21.3632 28.611C21.2849 28.4715 21.2326 28.3153 21.2129 28.1492C21.2059 28.091 21.203 28.0321 21.2042 27.9731L21.2084 17.4999C21.2086 16.8096 21.7685 16.2499 22.4589 16.2499Z" fill="white"/>
</svg>