<svg width="40" height="40" viewBox="0 0 40 40" fill="none" xmlns="http://www.w3.org/2000/svg">
<path d="M20.7031 14.2936C20.7031 13.6033 20.1435 13.0436 19.4531 13.0436C18.7628 13.0436 18.2031 13.6033 18.2031 14.2936V21.1239C18.2031 21.5637 18.4343 21.9712 18.8119 22.1969L24.1032 25.359C24.6958 25.7132 25.4633 25.5199 25.8175 24.9273C26.1716 24.3347 25.9783 23.5672 25.3857 23.213L20.7031 20.4147V14.2936Z" fill="white"/>
<path fill-rule="evenodd" clip-rule="evenodd" d="M3.75 20C3.75 11.0248 11.0248 3.75 20 3.75C28.9752 3.75 36.25 11.0248 36.25 20C36.25 28.9734 28.9753 36.25 20 36.25C11.0247 36.25 3.75 28.9734 3.75 20ZM18.75 7.70325V6.30604C12.1531 6.90039 6.90039 12.1531 6.30604 18.75H7.70325C8.39361 18.75 8.95325 19.3096 8.95325 20C8.95325 20.6904 8.39361 21.25 7.70325 21.25H6.30606C6.90052 27.8457 12.1532 33.0995 18.75 33.6939V32.2983C18.75 31.608 19.3096 31.0483 20 31.0483C20.6904 31.0483 21.25 31.608 21.25 32.2983V33.6939C27.8467 33.0995 33.0995 27.8457 33.6939 21.25H32.2983C31.608 21.25 31.0483 20.6904 31.0483 20C31.0483 19.3096 31.608 18.75 32.2983 18.75H33.694C33.0996 12.1531 27.8469 6.90039 21.25 6.30604V7.70325C21.25 8.39361 20.6904 8.95325 20 8.95325C19.3096 8.95325 18.75 8.39361 18.75 7.70325Z" fill="white"/>
</svg>