<svg width="24" height="24" viewBox="0 0 24 24" fill="none" xmlns="http://www.w3.org/2000/svg">
<path d="M19.0713 4.92888C18.6807 4.53836 18.0476 4.53836 17.657 4.92888L12.0002 10.5857L6.34337 4.92889C5.95285 4.53837 5.31968 4.53837 4.92916 4.92889C4.53863 5.31942 4.53863 5.95258 4.92916 6.34311L10.586 11.9999L4.92912 17.6568C4.5386 18.0473 4.5386 18.6805 4.92912 19.071C5.31965 19.4615 5.95281 19.4615 6.34334 19.071L12.0002 13.4142L17.6571 19.071C18.0476 19.4616 18.6808 19.4616 19.0713 19.071C19.4618 18.6805 19.4618 18.0473 19.0713 17.6568L13.4144 11.9999L19.0713 6.34309C19.4618 5.95257 19.4618 5.3194 19.0713 4.92888Z" fill="#161819"/>
</svg>