<svg width="57" height="56" viewBox="0 0 57 56" fill="none" xmlns="http://www.w3.org/2000/svg">
<path fill-rule="evenodd" clip-rule="evenodd" d="M8.72293 11.8947C5.49847 13.3462 3.01629 15.5563 3.01177 18.3644L3.01172 18.3751L3.01726 27.1251C3.01904 29.94 5.5048 32.154 8.73529 33.607C11.0172 34.6333 13.8634 35.3783 17.0227 35.7446L17.0239 37.6251C17.0257 40.44 19.5114 42.654 22.7419 44.107C26.0659 45.602 30.5874 46.5001 35.5295 46.5001C40.4716 46.5001 44.9921 45.602 48.3141 44.107C51.5428 42.654 54.0257 40.44 54.0239 37.6251L54.0184 28.8932L54.0184 28.8751C54.0168 26.4054 52.0853 24.4011 49.4869 22.9874C47.0311 21.6512 43.7297 20.6906 40.0129 20.2531L40.0117 18.396L40.0118 18.3751C40.01 15.5619 37.5228 13.348 34.2924 11.8947C30.9681 10.3992 26.4466 9.50012 21.5061 9.50012C16.5657 9.50012 12.0453 10.3992 8.72293 11.8947ZM9.54481 13.7186C6.44141 15.1155 5.01079 16.8391 5.01176 18.3751C5.01274 19.9111 6.44554 21.6347 9.55071 23.0317C10.9991 23.6833 12.7294 24.2213 14.6611 24.6042C14.6938 24.609 14.7261 24.6154 14.7578 24.6233C16.817 25.0246 19.1019 25.2501 21.5161 25.2501C23.9306 25.2501 26.2156 25.0245 28.2745 24.6231C28.3056 24.6154 28.3372 24.6091 28.3694 24.6044C30.3009 24.2215 32.0309 23.6834 33.4787 23.0317C36.572 21.6393 38.0034 19.9224 38.0117 18.3902L38.0117 18.3751L38.0117 18.367C38.0057 16.833 36.5725 15.113 33.4728 13.7186C30.4615 12.3639 26.232 11.5001 21.5074 11.5001C16.7828 11.5001 12.5544 12.3639 9.54481 13.7186ZM27.5171 26.7881C25.6323 27.0884 23.6126 27.2501 21.5174 27.2501C19.4221 27.2501 17.4022 27.0884 15.5171 26.7881L15.5213 33.512C17.3777 33.8262 19.3995 34.0001 21.5216 34.0001C23.6437 34.0001 25.6653 33.8262 27.5213 33.512L27.5171 26.7881ZM29.5211 33.1046L29.5168 26.4066C31.2855 26.0107 32.8996 25.4861 34.3006 24.8555C35.7369 24.209 37.0259 23.4119 38.0143 22.4785L38.0173 27.1251C38.0182 28.6634 36.5881 30.3869 33.4857 31.7831C32.3303 32.3031 30.9952 32.7506 29.5211 33.1046ZM29.5224 35.2607L29.5224 35.1576C31.2917 34.762 32.9062 34.2376 34.3074 33.607C37.5361 32.154 40.019 29.94 40.0173 27.1251L40.0142 22.2677C43.4476 22.6954 46.4028 23.5857 48.5319 24.744C50.935 26.0515 52.0139 27.5334 52.0184 28.8682L52.0184 28.8751L52.0184 28.8881C52.0113 30.4231 50.5804 32.1408 47.4868 33.533C46.0425 34.1831 44.3172 34.7199 42.3906 35.1024C42.3486 35.1079 42.3074 35.1161 42.2672 35.1266C40.2122 35.5259 37.9322 35.7501 35.5228 35.7501C33.4049 35.7501 31.3817 35.5749 29.5224 35.2607ZM27.5235 36.9075C26.2982 36.635 25.1482 36.3022 24.0933 35.918C23.2524 35.9722 22.3942 36.0001 21.5229 36.0001C20.6759 36.0001 19.8412 35.9737 19.0228 35.9225L19.0239 37.6251C19.0249 39.1634 20.4573 40.8869 23.5614 42.2831C24.7174 42.8031 26.0531 43.2506 27.5277 43.6046L27.5235 36.9075ZM29.528 44.012L29.5237 37.2874C31.4081 37.587 33.4286 37.7501 35.524 37.7501C37.6194 37.7501 39.639 37.5886 41.5236 37.2887L41.5279 44.012C39.672 44.3262 37.6503 44.5001 35.5283 44.5001C33.4062 44.5001 31.3843 44.3262 29.528 44.012ZM13.5168 26.4065C11.7476 26.0107 10.1329 25.4861 8.73113 24.8555C7.29396 24.209 6.00388 23.4119 5.01432 22.4784L5.01726 27.1251C5.01823 28.6634 6.4506 30.3869 9.55473 31.7831C10.7108 32.3031 12.0465 32.7506 13.5211 33.1046L13.5168 26.4065ZM43.5234 36.9076L43.5276 43.6047C45.0018 43.2506 46.337 42.8031 47.4923 42.2831C50.5947 40.8869 52.0249 39.1634 52.0239 37.6251L52.021 32.9807C51.033 33.9139 49.7446 34.7107 48.3086 35.357C46.9073 35.9876 45.2928 36.512 43.5234 36.9076Z" fill="white"/>
</svg>