<svg width="24" height="24" viewBox="0 0 24 24" fill="none" xmlns="http://www.w3.org/2000/svg">
<rect x="24" y="24" width="24" height="24" rx="12" transform="rotate(-180 24 24)" fill="#1BD1D5"/>
<path fill-rule="evenodd" clip-rule="evenodd" d="M15.9961 5.77209H8.00475C6.71541 5.77209 5.66675 6.82076 5.66675 8.10943V13.1101C5.66675 14.3994 6.71541 15.4488 8.00475 15.4488H11.5001V17.2288H9.37008C9.09342 17.2288 8.87008 17.4528 8.87008 17.7288C8.87008 18.0048 9.09342 18.2288 9.37008 18.2288H14.6301C14.9061 18.2288 15.1301 18.0048 15.1301 17.7288C15.1301 17.4528 14.9061 17.2288 14.6301 17.2288H12.5001V15.4488H15.9961C17.2854 15.4488 18.3334 14.3994 18.3334 13.1101V8.10943C18.3334 6.82076 17.2854 5.77209 15.9961 5.77209Z" fill="white"/>
</svg>