<svg width="57" height="56" viewBox="0 0 57 56" fill="none" xmlns="http://www.w3.org/2000/svg">
<path fill-rule="evenodd" clip-rule="evenodd" d="M22.6447 43.2499H49.0065C49.8022 43.2499 50.5654 42.9339 51.1283 42.3712C51.6912 41.8086 52.0077 41.0456 52.0081 40.2499L52.0107 34.9999C52.0118 32.9495 51.7501 30.9122 51.2354 28.937C51.2284 28.8888 51.2186 28.8405 51.2057 28.7923C51.1928 28.7441 51.1773 28.6974 51.1593 28.6522C50.8937 27.6819 50.5668 26.7272 50.1797 25.7942C48.9693 22.8763 47.1946 20.2265 44.9574 17.9967C42.7201 15.7668 40.0644 14.0009 37.1425 12.8003C34.2208 11.5996 31.0904 10.9878 27.9311 10.9999C17.0285 11.0381 7.88945 18.4421 4.97948 28.4371C4.91049 28.5438 4.85674 28.663 4.82204 28.7923C4.78863 28.9168 4.77526 29.042 4.77994 29.1644C4.2787 31.1096 4.01168 33.1463 4.01061 35.2405L4.00806 40.2499C4.00765 41.0456 4.32333 41.8086 4.88566 42.3712C5.44798 42.9339 6.21088 43.2499 7.00653 43.2499H22.6039C22.6175 43.2501 22.6311 43.2501 22.6447 43.2499ZM36.1913 15.1127C33.9853 14.2062 31.6467 13.6744 29.2716 13.5361L29.2687 19.25C29.2683 19.9404 28.7084 20.5 28.0181 20.5C27.3277 20.5 26.7683 19.9404 26.7687 19.25L26.7716 13.5357C17.8603 14.0519 10.4131 20.0862 7.65531 28.2568L13.1336 29.7238C13.8004 29.9023 14.1959 30.5877 14.017 31.2545C13.8381 31.9214 13.1525 32.3172 12.4858 32.1387L6.99318 30.6679C6.6778 32.1439 6.51141 33.6739 6.51061 35.2405L6.50806 40.2499C6.50799 40.3825 6.5606 40.5097 6.65432 40.6035C6.74804 40.6972 6.87519 40.7499 7.0078 40.7499H22.0103L36.6072 21.7482C37.0278 21.2006 37.8126 21.0975 38.36 21.5179C38.9074 21.9383 39.0101 22.723 38.5894 23.2706L25.162 40.7499H49.0078C49.1404 40.7499 49.2676 40.6972 49.3614 40.6035C49.4552 40.5097 49.508 40.3825 49.5081 40.2499L49.5107 34.9999C49.5115 33.5377 49.3631 32.083 49.07 30.6579L43.5385 32.1386C42.8716 32.3172 42.1864 31.9213 42.0082 31.2545C41.83 30.5876 42.2262 29.9022 42.8932 29.7237L48.4248 28.2429C48.2587 27.7403 48.0739 27.2434 47.8705 26.7531C46.7862 24.1392 45.1963 21.7654 43.1921 19.7678C41.1879 17.7703 38.8088 16.1883 36.1913 15.1127Z" fill="white"/>
</svg>