<svg width="28" height="28" viewBox="0 0 28 28" fill="none" xmlns="http://www.w3.org/2000/svg">
<rect x="28" y="28" width="28" height="28" rx="14" transform="rotate(-180 28 28)" fill="#1BD1D5"/>
<path d="M15.7897 7.14537C15.8554 6.69795 15.6127 6.26208 15.1978 6.08233C14.7828 5.90258 14.2988 6.0237 14.0174 6.37771L7.21717 14.9333C6.97834 15.2338 6.93257 15.6444 7.09939 15.9901C7.26621 16.3358 7.61617 16.5555 8.00001 16.5555H12.8423L12.2104 20.8545C12.1446 21.3019 12.3873 21.7378 12.8023 21.9176C13.2172 22.0973 13.7012 21.9762 13.9826 21.6222L20.7828 13.0666C21.0217 12.7661 21.0674 12.3555 20.9006 12.0098C20.7338 11.6641 20.3838 11.4444 20 11.4444L15.1577 11.4444L15.7897 7.14537Z" fill="white"/>
</svg>
