<svg width="133" height="32" viewBox="0 0 133 32" fill="none" xmlns="http://www.w3.org/2000/svg">
<path fill-rule="evenodd" clip-rule="evenodd" d="M66.3495 8.72325C65.0081 7.36407 63.2195 6.68448 60.9838 6.68448C58.1221 6.68448 55.8304 7.65373 54.1089 9.59223L55.6181 0H50.1182L46.1945 24.5989H51.3255L51.8285 21.4906C52.924 23.8302 55.0256 25 58.1332 25C61.0173 25 63.4431 24.0196 65.4105 22.0588C67.3779 20.098 68.3616 17.5022 68.3616 14.2714C68.3616 11.9318 67.6909 10.0824 66.3495 8.72325ZM61.2856 19.151C60.1901 20.2428 58.7816 20.7887 57.0601 20.7887C55.5622 20.7887 54.4331 20.3431 53.673 19.4518C52.9128 18.5606 52.6334 17.3908 52.8346 15.9425L52.9352 15.4077C53.2482 14.0263 53.9077 12.9345 54.9138 12.1323C55.9199 11.3079 57.1495 10.8957 58.6027 10.8957C59.9665 10.8957 61.0285 11.2745 61.7886 12.0321C62.5488 12.7674 62.9288 13.7589 62.9288 15.0067C62.9288 16.6778 62.3811 18.0592 61.2856 19.151Z" fill="url(#paint0_linear_601_14936)"/>
<path d="M46.5841 7.08555H41.0842L39.8099 14.9064H39.8434C39.5528 16.5552 38.9379 17.9033 37.9989 18.9505C37.0599 19.9755 35.875 20.4879 34.4441 20.4879C31.9178 20.4879 30.9117 18.828 31.4259 15.508L32.7674 7.08555H27.2675L25.6578 17.2125C25.2777 19.6858 25.5795 21.602 26.5632 22.9612C27.5693 24.3204 29.2126 25 31.493 25C34.8019 25 37.3841 23.6631 39.2398 20.9893L38.6697 24.5989H43.8006L46.5841 7.08555Z" fill="url(#paint1_linear_601_14936)"/>
<path d="M10.4393 7.2445L10.9364 4.43909L18.7907 9.65846L8.8154 14.9757L9.41193 12.2029C3.94251 12.2029 1.19306 14.656 0 24.5989H6.66127L8.05318 18.2704H11.8312L14.7807 24.5989H22.1048L18.393 17.357C20.7681 16.1827 25.399 12.5813 24.9217 7.57071C24.4445 2.56012 20.039 1.24223 17.8959 1.2096H5.00424L3.23271 9.65846C4.74899 8.15361 7.2701 6.98454 10.4393 7.2445Z" fill="url(#paint2_linear_601_14936)"/>
<path d="M86.8044 1.33301C89.02 1.33301 90.7991 1.83739 92.1419 2.84616C93.4846 3.85494 94.156 5.39051 94.156 7.45288C94.156 10.2774 93.272 12.3734 91.5041 13.7409C89.7361 15.1083 87.431 15.7921 84.5889 15.7921H76.4317L74.9882 24.871H71.0271L74.7532 1.33301H86.8044ZM84.7567 12.7321C86.3904 12.7321 87.6996 12.3286 88.6843 11.5216C89.6913 10.7146 90.1949 9.53768 90.1949 7.99089C90.1949 6.87004 89.8256 6.0294 89.0871 5.46897C88.371 4.88612 87.3527 4.5947 86.0323 4.5947H78.1773L76.9016 12.7321H84.7567Z" fill="#161819"/>
<path d="M103.858 6.84762C106.611 6.84762 108.614 7.44168 109.867 8.62978C111.143 9.81789 111.602 11.5776 111.244 13.909L109.498 24.871H106.007L106.577 21.3067C104.631 23.9519 101.833 25.2745 98.1853 25.2745C96.1935 25.2745 94.6941 24.871 93.6871 24.064C92.7024 23.257 92.2101 22.1921 92.2101 20.8695C92.2101 18.9865 92.9709 17.5518 94.4927 16.5654C96.0145 15.5791 98.2972 14.9626 101.341 14.716L107.417 14.2116L107.585 13.1356C107.764 12.0596 107.506 11.1853 106.812 10.5128C106.119 9.84031 104.989 9.50405 103.422 9.50405C102.079 9.50405 100.927 9.76185 99.9644 10.2774C99.0245 10.793 98.3979 11.544 98.0846 12.5304H94.5599C95.0075 10.5577 96.0705 9.12296 97.7489 8.22627C99.4273 7.30717 101.464 6.84762 103.858 6.84762ZM99.6623 22.6181C101.632 22.6181 103.265 22.1249 104.563 21.1385C105.884 20.1522 106.667 18.908 106.913 17.4061L107.047 16.5318L101.441 16.969C97.816 17.2828 96.0033 18.3924 96.0033 20.2979C96.0033 20.9928 96.3054 21.5533 96.9097 21.9792C97.5363 22.4051 98.4538 22.6181 99.6623 22.6181Z" fill="#161819"/>
<path d="M128.77 7.25113H133L122.459 26.5859C121.363 28.6483 120.244 30.0606 119.103 30.8227C117.961 31.6073 116.372 31.9996 114.336 31.9996C113.508 31.9996 112.702 31.9548 111.919 31.8651L112.389 28.9397C113.127 29.0069 113.843 29.0406 114.537 29.0406C115.611 29.0406 116.451 28.8388 117.055 28.4353C117.682 28.0318 118.319 27.2584 118.968 26.1151L119.64 24.871H117.793L112.691 7.25113H116.786L120.815 23.0216L128.77 7.25113Z" fill="#161819"/>
<defs>
<linearGradient id="paint0_linear_601_14936" x1="-14.4797" y1="-8.57367" x2="-10.7394" y2="34.3671" gradientUnits="userSpaceOnUse">
<stop stop-color="#3252FC"/>
<stop offset="1" stop-color="#1BD1D5"/>
</linearGradient>
<linearGradient id="paint1_linear_601_14936" x1="-14.4797" y1="-8.57367" x2="-10.7394" y2="34.3671" gradientUnits="userSpaceOnUse">
<stop stop-color="#3252FC"/>
<stop offset="1" stop-color="#1BD1D5"/>
</linearGradient>
<linearGradient id="paint2_linear_601_14936" x1="-14.4797" y1="-8.57367" x2="-10.7394" y2="34.3671" gradientUnits="userSpaceOnUse">
<stop stop-color="#3252FC"/>
<stop offset="1" stop-color="#1BD1D5"/>
</linearGradient>
</defs>
</svg>
