<svg width="33" height="32" viewBox="0 0 33 32" fill="none" xmlns="http://www.w3.org/2000/svg">
<rect x="0.5" width="32" height="32" rx="16" fill="white"/>
<path d="M19.2902 11.6421H14.4402V20.3578H19.2902V11.6421Z" fill="#FF5F00"/>
<path d="M14.7482 15.9999C14.7474 15.1606 14.9376 14.332 15.3044 13.577C15.6712 12.822 16.2049 12.1603 16.8652 11.6421C16.0476 10.9994 15.0655 10.5997 14.0314 10.4887C12.9973 10.3777 11.9528 10.5599 11.0173 11.0144C10.0819 11.469 9.29318 12.1776 8.74138 13.0592C8.18959 13.9408 7.89697 14.9599 7.89697 15.9999C7.89697 17.04 8.18959 18.0591 8.74138 18.9407C9.29318 19.8223 10.0819 20.5309 11.0173 20.9854C11.9528 21.44 12.9973 21.6222 14.0314 21.5112C15.0655 21.4002 16.0476 21.0005 16.8652 20.3578C16.2049 19.8395 15.6712 19.1779 15.3044 18.4229C14.9376 17.6679 14.7474 16.8393 14.7482 15.9999Z" fill="#EB001B"/>
<path d="M25.8332 15.9999C25.8333 17.04 25.5407 18.0591 24.9889 18.9407C24.4372 19.8223 23.6485 20.5309 22.713 20.9854C21.7776 21.44 20.7331 21.6222 19.699 21.5112C18.6649 21.4002 17.6829 21.0005 16.8652 20.3578C17.525 19.839 18.0583 19.1773 18.425 18.4224C18.7917 17.6675 18.9823 16.8392 18.9823 15.9999C18.9823 15.1607 18.7917 14.3324 18.425 13.5775C18.0583 12.8226 17.525 12.1609 16.8652 11.6421C17.6829 10.9994 18.6649 10.5997 19.699 10.4887C20.7331 10.3777 21.7776 10.5599 22.713 11.0145C23.6485 11.469 24.4372 12.1776 24.9889 13.0592C25.5407 13.9408 25.8333 14.9599 25.8332 15.9999Z" fill="#F79E1B"/>
<path d="M25.3044 19.4349V19.2564H25.3764V19.2201H25.1931V19.2564H25.2651V19.4349H25.3044ZM25.6602 19.4349V19.2197H25.604L25.5394 19.3677L25.4748 19.2197H25.4186V19.4349H25.4582V19.2726L25.5188 19.4125H25.5599L25.6205 19.2722V19.4349H25.6602Z" fill="#F79E1B"/>
<rect x="0.75" y="0.25" width="31.5" height="31.5" rx="15.75" stroke="#E5E6E8" stroke-opacity="0.8" stroke-width="0.5"/>
</svg>