<svg width="148" height="32" viewBox="0 0 148 32" fill="none" xmlns="http://www.w3.org/2000/svg">
<rect x="115.5" width="32" height="32" rx="16" fill="#26A69A"/>
<path fill-rule="evenodd" clip-rule="evenodd" d="M124.3 7.2002H138.7V11.2002H133.9V13.6813C137.263 13.9055 141.1 14.6375 141.1 16.4001C141.1 18.1627 137.263 18.8947 133.9 19.1189V25.6H129.1V19.119C125.737 18.8948 121.9 18.1628 121.9 16.4001C121.9 14.6374 125.737 13.9054 129.1 13.6812V11.2002H124.3V7.2002ZM133.9 17.5269C133.569 17.5477 133.226 17.5624 132.878 17.5744C132.79 17.5776 132.7 17.58 132.61 17.5824C132.246 17.5928 131.878 17.6 131.5 17.6C131.122 17.6 130.754 17.5928 130.39 17.5832C130.3 17.5808 130.21 17.5784 130.122 17.5752C129.868 17.5664 129.618 17.556 129.372 17.5429C125.987 17.3567 123.5 16.7367 123.5 16.0001C123.5 15.2834 125.854 14.6771 129.1 14.4733V15.9218C129.826 15.9706 130.624 16.0002 131.5 16.0002C132.376 16.0002 133.174 15.9706 133.9 15.9218V14.4733C137.146 14.6771 139.5 15.2834 139.5 16.0001C139.5 16.7168 137.146 17.3231 133.9 17.5269Z" fill="white"/>
<rect x="92.5" width="32" height="32" rx="16" fill="white"/>
<path d="M100.5 10.4417L102.971 14.8588V17.5531L100.503 21.9615L100.5 10.4417Z" fill="#5B57A2"/>
<path d="M109.988 13.2515L112.304 11.8322L117.043 11.8278L109.988 16.1495V13.2515Z" fill="#D90751"/>
<path d="M109.975 10.4157L109.988 16.2637L107.511 14.7418V6L109.975 10.4157Z" fill="#FAB718"/>
<path d="M117.043 11.8278L112.304 11.8322L109.975 10.4157L107.511 6L117.043 11.8278Z" fill="#ED6F26"/>
<path d="M109.988 21.9859V19.1486L107.511 17.6556L107.513 26.406L109.988 21.9859Z" fill="#63B22F"/>
<path d="M112.298 20.5796L102.971 14.8588L100.5 10.4417L117.033 20.5738L112.298 20.5796Z" fill="#1487C9"/>
<path d="M107.513 26.406L109.988 21.9859L112.298 20.5796L117.033 20.5738L107.513 26.406Z" fill="#017F36"/>
<path d="M100.503 21.9615L107.532 17.6558L105.169 16.2059L102.971 17.5531L100.503 21.9615Z" fill="#984995"/>
<rect x="92.75" y="0.25" width="31.5" height="31.5" rx="15.75" stroke="#E5E6E8" stroke-opacity="0.8" stroke-width="0.5"/>
<rect x="69.5" width="32" height="32" rx="16" fill="#9C00FF"/>
<path fill-rule="evenodd" clip-rule="evenodd" d="M81.7178 16.5C81.7178 12.9209 84.549 10 88.1083 10C91.6271 10 94.4988 12.9209 94.4988 16.5C94.4988 20.0791 91.6271 23 88.1083 23C84.5895 23 81.7178 20.1203 81.7178 16.5ZM85.722 16.5C85.722 17.8165 86.814 18.9272 88.1083 18.9272C89.4026 18.9272 90.4542 17.8165 90.4946 16.5C90.4946 15.1835 89.4026 14.0728 88.1083 14.0728C86.814 14.0728 85.722 15.1835 85.722 16.5Z" fill="white"/>
<path d="M81.6771 21.3546V11.8926H76.5L79.4121 21.3546H81.6771Z" fill="white"/>
<rect x="46.5" width="32" height="32" rx="16" fill="#FF8C00"/>
<path d="M68.4566 20.1047C68.502 20.4536 68.3998 20.6047 68.2862 20.6047C68.1727 20.6047 68.0137 20.4652 67.8434 20.1861C67.673 19.9071 67.6049 19.5931 67.6957 19.4303C67.7525 19.3257 67.8661 19.2792 68.0251 19.3373C68.309 19.442 68.4225 19.8954 68.4566 20.1047ZM66.844 20.8722C67.1961 21.1745 67.2983 21.535 67.1166 21.7792C67.0144 21.9187 66.844 21.9885 66.651 21.9885C66.4579 21.9885 66.2535 21.9187 66.1172 21.7908C65.7993 21.5117 65.7084 21.0466 65.9128 20.7908C65.9923 20.6861 66.1286 20.628 66.2762 20.628C66.4693 20.6396 66.6737 20.721 66.844 20.8722ZM66.2649 23.7792C67.7639 23.7792 69.3878 24.3024 71.182 25.942C71.3637 26.1047 71.6022 25.9071 71.4432 25.6978C69.6717 23.4071 68.0364 22.9768 66.4125 22.6047C64.4252 22.1513 63.3918 21.0117 62.6764 19.7443C62.5287 19.4885 62.4719 19.535 62.4606 19.8606C62.4492 20.2559 62.4719 20.7792 62.5628 21.2908C62.4833 21.2908 62.4038 21.2908 62.3243 21.2908C59.4739 21.2908 57.1573 18.9187 57.1573 16.0001C57.1573 13.0815 59.4739 10.7094 62.3243 10.7094C65.1747 10.7094 67.4913 13.0815 67.4913 16.0001C67.4913 16.2094 67.48 16.4187 67.4572 16.6164C67.0825 16.5466 66.333 16.535 65.8106 16.5815C65.6176 16.5931 65.6403 16.6978 65.7879 16.721C67.4913 17.035 68.6723 18.1164 68.9335 20.0931C68.9449 20.1396 69.0017 20.1513 69.0244 20.1164C69.7285 18.9187 70.1259 17.5117 70.1259 16.0117C70.1259 11.5931 66.6283 8.01172 62.313 8.01172C57.9977 8.01172 54.5 11.5815 54.5 16.0001C54.5 20.4187 57.9977 24.0001 62.313 24.0001C63.4599 24.0117 64.5955 23.7792 66.2649 23.7792Z" fill="white"/>
<rect x="23.5" width="32" height="32" rx="16" fill="white"/>
<path d="M42.2903 11.6421H37.4402V20.3578H42.2903V11.6421Z" fill="#FF5F00"/>
<path d="M37.7482 15.9999C37.7474 15.1606 37.9376 14.332 38.3044 13.577C38.6712 12.822 39.2049 12.1603 39.8652 11.6421C39.0476 10.9994 38.0655 10.5997 37.0314 10.4887C35.9973 10.3777 34.9528 10.5599 34.0173 11.0144C33.0819 11.469 32.2932 12.1776 31.7414 13.0592C31.1896 13.9408 30.897 14.9599 30.897 15.9999C30.897 17.04 31.1896 18.0591 31.7414 18.9407C32.2932 19.8223 33.0819 20.5309 34.0173 20.9854C34.9528 21.44 35.9973 21.6222 37.0314 21.5112C38.0655 21.4002 39.0476 21.0005 39.8652 20.3578C39.2049 19.8395 38.6712 19.1779 38.3044 18.4229C37.9376 17.6679 37.7474 16.8393 37.7482 15.9999Z" fill="#EB001B"/>
<path d="M48.8333 15.9999C48.8333 17.04 48.5407 18.0591 47.989 18.9407C47.4372 19.8223 46.6485 20.5309 45.7131 20.9854C44.7776 21.44 43.7331 21.6222 42.699 21.5112C41.6649 21.4002 40.6829 21.0005 39.8652 20.3578C40.525 19.839 41.0583 19.1773 41.425 18.4224C41.7918 17.6675 41.9823 16.8392 41.9823 15.9999C41.9823 15.1607 41.7918 14.3324 41.425 13.5775C41.0583 12.8226 40.525 12.1609 39.8652 11.6421C40.6829 10.9994 41.6649 10.5997 42.699 10.4887C43.7331 10.3777 44.7776 10.5599 45.7131 11.0145C46.6485 11.469 47.4372 12.1776 47.989 13.0592C48.5407 13.9408 48.8333 14.9599 48.8333 15.9999Z" fill="#F79E1B"/>
<rect x="23.75" y="0.25" width="31.5" height="31.5" rx="15.75" stroke="#E5E6E8" stroke-opacity="0.8" stroke-width="0.5"/>
<rect x="0.5" width="32" height="32" rx="16" fill="#E87E04"/>
<path d="M14.7967 19.2731H13.1409L14.1757 12.9134H15.8317L14.7967 19.2731ZM11.748 12.9134L10.1694 17.2877L9.98264 16.3458L9.98281 16.3461L9.42567 13.4861C9.42567 13.4861 9.35831 12.9134 8.64024 12.9134H6.03062L6 13.0211C6 13.0211 6.79803 13.1872 7.73198 13.748L9.1705 19.2733H10.8957L13.53 12.9134H11.748ZM24.7714 19.2731H26.2917L24.9662 12.9133H23.6352C23.0205 12.9133 22.8708 13.3872 22.8708 13.3872L20.4014 19.2731H22.1274L22.4726 18.3285H24.5774L24.7714 19.2731ZM22.9494 17.0235L23.8194 14.6435L24.3088 17.0235H22.9494ZM20.5308 14.4428L20.7671 13.0771C20.7671 13.0771 20.038 12.7998 19.2779 12.7998C18.4562 12.7998 16.505 13.1589 16.505 14.9052C16.505 16.5482 18.7951 16.5686 18.7951 17.4316C18.7951 18.2946 16.7409 18.14 16.063 17.5958L15.8169 19.0238C15.8169 19.0238 16.5562 19.3829 17.6858 19.3829C18.8157 19.3829 20.5203 18.7978 20.5203 17.2055C20.5203 15.552 18.2096 15.398 18.2096 14.6791C18.2097 13.96 19.8223 14.0524 20.5308 14.4428Z" fill="white"/>
</svg>