<svg width="24" height="24" viewBox="0 0 24 24" fill="none" xmlns="http://www.w3.org/2000/svg">
<rect x="24" y="24" width="24" height="24" rx="12" transform="rotate(-180 24 24)" fill="#1BD1D5"/>
<path fill-rule="evenodd" clip-rule="evenodd" d="M11.9667 16.1C11.6267 16.1 11.3333 15.8066 11.3333 15.4666C11.3333 15.1266 11.6267 14.8333 11.9667 14.8333C12.3067 14.8333 12.6 15.1266 12.6 15.4666C12.6 15.8066 12.3067 16.1 11.9667 16.1ZM13.8333 5.66663H10.1667C8.66002 5.66663 7.43335 6.89329 7.43335 8.39996V15.6C7.43335 17.1066 8.66002 18.3333 10.1667 18.3333H13.8333C15.34 18.3333 16.5667 17.1066 16.5667 15.6V8.39996C16.5667 6.89329 15.34 5.66663 13.8333 5.66663Z" fill="white"/>
</svg>