<svg width="100" height="100" viewBox="0 0 100 100" fill="none" xmlns="http://www.w3.org/2000/svg">
<path d="M49.9999 8C73.1486 8 91.9999 26.8423 91.9999 50.0243C91.9999 73.1577 73.1486 92 49.9999 92C26.8513 92 7.99994 73.1577 7.99994 50.0243C7.99994 26.8423 26.8513 8 49.9999 8ZM45.2162 33.3256C44.3243 33.3256 43.4729 33.5282 42.6621 33.9334C41.6486 34.5007 40.8378 35.3922 40.3918 36.4457C40.108 37.1751 39.6621 39.3632 39.6621 39.4038C39.2162 41.7945 38.9729 45.6845 38.9729 49.9797C38.9729 54.0764 39.2162 57.8003 39.581 60.2315C39.6216 60.2721 40.0675 62.987 40.554 63.919C41.4459 65.6208 43.1891 66.6744 45.054 66.6744H45.2162C46.4324 66.6339 48.9864 65.5803 48.9864 65.5398C53.2837 63.7569 61.7567 58.2055 65.1621 54.5181L65.4053 54.275C65.8513 53.8292 66.4189 53.1404 66.5405 52.9783C67.1891 52.1273 67.5134 51.0738 67.5134 50.0243C67.5134 48.8451 67.1486 47.7511 66.4594 46.8596C66.2972 46.6975 65.6891 46.0087 65.1216 45.4414C61.7972 41.8755 53.1216 36.0405 48.581 34.2576C47.8918 33.978 46.1486 33.3661 45.2162 33.3256Z" fill="#8A8E98" fill-opacity="0.3"/>
</svg>
