<svg width="33" height="32" viewBox="0 0 33 32" fill="none" xmlns="http://www.w3.org/2000/svg">
<rect x="0.5" width="32" height="32" rx="16" fill="#FF8C00"/>
<g clip-path="url(#clip0_705_573)">
<path d="M22.4566 20.1047C22.502 20.4536 22.3998 20.6047 22.2862 20.6047C22.1727 20.6047 22.0137 20.4652 21.8434 20.1861C21.673 19.9071 21.6049 19.5931 21.6957 19.4303C21.7525 19.3257 21.8661 19.2792 22.0251 19.3373C22.309 19.442 22.4225 19.8954 22.4566 20.1047ZM20.844 20.8722C21.1961 21.1745 21.2983 21.535 21.1166 21.7792C21.0144 21.9187 20.844 21.9885 20.651 21.9885C20.4579 21.9885 20.2535 21.9187 20.1172 21.7908C19.7993 21.5117 19.7084 21.0466 19.9128 20.7908C19.9923 20.6861 20.1286 20.628 20.2762 20.628C20.4693 20.6396 20.6737 20.721 20.844 20.8722ZM20.2649 23.7792C21.7639 23.7792 23.3878 24.3024 25.182 25.942C25.3637 26.1047 25.6022 25.9071 25.4432 25.6978C23.6717 23.4071 22.0364 22.9768 20.4125 22.6047C18.4252 22.1513 17.3918 21.0117 16.6764 19.7443C16.5287 19.4885 16.4719 19.535 16.4606 19.8606C16.4492 20.2559 16.4719 20.7792 16.5628 21.2908C16.4833 21.2908 16.4038 21.2908 16.3243 21.2908C13.4739 21.2908 11.1573 18.9187 11.1573 16.0001C11.1573 13.0815 13.4739 10.7094 16.3243 10.7094C19.1747 10.7094 21.4913 13.0815 21.4913 16.0001C21.4913 16.2094 21.48 16.4187 21.4572 16.6164C21.0825 16.5466 20.333 16.535 19.8106 16.5815C19.6176 16.5931 19.6403 16.6978 19.7879 16.721C21.4913 17.035 22.6723 18.1164 22.9335 20.0931C22.9449 20.1396 23.0017 20.1513 23.0244 20.1164C23.7285 18.9187 24.1259 17.5117 24.1259 16.0117C24.1259 11.5931 20.6283 8.01172 16.313 8.01172C11.9977 8.01172 8.5 11.5815 8.5 16.0001C8.5 20.4187 11.9977 24.0001 16.313 24.0001C17.4599 24.0117 18.5955 23.7792 20.2649 23.7792Z" fill="white"/>
</g>
<defs>
<clipPath id="clip0_705_573">
<rect width="17" height="18" fill="white" transform="translate(8.5 8)"/>
</clipPath>
</defs>
</svg>
