<svg width="33" height="32" viewBox="0 0 33 32" fill="none" xmlns="http://www.w3.org/2000/svg">
<rect x="0.5" width="32" height="32" rx="16" fill="white"/>
<path d="M8.5 10.4419L10.9712 14.859V17.5532L8.50289 21.9616L8.5 10.4419Z" fill="#5B57A2"/>
<path d="M17.9883 13.2513L20.3039 11.8321L25.0428 11.8276L17.9883 16.1493V13.2513Z" fill="#D90751"/>
<path d="M17.9751 10.4157L17.9882 16.2637L15.5112 14.7418V6L17.9751 10.4157Z" fill="#FAB718"/>
<path d="M25.0427 11.8278L20.3036 11.8322L17.9751 10.4157L15.5112 6L25.0427 11.8278Z" fill="#ED6F26"/>
<path d="M17.9882 21.9861V19.1488L15.5112 17.6558L15.5126 26.4062L17.9882 21.9861Z" fill="#63B22F"/>
<path d="M20.2981 20.5798L10.971 14.859L8.5 10.4419L25.0328 20.574L20.2981 20.5798Z" fill="#1487C9"/>
<path d="M15.5129 26.4059L17.9882 21.9858L20.298 20.5795L25.0327 20.5737L15.5129 26.4059Z" fill="#017F36"/>
<path d="M8.50293 21.9616L15.5316 17.6559L13.1686 16.2061L10.9712 17.5532L8.50293 21.9616Z" fill="#984995"/>
<rect x="0.75" y="0.25" width="31.5" height="31.5" rx="15.75" stroke="#E5E6E8" stroke-opacity="0.8" stroke-width="0.5"/>
</svg>
