<svg width="56" height="56" viewBox="0 0 56 56" fill="none" xmlns="http://www.w3.org/2000/svg">
<path fill-rule="evenodd" clip-rule="evenodd" d="M22.1036 13.1837C22.1036 14.8537 21.5634 16.3974 20.6485 17.65L22.8301 19.8268C23.3774 20.373 23.3784 21.2594 22.8323 21.8067C22.2862 22.3541 21.3997 22.355 20.8524 21.8089L18.6085 19.57C17.4285 20.3267 16.025 20.7655 14.5195 20.7655C10.3326 20.7655 6.93542 17.372 6.93542 13.1837C6.93542 8.99348 10.3322 5.59961 14.5195 5.59961C18.7068 5.59961 22.1036 8.99348 22.1036 13.1837ZM9.73542 13.1837C9.73542 10.5405 11.878 8.39961 14.5195 8.39961C17.161 8.39961 19.3036 10.5405 19.3036 13.1837C19.3036 14.5631 18.719 15.8062 17.784 16.679L17.7691 16.6928C16.9158 17.4827 15.774 17.9655 14.5195 17.9655C11.8776 17.9655 9.73542 15.8242 9.73542 13.1837Z" fill="white"/>
<path d="M28.9435 7.85095C28.1703 7.85095 27.5435 8.47775 27.5435 9.25095C27.5435 10.0242 28.1703 10.651 28.9435 10.651H39.3366C43.6351 10.651 47.122 14.1378 47.122 18.4363V30.8795C47.122 35.1798 43.6354 38.6646 39.3366 38.6646H16.6662C12.365 38.6646 8.87861 35.1796 8.87861 30.8795V26.6228C8.87861 25.8496 8.25181 25.2228 7.47861 25.2228C6.70541 25.2228 6.07861 25.8496 6.07861 26.6228V30.8795C6.07861 36.727 10.8195 41.4646 16.6662 41.4646H23.9288L20.4727 48.3706C20.1267 49.062 20.4067 49.9031 21.0982 50.2491C21.7896 50.5951 22.6306 50.3151 22.9767 49.6237L27.0599 41.4646H28.9991L33.0237 49.6181C33.366 50.3115 34.2055 50.5961 34.8988 50.2538C35.5921 49.9116 35.8768 49.0721 35.5345 48.3788L32.1216 41.4646H39.3366C45.1813 41.4646 49.922 36.7267 49.922 30.8795V18.4363C49.922 12.5914 45.1815 7.85095 39.3366 7.85095H28.9435Z" fill="white"/>
</svg>
