<svg width="28" height="28" viewBox="0 0 28 28" fill="none" xmlns="http://www.w3.org/2000/svg">
<rect x="28" y="28" width="28" height="28" rx="14" transform="rotate(-180 28 28)" fill="#1BD1D5"/>
<path fill-rule="evenodd" clip-rule="evenodd" d="M19.5984 9.00626C19.0618 8.46968 14.7799 7 13.9997 7C13.2196 7 8.93771 8.46968 8.40113 9.00702C7.97492 9.43476 7.98025 9.76507 8.01373 11.5925C8.02743 12.3338 8.0457 13.343 8.0457 14.7404C8.0457 19.6167 13.8308 21.4266 13.8894 21.4449C13.9252 21.4556 13.9625 21.4609 13.9997 21.4609C14.037 21.4609 14.0743 21.4556 14.1101 21.4449C14.1687 21.4266 19.9546 19.6167 19.9546 14.7404C19.9546 13.3468 19.9729 12.3391 19.9866 11.5978C20.0193 9.76583 20.0254 9.43552 19.5984 9.00626Z" fill="white"/>
</svg>
