<svg width="40" height="40" viewBox="0 0 40 40" fill="none" xmlns="http://www.w3.org/2000/svg">
<path d="M14.2172 21.9498C13.729 21.4616 12.9376 21.4616 12.4494 21.9498C11.9613 22.438 11.9613 23.2294 12.4494 23.7176C16.6043 27.8724 23.229 27.8724 27.3839 23.7176C27.872 23.2294 27.872 22.438 27.3839 21.9498C26.8957 21.4616 26.1043 21.4616 25.6161 21.9498C22.4376 25.1283 17.3957 25.1283 14.2172 21.9498Z" fill="white"/>
<path d="M16.6667 13.2503C17.357 13.2503 17.9167 13.8099 17.9167 14.5003V16.167C17.9167 16.8573 17.357 17.417 16.6667 17.417C15.9763 17.417 15.4167 16.8573 15.4167 16.167V14.5003C15.4167 13.8099 15.9763 13.2503 16.6667 13.2503Z" fill="white"/>
<path d="M24.5833 14.5003C24.5833 13.8099 24.0237 13.2503 23.3333 13.2503C22.643 13.2503 22.0833 13.8099 22.0833 14.5003V16.167C22.0833 16.8573 22.643 17.417 23.3333 17.417C24.0237 17.417 24.5833 16.8573 24.5833 16.167V14.5003Z" fill="white"/>
<path fill-rule="evenodd" clip-rule="evenodd" d="M20 3.91699C28.907 3.91699 36.25 10.3655 36.25 18.8337C36.25 27.1257 28.9174 33.7503 20 33.7503C19.035 33.7503 17.9621 33.6126 17.039 33.4668L11.5717 36.2786C11.1842 36.4779 10.7209 36.461 10.3489 36.234C9.97692 36.007 9.75 35.6027 9.75 35.167V30.4566C6.1142 27.6165 3.75 23.5861 3.75 18.8337C3.75 10.5416 11.0826 3.91699 20 3.91699ZM6.25 18.8337C6.25 12.1257 12.2507 6.41699 20 6.41699C27.7596 6.41699 33.75 11.9685 33.75 18.8337C33.75 25.5416 27.7493 31.2503 20 31.2503C19.116 31.2503 18.0436 31.1012 17.0514 30.9361C16.932 30.9148 16.8091 30.9108 16.6865 30.9253C16.6636 30.928 16.6408 30.9314 16.6179 30.9354C16.4882 30.958 16.3643 31.001 16.2501 31.0613L12.25 33.1185V29.8337C12.25 29.4337 12.0586 29.058 11.7352 28.8227C8.32772 26.3446 6.25 22.8604 6.25 18.8337Z" fill="white"/>
</svg>