<svg width="48" height="48" viewBox="0 0 24 24" fill="none" xmlns="http://www.w3.org/2000/svg">
    <path opacity="0.16" fill-rule="evenodd" clip-rule="evenodd"
        d="M12 21C16.9706 21 21 16.9706 21 12C21 7.02944 16.9706 3 12 3C7.02944 3 3 7.02944 3 12C3 16.9706 7.02944 21 12 21ZM12 24C18.6274 24 24 18.6274 24 12C24 5.37258 18.6274 0 12 0C5.37258 0 0 5.37258 0 12C0 18.6274 5.37258 24 12 24Z"
        fill="#8A8E98" />
    <path fill-rule="evenodd" clip-rule="evenodd"
        d="M4.20574 7.50003C1.72046 11.8047 3.19534 17.309 7.49997 19.7943C11.8046 22.2795 17.3089 20.8047 19.7942 16.5C22.2795 12.1954 20.8046 6.69108 16.5 4.2058C15.7825 3.79158 15.5367 2.8742 15.9509 2.15676C16.3651 1.43932 17.2825 1.19351 18 1.60772C23.7395 4.92143 25.706 12.2605 22.3923 18C19.0786 23.7395 11.7395 25.706 5.99997 22.3923C0.260459 19.0786 -1.70604 11.7395 1.60767 6.00003C2.02188 5.28259 2.93926 5.03678 3.6567 5.45099C4.37414 5.8652 4.61996 6.78259 4.20574 7.50003Z"
        fill="url(#paint0_angular_1063_1063)" />
    <defs>
        <radialGradient id="paint0_angular_1063_1063" cx="0" cy="0" r="1" gradientUnits="userSpaceOnUse"
            gradientTransform="translate(12 12) rotate(-144.611) scale(10.7494)">
            <stop offset="0.222802" stop-color="#8A8E98" stop-opacity="0" />
            <stop offset="1" stop-color="#8A8E98" />
        </radialGradient>
    </defs>
</svg>