<svg width="57" height="56" viewBox="0 0 57 56" fill="none" xmlns="http://www.w3.org/2000/svg">
<path d="M24.3324 7.00298C24.3324 6.31262 24.892 5.75293 25.5823 5.75286L35.3982 5.75195C36.0886 5.75189 36.6482 6.31148 36.6483 7.00184C36.6483 7.69219 36.0887 8.25189 35.3983 8.25195L25.5824 8.25286C24.8921 8.25293 24.3324 7.69334 24.3324 7.00298Z" fill="white"/>
<path d="M11.3655 31.1219C11.365 20.561 19.9256 11.9968 30.4891 11.9958C41.0504 11.9949 49.6114 20.5576 49.6118 31.1184C49.6122 41.6786 41.0527 50.2478 30.4913 50.2491L21.2315 50.2546C20.5411 50.255 19.9812 49.6957 19.9808 49.0054C19.9804 48.315 20.5398 47.755 21.2301 47.7546L30.4899 47.7491C39.6696 47.7482 47.1122 40.2996 47.1118 31.1186C47.1114 21.9381 39.6693 14.495 30.4892 14.4958C21.3066 14.4967 13.8651 21.9413 13.8655 31.1217C13.8655 31.812 13.3059 32.3717 12.6155 32.3718C11.9252 32.3719 11.3655 31.8123 11.3655 31.1219Z" fill="white"/>
<path d="M14.1847 43.0931C14.1847 42.4027 14.7443 41.843 15.4346 41.843L25.449 41.842C26.1393 41.842 26.699 42.4016 26.699 43.0919C26.699 43.7823 26.1394 44.342 25.4491 44.342L15.4347 44.343C14.7444 44.343 14.1847 43.7834 14.1847 43.0931Z" fill="white"/>
<path d="M9.64204 35.9326C8.95168 35.9326 8.39206 36.4923 8.39209 37.1827C8.39212 37.873 8.95178 38.4326 9.64214 38.4326L19.6564 38.4316C20.3468 38.4316 20.9064 37.8719 20.9064 37.1815C20.9064 36.4911 20.3467 35.9316 19.6563 35.9316L9.64204 35.9326Z" fill="white"/>
<path d="M38.2093 25.0757C38.6975 24.5875 38.6974 23.796 38.2092 23.3079C37.721 22.8198 36.9296 22.8199 36.4415 23.3081L29.5803 30.1704C29.0922 30.6586 29.0922 31.4501 29.5804 31.9382C30.0686 32.4263 30.8601 32.4262 31.3482 31.938L38.2093 25.0757Z" fill="white"/>
</svg>