<svg width="33" height="32" viewBox="0 0 33 32" fill="none" xmlns="http://www.w3.org/2000/svg">
<g clip-path="url(#clip0_705_590)">
<path d="M16.5 32C25.3366 32 32.5 24.8366 32.5 16C32.5 7.16344 25.3366 0 16.5 0C7.66344 0 0.5 7.16344 0.5 16C0.5 24.8366 7.66344 32 16.5 32Z" fill="#26A69A"/>
<path d="M23.7 7.2002H9.30005V11.2002H23.7V7.2002Z" fill="white"/>
<path d="M16.4999 13.6001C12.9343 13.6001 6.8999 14.1897 6.8999 16.4001C6.8999 18.6105 12.9343 19.2001 16.4999 19.2001C20.0655 19.2001 26.0999 18.6105 26.0999 16.4001C26.0999 14.1897 20.0655 13.6001 16.4999 13.6001ZM16.4999 17.6001C12.0815 17.6001 8.4999 16.8841 8.4999 16.0001C8.4999 15.1161 12.0815 14.4001 16.4999 14.4001C20.9183 14.4001 24.4999 15.1161 24.4999 16.0001C24.4999 16.8841 20.9183 17.6001 16.4999 17.6001Z" fill="white"/>
<path d="M16.5001 16.0002C17.3761 16.0002 18.1745 15.9706 18.9001 15.9218V7.2002H14.1001V15.9218C14.8257 15.9706 15.6241 16.0002 16.5001 16.0002Z" fill="white"/>
<path d="M17.8785 17.5744C17.7897 17.5776 17.7001 17.58 17.6097 17.5824C17.2457 17.5928 16.8777 17.6 16.5001 17.6C16.1225 17.6 15.7545 17.5928 15.3905 17.5832C15.3001 17.5808 15.2105 17.5784 15.1217 17.5752C14.7737 17.5632 14.4313 17.548 14.1001 17.5272V25.6H18.9001V17.5264C18.5689 17.5472 18.2265 17.5624 17.8785 17.5744Z" fill="white"/>
</g>
<defs>
<clipPath id="clip0_705_590">
<rect width="32" height="32" fill="white" transform="translate(0.5)"/>
</clipPath>
</defs>
</svg>
