<svg width="33" height="32" viewBox="0 0 33 32" fill="none" xmlns="http://www.w3.org/2000/svg">
<rect x="0.5" width="32" height="32" rx="16" fill="#E87E04"/>
<path d="M14.7967 19.2731H13.1409L14.1757 12.9134H15.8317L14.7967 19.2731ZM11.748 12.9134L10.1694 17.2877L9.98264 16.3458L9.98281 16.3461L9.42567 13.4861C9.42567 13.4861 9.35831 12.9134 8.64024 12.9134H6.03062L6 13.0211C6 13.0211 6.79803 13.1872 7.73198 13.748L9.1705 19.2733H10.8957L13.53 12.9134H11.748ZM24.7714 19.2731H26.2917L24.9662 12.9133H23.6352C23.0205 12.9133 22.8708 13.3872 22.8708 13.3872L20.4014 19.2731H22.1274L22.4726 18.3285H24.5774L24.7714 19.2731ZM22.9494 17.0235L23.8194 14.6435L24.3088 17.0235H22.9494ZM20.5308 14.4428L20.7671 13.0771C20.7671 13.0771 20.038 12.7998 19.2779 12.7998C18.4562 12.7998 16.505 13.1589 16.505 14.9052C16.505 16.5482 18.7951 16.5686 18.7951 17.4316C18.7951 18.2946 16.7409 18.14 16.063 17.5958L15.8169 19.0238C15.8169 19.0238 16.5562 19.3829 17.6858 19.3829C18.8157 19.3829 20.5203 18.7978 20.5203 17.2055C20.5203 15.552 18.2096 15.398 18.2096 14.6791C18.2097 13.96 19.8223 14.0524 20.5308 14.4428Z" fill="white"/>
</svg>
