<svg width="33" height="32" viewBox="0 0 33 32" fill="none" xmlns="http://www.w3.org/2000/svg">
<rect x="0.5" width="32" height="32" rx="16" fill="#9C00FF"/>
<g clip-path="url(#clip0_705_576)">
<path d="M19.1083 10C15.549 10 12.7178 12.9209 12.7178 16.5C12.7178 20.1203 15.5895 23 19.1083 23C22.6271 23 25.4988 20.0791 25.4988 16.5C25.4988 12.9209 22.6271 10 19.1083 10ZM19.1083 18.9272C17.814 18.9272 16.722 17.8165 16.722 16.5C16.722 15.1835 17.814 14.0728 19.1083 14.0728C20.4026 14.0728 21.4946 15.1835 21.4946 16.5C21.4542 17.8165 20.4026 18.9272 19.1083 18.9272Z" fill="white"/>
<path d="M12.6771 11.8926V21.3546H10.4121L7.5 11.8926H12.6771Z" fill="white"/>
</g>
<defs>
<clipPath id="clip0_705_576">
<rect width="18" height="13" fill="white" transform="translate(7.5 10)"/>
</clipPath>
</defs>
</svg>
