<?xml version="1.0" standalone="no"?>
<!DOCTYPE svg PUBLIC "-//W3C//DTD SVG 1.1//EN" "http://www.w3.org/Graphics/SVG/1.1/DTD/svg11.dtd" >
<svg xmlns="http://www.w3.org/2000/svg" xmlns:xlink="http://www.w3.org/1999/xlink" version="1.1">
<metadata>
Created by FontForge 20201107 at Wed Apr 11 17:04:42 2018
 By Unknown
Copyright (c) 2018 by Russian Fonts. All rights reserved.
</metadata>
<defs>
<font id="RFDewiExtended-Bold" horiz-adv-x="807" >
  <font-face 
    font-family="RF Dewi Extended"
    font-weight="700"
    font-stretch="semi-expanded"
    units-per-em="1000"
    panose-1="0 0 8 5 0 0 0 0 0 0"
    ascent="800"
    descent="-200"
    x-height="524"
    cap-height="700"
    bbox="-222 -233 1373 952"
    underline-thickness="50"
    underline-position="-200"
    unicode-range="U+0020-277E"
  />
<missing-glyph horiz-adv-x="600" 
 />
    <glyph glyph-name="f_f.liga" unicode="ff" horiz-adv-x="799" 
d="M721 638q-48 0 -67 -18.5t-19 -60.5v-35h135v-106h-135v-418h-141v418h-217v-418h-141v417h-116v107h116v37q0 97 44 136t135 39q34 0 86 -5v-109q-32 4 -55 4q-39 0 -54 -17t-15 -60v-25h217v49q0 97 47.5 136t146.5 39q43 0 95 -5v-109q-33 4 -62 4z" />
    <glyph glyph-name="f_f_i.liga" unicode="ffi" horiz-adv-x="1081" 
d="M494 573q0 97 45 136t138 39q42 0 90 -5v-109q-31 4 -55 4q-42 0 -59.5 -18.5t-17.5 -60.5v-35h132v-106h-132v-418h-141v418h-217v-418h-141v417h-116v107h116v37q0 97 44 136t135 39q34 0 86 -5v-109q-32 4 -55 4q-39 0 -54 -17t-15 -60v-25h217v49zM872 728h150v-132
h-150v132zM876 0v524h141v-524h-141z" />
    <glyph glyph-name="f_i.liga" unicode="fi" horiz-adv-x="722" 
d="M136 573q0 97 45 136t138 39q40 0 90 -5v-109q-32 4 -56 4q-42 0 -59 -18t-17 -61v-35h132v-106h-132v-418h-141v418h-116v106h116v49zM512 728h150v-132h-150v132zM517 0v524h141v-524h-141z" />
    <glyph glyph-name="f_l.liga" unicode="fl" horiz-adv-x="719" 
d="M136 573q0 97 45 136t138 39q40 0 90 -5v-109q-32 4 -56 4q-42 0 -59 -18t-17 -61v-35h132v-106h-132v-418h-141v418h-116v106h116v49zM514 736h141v-736h-141v736z" />
    <glyph glyph-name=".notdef" horiz-adv-x="600" 
 />
    <glyph glyph-name=".null" horiz-adv-x="0" 
 />
    <glyph glyph-name="nonmarkingreturn" horiz-adv-x="333" 
 />
    <glyph glyph-name="space" unicode=" " horiz-adv-x="265" 
 />
    <glyph glyph-name="exclam" unicode="!" horiz-adv-x="323" 
d="M220 231h-117l-15 469h147zM83 0v154h157v-154h-157z" />
    <glyph glyph-name="quotedbl" unicode="&#x22;" horiz-adv-x="418" 
d="M67 445l-11 255h121l-11 -255h-99zM252 445l-11 255h121l-11 -255h-99z" />
    <glyph glyph-name="numbersign" unicode="#" horiz-adv-x="665" 
d="M646 428h-126l-19 -155h115v-85h-125l-23 -190h-112l23 190h-131l-23 -190h-112l23 190h-118v85h129l18 155h-116v85h127l21 175h112l-21 -175h130l21 175h112l-21 -175h116v-85zM389 273l19 155h-131l-18 -155h130z" />
    <glyph glyph-name="dollar" unicode="$" horiz-adv-x="692" 
d="M656 193q0 -97 -72.5 -148t-201.5 -56v-85h-69v85q-134 7 -205.5 67.5t-77.5 169.5l133 5q9 -117 150 -131v193l-88 25q-166 48 -166 187q0 94 71.5 143t182.5 53v84h69v-86q108 -11 175 -66.5t75 -148.5l-134 -8q-3 42 -32 72t-84 39v-178l89 -25q94 -27 139.5 -71
t45.5 -120zM302 432l11 -3v162q-55 -3 -83.5 -23t-28.5 -53q0 -29 24.5 -48.5t76.5 -34.5zM382 99q132 9 132 83q0 30 -27.5 50t-88.5 38l-16 4v-175z" />
    <glyph glyph-name="percent" unicode="%" horiz-adv-x="952" 
d="M30 531q0 81 54 128t145 47q92 0 145.5 -47t53.5 -128t-53.5 -128.5t-145.5 -47.5q-91 0 -145 47.5t-54 128.5zM147 0l565 700h92l-564 -700h-93zM130 531q0 -45 27 -70.5t72 -25.5t72 25t27 71q0 45 -27 70.5t-72 25.5q-44 0 -71.5 -25.5t-27.5 -70.5zM524 170
q0 80 53.5 127.5t144.5 47.5q92 0 145.5 -47.5t53.5 -127.5q0 -81 -53.5 -128.5t-145.5 -47.5q-91 0 -144.5 47.5t-53.5 128.5zM622 170q0 -45 27.5 -71t72.5 -26t72.5 25.5t27.5 71.5q0 45 -27.5 70.5t-72.5 25.5t-72.5 -25.5t-27.5 -70.5z" />
    <glyph glyph-name="ampersand" unicode="&#x26;" horiz-adv-x="757" 
d="M752 0h-153l-56 58q-90 -70 -233 -70q-137 0 -204 49.5t-67 132.5q0 36 11 64t39.5 53t50.5 39.5t70 41.5l23 13l-11 12q-53 56 -75 94t-22 73q0 71 59 111.5t157 40.5q100 0 156.5 -43t56.5 -120q0 -49 -28.5 -86.5t-94.5 -76.5l-34 -19l145 -150q24 46 33 107h108
q-18 -107 -66 -184zM322 444l8 -8l27 16q76 43 76 92q0 33 -25.5 52t-66.5 19q-38 0 -63.5 -16t-25.5 -47q0 -22 15 -43t55 -65zM317 90q94 0 155 43l-171 177l-37 -21q-44 -25 -65 -50.5t-21 -58.5q0 -40 34 -65t105 -25z" />
    <glyph glyph-name="quotesingle" unicode="'" horiz-adv-x="233" 
d="M67 445l-11 255h121l-11 -255h-99z" />
    <glyph glyph-name="parenleft" unicode="(" horiz-adv-x="376" 
d="M367 736q-175 -167 -175 -444q0 -276 175 -443h-120q-77 64 -131.5 175t-54.5 268q0 158 54 269t132 175h120z" />
    <glyph glyph-name="parenright" unicode=")" horiz-adv-x="376" 
d="M129 736q77 -65 131.5 -175.5t54.5 -268.5q0 -157 -54.5 -268t-131.5 -175h-120q175 167 175 443q0 277 -175 444h120z" />
    <glyph glyph-name="asterisk" unicode="*" horiz-adv-x="404" 
d="M250 528l77 -29l57 -33l-37 -64l-57 33l-64 51l13 -80v-66h-74v66l13 80l-64 -51l-57 -33l-37 64l57 33l76 29l-76 30l-57 33l37 64l57 -33l64 -52l-13 81v66h74v-66l-13 -81l64 52l57 33l37 -64l-57 -33z" />
    <glyph glyph-name="plus" unicode="+" horiz-adv-x="533" 
d="M477 376v-94h-162v-147h-97v147h-163v94h163v148h97v-148h162z" />
    <glyph glyph-name="comma" unicode="," horiz-adv-x="285" 
d="M64 -130v284h157v-96l-94 -188h-63z" />
    <glyph glyph-name="hyphen" unicode="-" horiz-adv-x="426" 
d="M55 353h316v-109h-316v109z" />
    <glyph glyph-name="period" unicode="." horiz-adv-x="285" 
d="M64 0v154h157v-154h-157z" />
    <glyph glyph-name="slash" unicode="/" horiz-adv-x="453" 
d="M293 732h127l-276 -793h-127z" />
    <glyph glyph-name="zero" unicode="0" horiz-adv-x="731" 
d="M48 350q0 168 84.5 265t233.5 97t233 -96.5t84 -265.5t-84 -265.5t-233 -96.5t-233.5 97t-84.5 265zM191 350q0 -117 47 -181.5t128 -64.5t127.5 64.5t46.5 181.5t-46.5 181.5t-127.5 64.5t-128 -64.5t-47 -181.5z" />
    <glyph glyph-name="one" unicode="1" horiz-adv-x="468" 
d="M250 700h116v-700h-143v547l-184 -104v138z" />
    <glyph glyph-name="two" unicode="2" horiz-adv-x="634" 
d="M219 116h386v-116h-590v107l296 225q47 39 69.5 59t42 51t19.5 61q0 45 -33 69t-87 24q-133 0 -149 -143l-138 10q11 126 88 187.5t198 61.5q116 0 190 -52.5t74 -152.5q0 -62 -36.5 -115t-127.5 -121z" />
    <glyph glyph-name="three" unicode="3" horiz-adv-x="664" 
d="M381 430q125 -7 187 -61.5t62 -149.5q0 -115 -86.5 -173t-222.5 -58q-126 0 -206.5 55t-93.5 162l138 9q20 -110 162 -110q76 0 121 30t45 85q0 52 -41 82.5t-121 30.5q-53 0 -122 -13v97l211 168h-352v116h544v-104z" />
    <glyph glyph-name="four" unicode="4" horiz-adv-x="717" 
d="M690 268v-116h-124v-152h-143v152h-401v107l313 441h231v-432h124zM169 268h254v358z" />
    <glyph glyph-name="five" unicode="5" horiz-adv-x="672" 
d="M374 470q117 0 189.5 -62.5t72.5 -173.5q0 -118 -84 -182t-221 -64q-121 0 -205 52.5t-101 149.5l140 9q13 -46 58.5 -70.5t105.5 -24.5q73 0 118.5 34.5t45.5 95.5q0 63 -45.5 96t-117.5 33q-108 0 -159 -64l-126 11l34 390h510v-116h-405l-16 -188q76 74 206 74z" />
    <glyph glyph-name="six" unicode="6" horiz-adv-x="710" 
d="M406 460q117 0 192 -62t75 -171q0 -112 -81.5 -175.5t-220.5 -63.5q-323 0 -323 352q0 185 85.5 278.5t239.5 93.5q117 0 189 -51.5t82 -146.5l-137 -9q-6 40 -41.5 65.5t-92.5 25.5q-83 0 -131 -58.5t-51 -171.5q65 94 215 94zM370 104q73 0 117 33.5t44 89.5t-44 89
t-117 33t-116 -33t-43 -89t43 -89.5t116 -33.5z" />
    <glyph glyph-name="seven" unicode="7" horiz-adv-x="644" 
d="M30 700h587v-98q-237 -296 -307 -602h-153q73 298 313 584h-440v116z" />
    <glyph glyph-name="eight" unicode="8" horiz-adv-x="705" 
d="M483 366q85 -19 134 -65t49 -115q0 -64 -44.5 -110t-114 -67t-155.5 -21t-155.5 21t-114 67t-44.5 110q0 70 50 115.5t136 64.5q-79 18 -122 59.5t-43 103.5q0 89 83.5 136t209.5 47t210 -47t84 -136q0 -124 -163 -163zM197 509q0 -43 42 -67.5t113 -24.5t113 24.5
t42 67.5q0 42 -42 66.5t-113 24.5q-70 0 -112.5 -24.5t-42.5 -66.5zM352 100q77 0 126.5 27.5t49.5 76.5t-49.5 76t-126.5 27t-126 -27t-49 -76t49 -76.5t126 -27.5z" />
    <glyph glyph-name="nine" unicode="9" horiz-adv-x="710" 
d="M338 712q324 0 324 -352q0 -187 -83.5 -279.5t-239.5 -92.5q-117 0 -189 51t-84 146l137 9q9 -40 43.5 -65t92.5 -25q83 0 131 59.5t49 174.5q-64 -92 -215 -92q-117 0 -192 61.5t-75 168.5q0 110 82 173t219 63zM341 357q73 0 116 32.5t43 86.5q0 55 -43 87.5t-116 32.5
t-117 -32.5t-44 -87.5q0 -54 44 -86.5t117 -32.5z" />
    <glyph glyph-name="colon" unicode=":" horiz-adv-x="285" 
d="M64 358v154h157v-154h-157zM64 0v154h157v-154h-157z" />
    <glyph glyph-name="semicolon" unicode=";" horiz-adv-x="285" 
d="M64 358v154h157v-154h-157zM64 -130v284h157v-96l-94 -188h-63z" />
    <glyph glyph-name="less" unicode="&#x3c;" horiz-adv-x="519" 
d="M449 552v-114l-297 -107l297 -100v-113l-398 151v119z" />
    <glyph glyph-name="equal" unicode="=" horiz-adv-x="537" 
d="M57 458h422v-94h-422v94zM57 281h422v-94h-422v94z" />
    <glyph glyph-name="greater" unicode="&#x3e;" horiz-adv-x="518" 
d="M70 552l398 -164v-119l-398 -151v113l297 100l-297 107v114z" />
    <glyph glyph-name="question" unicode="?" horiz-adv-x="603" 
d="M19 474q10 119 88.5 178.5t201.5 59.5q113 0 187 -47.5t74 -141.5q0 -59 -32 -101t-103 -84q-51 -30 -67.5 -47.5t-16.5 -46.5v-10h-135v16q0 56 21 87.5t77 61.5q28 16 44 26t35 25.5t27.5 31.5t8.5 35q0 39 -33.5 59.5t-86.5 20.5q-140 0 -157 -131zM205 0v154h157
v-154h-157z" />
    <glyph glyph-name="at" unicode="@" horiz-adv-x="915" 
d="M539 465h105v-234q0 -49 16 -72t54 -23q94 0 94 138q0 137 -96 229t-254 92q-149 0 -250 -95t-101 -236q0 -153 98 -242.5t263 -89.5q126 0 211 47l33 -47q-100 -55 -244 -55q-193 0 -307.5 103t-114.5 284q0 169 118 277.5t294 108.5q183 0 297 -105t114 -268
q0 -104 -46.5 -159t-131.5 -55q-106 0 -139 80q-23 -45 -62 -67.5t-85 -22.5q-75 0 -125 57t-50 154t50.5 153.5t125.5 56.5q89 0 133 -71v62zM437 136q47 0 74.5 35t27.5 93t-27.5 93t-74.5 35t-74.5 -35t-27.5 -93t27.5 -93t74.5 -35z" />
    <glyph glyph-name="A" unicode="A" horiz-adv-x="800" 
d="M634 0l-60 160h-353l-60 -160h-146l274 700h221l276 -700h-152zM264 272h268l-134 357z" />
    <glyph glyph-name="B" unicode="B" horiz-adv-x="783" 
d="M527 359q102 -8 159.5 -50t57.5 -121q0 -90 -73.5 -139t-199.5 -49h-387v700h383q114 0 183 -46.5t69 -133.5q0 -142 -192 -161zM572 498q0 41 -30.5 64.5t-85.5 23.5h-224v-176h224q54 0 85 23.5t31 64.5zM457 114q139 0 139 94q0 93 -131 93h-233v-187h225z" />
    <glyph glyph-name="C" unicode="C" horiz-adv-x="796" 
d="M44 350q0 166 96.5 264t270.5 98q142 0 232 -64.5t108 -174.5l-142 -11q-13 59 -67.5 94.5t-130.5 35.5q-107 0 -163 -68.5t-56 -173.5q0 -108 60 -175t168 -67q83 0 134.5 39.5t64.5 101.5l143 -9q-18 -119 -105 -185.5t-237 -66.5q-179 0 -277.5 98t-98.5 264z" />
    <glyph glyph-name="D" unicode="D" horiz-adv-x="818" 
d="M406 700q174 0 271 -93t97 -257t-97 -257t-271 -93h-322v700h322zM390 121q115 0 175.5 61t60.5 168t-60.5 168t-175.5 61h-158v-458h158z" />
    <glyph glyph-name="E" unicode="E" horiz-adv-x="726" 
d="M232 116h450v-116h-598v700h581v-116h-433v-173h341v-110h-341v-185z" />
    <glyph glyph-name="F" unicode="F" horiz-adv-x="691" 
d="M650 579h-418v-179h336v-118h-336v-282h-148v700h566v-121z" />
    <glyph glyph-name="G" unicode="G" horiz-adv-x="814" 
d="M419 372h345v-316q-160 -68 -322 -68q-191 0 -294.5 97.5t-103.5 264.5q0 166 96.5 264t269.5 98q137 0 226 -60.5t111 -163.5l-142 -11q-18 52 -71 83.5t-124 31.5q-106 0 -162 -68.5t-56 -173.5q0 -109 65.5 -175.5t188.5 -66.5q88 0 183 30v135h-210v99z" />
    <glyph glyph-name="H" unicode="H" horiz-adv-x="839" 
d="M607 700h148v-700h-148v296h-375v-296h-148v700h148v-283h375v283z" />
    <glyph glyph-name="I" unicode="I" horiz-adv-x="316" 
d="M84 0v700h148v-700h-148z" />
    <glyph glyph-name="J" unicode="J" horiz-adv-x="673" 
d="M441 700h148v-467q0 -122 -72.5 -183.5t-203.5 -61.5q-133 0 -204 61.5t-71 174.5v66h136v-63q0 -59 35.5 -89t99.5 -30q132 0 132 135v457z" />
    <glyph glyph-name="K" unicode="K" horiz-adv-x="792" 
d="M592 0l-257 296h-103v-296h-148v700h148v-291h100l242 291h175l-301 -339l326 -361h-182z" />
    <glyph glyph-name="L" unicode="L" horiz-adv-x="655" 
d="M232 121h390v-121h-538v700h148v-579z" />
    <glyph glyph-name="M" unicode="M" horiz-adv-x="1068" 
d="M728 700h256l-1 -700h-141v619l-208 -619h-201l-208 618v-618h-141v700h258l194 -617z" />
    <glyph glyph-name="N" unicode="N" horiz-adv-x="855" 
d="M630 700h141v-700h-249l-297 614v-614h-141v700h250l296 -614v614z" />
    <glyph glyph-name="O" unicode="O" horiz-adv-x="852" 
d="M44 350q0 167 100 264.5t282 97.5t282.5 -97.5t100.5 -264.5t-100.5 -264.5t-282.5 -97.5t-282 97.5t-100 264.5zM192 350q0 -108 61.5 -175t172.5 -67t173 67t62 175t-62 175t-173 67t-172.5 -67t-61.5 -175z" />
    <glyph glyph-name="P" unicode="P" horiz-adv-x="757" 
d="M458 700q114 0 188 -55.5t74 -168.5q0 -112 -71.5 -164t-188.5 -52h-228v-260h-148v700h374zM445 373q60 0 93.5 26t33.5 77q0 52 -33.5 77.5t-93.5 25.5h-213v-206h213z" />
    <glyph glyph-name="Q" unicode="Q" horiz-adv-x="852" 
d="M809 350q0 -201 -142 -298l72 -86l-98 -63l-84 101q-57 -16 -131 -16q-182 0 -282 97.5t-100 264.5t100 264.5t282 97.5t282.5 -97.5t100.5 -264.5zM426 108q21 0 42 3l-50 60l97 63l64 -77q82 65 82 193q0 108 -62 175t-173 67t-172.5 -67t-61.5 -175t61.5 -175
t172.5 -67z" />
    <glyph glyph-name="R" unicode="R" horiz-adv-x="783" 
d="M581 0l-215 268h-134v-268h-148v700h384q114 0 188 -55t74 -165q0 -95 -54.5 -146t-147.5 -63l235 -271h-182zM232 582v-203h223q59 0 93 26t34 75t-34 75.5t-93 26.5h-223z" />
    <glyph glyph-name="S" unicode="S" horiz-adv-x="722" 
d="M169 233q5 -60 53 -96t145 -36q46 0 83 7.5t63.5 27t26.5 49.5q0 31 -27 50.5t-88 36.5l-190 52q-175 47 -175 187q0 101 81.5 151t205.5 50q133 0 218.5 -57.5t95.5 -162.5l-139 -7q-6 50 -50.5 82t-127.5 32q-64 0 -100.5 -20.5t-36.5 -57.5q0 -55 102 -83l183 -49
q98 -26 146.5 -70.5t48.5 -121.5q0 -105 -86 -157t-235 -52q-159 0 -243.5 61.5t-92.5 179.5z" />
    <glyph glyph-name="T" unicode="T" horiz-adv-x="702" 
d="M678 700v-121h-253v-579h-148v579h-253v121h654z" />
    <glyph glyph-name="U" unicode="U" horiz-adv-x="844" 
d="M422 -12q-168 0 -253 74.5t-85 217.5v420h148v-407q0 -184 190 -184t190 184v407h148v-420q0 -143 -85 -217.5t-253 -74.5z" />
    <glyph glyph-name="V" unicode="V" horiz-adv-x="772" 
d="M603 700h152l-262 -700h-217l-259 700h156l214 -620z" />
    <glyph glyph-name="W" unicode="W" horiz-adv-x="1143" 
d="M966 700h154l-190 -700h-219l-139 598l-143 -598h-221l-185 700h158l144 -595l144 595h208l141 -596z" />
    <glyph glyph-name="X" unicode="X" horiz-adv-x="773" 
d="M750 0h-172l-196 259l-196 -259h-165l279 357l-258 343h173l171 -241l174 241h165l-255 -338z" />
    <glyph glyph-name="Y" unicode="Y" horiz-adv-x="789" 
d="M775 700l-307 -427v-273h-147v273l-307 427h172l210 -313l213 313h166z" />
    <glyph glyph-name="Z" unicode="Z" horiz-adv-x="696" 
d="M216 121h456v-121h-652v103l445 476h-416v121h611v-103z" />
    <glyph glyph-name="bracketleft" unicode="[" horiz-adv-x="352" 
d="M330 624h-114v-664h114v-110h-242v886h242v-112z" />
    <glyph glyph-name="backslash" unicode="\" horiz-adv-x="453" 
d="M160 732l276 -793h-127l-276 793h127z" />
    <glyph glyph-name="bracketright" unicode="]" horiz-adv-x="352" 
d="M264 736v-886h-242v110h114v664h-114v112h242z" />
    <glyph glyph-name="asciicircum" unicode="^" horiz-adv-x="444" 
d="M421 452h-106l-93 194l-93 -194h-107l137 248h126z" />
    <glyph glyph-name="underscore" unicode="_" horiz-adv-x="470" 
d="M13 -30h444v-93h-444v93z" />
    <glyph glyph-name="grave" unicode="`" horiz-adv-x="315" 
d="M275 588h-109l-126 147h145z" />
    <glyph glyph-name="a" unicode="a" horiz-adv-x="658" 
d="M333 536q129 0 197.5 -56.5t68.5 -169.5v-310h-132v101q-68 -113 -226 -113q-99 0 -150 43t-51 113q0 77 63.5 116t188.5 49l166 13v18q0 44 -31 70.5t-94 27.5q-116 0 -129 -76h-131q4 63 42.5 103t92.5 55.5t125 15.5zM283 86q79 0 127 38t48 94v21l-148 -12
q-130 -11 -130 -76q0 -30 26 -47.5t77 -17.5z" />
    <glyph glyph-name="b" unicode="b" horiz-adv-x="702" 
d="M404 536q115 0 187 -73.5t72 -200.5t-72 -200.5t-186 -73.5q-67 0 -122.5 28.5t-87.5 83.5v-100h-131v736h141v-295q65 95 199 95zM361 97q75 0 119 45t44 120t-44 120t-119 45t-118.5 -45t-43.5 -120t43.5 -120t118.5 -45z" />
    <glyph glyph-name="c" unicode="c" horiz-adv-x="656" 
d="M624 189q-14 -96 -91.5 -148.5t-193.5 -52.5q-140 0 -220.5 71t-80.5 203q0 131 80 202.5t217 71.5q113 0 190 -51t91 -143l-136 -10q-12 46 -51.5 70.5t-93.5 24.5q-71 0 -114 -44.5t-43 -120.5q0 -77 43.5 -121t117.5 -44q58 0 96.5 26t50.5 75z" />
    <glyph glyph-name="d" unicode="d" horiz-adv-x="702" 
d="M497 736h141v-736h-132v100q-31 -55 -86.5 -83.5t-123.5 -28.5q-114 0 -186 73.5t-72 200.5t72 200.5t187 73.5q135 0 200 -95v295zM340 97q75 0 119 45t44 120t-44 120t-119 45q-74 0 -118 -45t-44 -120t44 -120t118 -45z" />
    <glyph glyph-name="e" unicode="e" horiz-adv-x="674" 
d="M638 236v-16h-458q20 -134 173 -134q99 0 140 64l137 -7q-25 -74 -96 -114.5t-181 -40.5q-146 0 -230.5 68.5t-84.5 205.5q0 136 83.5 205t224.5 69q292 0 292 -300zM346 438q-67 0 -110.5 -32t-54.5 -97h318q-5 60 -45 94.5t-108 34.5z" />
    <glyph glyph-name="f" unicode="f" horiz-adv-x="441" 
d="M362 638q-47 0 -66 -18.5t-19 -60.5v-35h134v-106h-134v-418h-141v418h-116v106h116v49q0 98 47 136.5t147 38.5q42 0 95 -5v-109q-36 4 -63 4z" />
    <glyph glyph-name="g" unicode="g" horiz-adv-x="697" 
d="M501 524h132v-446q0 -152 -70 -221t-218 -69q-119 0 -189.5 45.5t-77.5 136.5h132q16 -75 135 -75q78 0 112.5 36t34.5 111v59q-67 -88 -194 -88q-116 0 -188 71.5t-72 190.5q0 118 72.5 189.5t188.5 71.5q139 0 202 -100v88zM340 117q74 0 118.5 42.5t44.5 111.5
t-44.5 112.5t-118.5 43.5q-73 0 -117.5 -43.5t-44.5 -112.5t44.5 -111.5t117.5 -42.5z" />
    <glyph glyph-name="h" unicode="h" horiz-adv-x="680" 
d="M410 536q103 0 157 -56.5t54 -165.5v-314h-141v271q0 74 -29 111.5t-94 37.5q-73 0 -112.5 -45.5t-39.5 -123.5v-251h-141v736h141v-300q64 100 205 100z" />
    <glyph glyph-name="i" unicode="i" horiz-adv-x="269" 
d="M59 596v132h151v-132h-151zM64 0v524h141v-524h-141z" />
    <glyph glyph-name="j" unicode="j" horiz-adv-x="269" 
d="M59 596v132h151v-132h-151zM64 524h141v-570q0 -90 -36.5 -128t-124.5 -38q-24 0 -86 4v114q32 -2 38 -2q37 0 52.5 16.5t15.5 66.5v537z" />
    <glyph glyph-name="k" unicode="k" horiz-adv-x="653" 
d="M462 0l-187 209h-70v-209h-141v736h141v-417h70l181 205h171l-252 -248l268 -276h-181z" />
    <glyph glyph-name="l" unicode="l" horiz-adv-x="269" 
d="M64 736h141v-736h-141v736z" />
    <glyph glyph-name="m" unicode="m" horiz-adv-x="1027" 
d="M774 536q92 0 143.5 -55.5t51.5 -156.5v-324h-141v288q0 61 -27.5 96.5t-80.5 35.5q-61 0 -97 -44.5t-36 -124.5v-251h-141v288q0 61 -27 96.5t-81 35.5q-61 0 -97 -44.5t-36 -124.5v-251h-141v524h131v-102q61 114 197 114q140 0 182 -121q28 59 80 90t120 31z" />
    <glyph glyph-name="n" unicode="n" horiz-adv-x="680" 
d="M411 536q103 0 156.5 -56.5t53.5 -165.5v-314h-141v271q0 74 -29 111.5t-94 37.5q-73 0 -112.5 -45.5t-39.5 -123.5v-251h-141v524h131v-104q63 116 216 116z" />
    <glyph glyph-name="o" unicode="o" horiz-adv-x="690" 
d="M38 262q0 128 83 201t224 73t223.5 -73t82.5 -201t-82.5 -201t-223.5 -73t-224 73t-83 201zM178 262q0 -73 45 -119t122 -46t122 46t45 119t-45 119t-122 46t-122 -46t-45 -119z" />
    <glyph glyph-name="p" unicode="p" horiz-adv-x="702" 
d="M404 536q115 0 187 -73.5t72 -200.5t-72 -200.5t-186 -73.5q-134 0 -200 97v-285h-141v724h131v-98q64 110 209 110zM361 97q75 0 119 45t44 120t-44 120t-119 45t-118.5 -45t-43.5 -120t43.5 -120t118.5 -45z" />
    <glyph glyph-name="q" unicode="q" horiz-adv-x="702" 
d="M506 524h132v-724h-141v285q-66 -97 -201 -97q-114 0 -186 73.5t-72 200.5t72 200.5t187 73.5q147 0 209 -110v98zM340 97q75 0 119 45t44 120t-44 120t-119 45q-74 0 -118 -45t-44 -120t44 -120t118 -45z" />
    <glyph glyph-name="r" unicode="r" horiz-adv-x="479" 
d="M376 535q32 0 69 -7v-125q-42 8 -88 8q-78 0 -115 -44.5t-37 -142.5v-224h-141l1 524h131v-112q54 123 180 123z" />
    <glyph glyph-name="s" unicode="s" horiz-adv-x="599" 
d="M425 365q-8 35 -46.5 54t-98.5 19q-98 0 -98 -51q0 -39 76 -57l147 -32q165 -37 165 -152q0 -80 -73.5 -119t-199.5 -39q-257 0 -275 171l130 5q14 -78 152 -78q127 0 127 53q0 37 -89 59l-151 33q-149 36 -149 151q0 54 34 89.5t86 50t121 14.5q112 0 186.5 -40.5
t85.5 -124.5z" />
    <glyph glyph-name="t" unicode="t" horiz-adv-x="470" 
d="M435 418h-147v-229q0 -47 15.5 -65t60.5 -18q23 0 71 6v-114q-50 -8 -100 -8q-99 0 -143.5 40.5t-44.5 137.5v250h-128v104h94q23 0 32.5 8.5t9.5 28.5v88h133v-123h147v-106z" />
    <glyph glyph-name="u" unicode="u" horiz-adv-x="680" 
d="M475 524h141v-524h-131v112q-62 -124 -215 -124q-102 0 -156.5 59t-54.5 169v308h141v-265q0 -155 125 -155q72 0 111 50.5t39 130.5v239z" />
    <glyph glyph-name="v" unicode="v" horiz-adv-x="655" 
d="M488 524h151l-207 -524h-212l-204 524h153l159 -446z" />
    <glyph glyph-name="w" unicode="w" horiz-adv-x="1012" 
d="M838 524h152l-174 -524h-199l-109 450l-112 -450h-203l-171 524h155l124 -427l110 427h197l107 -417z" />
    <glyph glyph-name="x" unicode="x" horiz-adv-x="669" 
d="M649 0h-170l-147 181l-147 -181h-165l229 267l-217 257h171l132 -170l133 170h165l-216 -254z" />
    <glyph glyph-name="y" unicode="y" horiz-adv-x="662" 
d="M493 524h152l-206 -564q-35 -99 -86.5 -135.5t-153.5 -36.5q-40 0 -80 4v109q37 -3 71 -3q50 0 75 15.5t42 61.5l9 25h-74l-224 524h153l178 -459z" />
    <glyph glyph-name="z" unicode="z" horiz-adv-x="584" 
d="M206 110h355v-110h-541v97l344 317h-321v110h508v-97z" />
    <glyph glyph-name="braceleft" unicode="{" horiz-adv-x="372" 
d="M254 437q0 -126 -126 -142v-4q126 -18 126 -142v-110q0 -49 22 -71t65 -22h9v-96h-14q-99 0 -150.5 40t-51.5 142v102q0 110 -92 110h-9v97h9q92 0 92 111v101q0 102 51.5 142.5t150.5 40.5h14v-96h-9q-87 0 -87 -94v-109z" />
    <glyph glyph-name="bar" unicode="|" horiz-adv-x="271" 
d="M84 736h103v-857h-103v857z" />
    <glyph glyph-name="braceright" unicode="}" horiz-adv-x="372" 
d="M238 452q0 -111 92 -111h9v-97h-9q-92 0 -92 -110v-102q0 -102 -51.5 -142t-150.5 -40h-14v96h9q44 0 65.5 21.5t21.5 71.5v110q0 124 127 142v4q-127 16 -127 142v109q0 50 -21.5 72t-65.5 22h-9v96h14q99 0 150.5 -40.5t51.5 -142.5v-101z" />
    <glyph glyph-name="asciitilde" unicode="~" horiz-adv-x="612" 
d="M456 408h83q0 -66 -29 -110t-97 -44q-34 0 -66 12.5t-51.5 28t-43 28t-43.5 12.5q-25 0 -39 -18t-14 -47h-83q0 66 29 109.5t97 43.5q44 0 82.5 -20t68 -40t53.5 -20q26 0 39.5 17.5t13.5 47.5z" />
    <glyph glyph-name="uni00A0" unicode="&#xa0;" horiz-adv-x="265" 
 />
    <glyph glyph-name="exclamdown" unicode="&#xa1;" horiz-adv-x="323" 
d="M83 524h157v-154h-157v154zM220 293l15 -469h-147l15 469h117z" />
    <glyph glyph-name="cent" unicode="&#xa2;" horiz-adv-x="643" 
d="M611 181q-15 -87 -81.5 -136.5t-167.5 -55.5v-75h-63v75q-122 9 -191.5 79.5t-69.5 193.5t70 194t191 79v75h63v-75q97 -8 162 -55.5t80 -130.5l-128 -11q-23 77 -114 92v-337q98 13 121 97zM169 262q0 -70 34.5 -114t95.5 -54v336q-60 -9 -95 -53t-35 -115z" />
    <glyph glyph-name="sterling" unicode="&#xa3;" horiz-adv-x="635" 
d="M157 117h461v-117h-600v102q111 79 111 171q0 17 -5 39h-92v77h72q-15 56 -15 102q0 102 68 155.5t189 53.5q120 0 179 -54t69 -157l-136 -9q-11 103 -112 103q-55 0 -85 -28t-30 -82q0 -37 14 -84h216v-77h-195q5 -27 5 -46q0 -89 -114 -149z" />
    <glyph glyph-name="currency" unicode="&#xa4;" horiz-adv-x="654" 
d="M621 98l-74 -73l-79 74q-62 -34 -141 -34t-141 34l-77 -73l-74 74l75 72q-36 56 -36 132q0 77 36 133l-76 74l73 73l79 -75q62 34 141 34q80 0 140 -34l78 74l74 -75l-75 -71q36 -56 36 -133q0 -76 -36 -132zM191 304q0 -59 37 -94t99 -35t99 35t37 94q0 60 -37 95
t-99 35t-99 -35t-37 -95z" />
    <glyph glyph-name="yen" unicode="&#xa5;" horiz-adv-x="747" 
d="M444 312v-4h214v-68h-214v-55h214v-69h-214v-116h-142v116h-214v69h214v55h-214v68h214v6l-288 374h164l196 -278l200 278h158z" />
    <glyph glyph-name="brokenbar" unicode="&#xa6;" horiz-adv-x="271" 
d="M84 736h103v-347h-103v347zM84 242h103v-363h-103v363z" />
    <glyph glyph-name="section" unicode="&#xa7;" horiz-adv-x="549" 
d="M423 198q86 -44 86 -136q0 -81 -61.5 -120.5t-163.5 -39.5q-101 0 -165.5 43t-70.5 132l119 4q5 -42 35.5 -63.5t81.5 -21.5q41 0 68.5 15t27.5 44q0 24 -18 39t-63 28l-128 34q-67 17 -101.5 56t-34.5 88q0 82 98 123q-79 44 -79 135q0 79 59 116.5t149 37.5
q91 0 156 -42t75 -126l-121 -6q-6 39 -36.5 59.5t-73.5 20.5q-37 0 -58 -15t-21 -41q0 -46 76 -66l117 -31q67 -18 104.5 -55.5t37.5 -90.5q0 -81 -95 -121zM244 250l83 -21q69 19 69 65q0 49 -87 73l-79 22q-72 -21 -72 -67q0 -50 86 -72z" />
    <glyph glyph-name="dieresis" unicode="&#xa8;" horiz-adv-x="417" 
d="M40 598v118h126v-118h-126zM251 598v118h126v-118h-126z" />
    <glyph glyph-name="copyright" unicode="&#xa9;" horiz-adv-x="811" 
d="M44 350q0 163 102 262.5t260 99.5t260 -99.5t102 -262.5t-102 -262.5t-260 -99.5t-260 99.5t-102 262.5zM119 350q0 -126 80.5 -210t206.5 -84t206.5 84t80.5 210t-80.5 210t-206.5 84t-206.5 -84t-80.5 -210zM233 350q0 97 47 149.5t128 52.5q68 0 114 -37.5t53 -104.5
l-92 -8q-12 74 -75 74q-36 0 -57.5 -33.5t-21.5 -92.5t22 -92.5t60 -33.5q65 0 76 79l93 -6q-7 -71 -53 -110t-116 -39q-83 0 -130.5 53t-47.5 149z" />
    <glyph glyph-name="guillemotleft" unicode="&#xab;" horiz-adv-x="578" 
d="M310 465l-172 -185l172 -185h-136l-146 159v52l146 159h136zM538 465l-172 -185l172 -185h-136l-146 159v52l146 159h136z" />
    <glyph glyph-name="logicalnot" unicode="&#xac;" horiz-adv-x="549" 
d="M63 380h412v-218h-101v122h-311v96z" />
    <glyph glyph-name="registered" unicode="&#xae;" horiz-adv-x="571" 
d="M286 712q105 0 177.5 -70.5t72.5 -179.5t-72.5 -179.5t-177.5 -70.5q-106 0 -178 70.5t-72 179.5t72 179.5t178 70.5zM286 258q88 0 144.5 58t56.5 146t-56.5 146t-144.5 58q-89 0 -145.5 -58t-56.5 -146t56.5 -146t145.5 -58zM376 516q0 -65 -47 -76l55 -103h-56
l-47 101h-23v-101h-49v259h93q31 0 52.5 -20t21.5 -60zM295 475q33 0 33 41q0 40 -32 40h-38v-81h37z" />
    <glyph glyph-name="macron" unicode="&#xaf;" horiz-adv-x="439" 
d="M40 610v92h359v-92h-359z" />
    <glyph glyph-name="degree" unicode="&#xb0;" horiz-adv-x="412" 
d="M25 536q0 80 52 128t129 48q78 0 129.5 -48t51.5 -128t-51.5 -127.5t-129.5 -47.5t-129.5 47.5t-51.5 127.5zM114 536q0 -40 26 -65.5t66 -25.5t66 25.5t26 65.5t-26 65.5t-66 25.5t-66 -25.5t-26 -65.5z" />
    <glyph glyph-name="plusminus" unicode="&#xb1;" horiz-adv-x="561" 
d="M329 434h162v-94h-162v-120h-97v120h-163v94h163v134h97v-134zM69 66v94h422v-94h-422z" />
    <glyph glyph-name="uni00B2" unicode="&#xb2;" horiz-adv-x="419" 
d="M173 419h221v-88h-376v80l162 119q49 36 70.5 59t21.5 48q0 23 -16.5 36t-43.5 13q-66 0 -76 -79l-105 8q6 81 55 120t126 39q72 0 120 -34t48 -99q0 -38 -23 -72t-82 -76z" />
    <glyph glyph-name="uni00B3" unicode="&#xb3;" horiz-adv-x="436" 
d="M254 597q151 -12 151 -129q0 -72 -56.5 -107t-142.5 -35q-81 0 -133 35t-61 103l106 7q10 -57 88 -57q42 0 66 15.5t24 43.5q0 25 -22.5 41t-66.5 16q-35 0 -76 -7v67l120 86h-212v88h351v-78z" />
    <glyph glyph-name="acute" unicode="&#xb4;" horiz-adv-x="315" 
d="M40 588l89 147h146l-126 -147h-109z" />
    <glyph glyph-name="paragraph" unicode="&#xb6;" horiz-adv-x="617" 
d="M52 503q0 89 60 143t160 54h72v-794h-86v400q-93 0 -149.5 55t-56.5 142zM435 700h86v-794h-86v794z" />
    <glyph glyph-name="periodcentered" unicode="&#xb7;" horiz-adv-x="285" 
d="M64 234v154h157v-154h-157z" />
    <glyph glyph-name="cedilla" unicode="&#xb8;" horiz-adv-x="331" 
d="M190 -48q39 0 70 -20t31 -61q0 -46 -36.5 -66.5t-88.5 -20.5t-85.5 19.5t-40.5 56.5l61 3q10 -29 52 -29q50 0 50 37q0 17 -13 26.5t-33 9.5q-23 0 -47 -11l-50 21l53 83h56l-40 -62q34 14 61 14z" />
    <glyph glyph-name="uni00B9" unicode="&#xb9;" horiz-adv-x="326" 
d="M147 764h90v-431h-109v314l-91 -65v106z" />
    <glyph glyph-name="guillemotright" unicode="&#xbb;" horiz-adv-x="578" 
d="M322 306v-52l-146 -159h-136l172 185l-172 185h136zM404 465l146 -159v-52l-146 -159h-136l172 185l-172 185h136z" />
    <glyph glyph-name="onequarter" unicode="&#xbc;" horiz-adv-x="820" 
d="M117 340v257l-87 -48v93l105 58h74v-360h-92zM584 700h101l-523 -700h-101zM800 149v-75h-68v-74h-92v74h-217v68l161 218h148v-211h68zM518 149h122v170z" />
    <glyph glyph-name="onehalf" unicode="&#xbd;" horiz-adv-x="828" 
d="M116 340v257l-88 -48v93l105 58h74v-360h-91zM582 700h101l-523 -700h-102zM609 74h193v-74h-324v68l142 99q42 29 60.5 48.5t18.5 41.5q0 18 -15 29.5t-40 11.5q-59 0 -66 -66l-89 7q6 67 48 100t107 33q63 0 104.5 -28.5t41.5 -83.5q0 -33 -20 -61.5t-70 -61.5z" />
    <glyph glyph-name="threequarters" unicode="&#xbe;" horiz-adv-x="925" 
d="M366 451q0 -63 -50 -93t-127 -30q-157 0 -171 117l91 6q7 -51 80 -51q39 0 62 13.5t23 37.5q0 22 -21 35.5t-62 13.5q-30 0 -70 -6v60l114 74h-194v72h312v-65l-125 -74q138 -12 138 -110zM688 700h102l-524 -700h-101zM904 149v-75h-67v-74h-92v74h-218v68l161 218h149
v-211h67zM622 149h123v170z" />
    <glyph glyph-name="questiondown" unicode="&#xbf;" horiz-adv-x="602" 
d="M397 524v-154h-157v154h157zM583 50q-11 -119 -89 -178.5t-201 -59.5q-113 0 -186.5 47.5t-73.5 141.5q0 59 32 101t102 84q51 30 67.5 47.5t16.5 46.5v10h135v-16q0 -56 -21 -87.5t-77 -61.5q-28 -16 -43.5 -26t-34.5 -25.5t-27.5 -31.5t-8.5 -35q0 -39 33 -59.5
t86 -20.5q140 0 157 131z" />
    <glyph glyph-name="Agrave" unicode="&#xc0;" horiz-adv-x="800" 
d="M467 760h-110l-136 122h145zM634 0l-60 160h-353l-60 -160h-146l274 700h221l276 -700h-152zM264 272h268l-134 357z" />
    <glyph glyph-name="Aacute" unicode="&#xc1;" horiz-adv-x="800" 
d="M579 882l-135 -122h-110l101 122h144zM634 0l-60 160h-353l-60 -160h-146l274 700h221l276 -700h-152zM264 272h268l-134 357z" />
    <glyph glyph-name="Acircumflex" unicode="&#xc2;" horiz-adv-x="800" 
d="M401 844l-93 -82h-105l119 121h158l117 -121h-104zM634 0l-60 160h-353l-60 -160h-146l274 700h221l276 -700h-152zM264 272h268l-134 357z" />
    <glyph glyph-name="Atilde" unicode="&#xc3;" horiz-adv-x="800" 
d="M328 806q-37 0 -37 -41h-73q0 117 101 117q43 0 89.5 -25.5t63.5 -25.5q18 0 28 11.5t10 30.5h73q0 -117 -101 -117q-43 0 -89.5 25t-64.5 25zM634 0l-60 160h-353l-60 -160h-146l274 700h221l276 -700h-152zM264 272h268l-134 357z" />
    <glyph glyph-name="Adieresis" unicode="&#xc4;" horiz-adv-x="800" 
d="M353 873v-112h-140v112h140zM588 873v-112h-140v112h140zM634 0l-60 160h-353l-60 -160h-146l274 700h221l276 -700h-152zM264 272h268l-134 357z" />
    <glyph glyph-name="Aring" unicode="&#xc5;" horiz-adv-x="800" 
d="M400 744q-53 0 -89.5 27t-36.5 77t36.5 77t89.5 27t90 -27t37 -77t-37 -77t-90 -27zM400 893q-26 0 -43 -12.5t-17 -32.5q0 -21 17 -33t43 -12t43.5 12.5t17.5 32.5t-17.5 32.5t-43.5 12.5zM634 0l-60 160h-353l-60 -160h-146l274 700h221l276 -700h-152zM264 272h268
l-134 357z" />
    <glyph glyph-name="AE" unicode="&#xc6;" horiz-adv-x="1199" 
d="M704 116h451v-116h-599v160h-292l-92 -160h-162l420 700h708v-116h-434v-173h341v-110h-341v-185zM329 272h227v312h-48z" />
    <glyph glyph-name="Ccedilla" unicode="&#xc7;" horiz-adv-x="796" 
d="M420 -12q-17 0 -26 1l-33 -51q34 14 62 14q39 0 69.5 -20t30.5 -61q0 -46 -36.5 -66.5t-88.5 -20.5t-85.5 19.5t-40.5 56.5l61 3q10 -29 52 -29q51 0 51 37q0 17 -13.5 26.5t-32.5 9.5q-23 0 -47 -11l-50 21l48 77q-142 21 -219.5 115.5t-77.5 240.5q0 166 96.5 264
t270.5 98q142 0 232 -64.5t108 -174.5l-142 -11q-13 59 -67.5 94.5t-130.5 35.5q-107 0 -163 -68.5t-56 -173.5q0 -108 60 -175t168 -67q83 0 134.5 39.5t64.5 101.5l143 -9q-18 -119 -105 -185.5t-237 -66.5z" />
    <glyph glyph-name="Egrave" unicode="&#xc8;" horiz-adv-x="726" 
d="M433 760h-110l-135 122h144zM232 116h450v-116h-598v700h581v-116h-433v-173h341v-110h-341v-185z" />
    <glyph glyph-name="Eacute" unicode="&#xc9;" horiz-adv-x="726" 
d="M538 882l-135 -122h-110l101 122h144zM232 116h450v-116h-598v700h581v-116h-433v-173h341v-110h-341v-185z" />
    <glyph glyph-name="Ecircumflex" unicode="&#xca;" horiz-adv-x="726" 
d="M364 844l-93 -82h-104l118 121h158l117 -121h-103zM232 116h450v-116h-598v700h581v-116h-433v-173h341v-110h-341v-185z" />
    <glyph glyph-name="Edieresis" unicode="&#xcb;" horiz-adv-x="726" 
d="M316 873v-112h-140v112h140zM551 873v-112h-140v112h140zM232 116h450v-116h-598v700h581v-116h-433v-173h341v-110h-341v-185z" />
    <glyph glyph-name="Igrave" unicode="&#xcc;" horiz-adv-x="315" 
d="M216 760h-106l-123 122h143zM84 0v700h148v-700h-148z" />
    <glyph glyph-name="Iacute" unicode="&#xcd;" horiz-adv-x="315" 
d="M99 760l86 122h142l-123 -122h-105zM84 0v700h148v-700h-148z" />
    <glyph glyph-name="Icircumflex" unicode="&#xce;" horiz-adv-x="316" 
d="M238 883l117 -121h-103l-93 82l-93 -82h-104l118 121h158zM84 0v700h148v-700h-148z" />
    <glyph glyph-name="Idieresis" unicode="&#xcf;" horiz-adv-x="315" 
d="M-7 761v112h127v-112h-127zM195 761v112h127v-112h-127zM83 0v700h148v-700h-148z" />
    <glyph glyph-name="Eth" unicode="&#xd0;" horiz-adv-x="842" 
d="M430 700q174 0 271 -93t97 -257t-97 -257t-271 -93h-322v298h-78v104h78v298h322zM414 121q115 0 175.5 61t60.5 168t-60.5 168t-175.5 61h-158v-177h202v-104h-202v-177h158z" />
    <glyph glyph-name="Ntilde" unicode="&#xd1;" horiz-adv-x="855" 
d="M356 806q-37 0 -37 -41h-73q0 117 100 117q43 0 90 -25.5t64 -25.5q37 0 37 42h73q0 -117 -100 -117q-43 0 -90 25t-64 25zM630 700h141v-700h-249l-297 614v-614h-141v700h250l296 -614v614z" />
    <glyph glyph-name="Ograve" unicode="&#xd2;" horiz-adv-x="852" 
d="M496 760h-110l-135 122h144zM44 350q0 167 100 264.5t282 97.5t282.5 -97.5t100.5 -264.5t-100.5 -264.5t-282.5 -97.5t-282 97.5t-100 264.5zM192 350q0 -108 61.5 -175t172.5 -67t173 67t62 175t-62 175t-173 67t-172.5 -67t-61.5 -175z" />
    <glyph glyph-name="Oacute" unicode="&#xd3;" horiz-adv-x="852" 
d="M356 760l101 122h144l-135 -122h-110zM44 350q0 167 100 264.5t282 97.5t282.5 -97.5t100.5 -264.5t-100.5 -264.5t-282.5 -97.5t-282 97.5t-100 264.5zM192 350q0 -108 61.5 -175t172.5 -67t173 67t62 175t-62 175t-173 67t-172.5 -67t-61.5 -175z" />
    <glyph glyph-name="Ocircumflex" unicode="&#xd4;" horiz-adv-x="852" 
d="M427 844l-93 -82h-104l118 121h158l117 -121h-104zM426 712q182 0 282.5 -97.5t100.5 -264.5t-100.5 -264.5t-282.5 -97.5t-282 97.5t-100 264.5t100 264.5t282 97.5zM426 108q111 0 173 67t62 175t-62 175t-173 67t-172.5 -67t-61.5 -175t61.5 -175t172.5 -67z" />
    <glyph glyph-name="Otilde" unicode="&#xd5;" horiz-adv-x="852" 
d="M244 765q0 117 101 117q43 0 89.5 -25.5t64.5 -25.5q37 0 37 42h73q0 -117 -101 -117q-43 0 -89.5 25t-64.5 25q-37 0 -37 -41h-73zM44 350q0 167 100 264.5t282 97.5t282.5 -97.5t100.5 -264.5t-100.5 -264.5t-282.5 -97.5t-282 97.5t-100 264.5zM192 350
q0 -108 61.5 -175t172.5 -67t173 67t62 175t-62 175t-173 67t-172.5 -67t-61.5 -175z" />
    <glyph glyph-name="Odieresis" unicode="&#xd6;" horiz-adv-x="852" 
d="M239 761v112h140v-112h-140zM474 761v112h140v-112h-140zM44 350q0 167 100 264.5t282 97.5t282.5 -97.5t100.5 -264.5t-100.5 -264.5t-282.5 -97.5t-282 97.5t-100 264.5zM192 350q0 -108 61.5 -175t172.5 -67t173 67t62 175t-62 175t-173 67t-172.5 -67t-61.5 -175z
" />
    <glyph glyph-name="multiply" unicode="&#xd7;" horiz-adv-x="548" 
d="M486 464l-142 -134l142 -134l-67 -68l-144 136l-144 -136l-68 68l142 134l-142 134l68 67l144 -136l144 136z" />
    <glyph glyph-name="Oslash" unicode="&#xd8;" horiz-adv-x="852" 
d="M714 608q95 -97 95 -258q0 -167 -100.5 -264.5t-282.5 -97.5q-127 0 -216 49l-63 -70l-74 51l65 74q-94 96 -94 258q0 167 100 264.5t282 97.5q128 0 216 -50l63 71l74 -51zM192 350q0 -89 41 -150l320 361q-54 31 -127 31q-111 0 -172.5 -67t-61.5 -175zM426 108
q111 0 173 67t62 175q0 88 -42 150l-320 -361q54 -31 127 -31z" />
    <glyph glyph-name="Ugrave" unicode="&#xd9;" horiz-adv-x="844" 
d="M492 760h-110l-135 122h144zM422 -12q-168 0 -253 74.5t-85 217.5v420h148v-407q0 -184 190 -184t190 184v407h148v-420q0 -143 -85 -217.5t-253 -74.5z" />
    <glyph glyph-name="Uacute" unicode="&#xda;" horiz-adv-x="844" 
d="M352 760l101 122h144l-135 -122h-110zM422 -12q-168 0 -253 74.5t-85 217.5v420h148v-407q0 -184 190 -184t190 184v407h148v-420q0 -143 -85 -217.5t-253 -74.5z" />
    <glyph glyph-name="Ucircumflex" unicode="&#xdb;" horiz-adv-x="844" 
d="M423 844l-93 -82h-105l119 121h158l117 -121h-104zM612 700h148v-420q0 -143 -85 -217.5t-253 -74.5t-253 74.5t-85 217.5v420h148v-407q0 -184 190 -184t190 184v407z" />
    <glyph glyph-name="Udieresis" unicode="&#xdc;" horiz-adv-x="844" 
d="M235 761v112h140v-112h-140zM470 761v112h140v-112h-140zM422 -12q-168 0 -253 74.5t-85 217.5v420h148v-407q0 -184 190 -184t190 184v407h148v-420q0 -143 -85 -217.5t-253 -74.5z" />
    <glyph glyph-name="Yacute" unicode="&#xdd;" horiz-adv-x="789" 
d="M569 882l-135 -122h-110l101 122h144zM775 700l-307 -427v-273h-147v273l-307 427h172l210 -313l213 313h166z" />
    <glyph glyph-name="Thorn" unicode="&#xde;" horiz-adv-x="757" 
d="M457 590q114 0 188 -55t74 -166q0 -110 -71 -161.5t-188 -51.5h-228v-156h-148v700h148v-110h225zM445 270q126 0 126 99t-126 99h-213v-198h213z" />
    <glyph glyph-name="germandbls" unicode="&#xdf;" horiz-adv-x="673" 
d="M411 420q227 -21 227 -206q0 -109 -73 -164.5t-188 -55.5q-31 0 -77 6v114q43 -5 58 -5q61 0 100 29t39 92q0 130 -172 130l-32 1v108h24q60 0 92 26t32 72q0 45 -31 69.5t-88 24.5q-59 0 -88 -28.5t-29 -92.5v-540h-141v558q0 102 67.5 155t190.5 53q52 0 96.5 -10
t82 -30.5t59.5 -57.5t22 -87q0 -137 -171 -161z" />
    <glyph glyph-name="agrave" unicode="&#xe0;" horiz-adv-x="658" 
d="M415 588h-109l-126 147h145zM333 536q129 0 197.5 -56.5t68.5 -169.5v-310h-132v101q-68 -113 -226 -113q-99 0 -150 43t-51 113q0 77 63.5 116t188.5 49l166 13v18q0 44 -31 70.5t-94 27.5q-116 0 -129 -76h-131q4 63 42.5 103t92.5 55.5t125 15.5zM283 86q79 0 127 38
t48 94v21l-148 -12q-130 -11 -130 -76q0 -30 26 -47.5t77 -17.5z" />
    <glyph glyph-name="aacute" unicode="&#xe1;" horiz-adv-x="658" 
d="M493 735l-125 -147h-109l89 147h145zM333 536q129 0 197.5 -56.5t68.5 -169.5v-310h-132v101q-68 -113 -226 -113q-99 0 -150 43t-51 113q0 77 63.5 116t188.5 49l166 13v18q0 44 -31 70.5t-94 27.5q-116 0 -129 -76h-131q4 63 42.5 103t92.5 55.5t125 15.5zM283 86
q79 0 127 38t48 94v21l-148 -12q-130 -11 -130 -76q0 -30 26 -47.5t77 -17.5z" />
    <glyph glyph-name="acircumflex" unicode="&#xe2;" horiz-adv-x="658" 
d="M337 690l-86 -102h-98l111 147h146l111 -147h-98zM333 536q129 0 197.5 -56.5t68.5 -169.5v-310h-132v101q-68 -113 -226 -113q-99 0 -150 43t-51 113q0 77 63.5 116t188.5 49l166 13v18q0 44 -31 70.5t-94 27.5q-116 0 -129 -76h-131q4 63 42.5 103t92.5 55.5t125 15.5z
M283 86q79 0 127 38t48 94v21l-148 -12q-130 -11 -130 -76q0 -30 26 -47.5t77 -17.5z" />
    <glyph glyph-name="atilde" unicode="&#xe3;" horiz-adv-x="658" 
d="M261 639q-38 0 -38 -44h-76q0 118 105 118q45 0 93.5 -26t66.5 -26q39 0 39 43h76q0 -118 -105 -118q-45 0 -93.5 26.5t-67.5 26.5zM333 536q129 0 197.5 -56.5t68.5 -169.5v-310h-132v101q-68 -113 -226 -113q-99 0 -150 43t-51 113q0 77 63.5 116t188.5 49l166 13v18
q0 44 -31 70.5t-94 27.5q-116 0 -129 -76h-131q4 63 42.5 103t92.5 55.5t125 15.5zM283 86q79 0 127 38t48 94v21l-148 -12q-130 -11 -130 -76q0 -30 26 -47.5t77 -17.5z" />
    <glyph glyph-name="adieresis" unicode="&#xe4;" horiz-adv-x="658" 
d="M295 716v-118h-126v118h126zM505 716v-118h-126v118h126zM333 536q129 0 197.5 -56.5t68.5 -169.5v-310h-132v101q-68 -113 -226 -113q-99 0 -150 43t-51 113q0 77 63.5 116t188.5 49l166 13v18q0 44 -31 70.5t-94 27.5q-116 0 -129 -76h-131q4 63 42.5 103t92.5 55.5
t125 15.5zM283 86q79 0 127 38t48 94v21l-148 -12q-130 -11 -130 -76q0 -30 26 -47.5t77 -17.5z" />
    <glyph glyph-name="aring" unicode="&#xe5;" horiz-adv-x="658" 
d="M337 582q-54 0 -90.5 27t-36.5 78q0 50 36.5 77t90.5 27t90.5 -27t36.5 -77q0 -51 -36.5 -78t-90.5 -27zM337 734q-26 0 -43 -12.5t-17 -34.5t17 -35t43 -13t43 13t17 35t-17 34.5t-43 12.5zM333 536q129 0 197.5 -56.5t68.5 -169.5v-310h-132v101q-68 -113 -226 -113
q-99 0 -150 43t-51 113q0 77 63.5 116t188.5 49l166 13v18q0 44 -31 70.5t-94 27.5q-116 0 -129 -76h-131q4 63 42.5 103t92.5 55.5t125 15.5zM283 86q79 0 127 38t48 94v21l-148 -12q-130 -11 -130 -76q0 -30 26 -47.5t77 -17.5z" />
    <glyph glyph-name="ae" unicode="&#xe6;" horiz-adv-x="1079" 
d="M1042 236v-16h-441q10 -67 54.5 -100.5t111.5 -33.5q90 0 131 64l136 -7q-24 -73 -93.5 -114t-170.5 -41q-191 0 -253 129q-78 -129 -266 -129q-105 0 -158 43t-53 113q0 154 252 165l166 7v22q0 46 -31 72.5t-94 27.5q-116 0 -129 -76h-131q6 91 77 132.5t177 41.5
q159 0 213 -93q70 93 223 93q134 0 206.5 -73.5t72.5 -226.5zM759 438q-61 0 -103.5 -32t-54.5 -97h303q-5 60 -43.5 94.5t-101.5 34.5zM283 86q79 0 127 38t48 94v14l-148 -6q-130 -6 -130 -75q0 -30 26 -47.5t77 -17.5z" />
    <glyph glyph-name="ccedilla" unicode="&#xe7;" horiz-adv-x="656" 
d="M339 -12h-3l-33 -50q34 14 62 14q39 0 69.5 -20t30.5 -61q0 -45 -36.5 -66t-87.5 -21q-52 0 -85.5 19.5t-40.5 56.5l61 3q10 -29 51 -29q51 0 51 37q0 17 -13 26.5t-33 9.5q-23 0 -47 -11l-50 21l47 74q-115 14 -179.5 84t-64.5 187q0 131 80 202.5t217 71.5
q113 0 190 -51t91 -143l-136 -10q-12 46 -51.5 70.5t-93.5 24.5q-71 0 -114 -44.5t-43 -120.5q0 -77 43.5 -121t117.5 -44q58 0 96.5 26t50.5 75l138 -9q-14 -96 -91.5 -148.5t-193.5 -52.5z" />
    <glyph glyph-name="egrave" unicode="&#xe8;" horiz-adv-x="674" 
d="M414 588h-109l-126 147h146zM638 236v-16h-458q20 -134 173 -134q99 0 140 64l137 -7q-25 -74 -96 -114.5t-181 -40.5q-146 0 -230.5 68.5t-84.5 205.5q0 136 83.5 205t224.5 69q292 0 292 -300zM346 438q-67 0 -110.5 -32t-54.5 -97h318q-5 60 -45 94.5t-108 34.5z" />
    <glyph glyph-name="eacute" unicode="&#xe9;" horiz-adv-x="674" 
d="M493 735l-126 -147h-109l89 147h146zM638 236v-16h-458q20 -134 173 -134q99 0 140 64l137 -7q-25 -74 -96 -114.5t-181 -40.5q-146 0 -230.5 68.5t-84.5 205.5q0 136 83.5 205t224.5 69q292 0 292 -300zM346 438q-67 0 -110.5 -32t-54.5 -97h318q-5 60 -45 94.5
t-108 34.5z" />
    <glyph glyph-name="ecircumflex" unicode="&#xea;" horiz-adv-x="674" 
d="M336 690l-85 -102h-99l111 147h147l110 -147h-98zM638 236v-16h-458q20 -134 173 -134q99 0 140 64l137 -7q-25 -74 -96 -114.5t-181 -40.5q-146 0 -230.5 68.5t-84.5 205.5q0 136 83.5 205t224.5 69q292 0 292 -300zM346 438q-67 0 -110.5 -32t-54.5 -97h318
q-5 60 -45 94.5t-108 34.5z" />
    <glyph glyph-name="edieresis" unicode="&#xeb;" horiz-adv-x="674" 
d="M294 716v-118h-126v118h126zM505 716v-118h-126v118h126zM638 236v-16h-458q20 -134 173 -134q99 0 140 64l137 -7q-25 -74 -96 -114.5t-181 -40.5q-146 0 -230.5 68.5t-84.5 205.5q0 136 83.5 205t224.5 69q292 0 292 -300zM346 438q-67 0 -110.5 -32t-54.5 -97h318
q-5 60 -45 94.5t-108 34.5z" />
    <glyph glyph-name="igrave" unicode="&#xec;" horiz-adv-x="268" 
d="M191 588h-108l-107 147h146zM63 0v524h141v-524h-141z" />
    <glyph glyph-name="iacute" unicode="&#xed;" horiz-adv-x="272" 
d="M78 588l69 147h146l-107 -147h-108zM64 0v524h141v-524h-141z" />
    <glyph glyph-name="icircumflex" unicode="&#xee;" horiz-adv-x="274" 
d="M209 735l101 -147h-97l-76 100l-76 -100h-97l100 147h145zM64 0v524h141v-524h-141z" />
    <glyph glyph-name="idieresis" unicode="&#xef;" horiz-adv-x="271" 
d="M-17 598v118h120v-118h-120zM169 598v118h120v-118h-120zM63 0v524h141v-524h-141z" />
    <glyph glyph-name="eth" unicode="&#xf0;" horiz-adv-x="694" 
d="M468 660q184 -113 184 -347q0 -165 -84.5 -245t-226.5 -80q-139 0 -221 69.5t-82 189.5q0 117 78 187t200 70q85 0 143.5 -35.5t85.5 -98.5q-17 85 -66 139.5t-135 87.5l-141 -71l-27 49l92 46q-60 17 -145 28l24 113q152 -22 261 -70l110 56l27 -48zM344 97
q79 0 123.5 41t44.5 109q0 67 -45 108t-123 41t-122 -41t-44 -108q0 -68 44 -109t122 -41z" />
    <glyph glyph-name="ntilde" unicode="&#xf1;" horiz-adv-x="680" 
d="M265 639q-38 0 -38 -44h-76q0 118 105 118q45 0 93 -26t66 -26q40 0 40 43h75q0 -118 -104 -118q-45 0 -93.5 26.5t-67.5 26.5zM411 536q103 0 156.5 -56.5t53.5 -165.5v-314h-141v271q0 74 -29 111.5t-94 37.5q-73 0 -112.5 -45.5t-39.5 -123.5v-251h-141v524h131v-104
q63 116 216 116z" />
    <glyph glyph-name="ograve" unicode="&#xf2;" horiz-adv-x="690" 
d="M423 588h-109l-126 147h145zM38 262q0 128 83 201t224 73t223.5 -73t82.5 -201t-82.5 -201t-223.5 -73t-224 73t-83 201zM178 262q0 -73 45 -119t122 -46t122 46t45 119t-45 119t-122 46t-122 -46t-45 -119z" />
    <glyph glyph-name="oacute" unicode="&#xf3;" horiz-adv-x="690" 
d="M267 588l89 147h145l-126 -147h-108zM38 262q0 128 83 201t224 73t223.5 -73t82.5 -201t-82.5 -201t-223.5 -73t-224 73t-83 201zM178 262q0 -73 45 -119t122 -46t122 46t45 119t-45 119t-122 46t-122 -46t-45 -119z" />
    <glyph glyph-name="ocircumflex" unicode="&#xf4;" horiz-adv-x="690" 
d="M345 690l-86 -102h-98l111 147h146l111 -147h-98zM345 536q141 0 223.5 -73t82.5 -201t-82.5 -201t-223.5 -73t-224 73t-83 201t83 201t224 73zM345 97q77 0 122 46t45 119t-45 119t-122 46t-122 -46t-45 -119t45 -119t122 -46z" />
    <glyph glyph-name="otilde" unicode="&#xf5;" horiz-adv-x="690" 
d="M155 595q0 118 105 118q45 0 93.5 -26t66.5 -26q39 0 39 43h76q0 -118 -105 -118q-45 0 -93.5 26.5t-67.5 26.5q-38 0 -38 -44h-76zM38 262q0 128 83 201t224 73t223.5 -73t82.5 -201t-82.5 -201t-223.5 -73t-224 73t-83 201zM178 262q0 -73 45 -119t122 -46t122 46
t45 119t-45 119t-122 46t-122 -46t-45 -119z" />
    <glyph glyph-name="odieresis" unicode="&#xf6;" horiz-adv-x="690" 
d="M177 598v118h126v-118h-126zM387 598v118h126v-118h-126zM38 262q0 128 83 201t224 73t223.5 -73t82.5 -201t-82.5 -201t-223.5 -73t-224 73t-83 201zM178 262q0 -73 45 -119t122 -46t122 46t45 119t-45 119t-122 46t-122 -46t-45 -119z" />
    <glyph glyph-name="divide" unicode="&#xf7;" horiz-adv-x="537" 
d="M268 435q-26 0 -44.5 18.5t-18.5 44.5t18.5 44.5t44.5 18.5q27 0 46 -18.5t19 -44.5t-19 -44.5t-46 -18.5zM57 378h422v-97h-422v97zM268 97q-26 0 -44.5 18.5t-18.5 44.5t18.5 44.5t44.5 18.5q27 0 46 -18.5t19 -44.5t-19 -44.5t-46 -18.5z" />
    <glyph glyph-name="oslash" unicode="&#xf8;" horiz-adv-x="690" 
d="M568 463q83 -72 83 -201q0 -128 -82.5 -201t-223.5 -73q-93 0 -161 33l-51 -58l-62 41l50 58q-83 74 -83 200q0 128 83 201t224 73q92 0 161 -32l50 57l62 -41zM178 262q0 -61 30 -101l217 250q-37 16 -80 16q-77 0 -122 -46t-45 -119zM345 97q77 0 122 46t45 119
q0 58 -30 101l-218 -250q37 -16 81 -16z" />
    <glyph glyph-name="ugrave" unicode="&#xf9;" horiz-adv-x="680" 
d="M418 588h-109l-126 147h146zM475 524h141v-524h-131v112q-62 -124 -215 -124q-102 0 -156.5 59t-54.5 169v308h141v-265q0 -155 125 -155q72 0 111 50.5t39 130.5v239z" />
    <glyph glyph-name="uacute" unicode="&#xfa;" horiz-adv-x="680" 
d="M497 735l-126 -147h-109l89 147h146zM475 524h141v-524h-131v112q-62 -124 -215 -124q-102 0 -156.5 59t-54.5 169v308h141v-265q0 -155 125 -155q72 0 111 50.5t39 130.5v239z" />
    <glyph glyph-name="ucircumflex" unicode="&#xfb;" horiz-adv-x="680" 
d="M340 690l-85 -102h-98l110 147h147l111 -147h-99zM475 524h141v-524h-131v112q-62 -124 -215 -124q-102 0 -156.5 59t-54.5 169v308h141v-265q0 -155 125 -155q72 0 111 50.5t39 130.5v239z" />
    <glyph glyph-name="udieresis" unicode="&#xfc;" horiz-adv-x="680" 
d="M298 716v-118h-126v118h126zM509 716v-118h-126v118h126zM475 524h141v-524h-131v112q-62 -124 -215 -124q-102 0 -156.5 59t-54.5 169v308h141v-265q0 -155 125 -155q72 0 111 50.5t39 130.5v239z" />
    <glyph glyph-name="yacute" unicode="&#xfd;" horiz-adv-x="662" 
d="M486 735l-125 -147h-109l89 147h145zM493 524h152l-206 -564q-35 -99 -86.5 -135.5t-153.5 -36.5q-40 0 -80 4v109q37 -3 71 -3q50 0 75 15.5t42 61.5l9 25h-74l-224 524h153l178 -459z" />
    <glyph glyph-name="thorn" unicode="&#xfe;" horiz-adv-x="702" 
d="M404 536q115 0 187 -73.5t72 -200.5t-72 -200.5t-186 -73.5q-135 0 -200 96v-284h-141v936h141v-295q65 95 199 95zM361 97q75 0 119 45t44 120t-44 120t-119 45t-118.5 -45t-43.5 -120t43.5 -120t118.5 -45z" />
    <glyph glyph-name="ydieresis" unicode="&#xff;" horiz-adv-x="662" 
d="M288 716v-118h-126v118h126zM498 716v-118h-126v118h126zM493 524h152l-206 -564q-35 -99 -86.5 -135.5t-153.5 -36.5q-40 0 -80 4v109q37 -3 71 -3q50 0 75 15.5t42 61.5l9 25h-74l-224 524h153l178 -459z" />
    <glyph glyph-name="Amacron" unicode="&#x100;" horiz-adv-x="800" 
d="M590 860v-96h-380v96h380zM634 0l-60 160h-353l-60 -160h-146l274 700h221l276 -700h-152zM264 272h268l-134 357z" />
    <glyph glyph-name="amacron" unicode="&#x101;" horiz-adv-x="658" 
d="M517 702v-92h-360v92h360zM333 536q129 0 197.5 -56.5t68.5 -169.5v-310h-132v101q-68 -113 -226 -113q-99 0 -150 43t-51 113q0 77 63.5 116t188.5 49l166 13v18q0 44 -31 70.5t-94 27.5q-116 0 -129 -76h-131q4 63 42.5 103t92.5 55.5t125 15.5zM283 86q79 0 127 38
t48 94v21l-148 -12q-130 -11 -130 -76q0 -30 26 -47.5t77 -17.5z" />
    <glyph glyph-name="Abreve" unicode="&#x102;" horiz-adv-x="800" 
d="M400 756q-89 0 -134.5 38.5t-48.5 104.5h84q8 -61 99 -61q92 0 100 61h83q-3 -66 -48 -104.5t-135 -38.5zM634 0l-60 160h-353l-60 -160h-146l274 700h221l276 -700h-152zM264 272h268l-134 357z" />
    <glyph glyph-name="abreve" unicode="&#x103;" horiz-adv-x="658" 
d="M337 586q-88 0 -132.5 41.5t-46.5 110.5h81q6 -70 98 -70t98 70h81q-2 -69 -47 -110.5t-132 -41.5zM333 536q129 0 197.5 -56.5t68.5 -169.5v-310h-132v101q-68 -113 -226 -113q-99 0 -150 43t-51 113q0 77 63.5 116t188.5 49l166 13v18q0 44 -31 70.5t-94 27.5
q-116 0 -129 -76h-131q4 63 42.5 103t92.5 55.5t125 15.5zM283 86q79 0 127 38t48 94v21l-148 -12q-130 -11 -130 -76q0 -30 26 -47.5t77 -17.5z" />
    <glyph glyph-name="Aogonek" unicode="&#x104;" horiz-adv-x="800" 
d="M750 -102l53 -14q-11 -41 -44 -64.5t-83 -23.5q-47 0 -76.5 21.5t-29.5 60.5q0 77 138 122h-74l-60 160h-353l-60 -160h-146l274 700h221l276 -700q-60 -31 -93.5 -58t-33.5 -57q0 -33 37 -33q40 0 54 46zM264 272h268l-134 357z" />
    <glyph glyph-name="aogonek" unicode="&#x105;" horiz-adv-x="658" 
d="M563 -102l53 -14q-11 -41 -44 -64.5t-83 -23.5q-47 0 -76.5 21.5t-29.5 60.5q0 77 138 122h-54v101q-68 -113 -226 -113q-99 0 -150 43t-51 113q0 77 63.5 116t188.5 49l166 13v18q0 44 -31 70.5t-94 27.5q-116 0 -129 -76h-131q4 63 42.5 103t92.5 55.5t125 15.5
q129 0 197.5 -56.5t68.5 -169.5v-310q-60 -31 -93.5 -58t-33.5 -57q0 -33 38 -33q41 0 53 46zM283 86q79 0 127 38t48 94v21l-148 -12q-130 -11 -130 -76q0 -30 26 -47.5t77 -17.5z" />
    <glyph glyph-name="Cacute" unicode="&#x106;" horiz-adv-x="796" 
d="M327 760l101 122h144l-135 -122h-110zM44 350q0 166 96.5 264t270.5 98q142 0 232 -64.5t108 -174.5l-142 -11q-13 59 -67.5 94.5t-130.5 35.5q-107 0 -163 -68.5t-56 -173.5q0 -108 60 -175t168 -67q83 0 134.5 39.5t64.5 101.5l143 -9q-18 -119 -105 -185.5t-237 -66.5
q-179 0 -277.5 98t-98.5 264z" />
    <glyph glyph-name="cacute" unicode="&#x107;" horiz-adv-x="656" 
d="M249 588l90 147h145l-126 -147h-109zM624 189q-14 -96 -91.5 -148.5t-193.5 -52.5q-140 0 -220.5 71t-80.5 203q0 131 80 202.5t217 71.5q113 0 190 -51t91 -143l-136 -10q-12 46 -51.5 70.5t-93.5 24.5q-71 0 -114 -44.5t-43 -120.5q0 -77 43.5 -121t117.5 -44
q58 0 96.5 26t50.5 75z" />
    <glyph glyph-name="Cdotaccent" unicode="&#x10a;" horiz-adv-x="796" 
d="M319 758v115h156v-115h-156zM44 350q0 166 96.5 264t270.5 98q142 0 232 -64.5t108 -174.5l-142 -11q-13 59 -67.5 94.5t-130.5 35.5q-107 0 -163 -68.5t-56 -173.5q0 -108 60 -175t168 -67q83 0 134.5 39.5t64.5 101.5l143 -9q-18 -119 -105 -185.5t-237 -66.5
q-179 0 -277.5 98t-98.5 264z" />
    <glyph glyph-name="cdotaccent" unicode="&#x10b;" horiz-adv-x="656" 
d="M253 596v132h149v-132h-149zM624 189q-14 -96 -91.5 -148.5t-193.5 -52.5q-140 0 -220.5 71t-80.5 203q0 131 80 202.5t217 71.5q113 0 190 -51t91 -143l-136 -10q-12 46 -51.5 70.5t-93.5 24.5q-71 0 -114 -44.5t-43 -120.5q0 -77 43.5 -121t117.5 -44q58 0 96.5 26
t50.5 75z" />
    <glyph glyph-name="Ccaron" unicode="&#x10c;" horiz-adv-x="796" 
d="M478 759h-159l-118 121h104l93 -82l93 82h104zM619 249l143 -9q-18 -119 -105 -185.5t-237 -66.5q-179 0 -277.5 98t-98.5 264t96.5 264t270.5 98q142 0 232 -64.5t108 -174.5l-142 -11q-13 59 -67.5 94.5t-130.5 35.5q-107 0 -163 -68.5t-56 -173.5q0 -108 60 -175
t168 -67q83 0 134.5 39.5t64.5 101.5z" />
    <glyph glyph-name="ccaron" unicode="&#x10d;" horiz-adv-x="656" 
d="M401 585h-147l-110 147h98l85 -102l86 102h99zM486 198l138 -9q-14 -96 -91.5 -148.5t-193.5 -52.5q-140 0 -220.5 71t-80.5 203q0 131 80 202.5t217 71.5q113 0 190 -51t91 -143l-136 -10q-12 46 -51.5 70.5t-93.5 24.5q-71 0 -114 -44.5t-43 -120.5q0 -77 43.5 -121
t117.5 -44q58 0 96.5 26t50.5 75z" />
    <glyph glyph-name="Dcaron" unicode="&#x10e;" horiz-adv-x="818" 
d="M490 759h-159l-118 121h104l93 -82l93 82h104zM406 700q174 0 271 -93t97 -257t-97 -257t-271 -93h-322v700h322zM390 121q115 0 175.5 61t60.5 168t-60.5 168t-175.5 61h-158v-458h158z" />
    <glyph glyph-name="dcaron" unicode="&#x10f;" horiz-adv-x="744" 
d="M497 441v295h141v-736h-132v100q-31 -55 -86.5 -83.5t-123.5 -28.5q-114 0 -186 73.5t-72 200.5t72 200.5t187 73.5q135 0 200 -95zM705 736h102v-70l-52 -105h-50v175zM340 97q75 0 119 45t44 120t-44 120t-119 45q-74 0 -118 -45t-44 -120t44 -120t118 -45z" />
    <glyph glyph-name="Dcroat" unicode="&#x110;" horiz-adv-x="842" 
d="M430 700q174 0 271 -93t97 -257t-97 -257t-271 -93h-322v298h-78v104h78v298h322zM414 121q115 0 175.5 61t60.5 168t-60.5 168t-175.5 61h-158v-177h202v-104h-202v-177h158z" />
    <glyph glyph-name="dcroat" unicode="&#x111;" horiz-adv-x="713" 
d="M708 656v-65h-70v-591h-132v100q-31 -55 -86.5 -83.5t-123.5 -28.5q-114 0 -186 73.5t-72 200.5t72 200.5t187 73.5q135 0 200 -95v150h-211v65h211v80h141v-80h70zM340 97q75 0 119 45t44 120t-44 120t-119 45q-74 0 -118 -45t-44 -120t44 -120t118 -45z" />
    <glyph glyph-name="Emacron" unicode="&#x112;" horiz-adv-x="726" 
d="M553 860v-96h-380v96h380zM232 116h450v-116h-598v700h581v-116h-433v-173h341v-110h-341v-185z" />
    <glyph glyph-name="emacron" unicode="&#x113;" horiz-adv-x="674" 
d="M516 702v-92h-359v92h359zM638 236v-16h-458q20 -134 173 -134q99 0 140 64l137 -7q-25 -74 -96 -114.5t-181 -40.5q-146 0 -230.5 68.5t-84.5 205.5q0 136 83.5 205t224.5 69q292 0 292 -300zM346 438q-67 0 -110.5 -32t-54.5 -97h318q-5 60 -45 94.5t-108 34.5z" />
    <glyph glyph-name="Edotaccent" unicode="&#x116;" horiz-adv-x="726" 
d="M441 873v-115h-156v115h156zM232 116h450v-116h-598v700h581v-116h-433v-173h341v-110h-341v-185z" />
    <glyph glyph-name="edotaccent" unicode="&#x117;" horiz-adv-x="674" 
d="M411 728v-132h-149v132h149zM638 236v-16h-458q20 -134 173 -134q99 0 140 64l137 -7q-25 -74 -96 -114.5t-181 -40.5q-146 0 -230.5 68.5t-84.5 205.5q0 136 83.5 205t224.5 69q292 0 292 -300zM346 438q-67 0 -110.5 -32t-54.5 -97h318q-5 60 -45 94.5t-108 34.5z" />
    <glyph glyph-name="Eogonek" unicode="&#x118;" horiz-adv-x="726" 
d="M663 0q-60 -31 -93.5 -58t-33.5 -57q0 -33 37 -33q40 0 54 46l53 -14q-11 -41 -44 -64.5t-83 -23.5q-47 0 -76.5 21.5t-29.5 60.5q0 77 138 122h-501v700h581v-116h-433v-173h341v-110h-341v-185h450v-116h-19z" />
    <glyph glyph-name="eogonek" unicode="&#x119;" horiz-adv-x="674" 
d="M638 236v-16h-458q20 -134 173 -134q99 0 140 64l137 -7q-26 -74 -96 -114h1q-103 -60 -138 -88t-35 -56q0 -33 37 -33q42 0 54 46l53 -14q-11 -41 -44 -64.5t-83 -23.5q-48 0 -77.5 21.5t-29.5 60.5q0 67 106 111q-8 -1 -25 -1q-146 0 -230.5 68.5t-84.5 205.5
q0 136 83.5 205t224.5 69q292 0 292 -300zM346 438q-67 0 -110.5 -32t-54.5 -97h318q-5 60 -45 94.5t-108 34.5z" />
    <glyph glyph-name="Ecaron" unicode="&#x11a;" horiz-adv-x="726" 
d="M443 759h-158l-118 121h104l93 -82l93 82h103zM232 116h450v-116h-598v700h581v-116h-433v-173h341v-110h-341v-185z" />
    <glyph glyph-name="ecaron" unicode="&#x11b;" horiz-adv-x="674" 
d="M410 585h-147l-111 147h99l85 -102l86 102h98zM638 236v-16h-458q20 -134 173 -134q99 0 140 64l137 -7q-25 -74 -96 -114.5t-181 -40.5q-146 0 -230.5 68.5t-84.5 205.5q0 136 83.5 205t224.5 69q292 0 292 -300zM346 438q-67 0 -110.5 -32t-54.5 -97h318
q-5 60 -45 94.5t-108 34.5z" />
    <glyph glyph-name="Gbreve" unicode="&#x11e;" horiz-adv-x="814" 
d="M407 756q-89 0 -134.5 38.5t-48.5 104.5h84q3 -26 26.5 -43.5t72.5 -17.5q50 0 73 17.5t26 43.5h84q-3 -66 -48 -104.5t-135 -38.5zM419 372h345v-316q-160 -68 -322 -68q-191 0 -294.5 97.5t-103.5 264.5q0 166 96.5 264t269.5 98q137 0 226 -60.5t111 -163.5l-142 -11
q-18 52 -71 83.5t-124 31.5q-106 0 -162 -68.5t-56 -173.5q0 -109 65.5 -175.5t188.5 -66.5q88 0 183 30v135h-210v99z" />
    <glyph glyph-name="gbreve" unicode="&#x11f;" horiz-adv-x="697" 
d="M349 586q-88 0 -132.5 41.5t-46.5 110.5h81q4 -70 98 -70q90 0 98 70h81q-2 -69 -47.5 -110.5t-131.5 -41.5zM501 524h132v-446q0 -152 -70 -221t-218 -69q-119 0 -189.5 45.5t-77.5 136.5h132q16 -75 135 -75q78 0 112.5 36t34.5 111v59q-67 -88 -194 -88
q-116 0 -188 71.5t-72 190.5q0 118 72.5 189.5t188.5 71.5q139 0 202 -100v88zM340 117q74 0 118.5 42.5t44.5 111.5t-44.5 112.5t-118.5 43.5q-73 0 -117.5 -43.5t-44.5 -112.5t44.5 -111.5t117.5 -42.5z" />
    <glyph glyph-name="Gdotaccent" unicode="&#x120;" horiz-adv-x="814" 
d="M485 873v-115h-156v115h156zM419 372h345v-316q-160 -68 -322 -68q-191 0 -294.5 97.5t-103.5 264.5q0 166 96.5 264t269.5 98q137 0 226 -60.5t111 -163.5l-142 -11q-18 52 -71 83.5t-124 31.5q-106 0 -162 -68.5t-56 -173.5q0 -109 65.5 -175.5t188.5 -66.5
q88 0 183 30v135h-210v99z" />
    <glyph glyph-name="gdotaccent" unicode="&#x121;" horiz-adv-x="697" 
d="M423 728v-132h-149v132h149zM501 524h132v-446q0 -152 -70 -221t-218 -69q-119 0 -189.5 45.5t-77.5 136.5h132q16 -75 135 -75q78 0 112.5 36t34.5 111v59q-67 -88 -194 -88q-116 0 -188 71.5t-72 190.5q0 118 72.5 189.5t188.5 71.5q139 0 202 -100v88zM340 117
q74 0 118.5 42.5t44.5 111.5t-44.5 112.5t-118.5 43.5q-73 0 -117.5 -43.5t-44.5 -112.5t44.5 -111.5t117.5 -42.5z" />
    <glyph glyph-name="Gcommaaccent" unicode="&#x122;" horiz-adv-x="814" 
d="M419 372h345v-316q-160 -68 -322 -68q-191 0 -294.5 97.5t-103.5 264.5q0 166 96.5 264t269.5 98q137 0 226 -60.5t111 -163.5l-142 -11q-18 52 -71 83.5t-124 31.5q-106 0 -162 -68.5t-56 -173.5q0 -109 65.5 -175.5t188.5 -66.5q88 0 183 30v135h-210v99zM345 -233v183
h124v-77l-66 -106h-58z" />
    <glyph glyph-name="gcommaaccent" unicode="&#x123;" horiz-adv-x="697" 
d="M411 786v-183h-124v77l66 106h58zM501 524h132v-446q0 -152 -70 -221t-218 -69q-119 0 -189.5 45.5t-77.5 136.5h132q16 -75 135 -75q78 0 112.5 36t34.5 111v59q-67 -88 -194 -88q-116 0 -188 71.5t-72 190.5q0 118 72.5 189.5t188.5 71.5q139 0 202 -100v88zM340 117
q74 0 118.5 42.5t44.5 111.5t-44.5 112.5t-118.5 43.5q-73 0 -117.5 -43.5t-44.5 -112.5t44.5 -111.5t117.5 -42.5z" />
    <glyph glyph-name="Hbar" unicode="&#x126;" horiz-adv-x="839" 
d="M832 603v-84h-77v-519h-148v296h-375v-296h-148v519h-77v84h77v97h148v-97h375v97h148v-97h77zM607 417v102h-375v-102h375z" />
    <glyph glyph-name="hbar" unicode="&#x127;" horiz-adv-x="687" 
d="M418 536q103 0 157 -56.5t54 -165.5v-314h-142v271q0 149 -122 149q-74 0 -113 -45.5t-39 -123.5v-251h-141v591h-67v65h67v80h141v-80h214v-65h-214v-155q64 100 205 100z" />
    <glyph glyph-name="Imacron" unicode="&#x12a;" horiz-adv-x="315" 
d="M-20 764v96h355v-96h-355zM84 0v700h148v-700h-148z" />
    <glyph glyph-name="imacron" unicode="&#x12b;" horiz-adv-x="270" 
d="M-15 610v91h300v-91h-300zM62 0v524h141v-524h-141z" />
    <glyph glyph-name="Iogonek" unicode="&#x12e;" horiz-adv-x="314" 
d="M201 -102l53 -14q-11 -41 -43.5 -64.5t-81.5 -23.5q-47 0 -76.5 22t-29.5 61q0 78 130 121h-69v700h148v-700h-1q-119 -63 -119 -114q0 -34 37 -34q40 0 52 46z" />
    <glyph glyph-name="iogonek" unicode="&#x12f;" horiz-adv-x="269" 
d="M211 728v-132h-149v132h149zM178 -102l52 -14q-11 -41 -43.5 -64.5t-81.5 -23.5q-47 0 -76.5 22t-29.5 61q0 78 128 121h-63v524h141v-524q-116 -64 -116 -114q0 -34 36 -34q39 0 53 46z" />
    <glyph glyph-name="Idotaccent" unicode="&#x130;" horiz-adv-x="316" 
d="M80 758v115h156v-115h-156zM84 0v700h148v-700h-148z" />
    <glyph glyph-name="dotlessi" unicode="&#x131;" horiz-adv-x="269" 
d="M64 0v524h141v-524h-141z" />
    <glyph glyph-name="Kcommaaccent" unicode="&#x136;" horiz-adv-x="792" 
d="M448 361l326 -361h-182l-257 296h-103v-296h-148v700h148v-291h100l242 291h175zM334 -233v183h124v-77l-66 -106h-58z" />
    <glyph glyph-name="kcommaaccent" unicode="&#x137;" horiz-adv-x="653" 
d="M375 276l268 -276h-181l-187 209h-70v-209h-141v736h141v-417h70l181 205h171zM264 -233v183h124v-77l-66 -106h-58z" />
    <glyph glyph-name="Lacute" unicode="&#x139;" horiz-adv-x="655" 
d="M341 882l-135 -122h-110l101 122h144zM232 121h390v-121h-538v700h148v-579z" />
    <glyph glyph-name="lacute" unicode="&#x13a;" horiz-adv-x="273" 
d="M74 796l92 122h141l-123 -122h-110zM65 736h141v-736h-141v736z" />
    <glyph glyph-name="Lcommaaccent" unicode="&#x13b;" horiz-adv-x="655" 
d="M232 121h390v-121h-538v700h148v-579zM266 -233v183h123v-77l-65 -106h-58z" />
    <glyph glyph-name="lcommaaccent" unicode="&#x13c;" horiz-adv-x="269" 
d="M64 736h141v-736h-141v736zM73 -233v183h124v-77l-66 -106h-58z" />
    <glyph glyph-name="Lcaron" unicode="&#x13d;" horiz-adv-x="655" 
d="M232 121h390v-121h-538v700h148v-579zM432 630l-52 -105h-51v175h103v-70z" />
    <glyph glyph-name="lcaron" unicode="&#x13e;" horiz-adv-x="312" 
d="M64 736h141v-736h-141v736zM273 561v175h101v-70l-52 -105h-49z" />
    <glyph glyph-name="Ldot" unicode="&#x13f;" horiz-adv-x="655" 
d="M232 121h390v-121h-538v700h148v-579zM491 447v-154h-157v154h157z" />
    <glyph glyph-name="ldot" unicode="&#x140;" horiz-adv-x="443" 
d="M64 736h141v-736h-141v736zM272 234v154h157v-154h-157z" />
    <glyph glyph-name="Lslash" unicode="&#x141;" horiz-adv-x="655" 
d="M232 121h390v-121h-538v272l-83 -32v95l83 32v333h148v-277l229 87v-95l-229 -87v-207z" />
    <glyph glyph-name="lslash" unicode="&#x142;" horiz-adv-x="269" 
d="M268 530v-96l-63 -54v-380h-141v260l-62 -53v96l62 53v380h141v-259z" />
    <glyph glyph-name="Nacute" unicode="&#x143;" horiz-adv-x="855" 
d="M603 882l-135 -122h-110l101 122h144zM630 700h141v-700h-249l-297 614v-614h-141v700h250l296 -614v614z" />
    <glyph glyph-name="nacute" unicode="&#x144;" horiz-adv-x="680" 
d="M497 735l-126 -147h-108l89 147h145zM411 536q103 0 156.5 -56.5t53.5 -165.5v-314h-141v271q0 74 -29 111.5t-94 37.5q-73 0 -112.5 -45.5t-39.5 -123.5v-251h-141v524h131v-104q63 116 216 116z" />
    <glyph glyph-name="Ncommaaccent" unicode="&#x145;" horiz-adv-x="855" 
d="M630 700h141v-700h-249l-297 614v-614h-141v700h250l296 -614v614zM366 -233v183h124v-77l-66 -106h-58z" />
    <glyph glyph-name="ncommaaccent" unicode="&#x146;" horiz-adv-x="680" 
d="M411 536q103 0 156.5 -56.5t53.5 -165.5v-314h-141v271q0 74 -29 111.5t-94 37.5q-73 0 -112.5 -45.5t-39.5 -123.5v-251h-141v524h131v-104q63 116 216 116zM279 -233v183h124v-77l-66 -106h-58z" />
    <glyph glyph-name="Ncaron" unicode="&#x147;" horiz-adv-x="855" 
d="M508 759h-158l-119 121h105l93 -82l92 82h104zM630 700h141v-700h-249l-297 614v-614h-141v700h250l296 -614v614z" />
    <glyph glyph-name="ncaron" unicode="&#x148;" horiz-adv-x="680" 
d="M414 585h-147l-110 147h98l85 -102l87 102h98zM411 536q103 0 156.5 -56.5t53.5 -165.5v-314h-141v271q0 74 -29 111.5t-94 37.5q-73 0 -112.5 -45.5t-39.5 -123.5v-251h-141v524h131v-104q63 116 216 116z" />
    <glyph glyph-name="Eng" unicode="&#x14a;" horiz-adv-x="855" 
d="M630 700h141v-726q0 -190 -233 -190q-42 0 -94 5v116q42 -5 71 -5q114 0 114 85v15h-107l-297 614v-614h-141v700h250l296 -614v614z" />
    <glyph glyph-name="eng" unicode="&#x14b;" horiz-adv-x="680" 
d="M411 536q103 0 156.5 -56.5t53.5 -165.5v-360q0 -90 -36.5 -128t-124.5 -38q-22 0 -86 4v114q32 -2 39 -2q37 0 52 16.5t15 66.5v284q0 74 -29 111.5t-94 37.5q-73 0 -112.5 -45.5t-39.5 -123.5v-251h-141v524h131v-104q63 116 216 116z" />
    <glyph glyph-name="Omacron" unicode="&#x14c;" horiz-adv-x="852" 
d="M236 764v96h380v-96h-380zM44 350q0 167 100 264.5t282 97.5t282.5 -97.5t100.5 -264.5t-100.5 -264.5t-282.5 -97.5t-282 97.5t-100 264.5zM192 350q0 -108 61.5 -175t172.5 -67t173 67t62 175t-62 175t-173 67t-172.5 -67t-61.5 -175z" />
    <glyph glyph-name="omacron" unicode="&#x14d;" horiz-adv-x="690" 
d="M165 610v92h360v-92h-360zM38 262q0 128 83 201t224 73t223.5 -73t82.5 -201t-82.5 -201t-223.5 -73t-224 73t-83 201zM178 262q0 -73 45 -119t122 -46t122 46t45 119t-45 119t-122 46t-122 -46t-45 -119z" />
    <glyph glyph-name="Ohungarumlaut" unicode="&#x150;" horiz-adv-x="852" 
d="M247 760l89 122h122l-100 -122h-111zM453 760l90 122h122l-101 -122h-111zM44 350q0 167 100 264.5t282 97.5t282.5 -97.5t100.5 -264.5t-100.5 -264.5t-282.5 -97.5t-282 97.5t-100 264.5zM192 350q0 -108 61.5 -175t172.5 -67t173 67t62 175t-62 175t-173 67
t-172.5 -67t-61.5 -175z" />
    <glyph glyph-name="ohungarumlaut" unicode="&#x151;" horiz-adv-x="690" 
d="M185 588l83 147h110l-93 -147h-100zM367 588l84 147h109l-92 -147h-101zM38 262q0 128 83 201t224 73t223.5 -73t82.5 -201t-82.5 -201t-223.5 -73t-224 73t-83 201zM178 262q0 -73 45 -119t122 -46t122 46t45 119t-45 119t-122 46t-122 -46t-45 -119z" />
    <glyph glyph-name="OE" unicode="&#x152;" horiz-adv-x="1208" 
d="M715 116h450v-116h-753q-175 0 -271.5 93t-96.5 257t96.5 257t271.5 93h736v-116h-433v-173h340v-110h-340v-185zM192 350q0 -107 60 -168t175 -61h140v458h-140q-115 0 -175 -61t-60 -168z" />
    <glyph glyph-name="oe" unicode="&#x153;" horiz-adv-x="1148" 
d="M1111 236v-16h-458q22 -134 174 -134q100 0 139 64l137 -7q-24 -73 -94 -114t-176 -41q-184 0 -253 115q-71 -115 -241 -115q-137 0 -219 73t-82 201t82 201t219 73q170 0 241 -115q69 115 245 115q286 0 286 -300zM819 438q-142 0 -165 -129h318q-5 60 -45 94.5
t-108 34.5zM345 97q77 0 122 46t45 119t-45 119t-122 46t-122 -46t-45 -119t45 -119t122 -46z" />
    <glyph glyph-name="Racute" unicode="&#x154;" horiz-adv-x="783" 
d="M566 882l-135 -122h-110l101 122h144zM581 0l-215 268h-134v-268h-148v700h384q114 0 188 -55t74 -165q0 -95 -54.5 -146t-147.5 -63l235 -271h-182zM232 582v-203h223q59 0 93 26t34 75t-34 75.5t-93 26.5h-223z" />
    <glyph glyph-name="racute" unicode="&#x155;" horiz-adv-x="479" 
d="M406 735l-126 -147h-109l89 147h146zM376 535q32 0 69 -7v-125q-42 8 -88 8q-78 0 -115 -44.5t-37 -142.5v-224h-141l1 524h131v-112q54 123 180 123z" />
    <glyph glyph-name="Rcommaaccent" unicode="&#x156;" horiz-adv-x="783" 
d="M528 271l235 -271h-182l-215 268h-134v-268h-148v700h384q114 0 188 -55t74 -165q0 -95 -54.5 -146t-147.5 -63zM232 582v-203h223q59 0 93 26t34 75t-34 75.5t-93 26.5h-223zM329 -233v183h124v-77l-66 -106h-58z" />
    <glyph glyph-name="rcommaaccent" unicode="&#x157;" horiz-adv-x="479" 
d="M376 535q32 0 69 -7v-125q-42 8 -88 8q-78 0 -115 -44.5t-37 -142.5v-224h-141l1 524h131v-112q54 123 180 123zM72 -233v183h125v-77l-67 -106h-58z" />
    <glyph glyph-name="Rcaron" unicode="&#x158;" horiz-adv-x="783" 
d="M471 759h-158l-118 121h104l93 -82l93 82h103zM581 0l-215 268h-134v-268h-148v700h384q114 0 188 -55t74 -165q0 -95 -54.5 -146t-147.5 -63l235 -271h-182zM232 582v-203h223q59 0 93 26t34 75t-34 75.5t-93 26.5h-223z" />
    <glyph glyph-name="rcaron" unicode="&#x159;" horiz-adv-x="479" 
d="M323 585h-147l-111 147h98l86 -102l86 102h98zM376 535q32 0 69 -7v-125q-42 8 -88 8q-78 0 -115 -44.5t-37 -142.5v-224h-141l1 524h131v-112q54 123 180 123z" />
    <glyph glyph-name="Sacute" unicode="&#x15a;" horiz-adv-x="722" 
d="M292 760l101 122h144l-135 -122h-110zM169 233q5 -60 53 -96t145 -36q46 0 83 7.5t63.5 27t26.5 49.5q0 31 -27 50.5t-88 36.5l-190 52q-175 47 -175 187q0 101 81.5 151t205.5 50q133 0 218.5 -57.5t95.5 -162.5l-139 -7q-6 50 -50.5 82t-127.5 32q-64 0 -100.5 -20.5
t-36.5 -57.5q0 -55 102 -83l183 -49q98 -26 146.5 -70.5t48.5 -121.5q0 -105 -86 -157t-235 -52q-159 0 -243.5 61.5t-92.5 179.5z" />
    <glyph glyph-name="sacute" unicode="&#x15b;" horiz-adv-x="599" 
d="M222 588l89 147h145l-125 -147h-109zM425 365q-8 35 -46.5 54t-98.5 19q-98 0 -98 -51q0 -39 76 -57l147 -32q165 -37 165 -152q0 -80 -73.5 -119t-199.5 -39q-257 0 -275 171l130 5q14 -78 152 -78q127 0 127 53q0 37 -89 59l-151 33q-149 36 -149 151q0 54 34 89.5
t86 50t121 14.5q112 0 186.5 -40.5t85.5 -124.5z" />
    <glyph glyph-name="Scedilla" unicode="&#x15e;" horiz-adv-x="722" 
d="M366 -12h-7l-33 -50q34 14 62 14q39 0 69.5 -20t30.5 -61q0 -46 -36.5 -66.5t-88.5 -20.5t-85.5 19.5t-40.5 56.5l61 3q10 -29 52 -29q51 0 51 37q0 17 -13.5 26.5t-32.5 9.5q-23 0 -47 -11l-50 21l46 74q-260 23 -274 238l139 4q5 -60 53 -96t145 -36q46 0 83 7.5
t63.5 27t26.5 49.5q0 31 -27 50.5t-88 36.5l-190 52q-175 47 -175 187q0 101 81.5 151t205.5 50q133 0 218.5 -57.5t95.5 -162.5l-139 -7q-6 50 -50.5 82t-127.5 32q-64 0 -100.5 -20.5t-36.5 -57.5q0 -55 102 -83l183 -49q98 -26 146.5 -70.5t48.5 -121.5q0 -105 -86 -157
t-235 -52z" />
    <glyph glyph-name="scedilla" unicode="&#x15f;" horiz-adv-x="599" 
d="M570 146q0 -78 -70.5 -117t-190.5 -41l-33 -50q34 14 61 14q39 0 70 -20t31 -61q0 -46 -36.5 -66.5t-88.5 -20.5t-85.5 19.5t-40.5 56.5l61 3q10 -29 52 -29q50 0 50 37q0 17 -13 26.5t-33 9.5q-23 0 -47 -11l-50 21l46 72q-214 15 -231 170l130 5q14 -78 152 -78
q127 0 127 53q0 37 -89 59l-151 33q-149 36 -149 151q0 54 34 89.5t86 50t121 14.5q112 0 186.5 -40.5t85.5 -124.5l-130 -6q-8 35 -46.5 54t-98.5 19q-98 0 -98 -51q0 -39 76 -57l147 -32q165 -37 165 -152z" />
    <glyph glyph-name="Scaron" unicode="&#x160;" horiz-adv-x="722" 
d="M443 759h-159l-118 121h104l93 -82l93 82h104zM492 389q98 -26 146.5 -70.5t48.5 -121.5q0 -105 -86 -157t-235 -52q-159 0 -243.5 61.5t-92.5 179.5l139 4q5 -60 53 -96t145 -36q46 0 83 7.5t63.5 27t26.5 49.5q0 31 -27 50.5t-88 36.5l-190 52q-175 47 -175 187
q0 101 81.5 151t205.5 50q133 0 218.5 -57.5t95.5 -162.5l-139 -7q-6 50 -50.5 82t-127.5 32q-64 0 -100.5 -20.5t-36.5 -57.5q0 -55 102 -83z" />
    <glyph glyph-name="scaron" unicode="&#x161;" horiz-adv-x="599" 
d="M373 585h-146l-111 147h98l86 -102l86 102h98zM405 298q165 -37 165 -152q0 -80 -73.5 -119t-199.5 -39q-257 0 -275 171l130 5q14 -78 152 -78q127 0 127 53q0 37 -89 59l-151 33q-149 36 -149 151q0 54 34 89.5t86 50t121 14.5q112 0 186.5 -40.5t85.5 -124.5l-130 -6
q-8 35 -46.5 54t-98.5 19q-98 0 -98 -51q0 -39 76 -57z" />
    <glyph glyph-name="uni0162" unicode="&#x162;" horiz-adv-x="702" 
d="M425 0h-50l-41 -62q34 14 62 14q39 0 69.5 -20t30.5 -61q0 -46 -36.5 -66.5t-88.5 -20.5t-85.5 19.5t-40.5 56.5l61 3q10 -29 52 -29q51 0 51 37q0 17 -13.5 26.5t-32.5 9.5q-23 0 -47 -11l-50 21l52 83h-41v579h-253v121h654v-121h-253v-579z" />
    <glyph glyph-name="uni0163" unicode="&#x163;" horiz-adv-x="470" 
d="M435 418h-147v-229q0 -47 15.5 -65t60.5 -18q23 0 71 6v-114q-50 -8 -100 -8q-20 0 -30 1l-35 -53q34 14 62 14q39 0 69.5 -20t30.5 -61q0 -46 -36.5 -66.5t-88.5 -20.5t-85.5 19.5t-40.5 56.5l61 3q10 -29 52 -29q51 0 51 37q0 17 -13.5 26.5t-32.5 9.5q-23 0 -47 -11
l-50 21l52 82q-56 14 -81.5 54t-25.5 115v250h-128v104h94q23 0 32.5 8.5t9.5 28.5v88h133v-123h147v-106z" />
    <glyph glyph-name="Tcaron" unicode="&#x164;" horiz-adv-x="702" 
d="M431 759h-159l-118 121h104l93 -82l93 82h104zM678 700v-121h-253v-579h-148v579h-253v121h654z" />
    <glyph glyph-name="tcaron" unicode="&#x165;" horiz-adv-x="469" 
d="M343 736h102v-65l-51 -104h-51v169zM288 647v-123h147v-106h-147v-229q0 -47 15.5 -65t60.5 -18q23 0 71 6v-114q-50 -8 -100 -8q-99 0 -143.5 40.5t-44.5 137.5v250h-128v104h94q23 0 32.5 8.5t9.5 28.5v88h133z" />
    <glyph glyph-name="Tbar" unicode="&#x166;" horiz-adv-x="702" 
d="M678 579h-253v-140h169v-85h-169v-354h-148v354h-168v85h168v140h-253v121h654v-121z" />
    <glyph glyph-name="tbar" unicode="&#x167;" horiz-adv-x="470" 
d="M435 418h-147v-98h131v-96h-131v-35q0 -47 15.5 -65t60.5 -18q23 0 71 6v-114q-50 -8 -100 -8q-99 0 -143.5 40.5t-44.5 137.5v56h-110v96h110v98h-128v104h94q23 0 32.5 8.5t9.5 28.5v88h133v-123h147v-106z" />
    <glyph glyph-name="Umacron" unicode="&#x16a;" horiz-adv-x="844" 
d="M232 764v96h380v-96h-380zM422 -12q-168 0 -253 74.5t-85 217.5v420h148v-407q0 -184 190 -184t190 184v407h148v-420q0 -143 -85 -217.5t-253 -74.5z" />
    <glyph glyph-name="umacron" unicode="&#x16b;" horiz-adv-x="680" 
d="M520 702v-92h-359v92h359zM475 524h141v-524h-131v112q-62 -124 -215 -124q-102 0 -156.5 59t-54.5 169v308h141v-265q0 -155 125 -155q72 0 111 50.5t39 130.5v239z" />
    <glyph glyph-name="Uring" unicode="&#x16e;" horiz-adv-x="844" 
d="M296 848q0 50 36.5 77t89.5 27t90 -27t37 -77t-37 -77t-90 -27t-89.5 27t-36.5 77zM362 848q0 -21 17 -33t43 -12t43.5 12.5t17.5 32.5t-17.5 32.5t-43.5 12.5t-43 -12.5t-17 -32.5zM422 -12q-168 0 -253 74.5t-85 217.5v420h148v-407q0 -184 190 -184t190 184v407h148
v-420q0 -143 -85 -217.5t-253 -74.5z" />
    <glyph glyph-name="uring" unicode="&#x16f;" horiz-adv-x="680" 
d="M341 582q-54 0 -91 27t-37 78q0 50 37 77t91 27t90.5 -27t36.5 -77q0 -51 -36.5 -78t-90.5 -27zM341 734q-26 0 -43 -12.5t-17 -34.5t17 -35t43 -13q25 0 42 13t17 35t-16.5 34.5t-42.5 12.5zM475 524h141v-524h-131v112q-62 -124 -215 -124q-102 0 -156.5 59t-54.5 169
v308h141v-265q0 -155 125 -155q72 0 111 50.5t39 130.5v239z" />
    <glyph glyph-name="Uhungarumlaut" unicode="&#x170;" horiz-adv-x="844" 
d="M243 760l89 122h122l-100 -122h-111zM449 760l89 122h123l-101 -122h-111zM422 -12q-168 0 -253 74.5t-85 217.5v420h148v-407q0 -184 190 -184t190 184v407h148v-420q0 -143 -85 -217.5t-253 -74.5z" />
    <glyph glyph-name="uhungarumlaut" unicode="&#x171;" horiz-adv-x="680" 
d="M373 735l-92 -147h-101l84 147h109zM463 588h-100l84 147h109zM475 524h141v-524h-131v112q-62 -124 -215 -124q-102 0 -156.5 59t-54.5 169v308h141v-265q0 -155 125 -155q72 0 111 50.5t39 130.5v239z" />
    <glyph glyph-name="Uogonek" unicode="&#x172;" horiz-adv-x="844" 
d="M612 700h148v-420q0 -232 -219 -280q-39 -22 -62 -36t-43.5 -36t-20.5 -43q0 -33 38 -33q41 0 53 46l53 -14q-11 -41 -44 -64.5t-83 -23.5q-47 0 -76.5 21.5t-29.5 60.5q0 69 105 110h-9q-168 0 -253 74.5t-85 217.5v420h148v-407q0 -184 190 -184t190 184v407z" />
    <glyph glyph-name="uogonek" unicode="&#x173;" horiz-adv-x="680" 
d="M580 -102l53 -14q-11 -41 -44 -64.5t-83 -23.5q-47 0 -76.5 21.5t-29.5 60.5q0 77 138 122h-53v112q-62 -124 -215 -124q-102 0 -156.5 59t-54.5 169v308h141v-265q0 -155 125 -155q72 0 111 50.5t39 130.5v239h141v-524q-60 -31 -93.5 -58t-33.5 -57q0 -33 38 -33
q41 0 53 46z" />
    <glyph glyph-name="Wcircumflex" unicode="&#x174;" horiz-adv-x="1143" 
d="M572 844l-93 -82h-104l118 121h159l117 -121h-104zM966 700h154l-190 -700h-219l-139 598l-143 -598h-221l-185 700h158l144 -595l144 595h208l141 -596z" />
    <glyph glyph-name="wcircumflex" unicode="&#x175;" horiz-adv-x="1012" 
d="M506 690l-85 -102h-99l111 147h147l110 -147h-98zM838 524h152l-174 -524h-199l-109 450l-112 -450h-203l-171 524h155l124 -427l110 427h197l107 -417z" />
    <glyph glyph-name="Ycircumflex" unicode="&#x176;" horiz-adv-x="789" 
d="M395 844l-93 -82h-104l118 121h159l117 -121h-104zM775 700l-307 -427v-273h-147v273l-307 427h172l210 -313l213 313h166z" />
    <glyph glyph-name="ycircumflex" unicode="&#x177;" horiz-adv-x="662" 
d="M330 690l-86 -102h-98l111 147h146l111 -147h-98zM493 524h152l-206 -564q-35 -99 -86.5 -135.5t-153.5 -36.5q-40 0 -80 4v109q37 -3 71 -3q50 0 75 15.5t42 61.5l9 25h-74l-224 524h153l178 -459z" />
    <glyph glyph-name="Ydieresis" unicode="&#x178;" horiz-adv-x="789" 
d="M347 873v-112h-140v112h140zM582 873v-112h-140v112h140zM775 700l-307 -427v-273h-147v273l-307 427h172l210 -313l213 313h166z" />
    <glyph glyph-name="Zacute" unicode="&#x179;" horiz-adv-x="696" 
d="M523 882l-135 -122h-110l101 122h144zM216 121h456v-121h-652v103l445 476h-416v121h611v-103z" />
    <glyph glyph-name="zacute" unicode="&#x17a;" horiz-adv-x="584" 
d="M449 735l-126 -147h-109l89 147h146zM206 110h355v-110h-541v97l344 317h-321v110h508v-97z" />
    <glyph glyph-name="Zdotaccent" unicode="&#x17b;" horiz-adv-x="696" 
d="M426 873v-115h-156v115h156zM216 121h456v-121h-652v103l445 476h-416v121h611v-103z" />
    <glyph glyph-name="zdotaccent" unicode="&#x17c;" horiz-adv-x="584" 
d="M367 728v-132h-149v132h149zM206 110h355v-110h-541v97l344 317h-321v110h508v-97z" />
    <glyph glyph-name="Zcaron" unicode="&#x17d;" horiz-adv-x="696" 
d="M428 759h-158l-118 121h104l93 -82l93 82h103zM216 121h456v-121h-652v103l445 476h-416v121h611v-103z" />
    <glyph glyph-name="zcaron" unicode="&#x17e;" horiz-adv-x="584" 
d="M366 585h-147l-111 147h98l86 -102l86 102h98zM206 110h355v-110h-541v97l344 317h-321v110h508v-97z" />
    <glyph glyph-name="Scommaaccent" unicode="&#x218;" horiz-adv-x="722" 
d="M169 233q5 -60 53 -96t145 -36q46 0 83 7.5t63.5 27t26.5 49.5q0 31 -27 50.5t-88 36.5l-190 52q-175 47 -175 187q0 101 81.5 151t205.5 50q133 0 218.5 -57.5t95.5 -162.5l-139 -7q-6 50 -50.5 82t-127.5 32q-64 0 -100.5 -20.5t-36.5 -57.5q0 -55 102 -83l183 -49
q98 -26 146.5 -70.5t48.5 -121.5q0 -105 -86 -157t-235 -52q-159 0 -243.5 61.5t-92.5 179.5zM301 -233v183h123v-77l-66 -106h-57z" />
    <glyph glyph-name="scommaaccent" unicode="&#x219;" horiz-adv-x="599" 
d="M425 365q-8 35 -46.5 54t-98.5 19q-98 0 -98 -51q0 -39 76 -57l147 -32q165 -37 165 -152q0 -80 -73.5 -119t-199.5 -39q-257 0 -275 171l130 5q14 -78 152 -78q127 0 127 53q0 37 -89 59l-151 33q-149 36 -149 151q0 54 34 89.5t86 50t121 14.5q112 0 186.5 -40.5
t85.5 -124.5zM238 -233v183h124v-77l-66 -106h-58z" />
    <glyph glyph-name="uni021A" unicode="&#x21a;" horiz-adv-x="702" 
d="M678 700v-121h-253v-579h-148v579h-253v121h654zM289 -233v183h123v-77l-65 -106h-58z" />
    <glyph glyph-name="uni021B" unicode="&#x21b;" horiz-adv-x="470" 
d="M435 418h-147v-229q0 -47 15.5 -65t60.5 -18q23 0 71 6v-114q-50 -8 -100 -8q-99 0 -143.5 40.5t-44.5 137.5v250h-128v104h94q23 0 32.5 8.5t9.5 28.5v88h133v-123h147v-106zM232 -233v183h125v-77l-67 -106h-58z" />
    <glyph glyph-name="circumflex" unicode="&#x2c6;" horiz-adv-x="448" 
d="M408 588h-98l-86 102l-86 -102h-98l111 147h146z" />
    <glyph glyph-name="caron" unicode="&#x2c7;" horiz-adv-x="448" 
d="M310 732h98l-111 -147h-146l-111 147h98l86 -102z" />
    <glyph glyph-name="breve" unicode="&#x2d8;" horiz-adv-x="438" 
d="M219 586q-87 0 -132 41.5t-47 110.5h81q6 -70 98 -70t98 70h81q-2 -69 -47 -110.5t-132 -41.5z" />
    <glyph glyph-name="dotaccent" unicode="&#x2d9;" horiz-adv-x="229" 
d="M40 596v132h149v-132h-149z" />
    <glyph glyph-name="ring" unicode="&#x2da;" horiz-adv-x="335" 
d="M167 582q-54 0 -90.5 27t-36.5 78q0 50 36.5 77t90.5 27t91 -27t37 -77q0 -51 -37 -78t-91 -27zM167 639q26 0 43 13t17 35t-17 34.5t-43 12.5t-42.5 -12.5t-16.5 -34.5t17 -35t42 -13z" />
    <glyph glyph-name="ogonek" unicode="&#x2db;" horiz-adv-x="313" 
d="M146 -204q-47 0 -76.5 21.5t-29.5 60.5q0 77 138 122h78q-60 -31 -93.5 -58t-33.5 -57q0 -33 38 -33q41 0 53 46l53 -14q-11 -41 -44 -64.5t-83 -23.5z" />
    <glyph glyph-name="tilde" unicode="&#x2dc;" horiz-adv-x="459" 
d="M40 595q0 118 105 118q44 0 92.5 -26t66.5 -26q40 0 40 43h75q0 -118 -104 -118q-45 0 -93.5 26.5t-67.5 26.5q-38 0 -38 -44h-76z" />
    <glyph glyph-name="hungarumlaut" unicode="&#x2dd;" horiz-adv-x="456" 
d="M40 588l84 147h109l-92 -147h-101zM223 588l83 147h110l-93 -147h-100z" />
    <glyph glyph-name="pi" unicode="&#x3c0;" horiz-adv-x="735" 
d="M697 418h-93v-248q0 -34 12.5 -47t36.5 -13q8 0 42 2v-114q-56 -4 -79 -4q-79 0 -113 33t-34 107v284h-213v-418h-139v418h-90v106h670v-106z" />
    <glyph glyph-name="uni0401" unicode="&#x401;" horiz-adv-x="726" 
d="M316 873v-112h-140v112h140zM551 873v-112h-140v112h140zM232 116h450v-116h-598v700h581v-116h-433v-173h341v-110h-341v-185z" />
    <glyph glyph-name="uni0404" unicode="&#x404;" horiz-adv-x="798" 
d="M621 239l143 -8q-19 -115 -107 -179t-235 -64q-179 0 -278.5 98t-99.5 264t97 264t271 98q140 0 230 -61.5t112 -168.5l-143 -11q-16 55 -70.5 88t-128.5 33q-90 0 -144.5 -50t-70.5 -131h289v-110h-291q13 -88 72 -140.5t155 -52.5q80 0 131.5 36.5t67.5 94.5z" />
    <glyph glyph-name="uni0406" unicode="&#x406;" horiz-adv-x="316" 
d="M84 0v700h148v-700h-148z" />
    <glyph glyph-name="uni0407" unicode="&#x407;" horiz-adv-x="315" 
d="M-7 761v112h127v-112h-127zM195 761v112h127v-112h-127zM83 0v700h148v-700h-148z" />
    <glyph glyph-name="uni040E" unicode="&#x40e;" horiz-adv-x="773" 
d="M386 756q-178 0 -185 145h93q8 -67 92 -67q83 0 91 67h93q-5 -145 -184 -145zM597 700h161l-231 -504q-51 -113 -104.5 -157.5t-143.5 -44.5q-53 0 -108 7v115q60 -5 83 -5q39 0 66.5 15t47.5 57l6 15h-65l-290 502h166l233 -434z" />
    <glyph glyph-name="uni0410" unicode="&#x410;" horiz-adv-x="800" 
d="M634 0l-60 160h-353l-60 -160h-146l274 700h221l276 -700h-152zM264 272h268l-134 357z" />
    <glyph glyph-name="uni0411" unicode="&#x411;" horiz-adv-x="761" 
d="M461 425q118 0 191.5 -52t73.5 -160q0 -109 -73.5 -161t-191.5 -52h-377v700h580v-114h-432v-161h229zM448 114q130 0 130 99t-130 99h-216v-198h216z" />
    <glyph glyph-name="uni0412" unicode="&#x412;" horiz-adv-x="783" 
d="M527 359q102 -8 159.5 -50t57.5 -121q0 -90 -73.5 -139t-199.5 -49h-387v700h383q114 0 183 -46.5t69 -133.5q0 -142 -192 -161zM572 498q0 41 -30.5 64.5t-85.5 23.5h-224v-176h224q54 0 85 23.5t31 64.5zM457 114q139 0 139 94q0 93 -131 93h-233v-187h225z" />
    <glyph glyph-name="uni0413" unicode="&#x413;" horiz-adv-x="651" 
d="M621 700v-121h-389v-579h-148v700h537z" />
    <glyph glyph-name="uni0414" unicode="&#x414;" horiz-adv-x="797" 
d="M706 121h76v-283h-138v162h-497v-162h-138v283h62q74 117 89 579h546v-579zM257 272q-19 -93 -46 -151h347v458h-265q-12 -182 -36 -307z" />
    <glyph glyph-name="uni0415" unicode="&#x415;" horiz-adv-x="726" 
d="M232 116h450v-116h-598v700h581v-116h-433v-173h341v-110h-341v-185z" />
    <glyph glyph-name="uni0416" unicode="&#x416;" horiz-adv-x="1199" 
d="M1001 0l-237 296h-93v-296h-143v296h-92l-238 -296h-180l304 361l-291 339h173l231 -291h93v291h143v-291h93l231 291h174l-291 -339l303 -361h-180z" />
    <glyph glyph-name="uni0417" unicode="&#x417;" horiz-adv-x="726" 
d="M438 361q248 -17 248 -177q0 -98 -87.5 -147t-234.5 -49q-308 0 -336 228l141 6q19 -120 195 -120q84 0 129 27t45 74q0 98 -176 98h-94v110h85q80 0 120.5 25t40.5 68q0 44 -40 69t-110 25q-71 0 -119 -26.5t-58 -83.5l-140 9q14 108 97.5 161.5t219.5 53.5
q131 0 214.5 -45t83.5 -138q0 -153 -224 -168z" />
    <glyph glyph-name="uni0418" unicode="&#x418;" horiz-adv-x="859" 
d="M547 700h228v-700h-143v596l-318 -596h-230v700h144v-598z" />
    <glyph glyph-name="uni0419" unicode="&#x419;" horiz-adv-x="859" 
d="M429 756q-179 0 -184 145h93q8 -67 91 -67q84 0 92 67h93q-7 -145 -185 -145zM547 700h228v-700h-143v596l-318 -596h-230v700h144v-598z" />
    <glyph glyph-name="uni041A" unicode="&#x41a;" horiz-adv-x="792" 
d="M592 0l-257 296h-103v-296h-148v700h148v-291h100l242 291h175l-301 -339l326 -361h-182z" />
    <glyph glyph-name="uni041B" unicode="&#x41b;" horiz-adv-x="830" 
d="M178 700h567v-700h-148v579h-285q-13 -273 -15 -295q-15 -177 -69 -239q-44 -50 -127 -50q-41 0 -82 4v120q29 -3 47 -3t32 7.5t24.5 25.5t17.5 38t12 55t8.5 66.5t5.5 81.5t3.5 91t4 105t4.5 114z" />
    <glyph glyph-name="uni041C" unicode="&#x41c;" horiz-adv-x="1068" 
d="M728 700h256l-1 -700h-141l1 620l-209 -620h-201l-208 618v-618h-141v700h258l194 -617z" />
    <glyph glyph-name="uni041D" unicode="&#x41d;" horiz-adv-x="839" 
d="M607 700h148v-700h-148v296h-375v-296h-148v700h148v-283h375v283z" />
    <glyph glyph-name="uni041E" unicode="&#x41e;" horiz-adv-x="852" 
d="M44 350q0 167 100 264.5t282 97.5t282.5 -97.5t100.5 -264.5t-100.5 -264.5t-282.5 -97.5t-282 97.5t-100 264.5zM192 350q0 -108 61.5 -175t172.5 -67t173 67t62 175t-62 175t-173 67t-172.5 -67t-61.5 -175z" />
    <glyph glyph-name="uni041F" unicode="&#x41f;" horiz-adv-x="834" 
d="M84 700h666v-700h-148v579h-370v-579h-148v700z" />
    <glyph glyph-name="uni0420" unicode="&#x420;" horiz-adv-x="757" 
d="M458 700q114 0 188 -55.5t74 -168.5q0 -112 -71.5 -164t-188.5 -52h-228v-260h-148v700h374zM445 373q60 0 93.5 26t33.5 77q0 52 -33.5 77.5t-93.5 25.5h-213v-206h213z" />
    <glyph glyph-name="uni0421" unicode="&#x421;" horiz-adv-x="796" 
d="M44 350q0 166 96.5 264t270.5 98q142 0 232 -64.5t108 -174.5l-142 -11q-13 59 -67.5 94.5t-130.5 35.5q-107 0 -163 -68.5t-56 -173.5q0 -108 60 -175t168 -67q83 0 134.5 39.5t64.5 101.5l143 -9q-18 -119 -105 -185.5t-237 -66.5q-179 0 -277.5 98t-98.5 264z" />
    <glyph glyph-name="uni0422" unicode="&#x422;" horiz-adv-x="702" 
d="M678 700v-121h-253v-579h-148v579h-253v121h654z" />
    <glyph glyph-name="uni0423" unicode="&#x423;" horiz-adv-x="773" 
d="M597 700h161l-231 -504q-51 -113 -104.5 -157.5t-143.5 -44.5q-53 0 -108 7v115q60 -5 83 -5q39 0 66.5 15t47.5 57l6 15h-65l-290 502h166l233 -434z" />
    <glyph glyph-name="uni0424" unicode="&#x424;" horiz-adv-x="996" 
d="M610 651q166 0 255.5 -74t89.5 -211t-89.5 -211t-255.5 -74h-41v-81h-142v81h-41q-165 0 -255.5 74t-90.5 211q0 136 90.5 210.5t255.5 74.5h41v61h142v-61h41zM395 195h32v342h-32q-99 0 -153 -44t-54 -127t54 -127t153 -44zM601 195q99 0 152.5 44t53.5 127t-53.5 127
t-152.5 44h-32v-342h32z" />
    <glyph glyph-name="uni0425" unicode="&#x425;" horiz-adv-x="773" 
d="M750 0h-172l-196 259l-196 -259h-165l279 357l-258 343h173l171 -241l174 241h165l-255 -338z" />
    <glyph glyph-name="uni0426" unicode="&#x426;" horiz-adv-x="842" 
d="M750 121h76v-283h-138v162h-604v700h148v-579h370v579h148v-579z" />
    <glyph glyph-name="uni0427" unicode="&#x427;" horiz-adv-x="784" 
d="M552 700h148v-700h-148v279q-114 -26 -220 -26q-272 0 -272 221v226h148v-199q0 -71 40.5 -99t126.5 -28q93 0 177 25v301z" />
    <glyph glyph-name="uni0428" unicode="&#x428;" horiz-adv-x="1147" 
d="M918 700h145v-700h-979v700h145v-579h272v579h145v-579h272v579z" />
    <glyph glyph-name="uni0429" unicode="&#x429;" horiz-adv-x="1154" 
d="M1063 121h76v-283h-138v162h-917v700h145v-579h272v579h145v-579h272v579h145v-579z" />
    <glyph glyph-name="uni042A" unicode="&#x42a;" horiz-adv-x="862" 
d="M567 439q117 0 189.5 -54t72.5 -165q0 -112 -73 -166t-189 -54h-365v579h-180v121h327v-261h218zM555 121q59 0 92.5 25t33.5 75q0 100 -126 100h-206v-200h206z" />
    <glyph glyph-name="uni042B" unicode="&#x42b;" horiz-adv-x="1023" 
d="M434 439q116 0 188.5 -54t72.5 -165q0 -112 -72.5 -166t-188.5 -54h-350v700h148v-261h202zM791 700h148v-700h-148v700zM421 121q60 0 93.5 25t33.5 75t-33.5 75t-93.5 25h-189v-200h189z" />
    <glyph glyph-name="uni042C" unicode="&#x42c;" horiz-adv-x="745" 
d="M450 439q116 0 189 -54t73 -165q0 -112 -73 -166t-189 -54h-366v700h148v-261h218zM437 121q60 0 93.5 25t33.5 75t-33.5 75t-93.5 25h-205v-200h205z" />
    <glyph glyph-name="uni042D" unicode="&#x42d;" horiz-adv-x="798" 
d="M386 712q174 0 271.5 -98.5t97.5 -263.5q0 -166 -99.5 -264t-278.5 -98q-148 0 -236 64t-107 179l143 8q16 -58 68 -94.5t132 -36.5q95 0 154 52.5t72 140.5h-290v110h288q-15 81 -70 131t-145 50q-74 0 -128.5 -33t-70.5 -88l-142 11q22 107 112 168.5t229 61.5z" />
    <glyph glyph-name="uni042E" unicode="&#x42e;" horiz-adv-x="1145" 
d="M731 712q180 0 275.5 -97t95.5 -265t-96 -265t-275 -97q-164 0 -258.5 81.5t-109.5 226.5h-131v-296h-148v700h148v-284h132q18 139 112.5 217.5t254.5 78.5zM731 108q108 0 165.5 66t57.5 176t-57.5 176t-165.5 66t-165.5 -66.5t-57.5 -175.5t57.5 -175.5t165.5 -66.5z
" />
    <glyph glyph-name="uni042F" unicode="&#x42f;" horiz-adv-x="783" 
d="M305 700h394v-700h-148v268h-153l-197 -268h-181l221 272q-91 12 -144.5 63t-53.5 145q0 110 74 165t188 55zM318 379h233v203h-233q-59 0 -93 -26.5t-34 -75.5t34 -75t93 -26z" />
    <glyph glyph-name="uni0430" unicode="&#x430;" horiz-adv-x="658" 
d="M333 536q129 0 197.5 -56.5t68.5 -169.5v-310h-132v101q-68 -113 -226 -113q-99 0 -150 43t-51 113q0 77 63.5 116t188.5 49l166 13v18q0 44 -31 70.5t-94 27.5q-116 0 -129 -76h-131q4 63 42.5 103t92.5 55.5t125 15.5zM283 86q79 0 127 38t48 94v21l-148 -12
q-130 -11 -130 -76q0 -30 26 -47.5t77 -17.5z" />
    <glyph glyph-name="uni0431" unicode="&#x431;" horiz-adv-x="697" 
d="M380 504q123 0 200.5 -70t77.5 -187q0 -120 -82 -189.5t-225 -69.5q-142 0 -224.5 81t-82.5 261q0 163 57.5 252t185.5 117q40 9 171 24q88 11 138 25v-110q-33 -17 -123 -28q-98 -9 -115 -11q-45 -5 -76 -15.5t-61 -34.5t-48 -70t-25 -115q26 66 85.5 103t146.5 37z
M351 97q78 0 123 40.5t45 109.5q0 68 -45 108.5t-123 40.5q-77 0 -122 -40.5t-45 -108.5q0 -69 44.5 -109.5t122.5 -40.5z" />
    <glyph glyph-name="uni0432" unicode="&#x432;" horiz-adv-x="643" 
d="M439 272q170 -15 170 -127q0 -61 -51 -103t-173 -42h-321v524h305q112 0 165 -36.5t53 -95.5q0 -99 -148 -120zM446 367q0 55 -96 55h-145v-111h151q90 0 90 56zM368 102q99 0 99 61q0 60 -104 60h-158v-121h163z" />
    <glyph glyph-name="uni0433" unicode="&#x433;" horiz-adv-x="529" 
d="M504 524v-116h-299v-408h-141v524h440z" />
    <glyph glyph-name="uni0434" unicode="&#x434;" horiz-adv-x="687" 
d="M592 116h76v-255h-134v139h-387v-139h-134v255h49q24 46 34.5 122.5t21.5 240.5q1 10 1 15.5t0.5 14t1.5 15.5h471v-408zM240 408q-10 -124 -18.5 -183t-26.5 -109h255v292h-210z" />
    <glyph glyph-name="uni0435" unicode="&#x435;" horiz-adv-x="674" 
d="M638 236v-16h-458q20 -134 173 -134q99 0 140 64l137 -7q-25 -74 -96 -114.5t-181 -40.5q-146 0 -230.5 68.5t-84.5 205.5q0 136 83.5 205t224.5 69q292 0 292 -300zM346 438q-67 0 -110.5 -32t-54.5 -97h318q-5 60 -45 94.5t-108 34.5z" />
    <glyph glyph-name="uni0436" unicode="&#x436;" horiz-adv-x="978" 
d="M791 0l-172 209h-61v-209h-137v209h-61l-173 -209h-177l248 276l-237 248h168l169 -205h63v205h137v-205h63l168 205h169l-237 -248l247 -276h-177z" />
    <glyph glyph-name="uni0437" unicode="&#x437;" horiz-adv-x="623" 
d="M413 272q175 -17 175 -130q0 -31 -13 -56.5t-42.5 -48.5t-85.5 -36t-134 -13q-272 0 -287 181l136 5q15 -81 151 -81q134 0 134 66q0 64 -145 64h-67v88h61q131 0 131 60q0 28 -31.5 44t-81.5 16q-118 0 -131 -76l-137 6q9 89 82 132t186 43q127 0 190.5 -37t63.5 -101
q0 -103 -155 -126z" />
    <glyph glyph-name="uni0438" unicode="&#x438;" horiz-adv-x="709" 
d="M437 524h208v-524h-136v424l-237 -424h-208v524h135v-424z" />
    <glyph glyph-name="uni0439" unicode="&#x439;" horiz-adv-x="709" 
d="M355 587q-87 0 -132 40.5t-48 111.5h94q3 -30 23 -52t63 -22q77 0 86 74h93q-3 -71 -47.5 -111.5t-131.5 -40.5zM437 524h208v-524h-136v424l-237 -424h-208v524h135v-424z" />
    <glyph glyph-name="uni043A" unicode="&#x43a;" horiz-adv-x="653" 
d="M462 0l-187 209h-70v-209h-141v524h141v-205h70l181 205h171l-252 -248l268 -276h-181z" />
    <glyph glyph-name="uni043B" unicode="&#x43b;" horiz-adv-x="674" 
d="M142 524h468v-524h-142v408h-203q-16 -205 -21 -238q-18 -119 -72 -155q-34 -22 -90 -22q-33 0 -61 4v115q22 -2 28 -2q48 0 63 69t25 254q3 59 5 91z" />
    <glyph glyph-name="uni043C" unicode="&#x43c;" horiz-adv-x="905" 
d="M609 524h232v-524h-135v433l-165 -433h-177l-165 433v-433h-135v524h235l155 -445z" />
    <glyph glyph-name="uni043D" unicode="&#x43d;" horiz-adv-x="684" 
d="M479 524h141v-524h-141v209h-274v-209h-141v524h141v-198h274v198z" />
    <glyph glyph-name="uni043E" unicode="&#x43e;" horiz-adv-x="690" 
d="M38 262q0 128 83 201t224 73t223.5 -73t82.5 -201t-82.5 -201t-223.5 -73t-224 73t-83 201zM178 262q0 -73 45 -119t122 -46t122 46t45 119t-45 119t-122 46t-122 -46t-45 -119z" />
    <glyph glyph-name="uni043F" unicode="&#x43f;" horiz-adv-x="677" 
d="M64 524h549v-524h-141v408h-267v-408h-141v524z" />
    <glyph glyph-name="uni0440" unicode="&#x440;" horiz-adv-x="702" 
d="M404 536q115 0 187 -73.5t72 -200.5t-72 -200.5t-186 -73.5q-134 0 -200 97v-285h-141v724h131v-98q64 110 209 110zM361 97q75 0 119 45t44 120t-44 120t-119 45t-118.5 -45t-43.5 -120t43.5 -120t118.5 -45z" />
    <glyph glyph-name="uni0441" unicode="&#x441;" horiz-adv-x="656" 
d="M624 189q-14 -96 -91.5 -148.5t-193.5 -52.5q-140 0 -220.5 71t-80.5 203q0 131 80 202.5t217 71.5q113 0 190 -51t91 -143l-136 -10q-12 46 -51.5 70.5t-93.5 24.5q-71 0 -114 -44.5t-43 -120.5q0 -77 43.5 -121t117.5 -44q58 0 96.5 26t50.5 75z" />
    <glyph glyph-name="uni0442" unicode="&#x442;" horiz-adv-x="596" 
d="M573 524v-116h-204v-408h-142v408h-205v116h551z" />
    <glyph glyph-name="uni0443" unicode="&#x443;" horiz-adv-x="662" 
d="M493 524h152l-206 -564q-35 -99 -86.5 -135.5t-153.5 -36.5q-40 0 -80 4v109q37 -3 71 -3q50 0 75 15.5t42 61.5l9 25h-74l-224 524h153l178 -459z" />
    <glyph glyph-name="uni0444" unicode="&#x444;" horiz-adv-x="883" 
d="M528 536q153 0 235 -73t82 -201t-82 -201t-235 -73h-17v-188h-138v188h-18q-153 0 -235 73t-82 201t82 201t235 73h18v200h138v-200h17zM360 97h13v330h-13q-89 0 -136.5 -44t-47.5 -121t47.5 -121t136.5 -44zM524 97q89 0 136 44t47 121t-47 121t-136 44h-13v-330h13z
" />
    <glyph glyph-name="uni0445" unicode="&#x445;" horiz-adv-x="669" 
d="M649 0h-170l-147 181l-147 -181h-165l229 267l-217 257h171l132 -170l133 170h165l-216 -254z" />
    <glyph glyph-name="uni0446" unicode="&#x446;" horiz-adv-x="708" 
d="M613 116h76v-255h-133v139h-492v524h141v-408h267v408h141v-408z" />
    <glyph glyph-name="uni0447" unicode="&#x447;" horiz-adv-x="650" 
d="M445 524h141v-524h-141v197q-106 -19 -181 -19q-106 0 -161.5 45.5t-55.5 148.5v152h141v-136q0 -52 28.5 -73t93.5 -21q61 0 135 18v212z" />
    <glyph glyph-name="uni0448" unicode="&#x448;" horiz-adv-x="982" 
d="M779 524h139v-524h-854v524h138v-408h220v408h138v-408h219v408z" />
    <glyph glyph-name="uni0449" unicode="&#x449;" horiz-adv-x="1013" 
d="M918 116h76v-255h-134v139h-796v524h138v-408h220v408h138v-408h219v408h139v-408z" />
    <glyph glyph-name="uni044A" unicode="&#x44a;" horiz-adv-x="730" 
d="M457 344q239 0 239 -171q0 -173 -239 -173h-294v408h-141v116h282v-180h153zM448 105q107 0 107 69t-107 69h-144v-138h144z" />
    <glyph glyph-name="uni044B" unicode="&#x44b;" horiz-adv-x="870" 
d="M344 344q238 0 238 -171q0 -173 -238 -173h-280v524h141v-180h139zM665 524h141v-524h-141v524zM334 105q108 0 108 69t-108 69h-129v-138h129z" />
    <glyph glyph-name="uni044C" unicode="&#x44c;" horiz-adv-x="630" 
d="M359 344q238 0 238 -171q0 -173 -238 -173h-295v524h141v-180h154zM348 105q108 0 108 69t-108 69h-143v-138h143z" />
    <glyph glyph-name="uni044D" unicode="&#x44d;" horiz-adv-x="654" 
d="M319 536q137 0 217 -71.5t80 -202.5q0 -132 -80.5 -203t-221.5 -71q-112 0 -189 50t-93 142l139 6q14 -43 52 -67t91 -24q64 0 106 33.5t53 93.5h-208v90h206q-13 55 -53 86t-99 31q-51 0 -88.5 -22.5t-52.5 -64.5l-138 8q16 89 92.5 137.5t186.5 48.5z" />
    <glyph glyph-name="uni044E" unicode="&#x44e;" horiz-adv-x="946" 
d="M608 536q138 0 218.5 -72.5t80.5 -201.5t-80.5 -201.5t-218.5 -72.5q-123 0 -201 58t-94 163h-108v-209h-141v524h141v-199h110q19 100 96 155.5t197 55.5zM608 97q75 0 117 44.5t42 120.5t-42 120.5t-117 44.5t-117 -44.5t-42 -120.5t42 -120.5t117 -44.5z" />
    <glyph glyph-name="uni044F" unicode="&#x44f;" horiz-adv-x="647" 
d="M283 524h300v-524h-141v192h-109l-138 -192h-169l168 200q-145 29 -145 158q0 166 234 166zM298 282h144v137h-144q-108 0 -108 -68q0 -69 108 -69z" />
    <glyph glyph-name="uni0451" unicode="&#x451;" horiz-adv-x="674" 
d="M294 716v-118h-126v118h126zM505 716v-118h-126v118h126zM638 236v-16h-458q20 -134 173 -134q99 0 140 64l137 -7q-25 -74 -96 -114.5t-181 -40.5q-146 0 -230.5 68.5t-84.5 205.5q0 136 83.5 205t224.5 69q292 0 292 -300zM346 438q-67 0 -110.5 -32t-54.5 -97h318
q-5 60 -45 94.5t-108 34.5z" />
    <glyph glyph-name="uni0454" unicode="&#x454;" horiz-adv-x="654" 
d="M484 186l138 -6q-16 -92 -92.5 -142t-189.5 -50q-141 0 -221.5 71t-80.5 203q0 131 80 202.5t218 71.5q110 0 186 -48.5t93 -137.5l-139 -8q-15 42 -52 64.5t-88 22.5q-59 0 -99 -31t-53 -86h206v-90h-208q11 -60 52.5 -93.5t105.5 -33.5q54 0 91.5 24t52.5 67z" />
    <glyph glyph-name="uni0456" unicode="&#x456;" horiz-adv-x="269" 
d="M59 596v132h151v-132h-151zM64 0v524h141v-524h-141z" />
    <glyph glyph-name="uni0457" unicode="&#x457;" horiz-adv-x="271" 
d="M-17 598v118h120v-118h-120zM169 598v118h120v-118h-120zM63 0v524h141v-524h-141z" />
    <glyph glyph-name="uni045E" unicode="&#x45e;" horiz-adv-x="662" 
d="M329 587q-87 0 -131.5 40.5t-47.5 111.5h93q3 -30 23 -52t63 -22t63 22t23 52h94q-3 -71 -48 -111.5t-132 -40.5zM493 524h152l-206 -564q-35 -99 -86.5 -135.5t-153.5 -36.5q-40 0 -80 4v109q37 -3 71 -3q50 0 75 15.5t42 61.5l9 25h-74l-224 524h153l178 -459z" />
    <glyph glyph-name="uni0490" unicode="&#x490;" horiz-adv-x="657" 
d="M621 867v-288h-389v-579h-148v700h399v167h138z" />
    <glyph glyph-name="uni0491" unicode="&#x491;" horiz-adv-x="533" 
d="M504 668v-260h-299v-408h-141v524h306v144h134z" />
    <glyph glyph-name="uni04C1" unicode="&#x4c1;" horiz-adv-x="1199" 
d="M599 756q-178 0 -185 145h94q6 -67 91 -67t91 67h94q-7 -145 -185 -145zM1001 0l-237 296h-93v-296h-143v296h-92l-238 -296h-180l304 361l-291 339h173l231 -291h93v291h143v-291h93l231 291h174l-291 -339l303 -361h-180z" />
    <glyph glyph-name="uni04C2" unicode="&#x4c2;" horiz-adv-x="978" 
d="M490 587q-87 0 -132 40.5t-48 111.5h94q3 -30 23 -52t63 -22q77 0 86 74h93q-3 -71 -47.5 -111.5t-131.5 -40.5zM791 0l-172 209h-61v-209h-137v209h-61l-173 -209h-177l248 276l-237 248h168l169 -205h63v205h137v-205h63l168 205h169l-237 -248l247 -276h-177z" />
    <glyph glyph-name="Wgrave" unicode="&#x1e80;" horiz-adv-x="1143" 
d="M641 760h-109l-136 122h145zM966 700h154l-190 -700h-219l-139 598l-143 -598h-221l-185 700h158l144 -595l144 595h208l141 -596z" />
    <glyph glyph-name="wgrave" unicode="&#x1e81;" horiz-adv-x="1012" 
d="M584 588h-109l-126 147h146zM838 524h152l-174 -524h-199l-109 450l-112 -450h-203l-171 524h155l124 -427l110 427h197l107 -417z" />
    <glyph glyph-name="Wacute" unicode="&#x1e82;" horiz-adv-x="1143" 
d="M747 882l-136 -122h-110l101 122h145zM966 700h154l-190 -700h-219l-139 598l-143 -598h-221l-185 700h158l144 -595l144 595h208l141 -596z" />
    <glyph glyph-name="wacute" unicode="&#x1e83;" horiz-adv-x="1012" 
d="M663 735l-126 -147h-109l89 147h146zM838 524h152l-174 -524h-199l-109 450l-112 -450h-203l-171 524h155l124 -427l110 427h197l107 -417z" />
    <glyph glyph-name="Wdieresis" unicode="&#x1e84;" horiz-adv-x="1143" 
d="M524 873v-112h-140v112h140zM759 873v-112h-140v112h140zM966 700h154l-190 -700h-219l-139 598l-143 -598h-221l-185 700h158l144 -595l144 595h208l141 -596z" />
    <glyph glyph-name="wdieresis" unicode="&#x1e85;" horiz-adv-x="1012" 
d="M464 716v-118h-126v118h126zM675 716v-118h-126v118h126zM838 524h152l-174 -524h-199l-109 450l-112 -450h-203l-171 524h155l124 -427l110 427h197l107 -417z" />
    <glyph glyph-name="uni1E9E" unicode="&#x1e9e;" horiz-adv-x="774" 
d="M482 405q115 -8 184.5 -60.5t69.5 -148.5q0 -100 -76 -152t-202 -52q-47 0 -97 8v112q35 -5 68 -5q74 0 116.5 27.5t42.5 79.5q0 50 -41 76t-114 26q-37 0 -82 -8v109l149 168h-139q-139 0 -139 -130v-455h-148v474q0 122 76 174t222 52h301v-96z" />
    <glyph glyph-name="Ygrave" unicode="&#x1ef2;" horiz-adv-x="789" 
d="M464 760h-109l-136 122h144zM775 700l-307 -427v-273h-147v273l-307 427h172l210 -313l213 313h166z" />
    <glyph glyph-name="ygrave" unicode="&#x1ef3;" horiz-adv-x="662" 
d="M408 588h-109l-126 147h145zM493 524h152l-206 -564q-35 -99 -86.5 -135.5t-153.5 -36.5q-40 0 -80 4v109q37 -3 71 -3q50 0 75 15.5t42 61.5l9 25h-74l-224 524h153l178 -459z" />
    <glyph glyph-name="endash" unicode="&#x2013;" horiz-adv-x="635" 
d="M55 353h524v-109h-524v109z" />
    <glyph glyph-name="emdash" unicode="&#x2014;" horiz-adv-x="785" 
d="M55 353h675v-109h-675v109z" />
    <glyph glyph-name="quoteleft" unicode="&#x2018;" horiz-adv-x="252" 
d="M190 712v-252h-138v88l78 164h60z" />
    <glyph glyph-name="quoteright" unicode="&#x2019;" horiz-adv-x="252" 
d="M62 448v252h138v-88l-78 -164h-60z" />
    <glyph glyph-name="quotesinglbase" unicode="&#x201a;" horiz-adv-x="252" 
d="M62 -98v252h138v-88l-78 -164h-60z" />
    <glyph glyph-name="quotedblleft" unicode="&#x201c;" horiz-adv-x="458" 
d="M190 712v-252h-138v88l78 164h60zM396 712v-252h-138v88l78 164h60z" />
    <glyph glyph-name="quotedblright" unicode="&#x201d;" horiz-adv-x="458" 
d="M62 448v252h138v-88l-78 -164h-60zM268 448v252h138v-88l-78 -164h-60z" />
    <glyph glyph-name="quotedblbase" unicode="&#x201e;" horiz-adv-x="458" 
d="M62 -98v252h138v-88l-78 -164h-60zM268 -98v252h138v-88l-78 -164h-60z" />
    <glyph glyph-name="dagger" unicode="&#x2020;" horiz-adv-x="474" 
d="M430 524v-104h-127v-483h-131v483h-128v104h128v176h131v-176h127z" />
    <glyph glyph-name="daggerdbl" unicode="&#x2021;" horiz-adv-x="482" 
d="M434 420h-127v-194h127v-103h-127v-186h-131v186h-128v103h128v194h-128v104h128v176h131v-176h127v-104z" />
    <glyph glyph-name="bullet" unicode="&#x2022;" horiz-adv-x="421" 
d="M338 315q0 -55 -36 -90t-92 -35q-55 0 -90.5 35t-35.5 90q0 54 35.5 89.5t90.5 35.5t91.5 -36t36.5 -89z" />
    <glyph glyph-name="ellipsis" unicode="&#x2026;" horiz-adv-x="789" 
d="M64 0v154h157v-154h-157zM316 0v154h157v-154h-157zM568 0v154h158v-154h-158z" />
    <glyph glyph-name="perthousand" unicode="&#x2030;" horiz-adv-x="1395" 
d="M30 531q0 81 54 128t145 47q92 0 145.5 -47t53.5 -128t-53.5 -128.5t-145.5 -47.5q-91 0 -145 47.5t-54 128.5zM147 0l565 700h92l-564 -700h-93zM130 531q0 -45 27 -70.5t72 -25.5t72 25t27 71q0 45 -27 70.5t-72 25.5q-44 0 -71.5 -25.5t-27.5 -70.5zM524 170
q0 80 53.5 127.5t144.5 47.5q92 0 145.5 -47.5t53.5 -127.5q0 -81 -53.5 -128.5t-145.5 -47.5q-91 0 -144.5 47.5t-53.5 128.5zM974 170q0 80 54 127.5t146 47.5q91 0 145 -47.5t54 -127.5q0 -81 -53.5 -128.5t-145.5 -47.5t-146 47.5t-54 128.5zM622 170q0 -45 27.5 -71
t72.5 -26t72.5 25.5t27.5 71.5q0 45 -27.5 70.5t-72.5 25.5t-72.5 -25.5t-27.5 -70.5zM1074 170q0 -46 27.5 -71.5t72.5 -25.5q44 0 71 25.5t27 71.5q0 45 -27 70.5t-71 25.5q-45 0 -72.5 -25.5t-27.5 -70.5z" />
    <glyph glyph-name="guilsinglleft" unicode="&#x2039;" horiz-adv-x="350" 
d="M310 465l-172 -185l172 -185h-136l-146 159v52l146 159h136z" />
    <glyph glyph-name="guilsinglright" unicode="&#x203a;" horiz-adv-x="350" 
d="M176 465l146 -159v-52l-146 -159h-136l172 185l-172 185h136z" />
    <glyph glyph-name="fraction" unicode="&#x2044;" horiz-adv-x="181" 
d="M-222 0l524 700h101l-524 -700h-101z" />
    <glyph glyph-name="uni2070" unicode="&#x2070;" horiz-adv-x="506" 
d="M44 549q0 105 55.5 165t153.5 60t153.5 -60t55.5 -165t-55 -165t-154 -60t-154 60t-55 165zM153 549q0 -67 27 -102.5t73 -35.5t73 35.5t27 102.5q0 66 -27 101.5t-73 35.5t-73 -35.5t-27 -101.5z" />
    <glyph glyph-name="uni2074" unicode="&#x2074;" horiz-adv-x="491" 
d="M468 510v-88h-81v-89h-109v89h-258v81l196 261h171v-254h81zM126 510h152v201z" />
    <glyph glyph-name="uni2075" unicode="&#x2075;" horiz-adv-x="458" 
d="M259 613q75 0 119.5 -33t44.5 -101q0 -74 -54.5 -113.5t-141.5 -39.5q-78 0 -133 33t-65 96l106 6q7 -24 33 -36.5t59 -12.5q40 0 64 18t24 49t-25.5 48.5t-65.5 17.5q-58 0 -86 -33l-96 9l21 243h331v-88h-251l-9 -101q44 38 125 38z" />
    <glyph glyph-name="uni2076" unicode="&#x2076;" horiz-adv-x="490" 
d="M287 608q72 0 118.5 -34t46.5 -101q0 -70 -53 -109.5t-143 -39.5q-212 0 -212 220q0 115 55.5 172.5t157.5 57.5q74 0 122 -32t56 -93l-105 -7q-4 20 -23.5 33t-49.5 13q-59 0 -84 -46q-18 -34 -18 -83q42 49 132 49zM256 410q41 0 64.5 17t23.5 46t-24 46t-64 17
q-42 0 -66 -17t-24 -46t24 -46t66 -17z" />
    <glyph glyph-name="uni2077" unicode="&#x2077;" horiz-adv-x="407" 
d="M20 764h372v-73q-144 -177 -181 -358h-115q39 172 188 343h-264v88z" />
    <glyph glyph-name="uni2078" unicode="&#x2078;" horiz-adv-x="483" 
d="M332 560q53 -13 84 -41t31 -71q0 -61 -59.5 -92.5t-146.5 -31.5q-85 0 -145 31.5t-60 92.5q0 84 116 112q-102 24 -102 100q0 55 55 84.5t136 29.5t136.5 -29.5t55.5 -84.5q0 -76 -101 -100zM241 694q-40 0 -63 -13t-23 -36q0 -24 23 -37t63 -13q86 0 86 50
q0 23 -22.5 36t-63.5 13zM241 404q100 0 100 56q0 27 -26.5 42t-73.5 15q-46 0 -72.5 -15t-26.5 -42t26.5 -41.5t72.5 -14.5z" />
    <glyph glyph-name="uni2079" unicode="&#x2079;" horiz-adv-x="489" 
d="M235 774q210 0 210 -220q0 -116 -55 -173t-156 -57q-76 0 -123.5 31.5t-55.5 93.5l105 7q5 -20 24 -33t50 -13q60 0 86 50q14 28 16 80q-44 -49 -133 -49q-72 0 -118.5 34t-46.5 100q0 70 53 109.5t144 39.5zM235 563q41 0 65 17t24 45q0 29 -24.5 46t-64.5 17t-64.5 -17
t-24.5 -46q0 -28 24 -45t65 -17z" />
    <glyph glyph-name="uni2080" unicode="&#x2080;" horiz-adv-x="506" 
d="M44 99q0 105 55.5 165t153.5 60t153.5 -60t55.5 -165t-55 -165t-154 -60t-154 60t-55 165zM153 99q0 -67 27 -102.5t73 -35.5t73 35.5t27 102.5q0 66 -27 101.5t-73 35.5t-73 -35.5t-27 -101.5z" />
    <glyph glyph-name="uni2081" unicode="&#x2081;" horiz-adv-x="326" 
d="M147 315h90v-431h-109v314l-91 -65v106z" />
    <glyph glyph-name="uni2082" unicode="&#x2082;" horiz-adv-x="419" 
d="M173 -31h221v-88h-376v80l162 119q49 36 70.5 59t21.5 48q0 23 -16.5 36t-43.5 13q-66 0 -76 -79l-105 8q6 81 55 120t126 39q72 0 120 -34t48 -99q0 -38 -23 -72t-82 -76z" />
    <glyph glyph-name="uni2083" unicode="&#x2083;" horiz-adv-x="436" 
d="M254 148q151 -12 151 -129q0 -72 -56.5 -107t-142.5 -35q-81 0 -133 35t-61 103l106 7q10 -57 88 -57q42 0 66 15.5t24 43.5q0 25 -22.5 41t-66.5 16q-35 0 -76 -7v67l120 86h-212v88h351v-78z" />
    <glyph glyph-name="uni2084" unicode="&#x2084;" horiz-adv-x="491" 
d="M468 61v-88h-81v-89h-109v89h-258v81l196 261h171v-254h81zM126 61h152v201z" />
    <glyph glyph-name="uni2085" unicode="&#x2085;" horiz-adv-x="458" 
d="M259 164q75 0 119.5 -33t44.5 -101q0 -74 -54.5 -113.5t-141.5 -39.5q-78 0 -133 33t-65 96l106 6q7 -24 33 -36.5t59 -12.5q40 0 64 18t24 49t-25.5 48.5t-65.5 17.5q-58 0 -86 -33l-96 9l21 243h331v-88h-251l-9 -101q44 38 125 38z" />
    <glyph glyph-name="uni2086" unicode="&#x2086;" horiz-adv-x="490" 
d="M287 158q72 0 118.5 -34t46.5 -101q0 -70 -53 -109.5t-143 -39.5q-212 0 -212 220q0 115 55.5 172.5t157.5 57.5q74 0 122 -32t56 -93l-105 -7q-4 20 -23.5 33t-49.5 13q-59 0 -84 -46q-18 -34 -18 -83q42 49 132 49zM256 -40q41 0 64.5 17t23.5 46t-24 46t-64 17
q-42 0 -66 -17t-24 -46t24 -46t66 -17z" />
    <glyph glyph-name="uni2087" unicode="&#x2087;" horiz-adv-x="407" 
d="M20 315h372v-73q-144 -177 -181 -358h-115q39 172 188 343h-264v88z" />
    <glyph glyph-name="uni2088" unicode="&#x2088;" horiz-adv-x="483" 
d="M332 110q53 -13 84 -41t31 -71q0 -61 -59.5 -92.5t-146.5 -31.5q-85 0 -145 31.5t-60 92.5q0 84 116 112q-102 24 -102 100q0 55 55 84.5t136 29.5t136.5 -29.5t55.5 -84.5q0 -76 -101 -100zM241 244q-40 0 -63 -13t-23 -36q0 -24 23 -37t63 -13q86 0 86 50
q0 23 -22.5 36t-63.5 13zM241 -46q100 0 100 56q0 27 -26.5 42t-73.5 15q-46 0 -72.5 -15t-26.5 -42t26.5 -41.5t72.5 -14.5z" />
    <glyph glyph-name="uni2089" unicode="&#x2089;" horiz-adv-x="489" 
d="M235 324q210 0 210 -220q0 -116 -55 -173t-156 -57q-76 0 -123.5 31.5t-55.5 93.5l105 7q5 -20 24 -33t50 -13q60 0 86 50q14 28 16 80q-44 -49 -133 -49q-72 0 -118.5 34t-46.5 100q0 70 53 109.5t144 39.5zM235 113q41 0 65 17t24 45q0 29 -24.5 46t-64.5 17t-64.5 -17
t-24.5 -46q0 -28 24 -45t65 -17z" />
    <glyph glyph-name="Euro" unicode="&#x20ac;" horiz-adv-x="772" 
d="M608 219l134 -4q-22 -106 -102 -166.5t-212 -60.5q-140 0 -229.5 69.5t-114.5 191.5h-74v66h66q-1 10 -1 29t1 29h-62v66h70q25 121 111.5 191t222.5 70q123 0 203.5 -54t106.5 -148l-135 -7q-18 43 -63.5 68t-106.5 25q-74 0 -122.5 -39.5t-69.5 -105.5h277v-66h-289
q-1 -10 -1 -29t1 -29h286v-66h-273q22 -67 73.5 -106t125.5 -39q69 0 114.5 32t62.5 83z" />
    <glyph glyph-name="uni20B4" unicode="&#x20b4;" horiz-adv-x="664" 
d="M526 383q-26 -18 -72 -38l-50 -20h236v-53h-362q-78 -40 -78 -93q0 -42 37.5 -61.5t95.5 -19.5q65 0 108 24t46 74l134 -5q-17 -203 -287 -203q-127 0 -202 47.5t-75 135.5q0 56 35 101h-62v53h126q35 19 67 32l63 26h-256v53h377q52 30 52 76q0 36 -30.5 57t-84.5 21
q-27 0 -52 -6t-47 -24t-26 -47l-133 8q5 51 31 88t65.5 55.5t80 27t84.5 8.5q111 0 183 -45t72 -135q0 -50 -23 -84h61v-53h-114z" />
    <glyph glyph-name="uni20BD" unicode="&#x20bd;" horiz-adv-x="728" 
d="M439 269h-192v-56h247v-82h-247v-131h-143v131h-78v82h78v56h-78v104h78v315h332q113 0 183.5 -53t70.5 -161q0 -205 -251 -205zM247 571v-198h176q60 0 92.5 26t32.5 75q0 97 -125 97h-176z" />
    <glyph glyph-name="uni2116" unicode="&#x2116;" horiz-adv-x="1371" 
d="M1097 334q-103 0 -163 51t-60 138t60 138t163 51q102 0 162 -51t60 -138t-60 -138t-162 -51zM630 86v614h141v-700h-249l-297 614v-614h-141v700h250zM1097 622q-49 0 -76 -27.5t-27 -71.5t27 -71.5t76 -27.5t76 27.5t27 71.5t-27 71.5t-76 27.5zM891 186v93h411v-93
h-411z" />
    <glyph glyph-name="trademark" unicode="&#x2122;" horiz-adv-x="884" 
d="M18 640v60h319v-60h-122v-309h-75v309h-122zM704 700h129v-369h-73v321l-95 -321h-103l-94 317v-317h-73v369h129l90 -326z" />
    <glyph glyph-name="oneeighth" unicode="&#x215b;" horiz-adv-x="881" 
d="M117 340v257l-87 -48v93l105 58h74v-360h-92zM584 700h101l-523 -700h-101zM749 186q100 -22 100 -94q0 -50 -51.5 -77t-125.5 -27q-73 0 -124.5 27t-51.5 77q0 72 100 94q-88 21 -88 83q0 48 47 72.5t117 24.5t117.5 -25t47.5 -72q0 -62 -88 -83zM672 297
q-34 0 -54.5 -10.5t-20.5 -30.5t20.5 -31t54.5 -11t54.5 11t20.5 31t-20.5 30.5t-54.5 10.5zM672 57q39 0 63 12t24 35t-24 35.5t-63 12.5q-40 0 -63 -12.5t-23 -35.5q0 -47 86 -47z" />
    <glyph glyph-name="threeeighths" unicode="&#x215c;" horiz-adv-x="986" 
d="M366 451q0 -63 -50 -93t-127 -30q-157 0 -171 117l91 6q7 -51 80 -51q39 0 62 13.5t23 37.5q0 22 -21 35.5t-62 13.5q-30 0 -70 -6v60l114 74h-194v72h312v-65l-125 -74q138 -12 138 -110zM688 700h102l-524 -700h-101zM853 186q100 -22 100 -94q0 -50 -51 -77t-125 -27
q-73 0 -124.5 27t-51.5 77q0 72 100 94q-88 21 -88 83q0 48 47 72.5t117 24.5t117 -24.5t47 -72.5q0 -62 -88 -83zM777 297q-75 0 -75 -41q0 -20 20.5 -31t54.5 -11t54.5 11t20.5 31t-20.5 30.5t-54.5 10.5zM777 57q39 0 62.5 12t23.5 35t-23.5 35.5t-62.5 12.5
q-40 0 -63 -12.5t-23 -35.5q0 -47 86 -47z" />
    <glyph glyph-name="fiveeighths" unicode="&#x215d;" horiz-adv-x="995" 
d="M370 458q0 -63 -48 -96.5t-125 -33.5q-69 0 -117 28t-57 81l88 7q13 -45 86 -45q81 0 81 58t-82 58q-55 0 -82 -28l-79 6l18 207h291v-71h-224l-9 -87q40 36 114 36q65 0 105 -30.5t40 -89.5zM698 700h101l-523 -700h-101zM863 186q100 -22 100 -94q0 -50 -51.5 -77
t-124.5 -27q-74 0 -125.5 27t-51.5 77q0 72 100 94q-88 21 -88 83q0 48 47.5 72.5t117.5 24.5t117 -24.5t47 -72.5q0 -62 -88 -83zM787 297q-76 0 -76 -41q0 -20 21 -31t55 -11t54.5 11t20.5 31t-20.5 30.5t-54.5 10.5zM787 57q39 0 62.5 12t23.5 35t-23.5 35.5t-62.5 12.5
q-40 0 -63.5 -12.5t-23.5 -35.5t23.5 -35t63.5 -12z" />
    <glyph glyph-name="seveneighths" unicode="&#x215e;" horiz-adv-x="938" 
d="M182 340h-97q34 147 158 286h-224v74h322v-62q-126 -147 -159 -298zM641 700h101l-524 -700h-101zM806 186q99 -23 99 -94q0 -50 -51 -77t-125 -27q-73 0 -124.5 27t-51.5 77q0 72 100 94q-88 21 -88 83q0 48 47 72.5t117 24.5t117 -24.5t47 -72.5q0 -62 -87 -83z
M729 297q-34 0 -54.5 -10.5t-20.5 -30.5t20.5 -31t54.5 -11t54.5 11t20.5 31t-20.5 30.5t-54.5 10.5zM729 57q39 0 63 12t24 35t-24 35.5t-63 12.5q-40 0 -63 -12.5t-23 -35.5q0 -47 86 -47z" />
    <glyph glyph-name="arrowleft" unicode="&#x2190;" horiz-adv-x="798" 
d="M741 409v-106h-481l230 -224h-156l-277 277l277 277h156l-230 -224h481z" />
    <glyph glyph-name="arrowup" unicode="&#x2191;" horiz-adv-x="669" 
d="M612 484v-161l-222 229v-561h-111v560l-222 -228l1 161l277 276z" />
    <glyph glyph-name="arrowright" unicode="&#x2192;" horiz-adv-x="798" 
d="M465 633l276 -277l-276 -277h-157l231 224h-482v106h482l-231 224h157z" />
    <glyph glyph-name="arrowdown" unicode="&#x2193;" horiz-adv-x="669" 
d="M390 148l222 229v-161l-277 -276l-277 276l-1 161l222 -228v560h111v-561z" />
    <glyph glyph-name="arrowboth" unicode="&#x2194;" horiz-adv-x="1089" 
d="M788 600l244 -244l-244 -244h-155l196 191h-569l197 -191h-156l-244 244l244 244h156l-197 -191h569l-196 191h155z" />
    <glyph glyph-name="arrowupdn" unicode="&#x2195;" horiz-adv-x="599" 
d="M542 420l-188 196v-534l188 195v-160l-244 -244l-241 241v160l185 -192v533l-185 -191v160l241 240l244 -244v-160z" />
    <glyph glyph-name="uni2196" unicode="&#x2196;" horiz-adv-x="663" 
d="M606 148l-76 -76l-360 360l4 -323l-117 111v392h392l111 -108l-315 4z" />
    <glyph glyph-name="uni2197" unicode="&#x2197;" horiz-adv-x="663" 
d="M214 612h392v-392l-117 -111l4 323l-360 -360l-76 76l361 360l-315 -4z" />
    <glyph glyph-name="uni2198" unicode="&#x2198;" horiz-adv-x="663" 
d="M489 591l117 -111v-392h-392l-111 108l315 -4l-361 361l76 75l360 -360z" />
    <glyph glyph-name="uni2199" unicode="&#x2199;" horiz-adv-x="663" 
d="M606 553l-361 -361l315 4l-111 -108h-392v392l117 111l-4 -323l360 360z" />
    <glyph glyph-name="partialdiff" unicode="&#x2202;" horiz-adv-x="624" 
d="M279 756q296 0 296 -395q0 -194 -75.5 -283.5t-204.5 -89.5q-119 0 -188 66t-69 182q0 110 68 179t174 69q92 0 153 -55q-19 221 -163 221q-77 0 -142 -63l-70 88q88 81 221 81zM290 98q129 0 144 197q-37 79 -125 79q-62 0 -97 -38.5t-35 -99.5q0 -67 31 -102.5
t82 -35.5z" />
    <glyph glyph-name="emptyset" unicode="&#x2205;" horiz-adv-x="620" 
d="M586 524l-72 -68q49 -62 49 -152q0 -110 -70.5 -174.5t-182.5 -64.5q-96 0 -161 47l-73 -70l-42 42l72 68q-50 61 -50 152q0 111 70.5 175t183.5 64q94 0 160 -46l73 70zM174 304q0 -40 17 -71l194 184q-32 17 -75 17q-64 0 -100 -35t-36 -95zM446 304q0 42 -18 71
l-194 -183q32 -17 76 -17q63 0 99.5 35t36.5 94z" />
    <glyph glyph-name="product" unicode="&#x220f;" horiz-adv-x="744" 
d="M660 700v-800h-137v688h-302v-688h-137v800h576z" />
    <glyph glyph-name="summation" unicode="&#x2211;" horiz-adv-x="597" 
d="M208 12h364v-112h-536v99l261 315l-247 286v100h511v-112h-337l231 -274z" />
    <glyph glyph-name="minus" unicode="&#x2212;" horiz-adv-x="533" 
d="M55 380h422v-100h-422v100z" />
    <glyph glyph-name="radical" unicode="&#x221a;" horiz-adv-x="644" 
d="M500 712h115l-238 -818h-155l-120 395h-79v101h167l110 -399z" />
    <glyph glyph-name="infinity" unicode="&#x221e;" horiz-adv-x="668" 
d="M486 480q72 0 114.5 -40t42.5 -116q0 -77 -42.5 -117.5t-114.5 -40.5q-45 0 -81 19t-71 67q-35 -48 -71 -67t-82 -19q-71 0 -113.5 40.5t-42.5 117.5q0 76 42.5 116t113.5 40q92 0 153 -85q35 47 70.5 66t81.5 19zM190 247q54 0 102 76q-47 76 -102 76q-31 0 -51 -18.5
t-20 -56.5t20.5 -57.5t50.5 -19.5zM478 247q30 0 50.5 19.5t20.5 57.5t-20 56.5t-51 18.5q-55 0 -103 -76q49 -76 103 -76z" />
    <glyph glyph-name="integral" unicode="&#x222b;" horiz-adv-x="439" 
d="M306 736q33 0 65 -6v-93q-21 3 -39 3q-29 0 -42 -15t-13 -53v-529q0 -149 -149 -149q-39 0 -66 5v94q27 -3 40 -3q28 0 41.5 15t13.5 53v528q0 150 149 150z" />
    <glyph glyph-name="approxequal" unicode="&#x2248;" horiz-adv-x="579" 
d="M196 406q-25 0 -38.5 -18t-13.5 -48h-77q0 64 28 106t92 42q33 0 63.5 -13t49.5 -28t41.5 -28t41.5 -13q25 0 38.5 18.5t13.5 48.5h76q0 -64 -27.5 -106t-91.5 -42q-42 0 -78.5 20.5t-65 40.5t-52.5 20zM383 229q25 0 38.5 18.5t13.5 48.5h76q0 -65 -27.5 -107t-91.5 -42
q-42 0 -78.5 20.5t-65 40.5t-52.5 20q-25 0 -38.5 -18t-13.5 -48h-77q0 63 28 105.5t92 42.5q33 0 63.5 -12.5t49.5 -28t41.5 -28t41.5 -12.5z" />
    <glyph glyph-name="notequal" unicode="&#x2260;" horiz-adv-x="547" 
d="M484 364h-152l-38 -83h190v-94h-232l-38 -85h-83l39 85h-108v94h150l37 83h-187v94h230l39 86h82l-39 -86h110v-94z" />
    <glyph glyph-name="lessequal" unicode="&#x2264;" horiz-adv-x="525" 
d="M455 580v-114l-284 -90l284 -69v-115l-398 121v119zM57 57v94h398v-94h-398z" />
    <glyph glyph-name="greaterequal" unicode="&#x2265;" horiz-adv-x="524" 
d="M70 580l398 -148v-119l-398 -121v115l283 69l-283 90v114zM70 57v94h398v-94h-398z" />
    <glyph glyph-name="uni2460" unicode="&#x2460;" 
d="M404 -12q-158 0 -259 99.5t-101 262.5t101 262.5t259 99.5t259 -99.5t101 -262.5t-101 -262.5t-259 -99.5zM404 42q134 0 218 84.5t84 223.5t-84 223.5t-218 84.5t-218.5 -84.5t-84.5 -223.5t84.5 -223.5t218.5 -84.5zM302 398v80l86 50h67v-356h-82v267z" />
    <glyph glyph-name="uni2461" unicode="&#x2461;" 
d="M404 -12q-158 0 -259 99.5t-101 262.5t101 262.5t259 99.5t259 -99.5t101 -262.5t-101 -262.5t-259 -99.5zM404 42q134 0 218 84.5t84 223.5t-84 223.5t-218 84.5t-218.5 -84.5t-84.5 -223.5t84.5 -223.5t218.5 -84.5zM267 173v62l113 95q27 22 39.5 34t24 29.5
t11.5 33.5q0 18 -12 29.5t-31 11.5q-49 0 -55 -69l-80 7q5 65 41.5 97t93.5 32q53 0 89 -27.5t36 -80.5q0 -32 -17 -59.5t-60 -62.5l-76 -65h164v-67h-281z" />
    <glyph glyph-name="uni2462" unicode="&#x2462;" 
d="M404 -12q-158 0 -259 99.5t-101 262.5t101 262.5t259 99.5t259 -99.5t101 -262.5t-101 -262.5t-259 -99.5zM404 42q134 0 218 84.5t84 223.5t-84 223.5t-218 84.5t-218.5 -84.5t-84.5 -223.5t84.5 -223.5t218.5 -84.5zM258 279l80 5q9 -51 64 -51q31 0 48.5 13.5
t17.5 38.5q0 51 -64 51q-24 0 -58 -6v56l87 75h-156v67h262v-60l-98 -77q109 -10 109 -106q0 -60 -42 -89.5t-106 -29.5q-61 0 -99.5 28.5t-44.5 84.5z" />
    <glyph glyph-name="uni2463" unicode="&#x2463;" 
d="M404 -12q-158 0 -259 99.5t-101 262.5t101 262.5t259 99.5t259 -99.5t101 -262.5t-101 -262.5t-259 -99.5zM404 42q134 0 218 84.5t84 223.5t-84 223.5t-218 84.5t-218.5 -84.5t-84.5 -223.5t84.5 -223.5t218.5 -84.5zM233 247v62l139 219h135v-214h59v-67h-59v-75h-83
v75h-191zM313 314h111v172z" />
    <glyph glyph-name="uni2464" unicode="&#x2464;" 
d="M404 -12q-158 0 -259 99.5t-101 262.5t101 262.5t259 99.5t259 -99.5t101 -262.5t-101 -262.5t-259 -99.5zM404 42q134 0 218 84.5t84 223.5t-84 223.5t-218 84.5t-218.5 -84.5t-84.5 -223.5t84.5 -223.5t218.5 -84.5zM258 272l80 5q5 -22 24 -33t43 -11q30 0 47.5 16
t17.5 43q0 28 -18.5 43.5t-47.5 15.5q-43 0 -64 -29l-73 6l16 200h248v-67h-187l-6 -84q34 31 92 31q55 0 89 -29.5t34 -86.5q0 -61 -41 -93.5t-107 -32.5q-58 0 -98.5 27t-48.5 79z" />
    <glyph glyph-name="uni2465" unicode="&#x2465;" 
d="M404 -12q-158 0 -259 99.5t-101 262.5t101 262.5t259 99.5t259 -99.5t101 -262.5t-101 -262.5t-259 -99.5zM404 42q134 0 218 84.5t84 223.5t-84 223.5t-218 84.5t-218.5 -84.5t-84.5 -223.5t84.5 -223.5t218.5 -84.5zM251 347q0 94 43 141t116 47q57 0 92.5 -26.5
t40.5 -76.5l-79 -5q-7 41 -54 41q-71 0 -76 -107q32 39 96 39q57 0 91.5 -28.5t34.5 -83.5q0 -57 -40 -89.5t-108 -32.5q-74 0 -115.5 45t-41.5 136zM343 288q0 -25 17.5 -40.5t47.5 -15.5q29 0 47.5 15.5t18.5 40.5t-18 40t-48 15t-47.5 -15t-17.5 -40z" />
    <glyph glyph-name="uni2466" unicode="&#x2466;" 
d="M404 -12q-158 0 -259 99.5t-101 262.5t101 262.5t259 99.5t259 -99.5t101 -262.5t-101 -262.5t-259 -99.5zM404 42q134 0 218 84.5t84 223.5t-84 223.5t-218 84.5t-218.5 -84.5t-84.5 -223.5t84.5 -223.5t218.5 -84.5zM268 461v67h278v-56q-106 -150 -134 -300h-88
q29 145 140 289h-196z" />
    <glyph glyph-name="uni2467" unicode="&#x2467;" 
d="M404 -12q-158 0 -259 99.5t-101 262.5t101 262.5t259 99.5t259 -99.5t101 -262.5t-101 -262.5t-259 -99.5zM405 42q134 0 218 84.5t84 223.5t-84 223.5t-218 84.5t-218 -84.5t-84 -223.5t84 -223.5t218 -84.5zM250 267q0 70 87 92q-77 20 -77 82q0 46 41.5 70t102.5 24
q60 0 101.5 -24t41.5 -70q0 -63 -77 -82q88 -22 88 -92q0 -49 -45 -75t-109 -26t-109 26t-45 75zM340 429q0 -19 17 -30t47 -11t46.5 11t16.5 30q0 41 -63 41q-64 0 -64 -41zM330 278q0 -23 21 -35.5t53 -12.5t53 12.5t21 35.5q0 22 -21 34t-53 12t-53 -12t-21 -34z" />
    <glyph glyph-name="uni2468" unicode="&#x2468;" 
d="M404 -12q-158 0 -259 99.5t-101 262.5t101 262.5t259 99.5t259 -99.5t101 -262.5t-101 -262.5t-259 -99.5zM406 42q134 0 218 84.5t84 223.5t-84 223.5t-218 84.5t-218.5 -84.5t-84.5 -223.5t84.5 -223.5t218.5 -84.5zM251 414q0 56 40 88.5t107 32.5q76 0 117.5 -45
t41.5 -136q0 -94 -43 -141t-115 -47q-57 0 -92.5 26t-42.5 76l80 5q3 -18 17.5 -29.5t37.5 -11.5q72 0 75 112q-30 -41 -96 -41q-57 0 -92 28.5t-35 82.5zM334 414q0 -25 18 -39.5t48 -14.5q29 0 47 14.5t18 39.5q0 24 -18 39t-47 15q-30 0 -48 -15t-18 -39z" />
    <glyph glyph-name="uni24EA" unicode="&#x24ea;" 
d="M404 -12q-158 0 -259 99.5t-101 262.5t101 262.5t259 99.5t259 -99.5t101 -262.5t-101 -262.5t-259 -99.5zM404 42q134 0 218 84.5t84 223.5t-84 223.5t-218 84.5t-218.5 -84.5t-84.5 -223.5t84.5 -223.5t218.5 -84.5zM248 350q0 87 40.5 136t115.5 49q74 0 115 -49.5
t41 -135.5t-41 -135t-115 -49q-75 0 -115.5 49t-40.5 135zM330 350q0 -58 20 -87.5t54 -29.5t53.5 29.5t19.5 87.5t-20 88t-53 30q-34 0 -54 -30t-20 -88z" />
    <glyph glyph-name="uni24FF" unicode="&#x24ff;" 
d="M404 -12q-158 0 -259 99.5t-101 262.5t101 262.5t259 99.5t259 -99.5t101 -262.5t-101 -262.5t-259 -99.5zM248 350q0 -86 40.5 -135t115.5 -49q74 0 115 49t41 135t-41 135.5t-115 49.5q-75 0 -115.5 -49t-40.5 -136zM330 350q0 58 20 88t54 30q33 0 53 -30t20 -88
t-19.5 -87.5t-53.5 -29.5t-54 29.5t-20 87.5z" />
    <glyph glyph-name="lozenge" unicode="&#x25ca;" horiz-adv-x="551" 
d="M345 700l172 -350l-172 -350h-139l-172 350l172 350h139zM276 75l128 275l-128 275l-130 -275z" />
    <glyph glyph-name="uni2776" unicode="&#x2776;" 
d="M404 -12q-158 0 -259 99.5t-101 262.5t101 262.5t259 99.5t259 -99.5t101 -262.5t-101 -262.5t-259 -99.5zM302 398l71 41v-267h82v356h-67l-86 -50v-80z" />
    <glyph glyph-name="uni2777" unicode="&#x2777;" 
d="M404 -12q-158 0 -259 99.5t-101 262.5t101 262.5t259 99.5t259 -99.5t101 -262.5t-101 -262.5t-259 -99.5zM267 173h281v67h-164l76 65q43 35 60 62.5t17 59.5q0 53 -36 80.5t-89 27.5q-57 0 -93.5 -32t-41.5 -97l80 -7q6 69 55 69q19 0 31 -11.5t12 -29.5
q0 -16 -11.5 -33.5t-24 -29.5t-39.5 -34l-113 -95v-62z" />
    <glyph glyph-name="uni2778" unicode="&#x2778;" 
d="M404 -12q-158 0 -259 99.5t-101 262.5t101 262.5t259 99.5t259 -99.5t101 -262.5t-101 -262.5t-259 -99.5zM258 279q6 -56 44.5 -84.5t99.5 -28.5q64 0 106 29.5t42 89.5q0 96 -109 106l98 77v60h-262v-67h156l-87 -75v-56q34 6 58 6q64 0 64 -51q0 -25 -17.5 -38.5
t-48.5 -13.5q-55 0 -64 51z" />
    <glyph glyph-name="uni2779" unicode="&#x2779;" 
d="M404 -12q-158 0 -259 99.5t-101 262.5t101 262.5t259 99.5t259 -99.5t101 -262.5t-101 -262.5t-259 -99.5zM233 247h191v-75h83v75h59v67h-59v214h-135l-139 -219v-62zM313 314l111 172v-172h-111z" />
    <glyph glyph-name="uni277A" unicode="&#x277a;" 
d="M404 -12q-158 0 -259 99.5t-101 262.5t101 262.5t259 99.5t259 -99.5t101 -262.5t-101 -262.5t-259 -99.5zM258 272q8 -52 48.5 -79t98.5 -27q66 0 107 32.5t41 93.5q0 57 -34 86.5t-89 29.5q-58 0 -92 -31l6 84h187v67h-248l-16 -200l73 -6q21 29 64 29q29 0 47.5 -15.5
t18.5 -43.5q0 -27 -17.5 -43t-47.5 -16q-24 0 -43 11t-24 33z" />
    <glyph glyph-name="uni277B" unicode="&#x277b;" 
d="M404 -12q-158 0 -259 99.5t-101 262.5t101 262.5t259 99.5t259 -99.5t101 -262.5t-101 -262.5t-259 -99.5zM251 347q0 -91 41.5 -136t115.5 -45q68 0 108 32.5t40 89.5q0 55 -34.5 83.5t-91.5 28.5q-64 0 -96 -39q5 107 76 107q47 0 54 -41l79 5q-5 50 -40.5 76.5
t-92.5 26.5q-73 0 -116 -47t-43 -141zM343 288q0 25 17.5 40t47.5 15t48 -15t18 -40t-18.5 -40.5t-47.5 -15.5q-30 0 -47.5 15.5t-17.5 40.5z" />
    <glyph glyph-name="uni277C" unicode="&#x277c;" 
d="M404 -12q-158 0 -259 99.5t-101 262.5t101 262.5t259 99.5t259 -99.5t101 -262.5t-101 -262.5t-259 -99.5zM268 461h196q-111 -144 -140 -289h88q28 150 134 300v56h-278v-67z" />
    <glyph glyph-name="uni277D" unicode="&#x277d;" 
d="M404 -12q-158 0 -259 99.5t-101 262.5t101 262.5t259 99.5t259 -99.5t101 -262.5t-101 -262.5t-259 -99.5zM250 267q0 -49 45 -75t109 -26t109 26t45 75q0 70 -88 92q77 19 77 82q0 46 -41.5 70t-101.5 24q-61 0 -102.5 -24t-41.5 -70q0 -62 77 -82q-87 -22 -87 -92z
M340 429q0 41 64 41q63 0 63 -41q0 -19 -16.5 -30t-46.5 -11t-47 11t-17 30zM330 278q0 22 21 34t53 12t53 -12t21 -34q0 -23 -21 -35.5t-53 -12.5t-53 12.5t-21 35.5z" />
    <glyph glyph-name="uni277E" unicode="&#x277e;" 
d="M404 -12q-158 0 -259 99.5t-101 262.5t101 262.5t259 99.5t259 -99.5t101 -262.5t-101 -262.5t-259 -99.5zM251 414q0 -54 35 -82.5t92 -28.5q66 0 96 41q-3 -112 -75 -112q-23 0 -37.5 11.5t-17.5 29.5l-80 -5q7 -50 42.5 -76t92.5 -26q72 0 115 47t43 141
q0 91 -41.5 136t-117.5 45q-67 0 -107 -32.5t-40 -88.5zM334 414q0 24 18 39t48 15q29 0 47 -15t18 -39q0 -25 -18 -39.5t-47 -14.5q-30 0 -48 14.5t-18 39.5z" />
    <glyph glyph-name="i.loclTRK" horiz-adv-x="269" 
d="M60 596v132h149v-132h-149zM64 0v524h141v-524h-141z" />
    <glyph glyph-name="zero.osf" horiz-adv-x="721" 
d="M44 283q0 136 84 214.5t233 78.5t232.5 -78t83.5 -215t-83.5 -215t-232.5 -78t-233 78.5t-84 214.5zM184 283q0 -86 47.5 -133t129.5 -47t129 47t47 133t-47 133t-129 47t-129.5 -47t-47.5 -133z" />
    <glyph glyph-name="one.osf" horiz-adv-x="581" 
d="M387 113h172v-113h-514v113h202v308l-173 -79v134l200 90h113v-453z" />
    <glyph glyph-name="two.osf" horiz-adv-x="631" 
d="M242 113h365v-113h-588v103l298 169q34 20 49.5 30t38.5 28t32.5 34t9.5 33q0 31 -33 48.5t-91 17.5q-135 0 -149 -104l-135 11q11 103 88 154.5t196 51.5q116 0 190 -44t74 -128q0 -52 -37 -96t-127 -93z" />
    <glyph glyph-name="three.osf" horiz-adv-x="664" 
d="M377 300q116 -6 184.5 -55.5t68.5 -148.5q0 -77 -43 -129.5t-110.5 -75t-154.5 -22.5q-129 0 -209 53.5t-92 160.5l138 10q17 -110 163 -110q78 0 122 29.5t44 83.5q0 50 -40.5 79t-122.5 29q-53 0 -122 -11v97l208 162h-349v114h544v-102z" />
    <glyph glyph-name="four.osf" horiz-adv-x="716" 
d="M689 125v-114h-123v-132h-140v132h-404v104l313 451h231v-441h123zM169 125h257v371z" />
    <glyph glyph-name="five.osf" horiz-adv-x="672" 
d="M374 341q117 0 189.5 -61t72.5 -171q0 -116 -84.5 -178t-220.5 -62q-122 0 -205.5 50.5t-100.5 148.5l139 10q11 -46 57.5 -70.5t109.5 -24.5q74 0 119 33t45 93q0 61 -46 93.5t-119 32.5q-107 0 -158 -62l-126 11l33 382h510v-114h-403l-16 -180q75 69 204 69z" />
    <glyph glyph-name="six.osf" horiz-adv-x="710" 
d="M406 460q117 0 192 -62t75 -171q0 -112 -81.5 -175.5t-220.5 -63.5q-323 0 -323 352q0 185 85.5 278.5t239.5 93.5q117 0 189 -51.5t82 -146.5l-137 -9q-6 40 -41.5 65.5t-92.5 25.5q-83 0 -131 -58.5t-51 -171.5q65 94 215 94zM370 104q73 0 117 33.5t44 89.5t-44 89
t-117 33t-116 -33t-43 -89t43 -89.5t116 -33.5z" />
    <glyph glyph-name="seven.osf" horiz-adv-x="644" 
d="M30 566h587v-96q-237 -286 -309 -591h-150q74 293 317 573h-445v114z" />
    <glyph glyph-name="eight.osf" horiz-adv-x="705" 
d="M483 366q85 -19 134 -65t49 -115q0 -64 -44.5 -110t-114 -67t-155.5 -21t-155.5 21t-114 67t-44.5 110q0 70 50 115.5t136 64.5q-79 18 -122 59.5t-43 103.5q0 89 83.5 136t209.5 47t210 -47t84 -136q0 -124 -163 -163zM197 509q0 -43 42 -67.5t113 -24.5t113 24.5
t42 67.5q0 42 -42 66.5t-113 24.5q-70 0 -112.5 -24.5t-42.5 -66.5zM352 100q77 0 126.5 27.5t49.5 76.5t-49.5 76t-126.5 27t-126 -27t-49 -76t49 -76.5t126 -27.5z" />
    <glyph glyph-name="nine.osf" horiz-adv-x="710" 
d="M338 576q324 0 324 -344q0 -183 -83.5 -273t-239.5 -90q-117 0 -189 50t-84 143l137 9q9 -39 44 -63.5t92 -24.5q83 0 131 58.5t49 169.5q-63 -89 -215 -89q-118 0 -192.5 59.5t-74.5 163.5q0 108 81.5 169.5t219.5 61.5zM341 231q74 0 117 31.5t43 83.5q0 53 -43 84.5
t-117 31.5t-117.5 -31.5t-43.5 -84.5q0 -51 43.5 -83t117.5 -32z" />
    <glyph glyph-name="zero.subs" horiz-adv-x="506" 
d="M44 99q0 105 55.5 165t153.5 60t153.5 -60t55.5 -165t-55 -165t-154 -60t-154 60t-55 165zM153 99q0 -67 27 -102.5t73 -35.5t73 35.5t27 102.5q0 66 -27 101.5t-73 35.5t-73 -35.5t-27 -101.5z" />
    <glyph glyph-name="one.subs" horiz-adv-x="326" 
d="M147 315h90v-431h-109v314l-91 -65v106z" />
    <glyph glyph-name="two.subs" horiz-adv-x="419" 
d="M173 -31h221v-88h-376v80l162 119q49 36 70.5 59t21.5 48q0 23 -16.5 36t-43.5 13q-66 0 -76 -79l-105 8q6 81 55 120t126 39q72 0 120 -34t48 -99q0 -38 -23 -72t-82 -76z" />
    <glyph glyph-name="three.subs" horiz-adv-x="436" 
d="M254 148q151 -12 151 -129q0 -72 -56.5 -107t-142.5 -35q-81 0 -133 35t-61 103l106 7q10 -57 88 -57q42 0 66 15.5t24 43.5q0 25 -22.5 41t-66.5 16q-35 0 -76 -7v67l120 86h-212v88h351v-78z" />
    <glyph glyph-name="four.subs" horiz-adv-x="491" 
d="M468 61v-88h-81v-89h-109v89h-258v81l196 261h171v-254h81zM126 61h152v201z" />
    <glyph glyph-name="five.subs" horiz-adv-x="458" 
d="M259 164q75 0 119.5 -33t44.5 -101q0 -74 -54.5 -113.5t-141.5 -39.5q-78 0 -133 33t-65 96l106 6q7 -24 33 -36.5t59 -12.5q40 0 64 18t24 49t-25.5 48.5t-65.5 17.5q-58 0 -86 -33l-96 9l21 243h331v-88h-251l-9 -101q44 38 125 38z" />
    <glyph glyph-name="six.subs" horiz-adv-x="490" 
d="M287 158q72 0 118.5 -34t46.5 -101q0 -70 -53 -109.5t-143 -39.5q-212 0 -212 220q0 115 55.5 172.5t157.5 57.5q74 0 122 -32t56 -93l-105 -7q-4 20 -23.5 33t-49.5 13q-59 0 -84 -46q-18 -34 -18 -83q42 49 132 49zM256 -40q41 0 64.5 17t23.5 46t-24 46t-64 17
q-42 0 -66 -17t-24 -46t24 -46t66 -17z" />
    <glyph glyph-name="seven.subs" horiz-adv-x="407" 
d="M20 315h372v-73q-144 -177 -181 -358h-115q39 172 188 343h-264v88z" />
    <glyph glyph-name="eight.subs" horiz-adv-x="483" 
d="M332 110q53 -13 84 -41t31 -71q0 -61 -59.5 -92.5t-146.5 -31.5q-85 0 -145 31.5t-60 92.5q0 84 116 112q-102 24 -102 100q0 55 55 84.5t136 29.5t136.5 -29.5t55.5 -84.5q0 -76 -101 -100zM241 244q-40 0 -63 -13t-23 -36q0 -24 23 -37t63 -13q86 0 86 50
q0 23 -22.5 36t-63.5 13zM241 -46q100 0 100 56q0 27 -26.5 42t-73.5 15q-46 0 -72.5 -15t-26.5 -42t26.5 -41.5t72.5 -14.5z" />
    <glyph glyph-name="nine.subs" horiz-adv-x="489" 
d="M235 324q210 0 210 -220q0 -116 -55 -173t-156 -57q-76 0 -123.5 31.5t-55.5 93.5l105 7q5 -20 24 -33t50 -13q60 0 86 50q14 28 16 80q-44 -49 -133 -49q-72 0 -118.5 34t-46.5 100q0 70 53 109.5t144 39.5zM235 113q41 0 65 17t24 45q0 29 -24.5 46t-64.5 17t-64.5 -17
t-24.5 -46q0 -28 24 -45t65 -17z" />
    <glyph glyph-name="zero.tf" horiz-adv-x="694" 
d="M50 350q0 169 78.5 265.5t218.5 96.5t218.5 -96.5t78.5 -265.5t-78.5 -265.5t-218.5 -96.5t-218.5 96.5t-78.5 265.5zM189 350q0 -117 43 -182.5t115 -65.5t115 65.5t43 182.5t-43 182.5t-115 65.5t-115 -65.5t-43 -182.5z" />
    <glyph glyph-name="one.tf" horiz-adv-x="694" 
d="M449 116h196v-116h-570v116h232v431l-205 -114v138l233 129h114v-584z" />
    <glyph glyph-name="two.tf" horiz-adv-x="694" 
d="M262 116h358v-116h-559v107l275 224q62 51 93 90.5t31 85.5q0 44 -30 67.5t-79 23.5q-121 0 -137 -144l-135 10q10 125 83.5 186.5t187.5 61.5q109 0 179.5 -51.5t70.5 -149.5q0 -62 -34.5 -115.5t-120.5 -125.5z" />
    <glyph glyph-name="three.tf" horiz-adv-x="694" 
d="M388 430q116 -8 173.5 -62.5t57.5 -148.5q0 -114 -83 -172.5t-211 -58.5q-120 0 -196 54.5t-88 162.5l138 9q17 -110 146 -110q69 0 110 30t41 85q0 52 -37 82.5t-110 30.5q-50 0 -116 -13v97l194 168h-328v116h518v-104z" />
    <glyph glyph-name="four.tf" horiz-adv-x="694" 
d="M665 266v-113h-117v-153h-139v153h-377v104l281 443h235v-434h117zM176 266h233v367z" />
    <glyph glyph-name="five.tf" horiz-adv-x="694" 
d="M392 470q110 0 179 -62.5t69 -173.5q0 -118 -80 -182t-210 -64q-115 0 -195 52.5t-96 149.5l140 9q12 -47 53 -71t96 -24q67 0 108.5 34.5t41.5 95.5q0 63 -42 96t-108 33q-98 0 -143 -64l-127 11l32 390h486v-116h-380l-17 -187q71 73 193 73z" />
    <glyph glyph-name="six.tf" horiz-adv-x="694" 
d="M399 459q110 0 181 -62t71 -171q0 -111 -77.5 -174.5t-208.5 -63.5q-306 0 -306 352q0 184 81.5 278t226.5 94q110 0 178.5 -52t78.5 -146l-135 -8q-6 41 -38.5 66.5t-83.5 25.5q-76 0 -120.5 -58.5t-47.5 -171.5q62 91 200 91zM363 102q68 0 108 33.5t40 90.5
q0 58 -40 91.5t-108 33.5q-67 0 -106.5 -33.5t-39.5 -91.5q0 -57 39.5 -90.5t106.5 -33.5z" />
    <glyph glyph-name="seven.tf" horiz-adv-x="694" 
d="M66 700h558v-98q-223 -296 -286 -602h-154q70 302 294 584h-412v116z" />
    <glyph glyph-name="eight.tf" horiz-adv-x="694" 
d="M469 366q81 -20 128 -65.5t47 -114.5q0 -95 -85.5 -146.5t-211.5 -51.5q-81 0 -147 21t-108 67t-42 110q0 69 47 114.5t128 65.5q-156 37 -156 163q0 89 79.5 136t198.5 47q118 0 197.5 -47t79.5 -136q0 -62 -40.5 -103.5t-114.5 -59.5zM347 603q-66 0 -104 -24.5
t-38 -69.5q0 -43 38 -68t104 -25q65 0 103 25t38 68q0 45 -38 69.5t-103 24.5zM347 97q71 0 116 27.5t45 78.5q0 50 -45.5 77.5t-115.5 27.5q-71 0 -117 -27.5t-46 -77.5q0 -51 46 -78.5t117 -27.5z" />
    <glyph glyph-name="nine.tf" horiz-adv-x="694" 
d="M327 712q154 0 230.5 -86.5t76.5 -265.5q0 -187 -79 -279.5t-226 -92.5q-112 0 -180 51t-79 146l135 9q7 -42 39 -67t85 -25q76 0 120 60t45 175q-60 -90 -200 -90q-110 0 -180.5 61.5t-70.5 168.5q0 109 78 172t206 63zM331 355q66 0 105.5 33t39.5 89q0 55 -39.5 88
t-105.5 33q-67 0 -108 -33t-41 -88q0 -56 40.5 -89t108.5 -33z" />
    <glyph glyph-name="zero.tosf" horiz-adv-x="694" 
d="M50 283q0 136 78.5 214.5t218.5 78.5q139 0 218 -78.5t79 -214.5t-79 -214.5t-218 -78.5q-140 0 -218.5 78.5t-78.5 214.5zM188 283q0 -86 43 -134t116 -48t116 48t43 134t-43 134t-116 48t-116 -48t-43 -134z" />
    <glyph glyph-name="one.tosf" horiz-adv-x="694" 
d="M449 113h190v-113h-550v113h220v310l-189 -80v133l217 90h112v-453z" />
    <glyph glyph-name="two.tosf" horiz-adv-x="694" 
d="M282 113h335v-113h-554v103l280 172q37 24 56 37.5t39 38t20 46.5q0 31 -29 48.5t-80 17.5q-118 0 -132 -104l-135 11q11 103 83.5 154.5t183.5 51.5q109 0 178.5 -44t69.5 -128q0 -52 -34 -96t-119 -94z" />
    <glyph glyph-name="three.tosf" horiz-adv-x="694" 
d="M380 300q238 -16 238 -206q0 -112 -83.5 -168.5t-212.5 -56.5q-124 0 -200.5 53t-88.5 160l138 10q16 -109 151 -109q73 0 113.5 29.5t40.5 81.5q0 50 -38 80t-114 30q-51 0 -115 -12v97l194 163h-331v114h524v-102z" />
    <glyph glyph-name="four.tosf" horiz-adv-x="694" 
d="M661 128v-114h-116v-135h-141v135h-376v104l285 448h232v-438h116zM176 128h228v358z" />
    <glyph glyph-name="five.tosf" horiz-adv-x="694" 
d="M393 339q110 0 178 -61t68 -169q0 -115 -80 -177.5t-208 -62.5q-117 0 -196.5 50.5t-94.5 148.5l138 9q11 -46 53.5 -70t99.5 -24q67 0 107 32.5t40 92.5q0 61 -41 93t-108 32q-98 0 -143 -61l-127 11l32 383h484v-114h-378l-16 -182q69 69 192 69z" />
    <glyph glyph-name="six.tosf" horiz-adv-x="694" 
d="M398 459q109 0 179.5 -61.5t70.5 -170.5q0 -112 -77.5 -175.5t-207.5 -63.5q-304 0 -304 352q0 185 80.5 278.5t225.5 93.5q109 0 177 -51.5t79 -146.5l-137 -9q-6 41 -37.5 68t-81.5 27q-74 0 -118 -60t-47 -172q61 91 198 91zM362 100q66 0 105 34.5t39 91.5
t-38.5 90.5t-105.5 33.5t-105.5 -33.5t-38.5 -90.5q0 -58 38.5 -92t105.5 -34z" />
    <glyph glyph-name="seven.tosf" horiz-adv-x="694" 
d="M63 566h552v-98q-220 -285 -285 -589h-149q65 290 294 571h-412v116z" />
    <glyph glyph-name="eight.tosf" horiz-adv-x="694" 
d="M470 366q80 -20 126 -65.5t46 -114.5q0 -95 -85 -146.5t-210 -51.5t-210.5 51.5t-85.5 146.5q0 69 46.5 114.5t127.5 65.5q-73 18 -113.5 59t-40.5 104q0 89 78.5 136t197.5 47q118 0 197 -47t79 -136q0 -124 -153 -163zM347 601q-64 0 -101 -24.5t-37 -67.5t37 -67.5
t101 -24.5q63 0 100 24.5t37 67.5t-37 67.5t-100 24.5zM347 99q69 0 113 27.5t44 76.5t-44 76.5t-113 27.5t-113.5 -27.5t-44.5 -76.5t44.5 -76.5t113.5 -27.5z" />
    <glyph glyph-name="nine.tosf" horiz-adv-x="694" 
d="M331 576q305 0 305 -345q0 -182 -79 -272t-225 -90q-110 0 -178 50t-80 143l136 9q8 -40 39.5 -65t82.5 -25q75 0 118 58t45 169q-61 -86 -199 -86q-110 0 -179.5 59.5t-69.5 163.5q0 108 77 169.5t207 61.5zM333 231q67 0 105.5 31.5t38.5 83.5q0 54 -38.5 86t-105.5 32
q-66 0 -105.5 -32t-39.5 -86q0 -52 39.5 -83.5t105.5 -31.5z" />
    <glyph glyph-name="zero.zero" horiz-adv-x="731" 
d="M366 712q149 0 233 -96.5t84 -265.5t-84 -265.5t-233 -96.5t-233.5 97t-84.5 265t84.5 265t233.5 97zM366 596q-81 0 -128 -64.5t-47 -181.5q0 -66 16 -120l275 316q-44 50 -116 50zM366 104q81 0 127.5 64.5t46.5 181.5q0 67 -16 120l-275 -316q47 -50 117 -50z" />
    <glyph glyph-name="zero.osf.zero" horiz-adv-x="721" 
d="M361 576q149 0 232.5 -78t83.5 -215t-83.5 -215t-232.5 -78t-233 78.5t-84 214.5t84 214.5t233 78.5zM361 463q-82 0 -129.5 -47t-47.5 -133q0 -45 14 -79l279 223q-45 36 -116 36zM361 103q82 0 129 47t47 133q0 43 -13 79l-280 -223q45 -36 117 -36z" />
    <glyph glyph-name="zero.tf.zero" horiz-adv-x="694" 
d="M347 712q140 0 218.5 -96.5t78.5 -265.5t-78.5 -265.5t-218.5 -96.5t-218.5 96.5t-78.5 265.5t78.5 265.5t218.5 96.5zM347 598q-72 0 -115 -65.5t-43 -182.5q0 -64 14 -115l250 311q-41 52 -106 52zM347 102q72 0 115 65.5t43 182.5q0 65 -14 115l-250 -310
q39 -53 106 -53z" />
    <glyph glyph-name="zero.tosf.zero" horiz-adv-x="694" 
d="M347 576q139 0 218 -78.5t79 -214.5t-79 -214.5t-218 -78.5q-140 0 -218.5 78.5t-78.5 214.5t78.5 214.5t218.5 78.5zM347 465q-73 0 -116 -48t-43 -134q0 -42 10 -72l259 212q-41 42 -110 42zM347 101q73 0 116 48t43 134q0 42 -10 72l-259 -212q41 -42 110 -42z" />
    <glyph glyph-name="zero.dnom" horiz-adv-x="439" 
d="M40 177q0 89 47 139t132 50q86 0 132.5 -50t46.5 -139t-46.5 -139t-132.5 -50q-85 0 -132 50t-47 139zM133 177q0 -56 23.5 -85.5t62.5 -29.5q41 0 64 29t23 86t-23 86t-64 29q-39 0 -62.5 -29.5t-23.5 -85.5z" />
    <glyph glyph-name="one.dnom" horiz-adv-x="278" 
d="M133 360h74v-360h-92v257l-87 -48v93z" />
    <glyph glyph-name="two.dnom" horiz-adv-x="366" 
d="M148 74h193v-74h-325v68l143 99q41 29 59.5 48.5t18.5 41.5q0 18 -14.5 29.5t-39.5 11.5q-59 0 -66 -66l-89 7q6 67 48 100t107 33q63 0 104.5 -28.5t41.5 -83.5q0 -33 -20 -61.5t-70 -61.5z" />
    <glyph glyph-name="three.dnom" horiz-adv-x="388" 
d="M223 221q138 -12 138 -110q0 -63 -50 -93t-127 -30q-157 0 -171 117l91 6q7 -51 80 -51q39 0 62 13.5t23 37.5q0 22 -21 35.5t-62 13.5q-29 0 -69 -6v60l113 74h-194v72h312v-65z" />
    <glyph glyph-name="four.dnom" horiz-adv-x="414" 
d="M394 149v-75h-68v-74h-91v74h-218v68l161 218h148v-211h68zM112 149h123v170z" />
    <glyph glyph-name="five.dnom" horiz-adv-x="396" 
d="M225 238q65 0 105 -30.5t40 -89.5q0 -63 -48 -96.5t-125 -33.5q-69 0 -117 28t-57 81l88 7q13 -45 86 -45q81 0 81 58t-82 58q-55 0 -82 -28l-79 6l18 207h291v-71h-224l-9 -87q41 36 114 36z" />
    <glyph glyph-name="six.dnom" horiz-adv-x="419" 
d="M245 231q65 0 106 -30.5t41 -86.5q0 -59 -46 -92.5t-124 -33.5q-86 0 -134 46.5t-48 139.5q0 95 50 143.5t133 48.5q65 0 106 -27t48 -78l-89 -6q-4 16 -21 27.5t-44 11.5q-52 0 -74 -40q-13 -24 -16 -64q36 41 112 41zM221 60q36 0 57.5 15t21.5 40q0 23 -21.5 38
t-57.5 15q-35 0 -56 -14.5t-21 -38.5q0 -25 20.5 -40t56.5 -15z" />
    <glyph glyph-name="seven.dnom" horiz-adv-x="354" 
d="M19 360h322v-62q-126 -147 -159 -298h-97q34 147 158 286h-224v74z" />
    <glyph glyph-name="eight.dnom" horiz-adv-x="417" 
d="M285 186q100 -22 100 -94q0 -50 -51.5 -77t-124.5 -27q-74 0 -125.5 27t-51.5 77q0 72 100 94q-88 21 -88 83q0 48 47.5 72.5t117.5 24.5t117 -24.5t47 -72.5q0 -62 -88 -83zM209 297q-76 0 -76 -41q0 -20 21 -31t55 -11q33 0 54 11t21 31t-21 30.5t-54 10.5zM209 57
q39 0 62.5 12t23.5 35t-23.5 35.5t-62.5 12.5q-40 0 -63.5 -12.5t-23.5 -35.5t23.5 -35t63.5 -12z" />
    <glyph glyph-name="nine.dnom" horiz-adv-x="418" 
d="M196 366q87 0 134.5 -46t47.5 -140q0 -96 -49 -144t-133 -48q-65 0 -106 27t-48 78l90 6q3 -17 19.5 -28t44.5 -11q49 0 71 37q15 23 18 69q-35 -41 -112 -41q-65 0 -106 29.5t-41 85.5q0 59 46 92.5t124 33.5zM197 187q36 0 57 14.5t21 38.5t-21 39t-57 15t-57 -15
t-21 -39t21 -38.5t57 -14.5z" />
    <glyph glyph-name="zero.numr" horiz-adv-x="439" 
d="M40 523q0 89 47 139t132 50q86 0 132.5 -50t46.5 -139t-46.5 -139t-132.5 -50q-85 0 -132 50t-47 139zM133 523q0 -56 23.5 -85.5t62.5 -29.5q41 0 64 29t23 86t-23 86t-64 29q-39 0 -62.5 -29.5t-23.5 -85.5z" />
    <glyph glyph-name="one.numr" horiz-adv-x="278" 
d="M133 700h74v-360h-92v257l-87 -48v93z" />
    <glyph glyph-name="two.numr" horiz-adv-x="366" 
d="M148 420h193v-74h-325v68l143 99q41 29 59.5 48.5t18.5 41.5q0 18 -14.5 29.5t-39.5 11.5q-59 0 -66 -66l-89 7q6 67 48 100t107 33q63 0 104.5 -28.5t41.5 -83.5q0 -33 -20 -61.5t-70 -61.5z" />
    <glyph glyph-name="three.numr" horiz-adv-x="388" 
d="M223 561q138 -12 138 -110q0 -63 -50 -93t-127 -30q-157 0 -171 117l91 6q7 -51 80 -51q39 0 62 13.5t23 37.5q0 22 -21 35.5t-62 13.5q-29 0 -69 -6v60l113 74h-194v72h312v-65z" />
    <glyph glyph-name="four.numr" horiz-adv-x="414" 
d="M394 489v-75h-68v-74h-91v74h-218v68l161 218h148v-211h68zM112 489h123v170z" />
    <glyph glyph-name="five.numr" horiz-adv-x="396" 
d="M225 578q65 0 105 -30.5t40 -89.5q0 -63 -48 -96.5t-125 -33.5q-69 0 -117 28t-57 81l88 7q13 -45 86 -45q81 0 81 58t-82 58q-55 0 -82 -28l-79 6l18 207h291v-71h-224l-9 -87q40 36 114 36z" />
    <glyph glyph-name="six.numr" horiz-adv-x="419" 
d="M245 577q65 0 106 -30.5t41 -86.5q0 -59 -46 -92.5t-124 -33.5q-86 0 -134 46.5t-48 139.5q0 95 50 143.5t133 48.5q65 0 106 -27t48 -78l-89 -6q-4 16 -21 27.5t-44 11.5q-52 0 -74 -40q-13 -24 -16 -64q36 41 112 41zM221 406q36 0 57.5 15t21.5 40q0 23 -21.5 38
t-57.5 15q-35 0 -56 -14.5t-21 -38.5q0 -25 20.5 -40t56.5 -15z" />
    <glyph glyph-name="seven.numr" horiz-adv-x="354" 
d="M19 700h322v-62q-126 -147 -159 -298h-97q34 147 158 286h-224v74z" />
    <glyph glyph-name="eight.numr" horiz-adv-x="417" 
d="M285 532q100 -22 100 -94q0 -50 -51.5 -77t-124.5 -27q-74 0 -125.5 27t-51.5 77q0 72 100 94q-88 21 -88 83q0 48 47.5 72.5t117.5 24.5t117 -24.5t47 -72.5q0 -62 -88 -83zM209 643q-76 0 -76 -41q0 -20 21 -31t55 -11q33 0 54 11t21 31t-21 30.5t-54 10.5zM209 403
q39 0 62.5 12t23.5 35t-23.5 35.5t-62.5 12.5q-40 0 -63.5 -12.5t-23.5 -35.5t23.5 -35t63.5 -12z" />
    <glyph glyph-name="nine.numr" horiz-adv-x="418" 
d="M196 712q87 0 134.5 -46t47.5 -140q0 -96 -49 -144t-133 -48q-65 0 -106 27t-48 78l90 6q3 -17 19.5 -28t44.5 -11q49 0 71 37q15 23 18 69q-35 -41 -112 -41q-65 0 -106 29.5t-41 85.5q0 59 46 92.5t124 33.5zM197 533q36 0 57 14.5t21 38.5t-21 39t-57 15t-57 -15
t-21 -39t21 -38.5t57 -14.5z" />
    <glyph glyph-name="zero.sups" horiz-adv-x="506" 
d="M44 549q0 105 55.5 165t153.5 60t153.5 -60t55.5 -165t-55 -165t-154 -60t-154 60t-55 165zM153 549q0 -67 27 -102.5t73 -35.5t73 35.5t27 102.5q0 66 -27 101.5t-73 35.5t-73 -35.5t-27 -101.5z" />
    <glyph glyph-name="one.sups" horiz-adv-x="326" 
d="M147 764h90v-431h-109v314l-91 -65v106z" />
    <glyph glyph-name="two.sups" horiz-adv-x="419" 
d="M173 419h221v-88h-376v80l162 119q49 36 70.5 59t21.5 48q0 23 -16.5 36t-43.5 13q-66 0 -76 -79l-105 8q6 81 55 120t126 39q72 0 120 -34t48 -99q0 -38 -23 -72t-82 -76z" />
    <glyph glyph-name="three.sups" horiz-adv-x="436" 
d="M254 597q151 -12 151 -129q0 -72 -56.5 -107t-142.5 -35q-81 0 -133 35t-61 103l106 7q10 -57 88 -57q42 0 66 15.5t24 43.5q0 25 -22.5 41t-66.5 16q-35 0 -76 -7v67l120 86h-212v88h351v-78z" />
    <glyph glyph-name="four.sups" horiz-adv-x="491" 
d="M468 510v-88h-81v-89h-109v89h-258v81l196 261h171v-254h81zM126 510h152v201z" />
    <glyph glyph-name="five.sups" horiz-adv-x="458" 
d="M259 613q75 0 119.5 -33t44.5 -101q0 -74 -54.5 -113.5t-141.5 -39.5q-78 0 -133 33t-65 96l106 6q7 -24 33 -36.5t59 -12.5q40 0 64 18t24 49t-25.5 48.5t-65.5 17.5q-58 0 -86 -33l-96 9l21 243h331v-88h-251l-9 -101q44 38 125 38z" />
    <glyph glyph-name="six.sups" horiz-adv-x="490" 
d="M287 608q72 0 118.5 -34t46.5 -101q0 -70 -53 -109.5t-143 -39.5q-212 0 -212 220q0 115 55.5 172.5t157.5 57.5q74 0 122 -32t56 -93l-105 -7q-4 20 -23.5 33t-49.5 13q-59 0 -84 -46q-18 -34 -18 -83q42 49 132 49zM256 410q41 0 64.5 17t23.5 46t-24 46t-64 17
q-42 0 -66 -17t-24 -46t24 -46t66 -17z" />
    <glyph glyph-name="seven.sups" horiz-adv-x="407" 
d="M20 764h372v-73q-144 -177 -181 -358h-115q39 172 188 343h-264v88z" />
    <glyph glyph-name="eight.sups" horiz-adv-x="483" 
d="M332 560q53 -13 84 -41t31 -71q0 -61 -59.5 -92.5t-146.5 -31.5q-85 0 -145 31.5t-60 92.5q0 84 116 112q-102 24 -102 100q0 55 55 84.5t136 29.5t136.5 -29.5t55.5 -84.5q0 -76 -101 -100zM241 694q-40 0 -63 -13t-23 -36q0 -24 23 -37t63 -13q86 0 86 50
q0 23 -22.5 36t-63.5 13zM241 404q100 0 100 56q0 27 -26.5 42t-73.5 15q-46 0 -72.5 -15t-26.5 -42t26.5 -41.5t72.5 -14.5z" />
    <glyph glyph-name="nine.sups" horiz-adv-x="489" 
d="M235 774q210 0 210 -220q0 -116 -55 -173t-156 -57q-76 0 -123.5 31.5t-55.5 93.5l105 7q5 -20 24 -33t50 -13q60 0 86 50q14 28 16 80q-44 -49 -133 -49q-72 0 -118.5 34t-46.5 100q0 70 53 109.5t144 39.5zM235 563q41 0 65 17t24 45q0 29 -24.5 46t-64.5 17t-64.5 -17
t-24.5 -46q0 -28 24 -45t65 -17z" />
    <glyph glyph-name="exclamdown.case" horiz-adv-x="323" 
d="M83 700h157v-154h-157v154zM220 469l15 -469h-147l15 469h117z" />
    <glyph glyph-name="questiondown.case" horiz-adv-x="602" 
d="M397 700v-154h-157v154h157zM583 226q-11 -119 -89 -178.5t-201 -59.5q-113 0 -186.5 47.5t-73.5 141.5q0 59 32 101t102 84q51 30 67.5 47.5t16.5 46.5v10h135v-16q0 -56 -21 -87.5t-77 -61.5q-28 -16 -43.5 -26t-34.5 -25.5t-27.5 -31.5t-8.5 -35q0 -39 33 -59.5
t86 -20.5q140 0 157 131z" />
    <glyph glyph-name="braceleft.case" horiz-adv-x="372" 
d="M254 491q0 -124 -126 -142v-4q126 -16 126 -142v-109q0 -94 87 -94h9v-96h-14q-99 0 -150.5 40t-51.5 142v102q0 111 -92 111h-9v96h9q92 0 92 111v101q0 102 51.5 142.5t150.5 40.5h14v-96h-9q-87 0 -87 -94v-109z" />
    <glyph glyph-name="braceright.case" horiz-adv-x="372" 
d="M238 506q0 -111 92 -111h9v-96h-9q-92 0 -92 -111v-102q0 -102 -51.5 -142t-150.5 -40h-14v96h9q44 0 65.5 22t21.5 72v109q0 126 127 142v4q-127 18 -127 142v109q0 50 -21.5 72t-65.5 22h-9v96h14q99 0 150.5 -40.5t51.5 -142.5v-101z" />
    <glyph glyph-name="bracketleft.case" horiz-adv-x="352" 
d="M330 679h-114v-664h114v-111h-242v886h242v-111z" />
    <glyph glyph-name="bracketright.case" horiz-adv-x="352" 
d="M264 790v-886h-242v111h114v664h-114v111h242z" />
    <glyph glyph-name="parenleft.case" horiz-adv-x="376" 
d="M367 790q-175 -167 -175 -443t175 -443h-120q-77 64 -131.5 175t-54.5 268t54.5 268t131.5 175h120z" />
    <glyph glyph-name="parenright.case" horiz-adv-x="376" 
d="M129 790q77 -64 131.5 -175t54.5 -268t-54.5 -268t-131.5 -175h-120q175 167 175 443t-175 443h120z" />
    <glyph glyph-name="emdash.case" horiz-adv-x="785" 
d="M55 410h675v-109h-675v109z" />
    <glyph glyph-name="endash.case" horiz-adv-x="635" 
d="M55 410h524v-109h-524v109z" />
    <glyph glyph-name="hyphen.case" horiz-adv-x="426" 
d="M55 410h316v-109h-316v109z" />
    <glyph glyph-name="guillemotleft.case" horiz-adv-x="578" 
d="M310 535l-172 -185l172 -185h-136l-146 159v52l146 159h136zM538 535l-172 -185l172 -185h-136l-146 159v52l146 159h136z" />
    <glyph glyph-name="guillemotright.case" horiz-adv-x="578" 
d="M322 376v-52l-146 -159h-136l172 185l-172 185h136zM404 535l146 -159v-52l-146 -159h-136l172 185l-172 185h136z" />
    <glyph glyph-name="guilsinglleft.case" horiz-adv-x="350" 
d="M310 535l-172 -185l172 -185h-136l-146 159v52l146 159h136z" />
    <glyph glyph-name="guilsinglright.case" horiz-adv-x="350" 
d="M176 535l146 -159v-52l-146 -159h-136l172 185l-172 185h136z" />
    <glyph glyph-name="arrowup.ss01" 
d="M404 -12q-152 0 -256 100.5t-104 261.5t104 261.5t256 100.5t256 -100.5t104 -261.5t-104 -261.5t-256 -100.5zM226 308l144 142v-307h66v307l145 -142v90l-177 168l-178 -168v-90z" />
    <glyph glyph-name="uni2197.ss01" 
d="M404 -12q-152 0 -256 100.5t-104 261.5t104 261.5t256 100.5t256 -100.5t104 -261.5t-104 -261.5t-256 -100.5zM238 227l43 -43l222 220l-3 -204l64 64v244h-245l-64 -62l205 4z" />
    <glyph glyph-name="arrowright.ss01" 
d="M404 -12q-152 0 -256 100.5t-104 261.5t104 261.5t256 100.5t256 -100.5t104 -261.5t-104 -261.5t-256 -100.5zM205 319h300l-145 -146h90l168 177l-168 178h-90l145 -147h-300v-62z" />
    <glyph glyph-name="uni2198.ss01" 
d="M404 -12q-152 0 -256 100.5t-104 261.5t104 261.5t256 100.5t256 -100.5t104 -261.5t-104 -261.5t-256 -100.5zM238 473l222 -223l-205 4l64 -62h245v244l-64 64l3 -204l-222 220z" />
    <glyph glyph-name="arrowdown.ss01" 
d="M404 -12q-152 0 -256 100.5t-104 261.5t104 261.5t256 100.5t256 -100.5t104 -261.5t-104 -261.5t-256 -100.5zM226 392v-90l178 -168l177 168v90l-145 -142v307h-66v-307z" />
    <glyph glyph-name="uni2199.ss01" 
d="M404 -12q-152 0 -256 100.5t-104 261.5t104 261.5t256 100.5t256 -100.5t104 -261.5t-104 -261.5t-256 -100.5zM569 473l-43 43l-221 -220l2 204l-63 -64v-244h244l64 62l-204 -4z" />
    <glyph glyph-name="arrowleft.ss01" 
d="M404 -12q-152 0 -256 100.5t-104 261.5t104 261.5t256 100.5t256 -100.5t104 -261.5t-104 -261.5t-256 -100.5zM602 319v62h-300l145 147h-90l-168 -178l168 -177h90l-145 146h300z" />
    <glyph glyph-name="uni2196.ss01" 
d="M404 -12q-152 0 -256 100.5t-104 261.5t104 261.5t256 100.5t256 -100.5t104 -261.5t-104 -261.5t-256 -100.5zM569 227l-221 223l204 -4l-64 62h-244v-244l63 -64l-2 204l221 -220z" />
    <glyph glyph-name="arrowboth.ss01" 
d="M404 -12q-152 0 -256 100.5t-104 261.5t104 261.5t256 100.5t256 -100.5t104 -261.5t-104 -261.5t-256 -100.5zM137 350l138 -145h80l-114 116h326l-115 -116h80l138 145l-138 145h-80l115 -116h-326l114 116h-80z" />
    <glyph glyph-name="arrowupdn.ss01" 
d="M404 -12q-152 0 -256 100.5t-104 261.5t104 261.5t256 100.5t256 -100.5t104 -261.5t-104 -261.5t-256 -100.5zM258 222l146 -138l145 138v80l-114 -113v322l114 -112v80l-145 138l-146 -138v-80l114 112v-322l-114 113v-80z" />
    <glyph glyph-name="at.case" horiz-adv-x="915" 
d="M539 547h105v-234q0 -49 16 -72t54 -23q94 0 94 138q0 137 -96 229t-254 92q-149 0 -250 -95t-101 -236q0 -153 98 -242.5t263 -89.5q126 0 211 47l33 -47q-100 -55 -244 -55q-193 0 -307.5 103t-114.5 284q0 169 118 277.5t294 108.5q183 0 297 -105t114 -268
q0 -104 -46.5 -159t-131.5 -55q-106 0 -139 80q-23 -45 -62 -67.5t-85 -22.5q-75 0 -125 57t-50 154t50.5 153.5t125.5 56.5q89 0 133 -71v62zM437 218q47 0 74.5 35t27.5 93t-27.5 93t-74.5 35t-74.5 -35t-27.5 -93t27.5 -93t74.5 -35z" />
    <glyph glyph-name="russianfonts" horiz-adv-x="599" 
d="M54 213q0 100 24.5 182t61.5 132t83.5 84.5t87.5 48t77 13.5q40 0 72 -32t46.5 -70.5t14.5 -69.5v-6h-23q-38 0 -64 -4t-58 -17.5t-61.5 -44t-58.5 -78.5q-23 -37 -39 -79.5t-22.5 -77t-9 -63.5t0 -45.5t7.5 -16.5q14 0 42.5 30t54.5 79q22 44 45 103t35 97l12 37h139
v-23l-35 -24v-322l35 -23v-23h-173v23l34 23v288q-17 -81 -68 -179q-42 -79 -89.5 -122.5t-84.5 -43.5q-33 0 -59.5 64.5t-26.5 159.5z" />
    </font>
</defs>
</svg>
