<svg width="139" height="49" viewBox="0 0 139 49" fill="none" xmlns="http://www.w3.org/2000/svg">
<mask id="mask0_1122_1032" style="mask-type:luminance" maskUnits="userSpaceOnUse" x="5" y="7" width="129" height="37">
<path d="M112.855 42.5517L109.976 34.1965L106.007 22.9458H32.573L28.6041 34.1965L25.69 42.5517H112.855ZM103.897 17.0125C108.192 17.1724 113.607 17.1072 117.937 16.1657C123.882 14.8748 129.698 12.376 133.463 7.4375C132.835 11.5434 131.465 15.4961 129.424 19.0968C125.292 20.5269 120.904 21.0299 116.562 20.5713C120.489 21.5219 124.584 21.5037 128.503 20.518C126.813 23.0464 124.622 25.5808 121.65 26.4394C118.94 26.1184 116.321 25.2529 113.945 23.8932C116.101 25.4979 117.756 26.6941 120.274 27.2625C117.965 28.542 115.38 29.2176 112.75 29.2284C112.271 28.0967 111.718 26.9987 111.095 25.942C111.887 31.9345 112.843 37.6665 114.16 43.9965C85.1657 42.8122 53.455 42.8122 24.4603 43.9965C25.7833 37.6665 26.7332 31.9345 27.5259 25.942C26.9048 27 26.3519 28.0978 25.8707 29.2284C23.241 29.2176 20.6552 28.542 18.3466 27.2625C20.8644 26.6704 22.5195 25.4861 24.6759 23.8932C22.2994 25.2529 19.6803 26.1184 16.9712 26.4394C13.9989 25.5571 11.8075 23.0228 10.1174 20.518C14.0367 21.5037 18.1314 21.5219 22.0591 20.5713C17.7075 21.0342 13.3088 20.5311 9.16737 19.0968C7.116 15.4982 5.73684 11.5454 5.09937 7.4375C8.86431 12.3701 14.6807 14.8748 20.6254 16.1657C24.9557 17.1072 30.37 17.1724 34.6653 17.0125L33.1325 21.3529C57.2087 22.8629 81.3537 22.8629 105.43 21.3529L103.897 17.0125Z" fill="white"/>
</mask>
<g mask="url(#mask0_1122_1032)">
<path d="M133.463 7.4375H5.09937V44.0202H133.463V7.4375Z" fill="url(#paint0_linear_1122_1032)"/>
</g>
<path d="M33.1326 21.3525C45.3716 22.1164 57.5465 22.4895 69.7098 22.4835V22.9691H32.5557L33.1326 21.3525Z" fill="#C05D1F"/>
<path d="M123.474 21.4772C124.975 21.3892 126.465 21.1633 127.927 20.8022C126.633 22.8214 124.348 25.5393 121.621 26.4631C120.455 26.3032 118.124 26.1492 113.916 23.9169C115.723 24.5737 117.605 24.9975 119.517 25.1781C121.18 24.3893 122.563 23.0965 123.474 21.4772ZM116.737 16.7401C124.896 15.2656 131.091 11.4108 132.595 9.39746C132.461 10.1613 132.234 11.3101 132.012 12.0621C131.188 13.0203 130.181 13.798 129.051 14.3478C130.701 14.0813 131.68 13.1339 131.598 13.3648C130.92 15.3891 130.056 17.3439 129.016 19.2034C127.516 19.6613 125.99 20.0291 124.447 20.3048C125.566 19.0672 126.429 16.8644 126.895 15.1235C125.677 15.461 124.138 16.1775 116.737 16.7164V16.7401ZM116.877 26.2854C117.958 26.7533 119.088 27.0969 120.245 27.3098C117.953 28.6314 115.356 29.3099 112.721 29.2758C112.226 28.152 111.673 27.055 111.066 25.9894C111.701 26.5815 112.651 27.2802 112.966 27.2447C114.301 27.0658 115.613 26.7361 116.877 26.2618V26.2854Z" fill="#D66E1E"/>
<path d="M103.903 17.0183C108.199 17.1723 113.613 17.1131 117.943 16.1716C123.888 14.8807 129.704 12.3759 133.469 7.44336V7.5085C126.825 16.3907 114.662 17.7408 104.48 17.4921C105.133 19.381 113.059 42.4036 112.867 42.5516L103.903 17.0183Z" fill="#FFED00"/>
<path d="M80.9115 37.4825V27.718H77.6944V37.4825H80.9115ZM45.5932 31.9756L43.6 37.4825H47.5864L45.5932 31.9756ZM45.5932 25.5508L50.7045 39.5609H40.482L45.5932 25.5508ZM71.1552 27.6766H70.2461V25.6455H73.3758V39.5965H70.4092L67.1513 31.0992V37.4943H67.9848V39.5491H64.9308V25.6514H67.1513H67.2388L71.1552 35.4811V27.7003V27.6766ZM63.095 27.6766H62.3607V39.5195H60.1402V25.6455H63.1125L63.095 27.6766ZM38.617 39.5195H33.7622V25.7047H41.0298V30.4419H39.0075V27.7536H35.7846V37.4943H39.3513L38.617 39.5195ZM53.3155 27.6411L57.8672 39.5136H52.2023L51.4971 37.4588H54.6151L50.0634 25.6159H58.0653V30.3531H56.043V27.6411H53.3155ZM75.672 27.7003H74.8095V25.6455H82.9338V39.555H75.672V27.7003Z" fill="#141720"/>
<path d="M88.7268 27.7603H87.9517V25.7056H96.3907V36.1214H93.9255C93.9927 36.214 94.0647 36.303 94.1411 36.3879C94.7432 37.0221 95.5335 37.4382 96.3907 37.5722V39.6328C94.9704 39.4815 93.6498 38.82 92.6666 37.7676C91.7509 36.757 91.2414 35.4344 91.2387 34.0608H94.3626V27.7663H90.9415V39.6092H88.721L88.7268 27.7603ZM102.802 31.9764L100.826 37.4537H104.807L102.802 31.9764ZM102.802 25.5635L107.913 39.5322H97.6962L102.802 25.5635Z" fill="#141720"/>
<path d="M15.089 21.4772C13.5877 21.3892 12.0974 21.1633 10.6363 20.8022C11.9302 22.8214 14.2089 25.5393 16.9423 26.4631C18.1079 26.3032 20.4392 26.1492 24.6471 23.9169C22.8394 24.5737 20.9578 24.9975 19.0463 25.1781C17.3837 24.3877 16.0017 23.0953 15.089 21.4772ZM21.8263 16.7401C13.6669 15.2656 7.47167 11.4108 5.96802 9.39746C6.10206 10.1613 6.32936 11.3101 6.55083 12.0621C7.37481 13.0203 8.38215 13.798 9.5115 14.3478C7.86215 14.0813 6.88303 13.1339 6.95879 13.3648C7.642 15.3871 8.50623 17.3414 9.54064 19.2034C11.0433 19.6607 12.5709 20.0285 14.1157 20.3048C12.9967 19.0672 12.1341 16.8644 11.6679 15.1235C12.8918 15.461 14.4421 16.1775 21.8263 16.7164V16.7401ZM21.6864 26.2854C20.6045 26.7533 19.4747 27.0969 18.3177 27.3098C20.6121 28.6231 23.2087 29.2934 25.8418 29.2521C26.3373 28.1283 26.8897 27.0313 27.497 25.9657C26.8617 26.5578 25.9117 27.2566 25.597 27.221C24.2625 27.0497 22.9508 26.728 21.6864 26.2618V26.2854Z" fill="#D66E1E"/>
<path d="M34.6597 17.0183C30.3644 17.1723 24.9501 17.1131 20.6198 16.1716C14.6751 14.8807 8.8587 12.3759 5.09375 7.44336V7.5085C11.7494 16.3847 23.8952 17.7644 34.0943 17.4921L25.7077 42.5516C25.7718 42.6049 33.867 19.227 34.6597 17.0183Z" fill="#FFED00"/>
<path d="M105.419 21.3525C93.1622 22.1164 81.0106 22.5013 68.8357 22.5013V22.9869H105.99L105.419 21.3525Z" fill="#C05D1F"/>
<defs>
<linearGradient id="paint0_linear_1122_1032" x1="69.2783" y1="29.9627" x2="69.2843" y2="13.7675" gradientUnits="userSpaceOnUse">
<stop stop-color="#DE7B1B"/>
<stop offset="0.47" stop-color="#F59E0E"/>
<stop offset="1" stop-color="#FFD900"/>
</linearGradient>
</defs>
</svg>
