<svg width="111" height="15" viewBox="0 0 111 15" fill="none" xmlns="http://www.w3.org/2000/svg">
<g clip-path="url(#clip0_1122_1053)">
<path d="M66.1615 0.0537109V2.50425L65.0967 2.50162C63.6871 2.50162 62.6193 2.76283 61.9033 3.29436C61.1845 3.82785 60.8287 4.62687 60.8287 5.6815V14.9465H57.9023V5.65099C57.9023 3.82213 58.5926 2.41576 59.9694 1.42551C61.2443 0.512778 62.9515 0.0537109 65.0966 0.0537109H66.1615ZM17.7602 7.09236V8.51327H3.65274H3.58844L3.5967 8.57377C3.77452 9.87534 4.32498 10.8921 5.25208 11.5826C6.1783 12.2725 7.47366 12.6316 9.13165 12.6316C10.4881 12.6316 11.6275 12.3636 12.5465 11.8242C13.4566 11.2901 14.1464 10.4923 14.617 9.43384H17.5812C16.7138 11.7539 15.495 13.28 13.9313 14.0263C12.5516 14.6863 10.9325 14.9296 9.06942 14.9296C6.05353 14.9296 4.21797 14.3264 2.75872 12.9509C1.35691 11.65 0.389893 9.86627 0.389893 7.6132C0.389893 5.46078 1.42772 3.68155 2.97617 2.26102C4.52066 0.844138 6.60192 0.070882 9.22508 0.070882C11.7868 0.070882 13.8486 0.766924 15.4144 2.02837C16.9774 3.28873 17.7602 4.97502 17.7602 7.09236ZM5.17123 3.79638C4.4158 4.44897 3.92194 5.2505 3.69138 6.20017L3.67546 6.26576H3.74645H14.5794H14.6476L14.635 6.20225C14.4458 5.25213 13.9833 4.44997 13.2482 3.79692C12.2801 2.94405 10.9363 2.52075 9.22508 2.52075C7.51345 2.52075 6.15959 2.94392 5.17123 3.79638ZM54.4188 7.09376V8.5147H40.3115H40.2471L40.2554 8.57512C40.4332 9.8767 40.9837 10.8935 41.9108 11.584C42.837 12.2738 44.1324 12.6331 45.7904 12.6331C47.1468 12.6331 48.2862 12.3651 49.2053 11.8256C50.1152 11.2915 50.8052 10.4936 51.2757 9.4352H54.2399C53.3725 11.7553 52.1537 13.2813 50.5901 14.0277C49.2103 14.6877 47.5912 14.9311 45.7281 14.9311C42.7122 14.9311 40.8767 14.3278 39.4174 12.9523C38.0156 11.6514 37.0486 9.8677 37.0486 7.61462C37.0486 5.46219 38.0864 3.68295 39.6349 2.26242C41.1793 0.845538 43.2606 0.072283 45.8838 0.072283C48.4455 0.072283 50.5073 0.768331 52.0731 2.02979C53.6361 3.29013 54.4189 4.97643 54.4188 7.09376ZM41.8299 3.79778C41.0745 4.45037 40.5807 5.2519 40.3501 6.20157L40.3341 6.26716H40.4052H51.2381H51.3063L51.2936 6.20365C51.1045 5.25353 50.642 4.45137 49.9069 3.79832C48.9387 2.94545 47.595 2.52215 45.8838 2.52215C44.1722 2.52215 42.8183 2.94532 41.8299 3.79778ZM27.8423 11.111L27.8945 11.2082L27.9437 11.1096L33.2785 0.418349H36.4187L29.0391 14.9466H26.838L18.8095 0.418349H22.1032L27.8423 11.111ZM110.277 5.70492V14.9427H107.472V5.73572C107.472 4.67199 107.131 3.88728 106.44 3.37053C105.751 2.85583 104.726 2.6144 103.373 2.6144H100.243H100.186V2.66797V14.9427H97.382V2.66797V2.6144H97.3255H94.1958C92.8426 2.6144 91.8172 2.85583 91.1286 3.37054C90.4377 3.8873 90.0964 4.67201 90.0964 5.73576V14.9427H87.2914V5.70492C87.2914 3.8575 87.9544 2.43732 89.2759 1.43792C90.4995 0.516972 92.1374 0.0537109 94.1958 0.0537109H103.373C105.431 0.0537109 107.069 0.516972 108.292 1.43792C109.614 2.43732 110.277 3.8575 110.277 5.70492ZM76.4798 12.3986C77.9037 12.3986 78.9826 12.1711 79.7067 11.6762C80.4345 11.1787 80.7946 10.4174 80.7946 9.37277V0.434829H83.7164V9.40298C83.7164 11.2136 83.0564 12.6049 81.6648 13.5847C80.3757 14.4882 78.6489 14.9427 76.4798 14.9427C74.3103 14.9427 72.5838 14.4883 71.2945 13.5848C69.9018 12.6043 69.1722 11.1821 69.1722 9.37277V0.434829H72.1647V9.37277C72.1647 10.4174 72.525 11.1787 73.2528 11.6762C73.9768 12.1711 75.0557 12.3986 76.4798 12.3986Z" fill="url(#paint0_linear_1122_1053)" stroke="url(#paint1_linear_1122_1053)" stroke-width="0.178767"/>
</g>
<defs>
<linearGradient id="paint0_linear_1122_1053" x1="42.359" y1="-5.0891" x2="45.0335" y2="19.8935" gradientUnits="userSpaceOnUse">
<stop stop-color="#B99237"/>
<stop offset="0.383662" stop-color="#F0DC93"/>
<stop offset="1" stop-color="#B99237"/>
</linearGradient>
<linearGradient id="paint1_linear_1122_1053" x1="-4.46149" y1="-4.01767" x2="124.313" y2="19.3718" gradientUnits="userSpaceOnUse">
<stop stop-color="#C49918"/>
<stop offset="0.6319" stop-color="#F5E774"/>
<stop offset="1" stop-color="#C49918"/>
</linearGradient>
<clipPath id="clip0_1122_1053">
<rect width="110" height="15" fill="white" transform="translate(0.333496)"/>
</clipPath>
</defs>
</svg>
