<svg width="108" height="22" viewBox="0 0 108 22" fill="none" xmlns="http://www.w3.org/2000/svg">
<path d="M13.1305 8.76568C12.3044 7.2276 10.9385 6.3327 8.79615 5.92579C7.80717 5.73796 5.42226 5.74572 4.44251 5.93991C2.34155 6.35653 1.02343 7.35685 0.462085 8.96073C0.290941 9.44971 0.264289 9.64322 0.259859 10.4301C0.255504 11.1925 0.282008 11.4194 0.426866 11.8593C0.892598 13.2739 1.67381 14.0208 3.23004 14.5392C4.15619 14.8478 4.92559 14.983 7.21305 15.239C7.75091 15.2992 8.34895 15.3771 8.54202 15.4123C9.4455 15.5766 10.16 15.9628 10.4642 16.4516C10.6411 16.7355 10.6639 16.8412 10.6559 17.3372C10.6465 17.9257 10.5938 18.0756 10.2521 18.4875C9.70856 19.1426 8.93429 19.3874 7.23918 19.4402C6.04902 19.4772 5.63098 19.4293 4.86918 19.1692C3.99213 18.8696 3.39867 18.382 2.95546 17.5967C2.61495 16.9936 2.50265 16.9133 2.00045 16.9142C1.49093 16.9151 0.410474 17.288 0.1624 17.5485C-0.0705391 17.7931 -0.0531874 18.1728 0.216373 18.7343C0.817363 19.9857 1.96286 21.0218 3.27146 21.4975C4.52483 21.953 4.89938 22.0029 7.04722 21.9999C8.90062 21.9973 8.99232 21.9907 9.70458 21.8079C11.4308 21.3649 12.5265 20.6111 13.1285 19.452C13.4967 18.7431 13.6552 18.0639 13.6552 17.1939C13.6552 15.9426 13.2597 14.7766 12.6452 14.2165C11.6932 13.3487 10.0531 12.8686 6.84256 12.5177C4.35716 12.2461 3.73882 11.9964 3.4367 11.1423C3.10519 10.205 3.49251 9.16282 4.31817 8.77068C5.00968 8.44234 6.73639 8.29559 7.82246 8.47294C9.07029 8.67667 9.75323 9.09076 10.4058 10.0391C10.8211 10.6425 11.0184 10.7815 11.3808 10.7259C11.79 10.663 13.0172 10.131 13.1937 9.93991C13.4338 9.68019 13.4128 9.29112 13.1305 8.76568Z" fill="#3984F4"/>
<path fill-rule="evenodd" clip-rule="evenodd" d="M32.9495 0.0204258C32.5393 0.0873205 32.5634 -0.58443 32.5634 10.7908C32.5634 20.7929 32.5698 21.3174 32.6928 21.4334C32.8016 21.5363 32.9793 21.5592 33.8171 21.5784C34.3963 21.5916 34.9216 21.5702 35.0742 21.5271C35.3154 21.459 35.3401 21.4277 35.3825 21.1357C35.4424 20.7237 35.4429 0.845529 35.3831 0.433627C35.3551 0.241561 35.292 0.101342 35.2199 0.0714509C35.0836 0.0148845 33.2379 -0.0266331 32.9495 0.0204258ZM73.1607 3.11297C72.9877 3.21639 72.9337 3.68322 72.932 5.08842L72.9302 6.47351H71.5991C70.8232 6.47351 70.1732 6.5047 70.0406 6.54827C69.7292 6.65066 69.6444 6.97967 69.6774 7.9584C69.715 9.0768 69.6433 9.03282 71.4743 9.05949L72.9163 9.08056L72.9515 13.2319C72.9808 16.6865 73.0067 17.4808 73.1051 17.9646C73.3507 19.1717 73.726 19.9853 74.3174 20.5927C75.2482 21.5486 76.9701 22.0396 79.2153 21.9893C80.6261 21.9577 80.5829 21.9997 80.5829 20.6585C80.5829 19.7048 80.5758 19.6572 80.4178 19.5365C80.3254 19.466 80.0857 19.3952 79.8737 19.3759C77.8316 19.1901 77.5034 19.1219 76.9511 18.7677C76.7335 18.6281 76.5287 18.4162 76.3981 18.1955C76.0062 17.5333 75.981 17.254 75.9287 12.9886L75.8806 9.07269H77.9489C80.1663 9.07269 80.4359 9.03945 80.5517 8.75204C80.6391 8.53562 80.6394 7.01134 80.5522 6.79506C80.5153 6.70374 80.4255 6.6019 80.3527 6.56879C80.2798 6.53575 79.2572 6.49307 78.0803 6.47399L75.9405 6.43931L75.9042 4.89027C75.8714 3.49109 75.8546 3.32727 75.7298 3.19738C75.6001 3.06243 75.5192 3.0536 74.4241 3.05456C73.782 3.05518 73.2135 3.08144 73.1607 3.11297ZM21.5291 6.07399C18.3972 6.26852 16.318 7.84985 15.6525 10.5433C15.5314 11.0333 15.5173 11.405 15.5172 14.1001C15.5172 17.0033 15.5231 17.1328 15.6839 17.7659C16.1772 19.7092 17.5264 21.0662 19.5793 21.6839C20.3539 21.917 21.1461 22.0003 22.5877 22C24.2963 21.9997 25.4051 21.799 26.4703 21.2973C27.6263 20.7528 28.6565 19.8401 29.0772 18.9878C29.4177 18.2981 29.2924 17.9847 28.5074 17.5635C27.8645 17.2185 27.6535 17.1438 27.3209 17.1438C27.093 17.1438 27.0111 17.1928 26.7272 17.4991C25.9008 18.3904 25.3533 18.8453 24.8226 19.082C24.0217 19.4392 23.6405 19.5042 22.372 19.4995C21.3959 19.4959 21.182 19.4745 20.7494 19.3371C20.0397 19.1115 19.4314 18.6963 19.059 18.1832C18.605 17.5576 18.5124 17.2125 18.4733 16.0019L18.4397 14.9626L23.6156 14.9417C28.4065 14.9224 28.809 14.9118 29.0266 14.7997C29.492 14.5599 29.4935 14.552 29.4669 12.446L29.4428 10.5433L29.2041 9.89349C28.7845 8.75121 28.1189 7.87673 27.2025 7.264C25.7484 6.29177 23.9833 5.92146 21.5291 6.07399ZM60.9616 6.07235C59.0257 6.18493 57.32 6.88965 56.3594 7.97392C55.9593 8.42543 55.5573 9.11414 55.3389 9.72174C55.0924 10.4077 55.0206 11.5096 55.018 14.6473C55.0157 17.3302 55.1121 18.054 55.5993 19.0133C56.2876 20.3684 57.599 21.3536 59.277 21.7763C59.9098 21.9356 60.1465 21.9568 61.5782 21.9824C62.9767 22.0074 63.2552 21.994 63.8311 21.8746C65.1966 21.5914 66.2493 21.094 67.0593 20.3492C68.1129 19.3802 68.8964 17.7732 68.5837 17.2223C68.4725 17.0263 68.0876 16.8496 67.3082 16.6365C66.172 16.3258 66.1418 16.3405 65.542 17.4957C65.2656 18.028 65.0696 18.307 64.8129 18.5334C64.4413 18.8611 63.7691 19.2146 63.2165 19.3727C62.7316 19.5115 60.9624 19.5029 60.4489 19.3592C59.2038 19.0109 58.4307 18.2806 58.1349 17.1736C58.0029 16.6797 57.9897 16.4018 57.9887 14.0874C57.9875 11.3101 58.03 10.9061 58.3988 10.196C58.7613 9.49807 59.5778 8.92303 60.5456 8.68405C61.1122 8.54424 62.5126 8.52762 63.0652 8.65422C64.2381 8.92297 65.0307 9.53076 65.5785 10.5816C65.972 11.3362 66.1623 11.5043 66.6074 11.49C67.0075 11.4771 68.1847 11.0943 68.4074 10.9046C68.7269 10.6325 68.6618 10.0327 68.2179 9.15758C68.0602 8.84684 67.8346 8.46011 67.7164 8.2982C67.3657 7.81756 66.7223 7.2666 66.1529 6.95942C64.7605 6.20812 63.2028 5.94198 60.9616 6.07235ZM105.135 6.06243C102.887 6.18213 100.518 6.74171 99.7844 7.32591C99.2774 7.7298 99.3107 7.23028 99.3037 14.5566L99.2974 21.1691L99.6037 21.5556H100.781C101.931 21.5556 101.961 21.5518 102.097 21.3941C102.231 21.238 102.235 21.0378 102.235 15.3287V9.42461L102.428 9.28152C102.881 8.94526 104.477 8.66359 105.935 8.6623C107.052 8.66134 107.655 8.57543 107.853 8.38883C107.985 8.2638 108 8.16359 108 7.41277C108 6.4744 107.953 6.23521 107.753 6.13418C107.55 6.03172 106.337 5.99841 105.135 6.06243ZM43.7341 6.16776C42.0937 6.44998 40.5338 7.31236 39.7714 8.35847C39.4287 8.82885 38.9837 9.80067 38.8254 10.4247C38.6617 11.0702 38.6565 11.183 38.6569 14.1343C38.6573 17.0362 38.6646 17.2035 38.8137 17.7252C39.1588 18.9323 39.542 19.6178 40.2523 20.2981C40.764 20.7882 41.0848 21.0063 41.7756 21.3335C42.93 21.8804 43.8722 22.0269 45.9542 21.9834C47.332 21.9546 47.5868 21.9308 48.2262 21.7713C49.6507 21.4157 51.034 20.6056 51.7226 19.7237C52.2468 19.0523 52.4204 18.7345 52.4288 18.4308C52.4355 18.1916 52.3997 18.1226 52.1738 17.9389C51.6934 17.5483 50.8391 17.1437 50.4982 17.1453C50.1332 17.1472 50.0047 17.236 49.5561 17.7964C48.9304 18.5783 48.1867 19.0935 47.3247 19.3423C46.8507 19.479 46.6266 19.4992 45.5838 19.4987C44.2298 19.4981 43.8678 19.4267 43.146 19.0184C42.0368 18.3909 41.6919 17.6949 41.6153 15.9297L41.5729 14.9551L46.3529 14.952C48.9819 14.9504 51.3775 14.9224 51.6765 14.8897C52.1684 14.836 52.2394 14.8087 52.424 14.602L52.6279 14.3737L52.601 12.4927C52.5703 10.3361 52.5459 10.2064 51.9615 9.085C51.6522 8.49157 51.499 8.28993 51 7.81961C50.1599 7.02782 49.0963 6.48206 47.905 6.23165C47.1359 6.06995 44.5343 6.03014 43.7341 6.16776ZM87.2675 6.17235C85.6838 6.44212 84.3113 7.14362 83.4439 8.12645C83.0508 8.5718 82.8026 8.99314 82.5279 9.68104C82.2664 10.3362 82.1919 11.6641 82.2375 14.8525C82.2792 17.7655 82.3079 18.0053 82.713 18.8216C83.4545 20.3158 84.7496 21.2807 86.6776 21.7756C87.3747 21.9544 87.4681 21.9613 89.2148 21.9613C90.9554 21.9613 91.0567 21.9539 91.7413 21.7781C92.1334 21.6774 92.8026 21.4343 93.2283 21.238C93.9026 20.927 94.0835 20.8038 94.6342 20.2808C95.3287 19.6213 95.5706 19.2401 95.8866 18.3066C96.1314 17.5837 96.2069 16.5964 96.2086 14.1001C96.2103 11.6019 96.1244 10.3954 95.9016 9.78692C95.1685 7.78425 93.6906 6.64793 91.2387 6.20176C90.3077 6.03233 88.1817 6.0166 87.2675 6.17235ZM24.5462 8.79622C25.0193 8.9731 25.246 9.10635 25.5302 9.37427C26.1969 10.0031 26.5791 11.0385 26.5791 12.2162V12.7663H18.455L18.4562 12.1678C18.4595 10.6372 19.0085 9.60258 20.1533 8.96996C20.8256 8.59848 21.2523 8.52659 22.6621 8.54752C23.911 8.56599 23.9415 8.57002 24.5462 8.79622ZM47.1329 8.63384C48.1297 8.87618 48.9536 9.50149 49.355 10.3204C49.5902 10.8002 49.8115 11.8917 49.777 12.4016L49.7547 12.7321H41.6305L41.6401 11.9736C41.6547 10.8206 41.9379 10.059 42.5759 9.45744C42.922 9.13111 43.7332 8.71572 44.2456 8.60251C44.7462 8.49191 46.6333 8.51243 47.1329 8.63384ZM90.6655 8.76852C91.6964 9.03309 92.5316 9.61982 92.9073 10.3433C93.176 10.8607 93.2358 11.5182 93.2338 13.9291C93.2318 16.3031 93.1661 17.2129 92.9662 17.639C92.7963 18.0014 92.2609 18.5715 91.8248 18.8546C90.9902 19.3963 88.8915 19.615 87.659 19.2888C86.644 19.02 85.8464 18.4184 85.4523 17.6243L85.2319 17.1802L85.1706 11.1137L85.3704 10.6336C85.5957 10.0921 86.2132 9.40635 86.7354 9.11777C87.0542 8.94157 87.6472 8.75881 88.2232 8.65922C88.7156 8.57406 90.1598 8.6387 90.6655 8.76852Z" fill="#20242D"/>
</svg>
