<svg width="82" height="33" viewBox="0 0 82 33" fill="none" xmlns="http://www.w3.org/2000/svg">
<path d="M61.4788 6.57054L48.2178 16.2073L60.4211 32.6981L73.2581 22.9969L77.7772 29.1294L82 4.38036L56.8115 0L61.4788 6.57054Z" fill="url(#paint0_linear_1122_1008)"/>
<path d="M0 15.84H4.93474V25.7221C4.93474 27.8613 5.59585 28.9309 7.72086 28.9309C9.82226 28.9309 10.507 27.6985 10.507 25.7221V15.84H15.4417V25.2338C15.4417 30.4888 13.3639 33 7.76808 33C2.38473 33 0 31.0003 0 25.3966V15.84Z" fill="#26273B"/>
<path d="M18.2448 15.84H25.2101C29.6726 15.84 33.0254 16.9561 33.0254 21.5367C33.0254 26.1174 29.6726 27.2102 25.2101 27.2102H23.1796V32.6977H18.2448V15.84ZM25.6587 19.7696H23.1796V23.2806H25.6587C27.0754 23.2806 27.9018 22.7459 27.9018 21.5367C27.9018 20.3044 27.0754 19.7696 25.6587 19.7696Z" fill="#26273B"/>
<path d="M43.4315 28.4891H34.719V24.4433H43.4315V28.4891Z" fill="#26273B"/>
<path d="M42.7363 32.6977L48.7335 24.234L42.9252 15.84H48.7571L51.6613 20.0719L54.6599 15.84H60.2322L54.4238 24.048L60.4211 32.6977H54.5891L51.4724 28.2101L48.3085 32.6977H42.7363Z" fill="#26273B"/>
<defs>
<linearGradient id="paint0_linear_1122_1008" x1="55.2061" y1="-3.97872" x2="48.9034" y2="36.6573" gradientUnits="userSpaceOnUse">
<stop stop-color="#4888CB"/>
<stop offset="1" stop-color="#58568D"/>
</linearGradient>
</defs>
</svg>
