<svg width="134" height="29" viewBox="0 0 134 29" fill="none" xmlns="http://www.w3.org/2000/svg">
<g clip-path="url(#clip0_1122_1056)">
<path fill-rule="evenodd" clip-rule="evenodd" d="M80.4927 1.51117C80.4927 1.817 80.4927 2.10484 80.6782 2.32072L80.9935 2.66253C81.2717 2.98635 81.3459 3.0763 81.7354 3.29218C81.8281 3.34615 83.4417 4.29963 82.6442 4.19169C81.8652 4.10174 80.2145 3.47208 79.6581 3.45409C79.3985 3.4361 79.2687 3.41811 79.0275 3.41811C78.5268 3.41811 77.822 3.38213 77.2285 3.49007C76.5237 3.63399 75.7077 3.68797 74.9287 3.90385C73.037 4.40757 73.445 4.5335 72.5733 4.8933C72.4249 4.96526 72.2951 5.05521 72.1653 5.14516C71.6089 5.48697 70.6259 6.18859 70.3477 6.7103C69.4018 6.49442 68.8083 6.3505 67.7697 6.40447C67.6399 6.40447 67.6584 6.42246 67.5286 6.42246C67.3988 6.42246 67.4544 6.42246 67.2875 6.45844C66.898 6.5304 66.4714 6.58437 66.1005 6.72829C65.4699 6.98015 64.2458 7.53784 63.7265 7.9696C63.5781 8.09553 63.5039 8.18548 63.3556 8.31141C62.9846 8.59926 62.4839 9.067 62.3726 9.51675C61.3154 9.51675 60.9631 9.71464 60.2212 10.3263C59.9801 10.5242 59.5906 10.83 59.4422 11.0819C59.2753 11.3158 59.2382 11.3697 58.552 10.866C58.2552 10.6501 57.2908 10.2543 56.957 10.1644C56.0296 9.91253 55.1023 10.0385 54.175 10.0924C53.8411 10.1104 53.2847 10.1824 53.0065 10.2543C52.5243 10.3623 51.9493 10.5422 51.5413 10.7761C50.8365 11.1538 51.0406 10.956 50.1503 10.7761C49.9648 10.7401 49.8536 10.7041 49.7052 10.6501C49.2044 10.4882 48.7593 10.4702 48.24 10.3983C47.461 10.2723 46.441 10.3263 45.6806 10.4342C45.2725 10.5062 44.9016 10.5062 44.5492 10.6321L43.5291 10.902C43.3437 10.956 43.2138 11.0099 43.0284 11.0639C42.101 11.2978 42.3607 11.1538 41.4705 10.7581C41.2479 10.6681 40.1165 10.3623 39.7642 10.3083C39.523 10.2543 39.3561 10.2723 39.0965 10.2364C38.5401 10.1644 37.8909 10.1644 37.2974 10.1644C36.3887 10.1644 35.721 10.5242 34.9606 10.794C34.126 11.0999 34.7936 11.4597 33.6623 10.902C33.5139 10.83 33.4768 10.794 33.347 10.7221C31.9003 9.9665 29.9715 10.0025 28.6361 10.92C28.4321 11.0639 27.5048 11.5676 27.3008 11.6036C26.7258 11.2258 26.2621 10.794 25.5759 10.5962C25.3719 10.5422 25.1122 10.3983 24.5558 10.2543C23.7212 10.0205 23.3503 9.94851 22.5343 10.0385C21.6997 10.1284 22.1633 10.2903 21.5698 9.55273C21.4956 9.46278 21.4956 9.48077 21.4215 9.35484C21.3473 9.22891 20.9021 8.81514 20.7352 8.59925C20.4756 8.27543 20.0861 8.04156 19.7708 7.77171L19.3442 7.48387C19.2515 7.4299 19.2144 7.39392 19.1031 7.33995C18.6394 7.0701 18.2314 6.76427 17.7307 6.54839C17.6379 6.49442 17.5637 6.49442 17.4896 6.44045L16.8404 6.11662C16.8219 6.11662 16.8219 6.09864 16.8033 6.09864C16.4324 5.93672 16.1542 5.72084 15.7647 5.59491L14.689 5.21712C13.5762 4.85732 11.6659 4.42556 10.4974 4.31762C10.312 4.29963 10.0338 4.26365 9.86685 4.24566L7.71543 4.20968C7.14049 4.28164 6.36152 4.33561 5.78658 4.46154C5.13744 4.58747 4.11737 4.83933 3.50533 5.05521C2.68927 5.36104 1.26118 5.9727 0.519309 6.42246C8.34465e-07 6.74628 -0.204013 7.25 -0.22256 7.86166C-0.241106 8.49131 0.055641 10.3443 0.259655 10.938C0.370935 11.2798 0.445122 11.6935 0.630589 11.9994C0.704776 12.1253 0.686229 12.0713 0.741869 12.2332C0.85315 12.5211 1.18699 13.1148 1.35391 13.4566C1.76194 14.3381 2.74491 15.0577 3.00457 15.3995C3.1344 15.5614 2.87474 16.281 2.83765 16.4969C2.80055 16.6768 2.87474 17.5943 2.93038 17.7922C3.06021 18.2779 3.26422 18.206 3.02312 18.5118C2.55945 19.0875 1.74339 20.4187 1.46519 21.1024C1.27972 21.5701 1.1499 22.0558 1.02007 22.5596C0.96443 22.7574 0.90879 22.8834 0.871696 23.0633C0.834603 23.2971 0.816056 23.3871 0.760416 23.603C0.667683 23.9448 0.630589 24.3046 0.574949 24.6644C0.482215 25.2221 0.352388 26.6433 0.556402 27.201C0.723323 27.6328 1.22408 27.5968 1.63211 27.7227C1.78049 27.7587 1.81758 27.7947 2.00305 27.8306C2.72637 27.9746 3.44969 27.9926 4.30284 28.1545C4.56249 28.2084 4.93343 28.2444 5.23017 28.2984C5.69384 28.3703 7.91945 28.4063 8.43876 28.3164L9.69993 28.1545C11.1466 28.0285 12.2965 27.7947 13.7246 27.5248C14.2624 27.4169 14.689 27.3089 15.2083 27.183C15.6905 27.0751 16.1727 26.9311 16.6364 26.7512C16.7477 26.6973 16.8404 26.6793 16.9517 26.6253C17.2855 26.4814 17.5637 26.3015 17.8419 26.1216C18.046 25.9957 18.1943 25.8697 18.3983 25.7618C18.6024 25.6359 18.7322 25.4919 18.9362 25.366C19.2515 25.438 19.5482 25.4919 19.845 25.6179C20.1603 25.7618 20.4199 25.7798 20.8094 25.7978C21.3473 25.8158 22.0706 25.9057 22.627 25.7978C22.7939 25.7618 22.8496 25.7258 23.0536 25.6898C23.7583 25.5819 23.406 25.5999 23.9067 25.438C24.9268 25.0962 25.9098 25.2041 26.9669 25.1681C27.579 25.1321 28.1354 24.8623 28.6918 24.6824C29.7675 24.3406 29.2853 24.2866 30.2126 24.6464C31.4181 25.1141 32.4011 25.294 33.755 24.9342C34.163 24.8263 34.2929 24.8623 34.6638 25.0422C36.333 25.7798 36.7225 25.456 38.299 25.5819C38.5215 25.5999 38.7441 25.5099 38.9852 25.4739C39.5601 25.42 40.5988 25.2221 41.0624 24.9522C41.2479 24.8443 41.4148 24.7723 41.6188 24.6644C41.7487 24.6104 41.8043 24.5744 41.9156 24.5205C42.0639 24.4665 42.101 24.4125 42.2123 24.3765C42.4349 24.5205 42.5647 24.6644 42.8244 24.7723C42.9727 24.8443 43.0655 24.8623 43.1953 24.9342C43.3251 25.0062 43.455 25.0242 43.6033 25.0602L44.4379 25.2401C45.0129 25.348 45.5878 25.366 46.1813 25.366C46.4224 25.366 46.849 25.1681 47.053 25.0422C47.1272 25.0062 47.1643 24.9702 47.2199 24.9522C47.2941 24.9163 47.3498 24.8983 47.4425 24.8623C47.9804 24.6104 48.852 23.7649 49.2601 23.6749C49.3157 23.8728 49.5197 23.9628 49.6866 24.0887C50.4285 24.6464 50.3358 24.6104 51.3002 25.0242C51.9308 25.294 52.5428 25.5639 53.2476 25.6538C53.5073 25.6898 53.7669 25.6179 54.0822 25.6179C55.3063 25.6179 55.1765 25.7438 56.4191 25.4739C56.7715 25.402 57.6061 25.2041 57.8472 25.0062C58.348 24.6104 58.4592 24.7543 59.0156 24.9342C59.8873 25.2041 60.4252 25.312 61.4638 25.312C61.6307 25.312 61.6864 25.2761 61.8347 25.2401C61.9831 25.2221 62.0944 25.2221 62.2428 25.2041C62.8363 25.0962 63.5596 24.8263 64.0603 24.5025C64.3385 24.3226 64.3015 24.3945 64.6724 24.5564C64.8208 24.6104 64.9506 24.6284 65.1175 24.6824C65.4514 24.7903 66.1005 24.9522 66.5085 24.9163C67.2689 24.8443 68.085 24.7363 68.7341 24.3586C69.5131 23.9088 69.4203 23.9628 70.1066 24.5025C70.5331 24.8263 70.9412 25.1321 71.3863 25.42C71.5161 25.4919 71.6089 25.5279 71.7387 25.5999C71.8871 25.6718 71.9613 25.7258 72.0911 25.8158L73.853 26.7872C74.5949 27.165 76.3012 27.6328 77.1914 27.8666C78.2486 28.1365 79.3428 28.2264 80.4186 28.3524C81.5499 28.4963 82.2918 28.4423 83.4046 28.3524C84.0908 28.2984 84.9996 28.0645 85.6302 27.8306C86.539 27.5068 86.6502 27.3809 87.4663 26.8952C88.1711 26.4814 88.8759 26.1396 89.4323 25.5639C89.6177 25.384 89.8217 25.1861 90.0628 25.0602L90.4709 25.7078C90.8974 26.3015 90.8418 26.2475 91.324 26.6973L91.7877 27.0391C92.1215 27.255 92.6594 27.5968 93.0118 27.7047C94.3471 28.0645 95.1446 28.1005 96.5171 27.8306C97.4073 27.6507 98.2605 27.0931 98.8911 26.4634C99.3733 25.9237 99.9853 25.33 100.412 24.7903C100.597 24.5744 100.746 24.3586 101.061 24.3406C101.636 24.2866 101.692 24.5565 102.155 24.7543C102.693 24.9702 103.157 25.1681 103.695 25.366C104.233 25.5639 104.752 25.7798 105.29 25.9237C105.902 26.0856 105.624 26.0136 106.161 26.1216C106.811 26.2475 107.497 26.3015 108.164 26.2835C108.535 26.2835 108.814 26.3195 109.24 26.3195C110.001 26.3195 111.54 25.8517 112.282 25.5999C112.968 25.366 113.766 25.0242 114.582 25.0242C114.86 25.0242 115.936 25.5639 116.325 25.7078C116.548 25.7978 116.752 25.8517 116.974 25.9417C117.03 25.9777 117.123 26.0136 117.197 26.0316C117.846 26.2655 118.402 26.4634 119.088 26.5713L120.109 26.7872C122.26 27.201 122.204 26.9491 123.874 27.0211C125.116 27.0931 126.136 27.0391 127.342 26.9851C128.584 26.9132 128.807 26.7512 129.753 26.6433C130.643 26.5354 131.144 26.3734 131.978 26.1396C132.757 25.9057 133.24 25.8517 133.944 25.366C134.371 25.0782 134.371 24.7184 134.371 24.2326C134.371 23.7469 133.425 21.6241 133.184 21.1563C132.312 19.4832 131.941 18.6017 130.328 17.3784C130.031 17.1625 129.753 16.8567 129.438 16.6948C129.438 15.9032 129.475 15.0217 129.196 14.2481C128.974 13.6185 128.547 13.1148 128.121 12.611C127.824 12.2332 127.49 11.8734 127.064 11.6576L126.377 11.3337C125.784 11.0999 125.209 10.902 124.615 10.6681C124.337 10.5602 123.818 10.4163 123.54 10.3623C123.261 10.3083 122.928 10.3263 122.631 10.2543C121.722 10.0385 120.665 10.1464 119.756 10.0205C118.94 9.91253 117.197 10.0025 116.288 10.1284C115.936 10.1644 115.676 10.1644 115.379 10.2364C115.138 10.2903 115.064 10.3443 114.878 10.4342C114.99 9.98449 115.305 9.57072 115.509 9.13896C115.787 8.50931 115.954 7.87965 115.954 7.19603C115.954 6.3505 115.323 6.06265 114.656 5.72084C111.744 4.26365 110.001 4.82134 106.996 4.85732C105.902 4.87531 104.455 5.34305 103.398 5.73883C103.324 5.77481 103.268 5.77481 103.194 5.7928C102.823 5.90074 102.489 6.11662 102.118 6.26055C101.395 6.54839 100.486 7.25 99.9297 7.75372C99.4104 8.22146 98.854 8.8871 98.5016 9.48077C98.4089 9.64268 97.9637 10.2004 97.8339 10.2004C97.7041 10.2004 97.7412 10.1464 97.6299 10.0565L97.5372 9.9665C97.0735 9.46278 96.8509 8.63524 96.4986 8.16749C96.4429 8.07754 96.3687 8.04156 96.3131 7.9696C96.0905 7.69975 95.8865 7.37593 95.6269 7.12407C95.2188 6.74628 95.0519 6.54839 94.5882 6.22457C94.3657 6.06265 94.1617 5.88275 93.902 5.75682C93.7907 5.70285 93.7351 5.70285 93.6238 5.64888C93.086 5.39702 93.3827 5.52295 92.8078 5.32506C92.5852 5.2531 92.4925 5.16315 92.2328 5.10918C91.3797 4.8933 90.3596 4.92928 89.4693 4.92928C88.8573 4.92928 87.559 5.39702 87.2994 5.30707C86.8914 5.16315 86.5575 4.98325 86.1309 4.8933V4.80335C87.0583 4.58747 87.559 4.42556 88.0227 3.54404C88.2267 3.14826 88.1896 2.21278 87.9856 1.83499C87.8743 1.6371 87.6889 1.40323 87.559 1.22333C87.4848 1.09739 87.3921 1.04342 87.2808 0.989454L86.9655 0.791563C86.4648 0.521712 85.76 0.485732 85.2407 0.773573C85.1294 0.827543 85.1109 0.845533 85.0367 0.917494C84.8327 1.11538 84.6843 1.22333 84.4617 1.40323C84.369 1.47519 84.369 1.49318 84.2763 1.56514C84.1093 1.4572 83.9795 1.31328 83.8497 1.16935C83.4973 0.953474 82.9038 0 82.2732 0C81.7539 0 80.9008 0.395782 80.6597 0.863524C80.6226 0.953474 80.4927 1.38524 80.4927 1.51117Z" fill="#050505"/>
<path fill-rule="evenodd" clip-rule="evenodd" d="M70.4405 7.0346C69.9397 7.05259 68.3818 6.06313 65.4514 7.32244L64.1902 8.04204C63.6709 8.40184 63.0218 8.97753 62.7251 9.51723C62.5581 9.84105 62.3912 9.76909 61.9832 9.80507C61.297 9.84105 60.9817 10.0749 60.5922 10.3987C60.314 10.6326 59.8503 11.0824 59.5907 11.3702C59.3496 11.6401 59.2568 11.658 58.9415 11.4422C58.348 11.0284 57.6618 10.7046 56.8828 10.5067C55.8628 10.2368 54.2307 10.3088 53.155 10.5067C52.1349 10.6866 51.393 11.3342 50.985 11.2623C50.5028 11.1903 49.8907 10.9564 49.3714 10.8845C48.4441 10.7406 47.5353 10.5427 46.5709 10.6326C46.0145 10.6866 45.3097 10.7046 44.7718 10.8305C44.1969 10.9564 43.7518 11.0824 43.2139 11.2623C42.4535 11.5141 42.472 11.5681 41.7302 11.2083C41.2665 10.9924 40.7658 10.8845 40.2279 10.7226C39.1893 10.3987 37.7612 10.3088 36.6484 10.5247C36.1847 10.6146 35.5356 10.8485 35.1461 11.0284C34.497 11.3342 34.5711 11.676 33.7736 11.2803C32.6423 10.7046 32.123 10.3987 30.5651 10.5247C29.6748 10.5966 29.137 10.9384 28.4322 11.3342C28.1911 11.4602 28.0056 11.5681 27.7831 11.694C26.9299 12.1977 27.2081 11.5681 25.1865 10.7765C22.998 9.91301 21.9779 10.4887 21.8296 10.4527C21.6812 10.3448 21.4215 9.931 21.2546 9.76909C20.4756 8.92356 20.3829 8.65371 19.2516 7.86214C18.8435 7.59229 18.4726 7.37641 18.046 7.12455C17.8977 7.0346 17.8049 6.94465 17.638 6.8547C17.3598 6.69279 17.026 6.60284 16.7292 6.44093C16.451 6.297 16.1543 6.13509 15.8761 5.97318C15.4866 5.7573 14.448 5.46946 13.9287 5.30755C13.5763 5.19961 13.2053 5.12765 12.8715 5.05569C12.4635 4.94775 12.1482 4.92976 11.7401 4.8578C11.3507 4.78584 11.0539 4.6779 10.6088 4.6779C9.16215 4.6779 8.86541 4.42604 6.78817 4.62393C5.36008 4.76785 3.8207 5.18162 2.6708 5.72132C1.14997 6.47691 -0.0184696 6.53088 0.129904 8.31189C0.296825 10.3268 0.649212 11.5501 1.65073 13.2412C1.91039 13.6729 1.8733 13.619 2.18859 14.0327C2.37406 14.2666 2.57807 14.5724 2.78208 14.7523C3.65378 15.5799 3.50541 15.0942 3.28285 16.1376C3.17157 16.7133 3.11592 17.3069 3.31994 17.8646C3.43122 18.1884 3.5425 18.3504 3.39413 18.6202C3.15302 19.07 2.81918 19.3938 2.57807 19.8076C2.04022 20.7071 1.63219 21.5886 1.39108 22.632C1.33544 22.9018 1.24271 23.0458 1.16852 23.4236C1.07579 23.9812 0.927413 24.5389 0.853226 25.0966C0.760492 25.7083 0.704852 26.3559 0.797586 26.9496C0.853226 27.2554 1.05724 27.2734 1.39108 27.3634C2.50388 27.6512 3.74651 27.7412 4.87786 27.9571C6.84381 28.3348 8.77267 27.8851 10.6459 27.8131C11.5732 27.7772 12.3336 27.4713 13.2053 27.3274C14.2625 27.1295 14.5963 27.0935 15.7277 26.7697C16.4696 26.5538 17.1743 26.266 17.7864 25.8342C18.0275 25.6723 18.1759 25.5824 18.3799 25.4205C18.9919 24.9167 19.1403 25.1326 19.8636 25.3305C20.6797 25.5464 20.8095 25.5284 21.6997 25.5284C22.3489 25.5284 22.8867 25.4384 23.4802 25.2765C24.0181 25.1146 24.5374 24.9527 25.1494 24.8987C25.6316 24.8628 26.763 24.9347 27.1154 24.8448C27.6903 24.7009 28.1725 24.5929 28.7104 24.395C29.5264 24.0712 29.4152 24.0352 30.2683 24.395C30.8247 24.6289 31.1771 24.7728 31.8819 24.7908C32.6608 24.8268 33.0318 24.7908 33.7365 24.6289C34.2559 24.503 34.8864 24.8628 35.313 25.0247C36.6855 25.5284 39.2635 25.3485 40.6916 24.8088C41.0254 24.6829 41.8415 24.1611 42.0455 24.1432C42.3793 24.0892 42.5091 24.3051 42.7132 24.431C43.7518 25.0427 45.7734 25.4924 46.8305 24.8628C47.5724 24.431 48.0361 24.2511 48.7037 23.6934C49.1674 23.2976 49.186 23.3876 49.6125 23.7114C49.7238 23.8013 49.7609 23.8553 49.8907 23.9633C50.0762 24.1252 50.2431 24.2511 50.4657 24.395C50.6882 24.521 50.9108 24.6109 51.1519 24.7188C51.3745 24.8268 51.6156 24.9527 51.8567 25.0427C53.192 25.5284 54.1008 25.4205 55.4918 25.3845C56.0297 25.3665 56.7159 25.2046 57.1425 25.0067C58.0142 24.5749 57.8658 24.359 58.552 24.5749C59.8318 24.9527 60.6293 25.2046 62.0203 25.0067C62.3541 24.9527 63.3 24.6289 63.5411 24.485C64.283 24.0172 64.079 24.0532 64.9692 24.395C66.5086 24.9887 67.5843 24.6829 68.9197 23.9093C69.5317 23.5495 69.6986 23.9273 70.1994 24.3231C70.7743 24.7728 71.4235 25.1146 72.0355 25.5284C73.8716 26.7337 74.3353 26.7697 76.3198 27.3274C76.8577 27.4713 77.3584 27.6332 77.8963 27.7772C78.397 27.9031 80.9379 28.2809 81.4758 28.2809C82.3846 28.2989 84.2207 27.993 85.0368 27.7592C86.6318 27.3094 86.5019 27.0935 87.7631 26.4279C88.2453 26.158 88.5606 25.9602 88.9316 25.5824C89.0985 25.4205 89.284 25.2765 89.4694 25.1146C89.6734 24.9347 89.7476 24.7728 90.1556 24.7908C90.3411 25.0067 90.508 25.3845 90.6935 25.6363C91.695 26.9496 92.6965 27.5073 94.3287 27.7052C95.5342 27.8671 96.9808 27.4893 97.8896 26.8776C98.4275 26.4999 98.5944 26.284 98.9839 25.8702C99.1137 25.7443 99.225 25.6363 99.3548 25.4924C99.5774 25.2226 99.7814 25.0247 100.004 24.7368C100.227 24.449 100.393 24.2331 100.857 24.1252C101.432 24.0172 101.618 24.1432 101.988 24.377C102.23 24.521 102.693 24.6829 103.009 24.8088C103.713 25.0966 104.4 25.3665 105.141 25.6004C106.532 26.0321 108.795 26.176 110.316 25.9062C111.521 25.6903 114.007 24.503 114.897 24.8268C115.602 25.0786 116.177 25.4384 116.919 25.6723C118.476 26.194 119.979 26.6798 121.685 26.7157L124.578 26.7517C125.506 26.7697 126.563 26.7877 127.472 26.7337C127.898 26.7157 130.699 26.284 131.144 26.1221C131.849 25.8702 132.683 25.7623 133.351 25.4205C133.703 25.2406 134 25.1146 134.019 24.6469C134.037 23.6574 133.481 22.8659 133.165 21.9664C133.091 21.7685 133.017 21.6425 132.924 21.4626C132.757 21.1208 132.665 20.797 132.479 20.4732C132.145 19.9155 131.478 18.8361 131.014 18.4043C130.829 18.2244 130.81 18.2064 130.606 18.0625C130.309 17.8466 130.068 17.6308 129.79 17.4329C128.863 16.7492 128.992 16.8932 129.011 15.4C129.011 14.6444 128.64 13.8888 128.232 13.3311C127.861 12.8274 127.36 12.3057 126.767 11.9459C126.21 11.6041 125.376 11.3522 124.69 11.1004C123.855 10.7945 123.28 10.6686 122.316 10.5786C120.109 10.3808 118.977 10.3448 116.752 10.4527C116.344 10.4707 115.898 10.5607 115.49 10.6326C114.99 10.7046 113.951 11.3702 114.489 10.3987C114.73 9.96698 114.99 9.40929 115.194 8.95954C115.435 8.43782 115.787 7.17852 115.416 6.6748C115.175 6.35098 114.062 5.84725 113.58 5.64936C112.356 5.14564 109.741 4.94775 108.387 5.10966C107.515 5.2176 106.607 5.19961 105.753 5.3975C105.16 5.54142 104.01 5.84725 103.491 6.04514C102.786 6.33298 102.174 6.62083 101.488 6.96264C101.191 7.10656 100.189 7.95209 99.8927 8.22194C99.4105 8.6717 99.0024 9.30135 98.6315 9.84105C98.4831 10.0569 98.1864 10.4887 97.9267 10.5427C97.6856 10.5786 97.4816 10.5427 97.3518 10.4167C97.2776 10.3448 97.1107 10.1109 97.0365 9.98497C95.9422 8.18596 96.1091 8.04204 94.5883 6.69279C94.1432 6.29701 93.3086 5.84725 92.6965 5.68534C91.8063 5.45147 91.1757 5.25358 90.1927 5.25358C89.5992 5.25358 88.0413 5.36152 87.6704 5.63137C87.7817 5.72132 87.9486 5.81127 88.0599 5.90122C88.4493 6.15308 89.6549 7.17852 89.9145 7.46636C90.0444 7.61028 90.1 7.66425 90.2669 7.79018C90.508 7.97008 90.675 8.2939 90.8975 8.50978C91.6023 9.2114 91.6579 9.12145 92.5482 9.5712C93.1231 9.85904 94.273 10.5067 94.4028 11.1543C94.4399 11.3882 94.4214 12.2157 94.3472 12.4136C94.1617 12.8994 93.3271 13.7989 93.2715 14.0507C93.1417 14.5544 93.3457 16.0836 93.29 16.6593C93.2344 17.4868 93.1046 18.2784 92.9377 19.052C92.8264 19.5197 91.9732 21.4446 91.695 21.8764C91.6023 22.0023 91.5096 22.1463 91.4354 22.2722L90.5266 23.4236C90.0815 23.9453 89.8033 23.9992 89.4509 24.377C89.2654 24.5569 87.6704 25.4924 87.2809 25.6723C87.114 25.7443 86.9656 25.7803 86.7987 25.8342C86.5947 25.9062 86.5019 25.9602 86.2979 26.0321C85.9641 26.1401 85.5746 26.284 85.2408 26.3559C84.8327 26.4459 84.4433 26.4639 84.0352 26.5358C83.1635 26.6798 82.4773 26.8057 81.55 26.8057C79.38 26.8057 77.8221 26.4639 75.9303 25.5284C75.411 25.2765 74.0015 24.1791 73.5749 23.7834C73.3152 23.5495 73.0927 23.4056 72.8516 23.1357C72.6661 22.9198 72.3693 22.7219 72.1282 22.4881C71.5718 21.9484 71.442 21.4446 70.9969 20.9049C70.6816 20.5272 70.3107 19.5557 70.1437 19.052C69.9026 18.2964 69.8284 17.5768 69.6986 16.8032C69.5317 15.8317 69.5873 13.9788 69.847 13.0073C70.051 12.2697 70.1808 11.658 70.4776 10.9384C70.663 10.4887 70.5703 10.3808 70.459 9.89502C70.2921 9.19341 70.3107 8.41983 70.255 8.09601C70.2179 7.89812 70.1623 8.06003 70.1994 7.84415L70.3107 7.61028C70.3848 7.52033 70.6074 7.43038 70.7187 7.35842C70.9412 7.2145 70.9042 7.17852 71.0896 7.01661C71.2936 6.81872 71.6646 6.6748 72.017 6.53088C72.2766 6.44093 72.8145 6.24303 73.0741 6.20705C74.7248 5.99117 73.9644 6.24303 75.1143 5.50544C75.3925 5.32554 75.6336 5.16363 75.9674 5.00172C76.9133 4.53398 78.1003 4.28212 79.176 4.10222C79.6211 4.03026 79.992 3.99428 80.4557 3.94031C80.3259 3.94031 80.0106 3.81438 79.8066 3.79638C78.5454 3.59849 75.5594 3.9583 74.5208 4.33609C73.4636 4.73187 73.1854 4.96574 72.3323 5.48745C71.6089 5.88323 70.8671 6.38696 70.4405 7.0346Z" fill="#298C59"/>
<path fill-rule="evenodd" clip-rule="evenodd" d="M8.32756 14.464C8.21628 14.6619 7.95662 14.6979 7.75261 14.7878C7.14057 15.0397 6.50998 15.6513 6.54707 16.4429C6.56562 16.9466 7.02929 17.3604 7.34458 17.5583C8.21628 18.098 8.25337 17.8461 8.73558 18.062C8.73558 18.2779 8.45738 18.3678 8.29046 18.4758C7.93808 18.7096 7.58569 18.9615 7.28894 19.2314C7.10347 19.3933 6.97365 19.4652 6.78818 19.6451C6.00922 20.3647 3.76507 23.2251 5.11898 24.2326C5.71247 24.6823 7.56714 24.4125 8.3461 24.2866C9.34763 24.1067 10.3121 23.8908 11.3136 23.6749C11.7772 23.567 12.2224 23.423 12.7231 23.2971C13.3352 23.1532 14.7633 22.6675 15.3568 22.3436C15.5608 22.2357 15.7091 22.1098 15.9132 22.0198C16.247 21.8579 16.451 21.678 16.7292 21.4801L17.434 20.8145C17.7307 20.5446 18.0831 20.2208 18.3242 19.915C18.5097 20.3827 18.4912 20.2928 18.7694 20.6885C19.4927 21.66 19.2516 21.2103 20.0862 21.8219C20.3458 22.0198 20.7168 22.0198 21.0877 22.0558C22.5714 22.2177 23.0722 22.1098 24.1664 21.4981C25.1865 20.9224 25.0938 21.2642 25.3163 21.4082C25.5945 21.5881 26.0953 21.768 26.4477 21.732C26.559 21.714 27.0226 21.5701 27.1896 21.5341C27.4492 21.4621 27.7274 21.4261 27.9871 21.3722C28.5806 21.2283 29.3595 20.7605 29.8974 20.4547C30.1199 20.3287 30.2869 20.1848 30.4909 20.0769C30.5651 20.1488 30.6022 20.2208 30.6393 20.3287C30.8989 20.9764 31.4739 21.606 32.1972 21.714C33.0874 21.8579 33.6624 20.8684 34.0333 20.2388L34.6453 20.9404C35.0348 21.3542 35.4614 21.5881 36.0549 21.8579C36.7411 22.1637 38.6514 22.1997 39.3562 21.8759C39.7457 21.696 40.3021 21.4261 40.5432 21.2103C40.877 20.9224 41.1181 20.5626 41.3963 20.2208C41.5818 20.0049 41.8786 19.3393 42.064 19.0515C42.3979 18.5117 42.3608 18.2779 42.3422 17.5943C42.6761 17.8641 43.0655 18.098 43.6405 18.1699C43.7147 18.4758 43.6405 19.5552 43.659 19.9689C43.6961 20.9044 44.4009 22.0018 45.4581 21.8039C46.2741 21.66 46.4225 21.3182 46.8676 20.9224C47.1644 20.6706 48.407 18.7996 48.5554 18.4578C48.7037 18.1519 48.7594 18.2059 49.0747 18.062C49.4456 17.8821 50.0391 17.7022 50.4471 17.5403C50.41 17.8281 50.4286 19.0155 50.4842 19.2853C50.5955 19.6991 50.8552 20.2748 51.0777 20.5806C51.2446 20.8145 51.764 21.3902 52.0051 21.5341C52.4131 21.768 52.7655 22.0558 53.2848 22.1457C54.5274 22.3616 55.4177 22.2177 56.4563 21.732C56.6974 21.624 57.4393 21.0843 57.5691 20.9404C57.8287 20.6526 58.0698 20.3647 58.2739 20.0229L58.4037 19.861C58.5891 20.5086 58.8117 21.1023 59.3125 21.3902C60.722 22.2177 61.705 21.732 63.0589 21.1383C63.5411 20.9224 64.2459 20.3108 64.6539 20.2208L65.5998 21.1743C65.878 21.4801 66.5457 21.5881 67.0094 21.3182C67.8254 20.8684 68.252 20.0049 68.6229 19.1594C69.2164 17.7921 69.5132 15.9572 68.9568 14.518C68.66 13.7624 68.4375 13.8523 68.0851 13.5105C68.252 13.2586 69.4575 12.4311 69.2906 11.2078C69.2164 10.6681 68.8826 10.3622 68.6229 10.0924C68.3076 9.78656 67.5658 9.84053 67.065 9.93048C65.9522 10.1104 64.9878 10.9199 64.2644 11.6575C64.1161 11.8194 64.0233 12.0173 63.8935 12.1972C63.6153 12.611 63.708 13.1867 63.8564 13.6364C63.0218 12.9888 61.6494 13.7444 60.9817 14.1582C59.6834 14.9677 59.3125 15.9931 59.1085 16.209C58.719 15.5614 58.6262 15.0217 57.8658 14.428C57.3465 14.0322 56.6417 13.4925 55.733 13.4206C54.6572 13.3306 54.0081 13.4385 53.0993 13.8163C52.172 14.2121 51.8752 14.5359 51.3188 15.1476C50.9294 14.8058 51.3745 14.9317 50.4842 14.446C50.0948 14.2301 49.8166 14.1582 49.3714 14.0142C49.0561 13.9063 48.4441 13.8343 48.0917 13.7444C47.6837 13.6544 46.9975 13.6904 46.5523 13.6904C45.421 13.6904 44.8646 13.9063 43.9743 14.2301C43.2325 14.5 42.3422 14.8957 41.9898 15.3455C41.7858 15.2555 41.7487 15.1296 41.6004 14.9857C41.2109 14.5899 40.9141 14.1941 40.3577 13.9063C39.653 13.5465 38.6514 13.3126 37.7426 13.3846C36.6855 13.4565 35.313 14.1402 34.6824 14.9497C34.5155 15.1656 34.33 15.3815 34.2002 15.6333C34.126 15.7593 34.1631 15.7593 34.0518 15.8852C33.922 15.7773 33.8664 15.5254 33.7736 15.3815C33.5325 14.9497 33.2358 14.6079 32.8649 14.2841C32.7721 14.1941 32.7536 14.1582 32.6608 14.0502C32.4754 13.8703 31.9375 13.5105 31.5666 13.5105C30.1941 13.4565 28.8588 14.8238 27.9871 15.6333C27.6903 15.9212 27.4492 16.155 27.2081 16.4789C27.1154 16.6048 26.9485 16.8567 26.8372 16.9286C26.7073 16.6048 26.6146 16.191 26.4848 15.8492C26.3921 15.6153 26.0768 15.0037 25.9655 14.8418C25.576 14.2841 24.8712 13.8523 24.2035 13.5825C23.2391 13.1687 21.6997 13.2047 20.7909 13.6904C19.5483 14.356 18.9177 15.0217 18.3428 16.281C18.2315 16.5149 18.1759 16.8207 18.0831 17.0186C17.9904 16.9466 17.7864 16.6768 17.434 16.4069C17.1929 16.209 16.8961 16.1371 16.6179 15.9572C16.7663 15.7952 17.1187 15.6693 17.3042 15.5074C18.1944 14.8058 18.3057 14.7698 18.9734 13.7264C19.5483 12.8269 19.0105 11.9814 18.4355 11.3337C18.0646 10.9019 17.7122 10.4882 17.2671 10.1823C16.247 9.51671 16.1914 9.44475 15.0415 8.88706C14.7818 8.76113 14.4851 8.68917 14.2069 8.58123C13.873 8.4553 13.6505 8.40133 13.2795 8.31138C12.7417 8.16746 11.9813 7.93358 11.4063 7.84363C11.1096 7.80765 10.7015 7.69971 10.4233 7.68172C8.82832 7.62775 5.71247 7.73569 4.65531 8.94103C4.52548 9.10294 4.26583 9.42676 4.17309 9.62465C3.74652 10.4882 5.10043 11.9993 5.65683 12.557C5.87939 12.7909 5.95358 12.8988 6.25032 13.0967C6.45434 13.2407 6.6769 13.4206 6.91801 13.6005C7.30749 13.8883 7.8268 14.1941 8.32756 14.464Z" fill="#050505"/>
<path fill-rule="evenodd" clip-rule="evenodd" d="M102.73 14.5178C102.73 14.6977 102.192 15.4173 102.081 15.3993C102.007 15.3454 101.729 14.8776 101.636 14.7697C101.135 14.122 100.375 13.6903 99.4846 13.5284C98.2605 13.2945 96.8509 13.7083 95.9051 14.3379C95.2559 14.7697 95.1817 14.8596 94.7923 15.4533C94.4955 15.9031 94.2359 16.2808 93.9948 16.8925C93.8835 17.1804 93.7907 17.3423 93.698 17.6841L93.0489 19.8249C93.0118 19.9688 92.9932 20.1127 92.9561 20.2746C92.7892 20.9763 92.919 21.9837 93.1045 22.7033C93.1602 22.9192 93.5496 23.6748 93.6609 23.8367C93.902 24.1965 94.6995 24.4843 95.2745 24.1965C95.868 23.9086 96.1462 23.6388 96.48 23.171C97.7597 21.3181 96.4244 21.2281 98.5387 20.7604C99.058 20.6524 99.7999 20.4366 100.264 20.2387C100.894 19.9688 101.024 19.9508 101.488 19.4831C101.617 19.3572 101.525 19.4111 101.655 19.3212C102.044 19.4651 102.285 20.6344 103.509 21.0842C104.066 21.2821 104.307 21.39 104.956 21.444C105.957 21.5339 107.07 21.2641 107.849 20.7244C108.127 20.5265 108.535 20.1487 108.776 19.8609C109.036 19.555 109.277 19.1593 109.5 18.7815C109.611 18.5836 110.038 17.5761 110.056 17.5581C110.242 17.5581 110.557 18.1338 110.557 18.1338C110.557 18.2058 109.574 19.5371 109.389 19.7709C108.98 20.2926 108.48 20.8323 108.572 21.7498C108.665 22.6313 109.63 22.7573 110.501 22.6673C111.874 22.5234 113.728 21.3361 114.73 20.5085C114.86 20.4006 114.99 20.3286 115.138 20.2027C116.418 19.0693 116.232 19.1952 117.197 17.9719C117.456 17.6481 117.864 17.1264 118.05 16.7126C118.143 16.4787 118.068 16.3348 118.272 16.2089C118.458 16.2449 118.495 16.4248 118.606 16.5507C118.773 16.7126 118.94 16.6586 118.977 16.9285C118.792 17.0544 118.087 17.1084 118.013 17.864C117.957 18.5476 118.514 18.8174 118.81 19.0333C118.402 19.3392 117.234 19.3212 116.177 20.1127C115.991 20.2387 115.806 20.3286 115.769 20.6344C115.657 21.48 116.325 21.8038 117.104 22.1276C117.976 22.4874 119.033 22.7573 120.034 22.9552C121.833 23.315 125.283 23.189 127.193 22.9911C127.972 22.9192 128.084 22.8292 128.492 22.4514C128.844 22.1276 128.955 21.6419 128.659 21.1022C128.547 20.9043 128.455 20.6884 128.325 20.5265C126.878 18.7635 124.597 18.0799 124.411 17.864C124.467 17.792 125.005 17.4142 125.32 17.0364C125.71 16.5867 125.747 16.4607 125.71 15.7052C125.691 15.3993 125.135 14.7877 125.005 14.6617C124.708 14.4099 124.319 14.212 123.911 13.9961C122.872 13.4744 122.093 13.5464 120.869 13.4744C119.645 13.4024 118.903 13.6903 118.105 14.194C117.994 14.14 117.827 13.9601 117.679 13.8702C116.714 13.2225 115.639 13.7802 114.804 14.3199C114.526 14.4998 114.174 14.9136 113.914 14.9496C113.339 14.4638 112.949 14.0501 112.115 13.8702C111.466 13.7263 110.78 13.8882 110.223 14.14C109.685 14.3739 109.982 14.6797 109.296 13.8882C108.684 13.1866 108.387 13.0786 107.682 12.5389C107.719 12.5029 109.147 11.7294 109.667 11.3336C110.316 10.8299 110.928 10.3081 110.928 9.39065C110.928 8.90492 110.705 8.65306 110.334 8.40119C109.982 8.16732 109.5 8.09536 109.018 8.09536C107.589 8.05938 106.236 8.40119 105.03 8.9409C104.659 9.10281 104.214 9.22874 103.88 9.42663C103.157 9.8404 102.471 10.1822 101.951 10.7039C101.803 10.8478 101.376 11.3696 101.265 11.6034C101.117 11.9272 101.024 12.6109 101.172 12.9707C101.617 14.23 101.933 13.9062 102.73 14.5178Z" fill="#050505"/>
<path fill-rule="evenodd" clip-rule="evenodd" d="M9.36613 14.5002C9.31049 14.8061 8.82828 14.6801 7.97513 15.2198C6.67686 16.0114 6.7325 16.8209 8.14205 17.4686C8.6799 17.7204 9.62578 17.5945 9.97817 17.7924C9.95963 18.0443 9.25485 18.2422 8.66136 18.7459C8.1235 19.2136 7.45582 19.4115 6.56558 20.5629C6.28738 20.9227 6.10191 21.0486 5.8608 21.3904C5.74952 21.5703 5.67533 21.6783 5.54551 21.8762C5.41568 22.074 5.37859 22.218 5.3044 22.4159C5.13748 22.7936 4.93347 23.1534 5.15603 23.6392C5.36004 24.0709 5.65679 24.1249 6.23174 24.1249C6.84378 24.1249 8.1235 23.981 8.6799 23.8011C9.19921 23.6392 10.6644 23.4233 11.5175 23.1894C11.7401 23.1355 11.7958 23.0815 12.0369 23.0275C13.094 22.7757 15.2269 22.11 16.08 21.4624C16.6179 21.0486 16.3026 21.3365 16.859 20.8327C17.1928 20.5269 17.9718 19.7533 18.0089 19.1956C18.046 18.3141 18.0274 17.6305 17.471 17.1088C16.655 16.3532 16.3026 16.4252 15.672 16.0834C15.8204 15.5976 17.5081 15.2018 18.3798 13.7267C18.8064 13.007 18.8064 12.6472 18.3242 11.9097C17.8976 11.262 16.9888 10.5064 16.3582 10.0927C15.4124 9.48099 15.0043 9.42702 14.1697 9.1032C13.4464 8.81536 12.4634 8.47355 11.703 8.34762L10.5717 8.2037C9.29194 7.98782 6.78814 8.16772 5.76807 8.68943C5.3044 8.9233 4.97056 9.17516 4.69236 9.57095C4.08032 10.3805 5.69388 12.0716 6.30592 12.5753C6.49139 12.7372 6.65831 12.8631 6.88087 13.007C7.30745 13.2949 8.23478 13.9245 8.6799 14.1584C8.84682 14.2484 9.2734 14.3923 9.36613 14.5002Z" fill="#FFFFED"/>
<path fill-rule="evenodd" clip-rule="evenodd" d="M6.89929 8.92334C6.26871 9.12123 5.97196 9.22917 5.50829 9.64295C5.26718 9.85883 5.26718 10.2186 5.37846 10.5065C5.56393 11.0462 5.7494 11.0642 6.10179 11.4599C6.88075 12.3594 8.86525 13.4568 9.88531 14.0145C10.1079 14.1405 10.6272 14.4643 10.4046 14.8061C10.2006 15.1119 8.73542 15.3998 8.40158 15.6336C8.17902 15.7956 7.7339 16.0654 7.75244 16.3532C7.80808 17.1088 9.77403 16.9109 10.7385 17.5766C10.7756 17.9723 10.7941 17.9723 10.5715 18.1882C9.99659 18.7279 9.27327 18.9078 8.5685 19.4835C8.16047 19.7714 8.04919 19.9513 7.71535 20.2391C7.08476 20.7788 6.56545 21.3545 6.12033 22.0561C5.93486 22.4339 5.7123 22.6857 5.73085 23.1355C5.7494 23.6932 6.15743 23.6032 6.76947 23.6032C6.97348 23.6032 8.40158 23.3334 8.64268 23.2614C8.77251 23.2255 10.7014 22.6857 10.9981 22.6498C11.8142 22.5418 14.8744 21.5164 15.6719 20.8688C16.2097 20.437 16.7105 19.9513 17.1927 19.4475L17.2113 19.4295C17.3411 19.2676 17.3967 18.9618 17.4338 18.7459C17.4895 18.3861 17.5451 18.2782 17.2855 17.8284C17.1371 17.5586 16.8774 17.3427 16.6734 17.1268C16.3581 16.767 14.522 16.731 14.726 15.8675C14.7816 15.6336 14.9115 15.6516 15.0413 15.5257C15.338 15.2558 16.5992 14.7701 17.1185 14.3384C17.5451 13.9786 17.3411 14.1944 17.7306 13.6907C18.0088 13.3309 18.2313 12.6833 17.8233 12.2875C17.4895 11.9457 16.8218 11.2621 16.4694 11.0462C16.1912 10.8843 15.9872 10.6864 15.7275 10.5065C13.9285 9.12123 9.14345 8.25771 6.89929 8.92334Z" fill="#FAF542"/>
<path fill-rule="evenodd" clip-rule="evenodd" d="M74.5023 6.38627C73.9088 6.45823 73.2782 6.44024 72.7404 6.58416C72.3323 6.6921 71.6276 6.90798 71.3494 7.12387C71.0712 7.33975 71.1639 7.4297 71.2937 7.75352C71.5348 8.31121 72.0541 9.10277 72.4436 9.51655C73.1855 10.3441 73.6862 10.6859 74.6692 11.2076C74.9103 11.3335 75.8377 11.6754 76.0973 11.7113C76.7464 11.8193 77.3028 11.8013 77.952 11.8553C79.8067 11.9992 79.9736 12.251 81.2533 10.9917C81.4573 10.7938 81.7355 10.47 82.3476 10.6499C82.6628 10.7579 82.9781 11.4775 83.1636 11.8193C83.72 12.8267 84.3321 12.8987 85.5561 13.3304C86.2424 13.5823 88.264 13.7442 89.0986 13.6543C90.3968 13.5283 91.1387 13.2585 92.066 12.7368C92.6039 12.4309 94.3287 11.5314 93.6425 10.7759C93.3458 10.452 92.7894 10.1822 92.4926 9.98429C92.0475 9.69645 90.2114 9.01282 89.7106 8.85091C89.1913 8.689 88.6905 8.56307 88.1712 8.40116C87.6705 8.23925 87.2253 8.09533 86.706 7.93342C85.2223 7.50166 84.9997 7.51965 83.4789 7.21382C81.7912 6.872 79.9921 6.58416 78.3044 6.44024C77.6923 6.38627 77.0432 6.42225 76.4312 6.38627C75.782 6.35029 75.0958 6.31431 74.5023 6.38627Z" fill="#C4C7D6"/>
<path fill-rule="evenodd" clip-rule="evenodd" d="M103.454 14.4636C103.398 14.6795 103.231 14.7875 103.083 14.9314C102.971 15.0393 102.433 15.7589 102.396 15.9029C102.341 16.1007 102.248 16.3526 102.229 16.5505C102.155 17.0362 102.192 17.6839 102.1 18.0976C101.803 19.5189 103.212 20.7242 104.27 20.9401C105.438 21.1739 106.18 21.03 107.126 20.5983C107.793 20.3104 108.443 19.5009 108.832 18.9792C109.24 18.4035 109.759 17.396 109.685 16.4785C109.667 16.1907 109.593 16.0648 109.574 15.7949C109.481 14.8414 109.351 14.6975 108.795 14.0319C108.443 13.6001 107.886 13.2043 107.385 12.9345C106.977 12.7186 106.922 12.8266 106.829 12.5927C106.903 12.4488 106.848 12.5027 107.033 12.4128C107.33 12.2509 107.348 12.2869 107.812 12.017C107.998 11.9091 108.164 11.8551 108.35 11.7651C108.739 11.5493 109.5 11.0995 109.778 10.8656C110.371 10.3979 110.984 9.55236 110.279 8.90472C109.963 8.59889 109.593 8.5629 109.073 8.50893C107.256 8.36501 106.569 8.9407 105.16 9.31849C104.251 9.57035 102.842 10.4159 102.155 11.0275C101.914 11.2434 101.655 11.5852 101.525 11.927C101.302 12.4668 101.413 12.7726 101.617 13.2043C101.97 13.9959 103.194 14.0679 103.454 14.4636Z" fill="#FFFFED"/>
<path fill-rule="evenodd" clip-rule="evenodd" d="M73.8902 7.01593C73.2782 7.06991 72.9258 7.12388 72.3694 7.28579C72.0541 7.37574 71.8686 7.39373 71.9428 7.77152C72.017 8.1673 72.7403 8.99484 73.0371 9.31866C73.8717 10.2362 75.0587 10.9378 76.4311 11.2076C77.2101 11.3695 78.972 11.4595 79.8066 11.3695C80.5114 11.2976 81.142 10.0922 82.0322 10.0742C82.6628 10.0563 82.8854 10.3441 83.145 10.7039C83.7014 11.4775 83.4047 11.0997 83.7942 11.8013C84.0909 12.323 85.4077 12.7008 86.2052 12.9347C87.4108 13.2765 90.0073 13.2225 90.9903 12.7368L92.1031 12.1071C92.4555 11.8733 93.0675 11.4955 92.8079 11.1357C92.5668 10.8118 90.9346 10.1102 90.5081 9.91234C90.063 9.69646 87.0769 8.65303 86.5576 8.5271C83.0894 7.66358 82.737 7.50167 79.0833 7.14187C77.8778 7.03393 76.8762 6.99795 75.6522 6.99795C75.0772 6.99795 74.5023 6.94397 73.8902 7.01593Z" fill="#171C38"/>
<path fill-rule="evenodd" clip-rule="evenodd" d="M119.719 17.091C119.645 17.163 119.608 17.163 119.497 17.181C119.2 17.2529 119.014 17.2709 118.792 17.4508C117.716 18.3863 119.701 18.998 119.96 19.1599C120.09 19.2498 120.071 19.2318 120.109 19.3758C119.867 19.5017 119.682 19.4657 119.348 19.4837C118.662 19.5197 116.177 20.0234 116.14 20.8869C116.121 21.5526 117.549 21.9304 118.087 22.0923C118.217 22.1282 118.31 22.2002 118.421 22.2182C119.181 22.4521 120.776 22.7219 121.611 22.7219C122.241 22.7219 122.798 22.8119 123.428 22.7759C124.653 22.7219 125.821 22.7759 127.027 22.65C127.509 22.596 127.972 22.3441 128.232 22.0563C128.584 21.6605 128.251 21.0668 127.991 20.761C127.268 19.8795 125.895 19.0519 124.801 18.5122C124.597 18.4043 124.393 18.2964 124.207 18.1884C123.985 18.0625 123.707 18.0445 123.651 17.8106C123.892 17.5948 124.374 17.5768 124.857 16.8931C125.543 15.9217 125.339 15.5619 124.523 14.8962C124.226 14.6444 123.503 14.3206 123.095 14.1946C122.353 13.9608 120.962 13.8888 120.127 13.9248C119.645 13.9428 118.68 14.2126 118.495 14.4105C118.328 14.5904 118.272 14.9322 118.328 15.238C118.532 16.2095 119.497 16.6593 119.719 17.091Z" fill="#FFFFED"/>
<path fill-rule="evenodd" clip-rule="evenodd" d="M64.6354 19.5016C64.8951 19.6635 64.7652 19.8074 65.2103 20.2212C65.4329 20.4191 65.6555 20.6529 65.8595 20.8328C66.4344 21.3366 67.0836 20.7609 67.436 20.2751C68.3262 19.0518 68.5858 17.9544 68.7157 16.4612C68.7899 15.5617 68.7157 14.9681 68.3262 14.3384C67.9738 13.7447 67.1392 13.8167 66.5457 14.1945C66.0079 14.5183 65.4885 14.7702 64.9878 15.184C64.7652 15.3818 64.487 15.5797 64.3386 15.7956C64.1903 16.0115 64.0048 16.4792 63.7081 16.4433C63.5968 15.9575 64.3201 14.8062 63.6153 14.0686C63.3557 13.7987 63.0033 13.7088 62.5211 13.8707C61.3712 14.2665 60.2584 15.1839 59.6278 16.1194C59.4052 16.4433 59.1641 16.7491 59.1085 17.0909C59.0528 17.3428 59.0157 17.4507 58.9601 17.6666C58.7746 18.4402 58.5706 19.5016 58.8859 20.2212C59.1456 20.8328 59.7391 21.3905 60.6108 21.4265C61.1486 21.4445 61.8719 21.1207 62.3356 20.9408L62.8549 20.7249C63.1517 20.599 63.504 20.3831 63.7637 20.1852C63.9492 20.0233 64.5056 19.5375 64.6354 19.5016Z" fill="#FFFFED"/>
<path fill-rule="evenodd" clip-rule="evenodd" d="M91.3241 15.4891L90.4895 15.3811L90.1557 15.4171C90.0815 15.7409 90.1557 16.1727 90.1 16.5145C89.9145 17.6839 89.7847 18.2416 89.3025 19.285C89.0799 19.7707 88.2453 20.9221 87.8559 21.4258C87.114 22.3433 87.3922 21.9475 86.6689 22.6491C85.9641 23.3328 85.5004 23.7285 84.6844 24.3222C84.2578 24.628 83.5345 24.8259 82.9224 24.9878C82.5144 25.0958 81.2903 25.5455 80.975 25.5275C81.0121 25.2577 81.0863 25.3117 81.3089 25.1857L83.0152 23.7825C83.145 23.6746 83.2006 23.6026 83.3305 23.4767C83.6458 23.1529 83.7756 22.9909 84.0723 22.6491C84.1465 22.5592 84.128 22.5772 84.2022 22.4692C84.4062 22.1634 84.5545 22.0375 84.7771 21.7676C84.8884 21.6237 85.3335 20.8861 85.4819 20.6522C85.5746 20.5263 85.7044 20.4543 85.7044 20.2385C85.4448 20.2924 84.7215 20.7062 84.4989 20.8141C84.1465 21.012 83.5716 21.1919 83.2006 21.3359C82.8297 21.8935 82.3104 23.1708 81.7725 23.7465C81.6056 23.9264 81.4943 24.0883 81.3274 24.2682C81.1234 24.4841 81.0121 24.4841 80.8267 24.736L80.3444 25.2217C80.1775 25.3656 80.0848 25.6355 79.8437 25.6895C79.7324 25.2577 80.363 23.2788 80.5299 22.6132C80.6226 22.2713 80.6226 21.8396 80.7339 21.5517C80.6041 21.5158 79.788 21.3898 79.6953 21.3898C79.5098 21.4798 79.5284 22.0735 79.5098 22.2534C79.4357 22.6491 79.4357 22.955 79.4357 23.3507C79.4357 24.1603 79.38 24.8079 79.3058 25.5815C79.1018 25.5455 79.1575 25.6535 79.0833 25.3656C78.972 24.8979 78.8978 24.8799 78.8051 24.5381C78.7494 24.3042 78.6938 24.1783 78.6011 24.0164C78.4712 23.7645 78.0632 22.6311 77.9519 22.5052C77.8592 22.3973 77.21 22.0015 77.0246 22.0015C77.0431 22.3433 77.6737 23.6206 77.8221 24.0703C77.8777 24.2323 77.9519 24.3222 78.0261 24.4661C78.1559 24.754 78.3785 25.0598 78.3599 25.3297C78.1188 25.3476 78.1374 25.2757 78.0261 25.1138L77.1915 24.1963C76.8762 23.8185 76.4125 23.2788 76.1714 22.901C75.5779 22.0015 75.7449 22.3973 75.2812 21.4618L74.6692 20.3824C74.595 20.2205 74.5393 20.0945 74.4837 19.9506C74.2982 19.4829 73.9087 18.6733 73.7975 18.3315C73.2967 16.7484 73.1298 16.1007 73.2781 14.3197C73.3338 13.6361 73.7233 12.5927 73.7233 12.4128L73.5378 12.3768L71.7944 12.3408C71.6831 12.6467 71.5904 13.2943 71.5162 13.4742C71.238 14.2118 71.2195 15.8129 71.3307 16.6404C71.3493 16.8203 71.6831 18.0257 71.7944 18.2596C72.2024 19.1411 72.6847 20.2744 73.2411 21.03L73.816 21.8576C75.411 23.6026 75.1514 23.7285 77.4141 25.3117C77.581 25.4196 77.6923 25.4556 77.8592 25.5815C78.7865 26.2471 81.142 26.2112 82.1435 25.9953C84.6658 25.4376 83.924 25.5995 86.3165 24.4841C86.6503 24.3222 87.7446 23.5306 87.9857 23.2968C88.5606 22.7751 89.5251 21.6417 89.8589 20.9761C90.6379 19.4469 90.5451 19.6268 91.1201 18.0257C91.4168 17.3421 91.3983 16.3346 91.3241 15.4891Z" fill="#D4FA91"/>
<path fill-rule="evenodd" clip-rule="evenodd" d="M108.962 16.6589C108.962 15.9573 108.888 15.0398 108.387 14.4461C108.183 14.2122 107.998 14.0683 107.775 13.8704C107.701 13.7985 107.423 13.6006 107.163 13.4567C107.015 13.3847 106.94 13.2948 106.773 13.2408C106.755 13.2408 106.755 13.2228 106.736 13.2228C106.236 13.0429 106.032 12.7011 106.069 12.1794C106.569 11.8555 107.515 11.4957 107.794 11.2619C108.239 10.8841 108.832 10.6862 109.407 10.1465C109.722 9.85865 110.186 9.49885 109.351 9.12106C108.888 8.90518 107.849 9.06709 107.385 9.17503C106.644 9.33694 104.381 10.2005 103.806 10.5603L102.916 11.1539C102.508 11.5137 101.803 11.9815 102.081 12.6111C102.137 12.7551 102.638 13.2408 102.842 13.3127C103.138 13.4567 103.565 13.6186 103.769 13.8524C104.121 14.3022 104.325 14.1223 103.917 14.8419C103.843 14.9678 103.825 15.0578 103.769 15.1657C103.695 15.2737 103.62 15.3636 103.565 15.4895C103.324 15.9213 103.027 16.2991 102.879 16.7668C102.508 17.8462 102.526 18.9796 103.454 19.6632C103.88 19.9871 104.14 20.2209 104.807 20.3289C105.828 20.4728 106.736 20.2749 107.478 19.5913C108.239 18.9256 108.962 17.7203 108.962 16.6589Z" fill="#FAF542"/>
<path fill-rule="evenodd" clip-rule="evenodd" d="M98.0936 14.0502C97.5372 14.1582 97.6855 14.1582 97.2033 14.2841C96.8695 14.3741 96.6655 14.5 96.4058 14.6259C95.089 15.2915 94.514 16.6408 94.0504 17.9721C93.7536 18.8176 93.7351 18.8536 93.5682 19.7891C93.4383 20.5087 93.29 21.0304 93.4198 21.804L93.6238 22.7574C93.698 22.9373 93.8835 23.3691 93.9947 23.513C94.1802 23.7649 94.2915 23.9268 94.7366 23.9268C95.2559 23.9268 95.8865 23.2432 96.0905 22.9553C96.48 22.4156 96.4985 22.0198 96.7396 21.3362C96.8324 21.0664 96.8509 20.7066 97.1477 20.5986L99.0209 20.1669C99.6144 20.0409 101.024 19.4473 101.284 18.9615C101.525 18.5118 101.747 17.7922 101.784 17.2165C101.84 16.317 101.877 15.8852 101.413 15.2915C100.727 14.41 99.2249 13.8164 98.0936 14.0502Z" fill="#FFFFED"/>
<path fill-rule="evenodd" clip-rule="evenodd" d="M22.3117 13.7988C21.5513 13.9247 21.3658 13.8168 20.7353 14.2126C20.1047 14.6263 19.5668 14.9861 19.1959 15.7057C19.1402 15.8137 19.1032 15.9216 19.0475 16.0296C18.7508 16.5333 18.4169 17.1629 18.3798 17.8645C18.3613 18.2243 18.454 19.4117 18.5467 19.6815C18.8991 20.617 19.6596 21.3546 20.6425 21.6245C20.9764 21.7144 22.1077 21.8044 22.4787 21.7504C23.4802 21.5885 24.5744 20.9768 25.0381 20.3292C25.3719 19.8614 25.5203 19.5736 25.78 19.0699C25.9283 18.764 26.3364 18.0624 26.4106 17.7026C26.5033 17.2709 26.2436 16.4253 26.0767 16.0655C25.78 15.4179 25.7429 15.274 25.2792 14.8602C24.6115 14.2845 23.6285 13.5829 22.3117 13.7988Z" fill="#FFFFED"/>
<path fill-rule="evenodd" clip-rule="evenodd" d="M54.6385 13.8528C53.637 14.0147 52.5798 14.3745 51.9307 15.166C51.3928 15.8137 50.7993 16.8751 50.7808 18.0085C50.7623 19.5017 51.0776 20.0953 51.8751 20.9049C53.1362 22.1822 54.8054 22.1102 56.3263 21.3187C56.8456 21.0488 57.0681 20.779 57.4205 20.3832C58.218 19.4477 58.4777 18.926 58.6446 17.6487C58.7373 16.9651 58.793 16.6053 58.4777 16.0296C58.2366 15.5978 57.9398 15.166 57.606 14.8782C56.9569 14.3025 55.8997 13.6549 54.6385 13.8528Z" fill="#FFFFED"/>
<path fill-rule="evenodd" clip-rule="evenodd" d="M37.3345 13.924C35.7765 14.3018 34.7194 15.1114 34.2372 16.6225C34.0331 17.2882 33.9219 19.375 34.367 20.0766C34.4412 20.1666 34.4968 20.2565 34.5895 20.3465C34.6637 20.4364 34.7194 20.5084 34.8121 20.6163C36.1104 22.1815 39.0222 21.8397 39.9866 21.0301C40.6914 20.4364 40.8398 20.2206 41.3035 19.465C41.7671 18.7094 41.9155 18.0797 41.8599 17.1083C41.8228 16.3707 41.6002 15.4892 41.0438 15.0574C40.8212 14.8775 40.6914 14.7876 40.4874 14.6077C39.8383 14.068 38.4844 13.6362 37.3345 13.924Z" fill="#FFFFED"/>
<path fill-rule="evenodd" clip-rule="evenodd" d="M91.287 13.4744C91.4539 13.5824 91.3983 13.6363 91.3983 13.8702C91.3983 14.0681 91.4539 14.1221 91.4539 14.3199L91.3427 14.3559C91.6209 14.5358 91.8434 14.5898 91.9362 14.9496C92.0289 15.3274 91.6765 15.4713 91.3241 15.5073C91.3798 16.3348 91.3983 17.3423 91.1572 18.0439C90.5637 19.645 90.675 19.4831 89.896 20.9943C89.5622 21.6419 88.5978 22.7753 88.0228 23.315C87.7817 23.5489 86.6874 24.3404 86.3536 24.5023C83.9611 25.6357 84.7029 25.4738 82.1806 26.0135C81.1791 26.2294 78.8236 26.2474 77.8963 25.5997C77.7479 25.4918 77.6181 25.4558 77.4512 25.3299C75.1699 23.7467 75.4481 23.6208 73.8531 21.8758L73.2596 21.0482C72.6847 20.2927 72.2025 19.1593 71.813 18.2778C71.7017 18.0619 71.3864 16.8386 71.3493 16.6587C71.2566 15.8491 71.2751 14.23 71.5348 13.4924C71.609 13.3125 71.7017 12.6649 71.813 12.359L73.5564 12.395C73.2225 12.1971 71.9243 12.395 71.609 12.2511C71.0897 12.0172 71.2751 11.6574 71.6831 11.4235C71.9243 11.2796 72.1654 11.3516 72.4436 11.3696C72.7589 11.3876 72.9814 11.3336 73.2967 11.3336C73.4265 11.3336 73.5564 11.3516 73.7047 11.3516C73.7604 11.3516 73.8902 11.3516 73.9273 11.3516C74.0015 11.3516 73.9458 11.3516 74.02 11.3336C74.2055 11.2976 74.0757 11.3336 74.1499 11.2976C74.0757 11.1357 74.1128 11.2257 73.8717 11.0458C73.5935 10.8479 73.2967 10.56 72.9443 10.3801C72.6476 10.2362 72.5919 10.1463 72.3879 9.89439C71.6646 8.99489 71.7944 9.31871 71.1638 10.3801C70.7002 11.1357 70.4405 12.0352 70.2736 12.9167C69.9583 14.5898 69.9583 14.23 70.0325 16.011L70.1994 17.5941C70.5518 18.8355 70.4405 18.9074 71.0897 20.1847C71.4606 20.8863 72.017 21.6779 72.5363 22.1816C72.796 22.4335 73.1483 22.8472 73.408 23.0631C73.8717 23.4589 74.3168 23.8907 74.8361 24.2325C75.6521 24.7722 75.2812 24.7182 76.4311 25.2759C76.802 25.4558 77.3399 25.5637 77.7294 25.7436C79.1389 26.4093 80.7339 26.3913 82.3104 26.3193C83.6087 26.2654 85.4819 25.9955 86.6503 25.4558C86.91 25.3479 87.0398 25.3299 87.2624 25.186C87.4849 25.042 87.6519 25.0061 87.8373 24.8981C88.2268 24.6463 89.2283 24.1065 89.4509 23.8727C89.7662 23.5309 89.6364 23.8907 90.304 23.0271C91.083 22.0197 91.4725 21.6599 91.9918 20.3646C92.6038 18.8714 92.882 17.81 92.8635 16.047C92.8635 15.2554 92.9191 13.4564 92.5297 12.9167C92.27 12.9167 92.1587 13.0606 91.9362 13.1866C91.7136 13.2945 91.4539 13.3665 91.287 13.4744Z" fill="#36613B"/>
<path fill-rule="evenodd" clip-rule="evenodd" d="M111.187 18.2242C111.132 18.3681 110.761 18.7459 110.668 18.8718C109.871 19.7533 109.667 19.9872 109.166 21.0486C108.739 21.9481 109.222 22.2899 110.223 22.254C110.761 22.236 110.872 22.254 111.28 22.0561C111.558 21.9121 111.855 21.8042 112.133 21.6783C112.634 21.4264 113.172 21.0486 113.617 20.7428C114.619 20.0412 115.453 19.3216 116.269 18.476C116.473 18.2602 117.16 17.3427 117.326 17.0728C117.697 16.4791 117.957 16.1373 117.957 15.2918C117.957 14.5542 117.512 14.0325 116.733 14.0325C115.806 14.0145 114.841 14.914 114.303 15.3278C113.969 15.5976 114.007 15.7236 113.599 15.3638C113.209 15.0399 112.782 14.5902 112.133 14.4103C111.466 14.2124 110.464 14.4103 110.13 14.7701C109.592 15.3458 110.223 16.9289 110.705 17.5226C110.854 17.7025 111.095 17.9543 111.187 18.2242Z" fill="#FFFFED"/>
<path fill-rule="evenodd" clip-rule="evenodd" d="M76.0416 17.7387C76.1529 17.8287 76.3383 18.2065 76.4125 18.3684C76.6722 18.9081 76.5609 19.106 77.0987 19.8256C77.2286 20.0055 77.5068 20.2573 77.5439 20.4552L78.5825 20.9769L79.7138 21.3907C79.8066 21.3907 80.6226 21.5166 80.7524 21.5526C81.5685 21.5886 82.5144 21.4987 83.2006 21.3367C83.5901 21.2108 84.1465 21.0129 84.4989 20.815C84.7214 20.6891 85.4633 20.2933 85.7044 20.2393C85.9455 20.2034 85.8342 20.1494 86.0383 20.0415C86.4092 19.8256 87.2438 19.2859 87.522 19.016C87.8002 18.7462 88.0413 18.6023 88.5606 18.0805C89.0799 17.5588 89.8589 17.0371 89.6734 16.3355C89.3581 16.2995 89.117 16.5334 88.9872 16.6953C88.7646 16.9472 88.8017 17.0191 88.4308 17.199C88.0784 17.3609 87.1882 17.6488 86.743 17.6668C86.6318 17.7387 85.1666 17.9366 84.9996 17.9186C84.9255 17.9726 85.0182 17.9366 84.9069 17.9546C84.8513 17.9726 84.8513 17.9726 84.7956 17.9726C84.74 17.9726 84.6473 17.9546 84.5916 17.9546C84.1836 17.9006 82.1435 18.0086 81.6427 17.6668C81.383 17.6848 80.9008 17.5408 80.6041 17.4869C80.1404 17.4869 78.4897 16.9652 77.989 16.6773L77.6922 16.5334C77.6922 16.5154 77.6737 16.5154 77.6551 16.5154C77.3028 16.3175 76.8391 16.1556 76.4125 15.9757C74.9844 15.6159 74.4095 13.9248 73.7603 13.9788C73.4265 14.5185 73.8531 14.5185 74.1313 14.9323C74.2611 15.1302 74.7248 15.5979 74.8917 15.7598C75.0586 15.9217 75.3554 16.3535 75.5223 16.6593L76.0416 17.7387Z" fill="#050505"/>
<path fill-rule="evenodd" clip-rule="evenodd" d="M30.5836 19.5012C30.8062 19.879 31.1029 20.6346 31.3811 20.9044C31.8077 21.3002 32.3455 21.5701 32.8834 21.0663C33.8478 20.1668 33.6438 19.3213 33.6809 18.4938C33.6995 18.134 33.7365 17.7921 33.7365 17.4144C33.7365 16.1011 33.5325 15.8672 32.9205 15.0217C32.7536 14.7878 32.327 14.392 32.1044 14.2301C31.2698 13.6544 30.4723 14.1941 29.8046 14.6799C29.1184 15.1836 28.6176 15.4714 28.0798 16.209C27.8201 16.5688 27.3194 17.0006 27.0041 17.5403C26.8001 17.8821 26.2808 18.8176 26.1509 19.1414C25.8171 19.915 26.0211 19.5012 25.6316 20.2388C24.6116 22.1457 27.7645 21.1023 28.5064 20.7245C28.7104 20.6166 28.766 20.5626 29.0257 20.4547C29.6748 20.1309 30.361 19.5012 30.5836 19.5012Z" fill="#FFFFED"/>
<path fill-rule="evenodd" clip-rule="evenodd" d="M43.9556 17.9539C43.9742 19.1772 43.7702 20.5085 44.5306 21.1561C45.0499 21.6059 45.3281 21.4979 45.9401 21.1741C46.3667 20.9403 47.1271 20.0228 47.3497 19.627C47.5908 19.2312 47.869 18.8354 48.0915 18.4037C48.2214 18.1518 48.2585 18.0439 48.5552 17.8999C48.8149 17.792 49.0003 17.6661 49.2414 17.5761C49.7793 17.3782 50.243 17.2703 50.5397 16.8925C50.7437 16.6406 51.1332 15.8491 50.9477 15.4713C50.5397 14.6437 49.2414 14.3919 48.2214 14.23C47.6464 14.14 46.886 14.122 46.2925 14.158C45.087 14.212 42.4719 15.0755 42.1195 15.957C41.8228 16.6946 42.5275 17.4322 43.2138 17.6841C43.5662 17.792 43.6774 17.756 43.9556 17.9539Z" fill="#FFFFED"/>
<path fill-rule="evenodd" clip-rule="evenodd" d="M119.608 18.2244C119.682 18.2963 119.738 18.3863 119.849 18.4582C119.96 18.5302 120.071 18.6021 120.164 18.6561C120.368 18.782 121.295 18.89 121.314 19.5916C121.314 20.1673 120.294 20.2572 119.923 20.2752C119.274 20.2752 117.809 20.3832 117.234 20.743C117.197 21.3007 118.922 21.7504 119.422 21.8404C120.646 22.0562 121.221 22.2361 122.464 22.2181C123.336 22.2181 124.133 22.2901 125.098 22.2721C125.821 22.2541 126.47 22.3441 127.101 22.0203C127.23 21.9483 127.342 21.8404 127.379 21.7144C127.49 21.3546 127.268 21.0128 127.082 20.8689C126.155 20.0953 124.56 19.2318 123.521 18.7101C123.28 18.6201 122.909 18.4942 122.779 18.3143C122.612 18.0804 122.631 17.6667 122.853 17.5047C123.243 17.2169 125.042 16.5693 124.263 15.6518C124.022 15.3819 123.113 14.9681 122.742 14.8602C122.316 14.7343 120.071 14.6803 119.571 14.8242C119.255 14.9142 118.959 14.9322 119.07 15.31C119.126 15.4539 120.331 16.4973 120.572 16.6772C120.721 16.7851 120.887 17.1449 120.702 17.3608C120.535 17.5587 119.942 17.5227 119.682 17.8106C119.571 17.9725 119.589 17.9725 119.608 18.2244Z" fill="#FAF542"/>
<path fill-rule="evenodd" clip-rule="evenodd" d="M68.048 16.0115C68.048 15.2739 67.9182 14.4463 66.9723 14.6982C66.249 14.8961 64.8023 16.2633 64.1532 16.803C63.9863 16.9289 63.671 17.4686 63.2444 16.893C62.8178 16.2993 63.4299 15.004 63.0218 14.6802C62.4469 14.2484 61.4268 15.3638 61.0373 15.6517C60.889 15.7596 60.11 16.857 59.9431 17.1088L59.5721 18.0623C59.2754 19.0158 59.5721 20.9407 60.8519 20.6529C61.7792 20.437 62.5582 19.9153 63.3742 19.5015C63.8379 19.2677 64.0605 19.0158 64.4314 18.8539C64.7281 18.71 64.8023 18.656 65.0063 18.9258C65.5071 19.5735 66.0635 20.7608 66.8054 19.9513C67.7512 18.9618 68.048 17.4147 68.048 16.0115Z" fill="#FAF542"/>
<path fill-rule="evenodd" clip-rule="evenodd" d="M34.6267 18.2596C34.6267 18.7993 34.9235 19.6088 35.2388 20.0766L35.3686 20.2565C35.6282 20.5803 36.4072 20.9401 36.8152 21.0121C37.316 21.102 37.8724 21.138 38.3361 20.9761C38.707 20.8501 39.3561 20.5083 39.6714 20.2925C40.5431 19.6808 40.71 18.7453 41.1737 18.0257C41.3406 17.7558 41.3221 16.9283 41.2479 16.7124C41.1737 16.5325 40.8955 15.9748 40.7842 15.8309C40.6544 15.651 40.2835 15.3092 40.1165 15.1473C39.8198 14.8594 39.6343 14.7875 39.2634 14.6436C38.7441 14.4277 37.1305 14.6256 36.6112 14.8954C36.333 15.0393 36.0548 15.2013 35.8508 15.4351C35.6468 15.669 35.4057 15.9209 35.2758 16.2087C35.0533 16.6764 34.8678 16.9463 34.8122 17.504C34.7194 17.8278 34.6267 17.9358 34.6267 18.2596Z" fill="#FAF542"/>
<path fill-rule="evenodd" clip-rule="evenodd" d="M94.5325 23.2429C94.9776 23.2609 95.0332 23.189 95.1631 22.8651C95.3485 22.4334 95.6267 21.9296 95.7566 21.4979C95.9235 20.9942 95.9791 20.5444 96.3315 20.1126C96.7952 19.555 97.3887 19.8068 97.908 19.6989C98.1862 19.6449 98.5386 19.6089 98.7797 19.555C99.9296 19.2671 100.43 18.8533 101.079 17.8819C101.228 17.648 101.376 16.1189 100.746 15.5072C100.56 15.3453 100.449 15.1114 100.226 15.0215C99.0764 14.5177 98.2789 14.3738 97.0177 14.8955C96.4242 15.1294 96.2944 15.3453 95.8864 15.7411C95.2187 16.3887 94.0874 18.7454 94.0874 19.8428C94.0874 21.1921 93.8648 22.0916 94.5325 23.2429Z" fill="#FAF542"/>
<path fill-rule="evenodd" clip-rule="evenodd" d="M51.5227 18.1341L51.5783 18.9616C51.6154 19.5013 51.9122 19.7352 52.1718 20.095C52.3017 20.2749 52.9693 20.7426 53.2105 20.8686C53.6556 21.1024 55.028 21.1384 55.5659 20.8326C56.1594 20.5088 56.215 20.4908 56.7158 20.095C57.3835 19.5553 57.5689 18.8177 57.8657 18.1341C58.3108 17.1086 58.0141 16.2271 57.2536 15.3996C56.7714 14.8599 56.215 14.7519 55.5102 14.626C55.0095 14.5361 54.3418 14.5181 53.8596 14.7879C52.3388 15.5975 51.5227 16.407 51.5227 18.1341Z" fill="#FAF542"/>
<path fill-rule="evenodd" clip-rule="evenodd" d="M21.7369 21.0668C22.0522 21.0668 22.8126 20.9049 22.9795 20.8149C23.9625 20.2932 24.2221 20.3472 24.9269 19.2498C25.5389 18.3143 25.5389 17.9185 25.5389 16.8391C25.5389 16.2095 25.1309 15.9037 24.7414 15.4359C24.6301 15.31 23.4246 14.6623 23.2948 14.6623C20.7724 14.3385 20.6241 15.0941 19.4556 16.4793C19.1589 16.8571 19.0847 18.7821 19.1774 19.1779C19.2331 19.4297 19.4185 19.6636 19.5298 19.9154C19.7709 20.4192 21.0692 21.0668 21.7369 21.0668Z" fill="#FAF542"/>
<path fill-rule="evenodd" clip-rule="evenodd" d="M77.9518 6.18878C77.7292 6.06285 77.3212 6.18878 77.0615 6.1528L77.3397 5.93692C78.0816 5.46918 79.1017 5.19933 79.9363 4.96546C80.5483 4.80355 81.0862 4.78556 81.6982 4.67762C82.7368 4.5157 84.2947 4.62364 85.185 5.19933C86.3905 5.99089 86.4091 5.99089 87.392 7.01632C87.8557 7.48407 87.8742 7.66397 88.3379 8.11372L88.2081 8.1497L88.783 8.3296C89.0056 8.40156 89.1354 8.45553 89.3951 8.5095C89.5991 8.56347 89.766 8.61744 89.9886 8.67141C90.174 8.72538 90.9159 9.13915 90.3966 8.49151C89.8031 7.77191 89.0798 7.14226 88.3565 6.54858C88.1339 6.36868 87.2437 5.73903 87.0026 5.63109C86.4647 5.36124 85.8341 5.2533 85.389 4.94747C85.3704 4.73159 85.4446 4.76757 85.4817 4.56967C86.2792 4.42575 86.8356 4.44374 87.2993 3.83208C88.1895 2.68072 87.4291 0.737789 85.7228 0.93568C84.8326 1.04362 84.4246 1.90714 84.1649 2.03307C83.9238 1.96111 83.3303 1.20553 83.1448 0.97166C83.015 0.791759 82.9408 0.773769 82.811 0.611858C82.199 -0.107745 81.0862 0.737789 80.9378 0.95367C80.8265 1.11558 80.6596 1.83518 80.9007 2.10503C81.4385 2.7167 82.1248 3.2564 82.8481 3.67017C83.0336 3.77811 83.0892 3.86806 83.2376 3.976V4.42575C82.8481 4.53369 82.3844 4.49771 81.9949 4.40776C80.4185 4.02997 80.4185 4.1559 78.5082 4.47972C77.655 4.62364 76.2826 5.03742 75.5592 5.50516C75.448 5.57712 74.8545 5.95491 74.7803 6.06285C75.3181 6.08084 75.7818 6.08084 76.3196 6.11682C76.876 6.17079 77.3954 6.22476 77.9518 6.18878Z" fill="#4A7547"/>
<path fill-rule="evenodd" clip-rule="evenodd" d="M79.7139 21.3903L78.5826 20.9765L77.544 20.4548C77.5625 20.7786 77.5996 20.8866 77.7109 21.1744C77.748 21.3003 77.7665 21.3903 77.8036 21.4982C77.8407 21.6421 77.8963 21.6961 77.9334 21.84C77.7851 21.7861 77.7851 21.7501 77.6738 21.6961C77.5996 21.6601 77.5069 21.6242 77.3956 21.5702C77.1545 21.4802 77.0988 21.3723 76.969 21.2284C76.3755 20.5627 75.8933 17.7203 76.0602 17.7383L75.5595 16.6409C75.4111 16.3351 75.0958 15.9033 74.9289 15.7414C74.7619 15.5795 74.2983 15.1118 74.1684 14.9139C73.8902 14.5001 73.4637 14.5001 73.7975 13.9604C74.4466 13.8884 75.0216 15.5975 76.4497 15.9573C76.3013 15.7054 75.9675 15.7774 75.9489 15.5615C75.9304 15.2737 76.0788 14.3382 76.1159 14.0144C76.1529 13.7445 76.2642 13.5646 76.2642 13.3127L76.3384 13.2948C76.2828 13.2588 76.3013 13.2768 76.2271 13.2408L75.2071 12.7551C74.5579 12.4852 74.4281 12.5572 73.7419 12.4492C73.7233 12.6291 73.3524 13.6546 73.2968 14.3562C73.1484 16.1372 73.3153 16.7848 73.8161 18.368C73.9273 18.7278 74.3168 19.5193 74.5023 19.9871C74.5579 20.131 74.6136 20.2749 74.6878 20.4188L75.2998 21.4982C75.7635 22.4337 75.5965 22.0379 76.19 22.9374C76.4311 23.2972 76.9134 23.8549 77.2101 24.2327L78.0447 25.1502C78.1745 25.3121 78.1374 25.3841 78.3786 25.3661C78.3971 25.0962 78.1745 24.8084 78.0447 24.5026C77.9705 24.3407 77.9149 24.2687 77.8407 24.1068C77.6738 23.657 77.0617 22.3797 77.0432 22.0379C77.2101 22.0379 77.8592 22.4337 77.9705 22.5416C78.0818 22.6676 78.5084 23.801 78.6197 24.0528C78.7124 24.2327 78.768 24.3407 78.8237 24.5745C78.9164 24.8984 78.9906 24.9343 79.1019 25.4021C79.1761 25.6899 79.1019 25.582 79.3244 25.618C79.3986 24.8444 79.4543 24.1967 79.4543 23.3872C79.4543 22.9914 79.4543 22.6856 79.5284 22.2898C79.547 22.0739 79.5284 21.4802 79.7139 21.3903Z" fill="#669C66"/>
<path fill-rule="evenodd" clip-rule="evenodd" d="M87.3178 15.7956C87.4291 15.8676 87.2993 16.1194 87.2622 16.2094C87.2066 16.3713 87.1509 16.5332 87.0953 16.6951C87.0211 16.911 86.78 17.4687 86.7614 17.6486C87.2066 17.6306 88.0968 17.3428 88.4492 17.1809C88.8016 17.0189 88.783 16.947 89.0056 16.6771C89.1354 16.5152 89.3765 16.2814 89.6918 16.3173C89.8773 17.0189 89.0983 17.5587 88.579 18.0624C88.0597 18.5841 87.8186 18.728 87.5404 18.9979C87.2622 19.2677 86.4276 19.8074 86.0567 20.0233C85.8526 20.1492 85.9639 20.2032 85.7228 20.2212C85.7228 20.4371 85.5744 20.509 85.5003 20.635C85.3333 20.8688 84.9068 21.6064 84.7955 21.7503C84.5729 22.0202 84.4245 22.1461 84.2205 22.452C84.1463 22.5599 84.1649 22.5419 84.0907 22.6319C83.794 22.9737 83.6641 23.1356 83.3488 23.4594C83.219 23.5853 83.1819 23.6573 83.0335 23.7652L81.3272 25.1685C81.1047 25.2944 81.0305 25.2404 80.9934 25.5103C81.3087 25.5283 82.5328 25.0785 82.9408 24.9706C83.5529 24.8087 84.2762 24.6108 84.7028 24.3049C85.5188 23.7292 85.9825 23.3335 86.6872 22.6319C87.392 21.9302 87.1324 22.326 87.8742 21.4085C88.2823 20.9048 89.0983 19.7534 89.3209 19.2677C89.8031 18.2243 89.9329 17.6486 90.1184 16.4972C90.174 16.1554 90.0998 15.7237 90.174 15.3998L90.5079 15.3639C90.378 15.2739 89.8402 15.3279 89.6733 15.3099C88.9499 15.2919 88.7088 15.2919 88.0226 15.5078L87.3178 15.7956Z" fill="#669C66"/>
<path fill-rule="evenodd" clip-rule="evenodd" d="M26.3919 20.437C26.7257 20.6349 26.7443 20.6169 27.3007 20.365C27.8386 20.1132 28.432 19.9153 28.9143 19.6094C29.3037 19.3576 30.0642 18.8898 30.4351 18.7459C31.2141 18.4221 31.3995 19.7354 31.7519 20.2391C31.8446 20.365 31.9188 20.473 32.0116 20.5989L32.3454 20.6169C32.8833 19.9872 33.1615 18.4401 33.1429 17.6125C33.1429 17.0908 33.0131 16.5331 32.7349 16.0834C32.4196 15.5797 32.0487 15.1839 31.6221 14.7881C31.4923 14.6622 31.5108 14.6442 31.2511 14.6622C30.9729 14.6622 30.7504 14.8241 30.5278 14.932C30.3238 15.04 29.5634 15.5617 29.3965 15.7236C29.1183 15.9754 28.2651 16.9109 28.0426 17.2527C27.7087 17.7385 27.2636 18.53 26.9483 19.0337C26.7999 19.2856 26.7628 19.3935 26.6516 19.6994C26.5032 20.0592 26.3734 19.9692 26.3919 20.437Z" fill="#FAF542"/>
<path fill-rule="evenodd" clip-rule="evenodd" d="M116.955 14.7161C116.547 14.6981 116.343 14.7341 116.084 14.914C115.62 15.2378 115.138 15.5976 114.693 15.8854C113.58 16.605 114.303 16.8209 112.894 15.7235C112.764 15.6156 112.708 15.6336 112.43 15.3997C112.282 15.2738 111.948 15.0939 111.688 15.0759C111.577 15.0579 111.262 15.0579 111.15 15.0759C110.983 15.1118 110.891 15.1658 110.779 15.2558C110.371 15.6156 110.52 15.8494 110.724 16.1733C110.854 16.4071 111.558 17.3426 111.725 17.5405C112.115 17.9903 112.133 18.0802 111.818 18.512C111.336 19.1056 111.095 19.6274 110.464 20.293C110.167 20.5808 110.056 20.6348 110.019 20.9226C109.963 21.4444 110.075 21.5523 110.538 21.4983C111.095 21.4444 111.54 21.1025 111.688 21.0486C111.929 20.9406 114.526 19.1056 114.748 18.8358C114.748 18.8358 114.86 18.7278 114.878 18.7099L115.509 18.1162C115.935 17.7384 117.178 16.1373 117.215 15.5256C117.252 15.1118 117.141 15.0219 116.955 14.7161Z" fill="#FAF542"/>
<path fill-rule="evenodd" clip-rule="evenodd" d="M44.6233 19.4293C44.6233 19.8611 44.6604 20.4188 45.0685 20.6167C45.4209 20.7966 45.7547 20.4368 46.0885 20.095C46.7191 19.1955 47.1828 18.5298 47.7577 17.6123C47.9061 17.4144 48.4996 17.0187 48.7964 16.9827C49.6124 16.8747 49.2229 16.9287 49.7422 16.6948C50.0575 16.5509 50.4656 16.0292 50.2059 15.7054C50.0946 15.5615 49.7422 15.2916 49.5939 15.2197C49.5568 15.2017 46.6264 14.8599 46.3296 14.9318C45.087 15.2017 44.2153 15.0577 43.1025 15.9033C42.9356 16.0292 42.7872 16.1551 42.8058 16.425C42.8429 16.7128 43.5291 17.0726 43.696 17.1806C43.9742 17.3605 44.104 17.1806 44.3266 17.3965C45.0314 18.0621 44.6233 18.206 44.6233 19.4293Z" fill="#FAF542"/>
<path fill-rule="evenodd" clip-rule="evenodd" d="M71.5532 11.9094C71.7572 12.0893 71.8871 12.0533 72.2209 12.0353C72.7402 12.0173 74.0756 12.1072 74.5578 12.2152C74.8174 12.2692 74.9844 12.3591 75.2069 12.4311C75.9302 12.6469 76.3012 12.8089 76.8761 13.2766C77.0431 13.4025 77.1729 13.4925 77.3583 13.6364C77.5438 13.7803 77.6365 13.8883 77.8406 13.9962C78.4712 14.338 78.5268 14.5899 78.7679 14.7338L79.788 15.3814C80.1589 15.5973 80.4 15.8672 80.7338 16.101C81.791 16.8206 83.6086 16.8027 84.8883 16.4249C86.335 15.9751 86.5946 15.5613 88.6533 15.1656C89.117 15.0756 90.5636 15.0756 91.0644 15.2015C91.3982 15.2915 91.4538 15.3275 91.695 15.1296C91.7135 14.7698 91.3982 14.6618 91.0829 14.4999C90.341 14.1041 88.4122 14.5359 87.6147 14.7158C86.3535 14.9857 84.0352 15.2915 82.9038 14.7698C82.6813 14.8957 82.7183 15.0756 82.3103 15.1476C81.5128 15.2735 81.2717 15.1116 80.9564 14.6438C80.7153 14.2661 80.3815 14.32 79.621 14.0142L78.4155 13.2946C78.1929 13.1507 78.026 13.0247 77.7849 12.8988C76.3568 12.1432 74.8545 11.6035 73.1853 11.6035C72.7031 11.5675 71.6089 11.4236 71.5532 11.9094Z" fill="#304063"/>
<path fill-rule="evenodd" clip-rule="evenodd" d="M82.44 19.9331C83.627 19.9331 85.1849 19.6272 86.1308 19.2494C87.5218 18.6917 87.2436 18.7637 88.0968 17.9721C88.2452 17.8282 88.4306 17.5404 88.5975 17.4324C88.2452 17.4864 87.3735 17.9002 86.001 18.0081C84.7398 18.1161 84.3133 18.224 82.8852 18.0981C82.4215 18.0621 81.9578 17.9362 81.5312 17.8642C80.3072 17.6483 78.7492 17.2885 77.7292 16.7668C77.5066 16.6589 76.2269 16.0652 75.9858 16.1012C75.7076 16.1372 75.8745 16.515 75.9672 16.6949C76.0414 16.8388 76.1712 17.0547 76.264 17.1806C76.6535 17.7023 76.5793 17.9002 77.4324 18.4579C77.6921 18.6198 78.1743 18.8716 78.471 18.9976C79.7879 19.5553 80.845 19.9331 82.44 19.9331Z" fill="#FFFFED"/>
<path fill-rule="evenodd" clip-rule="evenodd" d="M67.1947 10.3264C66.2117 10.4883 65.1175 11.2979 64.5611 11.9276C63.4297 13.2228 64.5611 14.1223 65.8037 13.9784C66.1005 13.9424 67.1205 13.5467 67.3616 13.4207C68.085 13.0609 69.2163 11.8016 68.697 10.8481C68.3817 10.3264 67.9922 10.2005 67.1947 10.3264Z" fill="#FFFFED"/>
<path fill-rule="evenodd" clip-rule="evenodd" d="M77.9518 6.18836C79.0646 6.15238 78.434 6.49419 80.2701 5.72062C80.7338 5.52272 81.3829 5.43277 81.9393 5.25287C82.1433 5.18091 82.2546 5.09096 82.4957 5.07297C82.403 5.25287 81.42 5.88253 81.1418 6.09841C80.808 6.33228 80.7709 6.24233 80.7523 6.49419L82.032 6.6561C82.199 6.42223 83.0336 5.23488 83.2005 5.16292C83.2376 5.28885 82.9779 6.53017 82.9594 6.836C83.0521 6.87198 83.7198 7.03389 83.8125 6.96193C83.9609 6.836 83.6827 5.52272 83.8682 5.1989C84.0351 5.27086 83.9794 5.30684 84.0722 5.46875C84.2762 5.84655 84.3875 6.15238 84.5358 6.56615C84.61 6.76404 84.7028 7.12384 84.9068 7.21379C84.981 7.24977 85.7228 7.3757 85.8527 7.3757C85.8341 7.14183 85.4446 6.63811 85.2221 6.24233C85.1108 6.02645 85.0181 5.9365 84.8697 5.7566C84.7955 5.66665 84.5544 5.36081 84.5358 5.25287C84.9624 5.41478 86.205 6.81801 86.6316 7.24977C86.78 7.39369 86.8727 7.57359 87.0211 7.69952C87.1695 7.82545 87.9855 8.07732 88.2081 8.16727L88.3379 8.13129C87.8742 7.68153 87.8557 7.50163 87.392 7.03389C86.4091 6.00846 86.3905 6.00846 85.185 5.21689C84.3133 4.64121 82.7368 4.51528 81.6982 4.69518C81.0862 4.78513 80.5483 4.80312 79.9363 4.98302C79.1017 5.21689 78.0816 5.48674 77.3397 5.95449L77.043 6.17037C77.3212 6.17037 77.7292 6.06243 77.9518 6.18836Z" fill="#D4FA91"/>
<path fill-rule="evenodd" clip-rule="evenodd" d="M90.7121 12.1791C90.6008 11.8193 89.3396 11.3156 88.913 11.0457C88.7461 10.9378 88.5977 10.9198 88.4308 10.8299C88.2454 10.7219 88.1155 10.6859 87.9301 10.578C87.7632 10.488 87.6519 10.3621 87.485 10.2901C87.3922 10.2542 87.318 10.2362 87.2253 10.2002C87.0398 10.1282 87.0398 10.1282 87.0027 10.0203C87.2438 9.85839 88.1341 10.3801 88.3752 10.506C88.8018 10.7399 89.2283 10.9378 89.6735 11.1537C90.6379 11.6394 90.1 11.3516 90.8975 11.8733C91.1943 12.0712 91.4169 11.8553 91.6209 11.7294C91.8249 11.6214 92.0845 11.4775 92.1587 11.2796C91.8805 11.0457 90.267 10.3441 89.8589 10.1822C89.692 10.1102 89.3953 10.0563 89.2098 9.98432C88.9872 9.91236 88.7832 9.80442 88.5792 9.73246C88.3752 9.6605 87.6333 9.51657 87.5035 9.4626C87.3922 9.42662 87.3922 9.37265 87.2253 9.31868C86.7616 9.15677 84.8513 8.79697 84.4618 8.63506C83.9982 8.43717 81.9395 8.05938 81.4387 8.18531C81.4387 8.52712 82.0508 8.47315 82.6628 8.67104C83.3119 8.86893 84.536 9.40863 85.111 9.75045C85.315 9.87638 85.4634 9.96633 85.6674 10.0743C86.2423 10.3621 86.7987 10.614 87.3922 10.9918C88.1155 11.4775 88.8389 11.8553 89.5993 12.305C89.8218 12.431 89.896 12.6109 90.2113 12.5029C90.471 12.377 90.5266 12.377 90.7121 12.1791Z" fill="#C4C7D6"/>
<path fill-rule="evenodd" clip-rule="evenodd" d="M82.5515 14.6442C82.737 14.5183 82.6813 14.3924 82.9781 14.5003C83.7941 14.7882 83.3676 14.7342 84.6287 14.7522C85.5561 14.7702 86.0754 14.7342 86.9656 14.5723C87.1325 14.5363 87.3366 14.5183 87.4849 14.4823C87.726 14.4284 88.1712 14.2664 88.505 14.2305C88.913 14.1765 89.284 14.1765 89.692 14.1225C90.0073 14.0686 89.9702 14.1225 90.2855 14.1225C90.4895 14.1225 90.675 14.0865 90.879 14.1405C91.0459 14.1765 91.1943 14.2844 91.3427 14.3384L91.4539 14.3024C91.4539 14.1225 91.3983 14.0506 91.3983 13.8527C91.3983 13.6368 91.4539 13.5648 91.287 13.4569C90.8975 13.4569 90.3968 13.8887 89.0429 13.9426C88.1897 13.9786 88.8018 14.0506 87.7817 13.9066C87.3737 13.8527 86.9656 13.8707 86.5205 13.7807C86.2979 13.7267 86.131 13.7267 85.9456 13.6908L84.332 13.223C83.6272 12.9712 83.2748 12.6653 82.9966 12.1256C82.9224 11.9997 83.0152 12.1256 82.941 12.0177L82.8297 11.9277C82.8297 12.4315 82.7741 12.8272 82.737 13.313C82.7184 13.5468 82.7184 13.7807 82.6999 14.0146C82.6628 14.3204 82.6257 14.3924 82.5515 14.6442Z" fill="#8CB569"/>
<path fill-rule="evenodd" clip-rule="evenodd" d="M23.202 18.4752C23.202 18.2414 23.202 17.9535 23.0907 17.8096C23.0536 17.7556 22.9608 17.6657 22.8867 17.6297C22.8496 17.5937 22.831 17.5757 22.7939 17.5578C22.4601 17.2699 22.1262 17.036 21.4586 17.072C21.0691 17.108 20.7538 17.4858 20.5127 17.7017C20.1046 18.0975 20.2159 18.0075 20.1046 18.4573C20.0119 18.871 19.9006 19.015 20.2345 19.5007C20.2716 19.5547 20.2716 19.5726 20.3272 19.6266C20.6796 20.0944 21.0505 20.2563 21.7368 20.2023C21.8851 20.1843 22.2004 20.0764 22.3488 20.0044C22.4786 19.9324 22.6641 19.7346 22.7754 19.6266C23.0721 19.3748 23.202 19.0509 23.202 18.4752Z" fill="#FFFFED"/>
<path fill-rule="evenodd" clip-rule="evenodd" d="M54.1009 17.0547C53.6558 17.0547 53.767 17.1087 53.4888 17.2346C53.0623 17.4325 53.2848 17.3605 53.0437 17.6124L53.0252 17.6304C52.9324 17.7203 52.8026 17.7743 52.6728 17.9902C52.58 18.1701 52.5059 18.368 52.5059 18.6018C52.5059 19.1235 52.6913 19.3934 52.9324 19.7172C53.2106 20.095 53.563 20.2029 54.0452 20.185C54.7871 20.167 54.6944 19.9511 55.0839 19.6453C55.2879 19.4833 55.3621 19.5013 55.4733 19.2495C55.6403 18.8717 55.7701 18.4939 55.529 17.9722C55.4177 17.7203 54.954 17.3605 54.6944 17.2346C54.546 17.1806 54.2678 17.0547 54.1009 17.0547Z" fill="#FFFFED"/>
<path fill-rule="evenodd" clip-rule="evenodd" d="M36.9079 17.1801C36.6483 17.288 36.2032 17.6478 36.0548 17.8637C35.9621 17.9896 35.9992 17.9716 35.9435 18.0976C35.9064 18.1875 35.5911 18.6373 35.6653 18.9791C35.7024 19.123 36.3144 20.0765 36.7781 20.1484C37.0934 20.2024 37.5014 20.1664 37.7055 20.1125C38.3175 19.8966 38.0022 20.0405 38.5771 19.2669C38.7812 18.9971 38.8368 18.5653 38.7812 18.3135C38.707 17.8997 38.3175 17.396 37.8909 17.306C37.7982 17.288 37.8353 17.306 37.7425 17.27L37.6684 17.2161C37.5014 17.1081 37.316 17.1081 37.0934 17.1261L36.9079 17.1801Z" fill="#FFFFED"/>
<path fill-rule="evenodd" clip-rule="evenodd" d="M76.9319 18.9978C76.9319 19.3576 77.6367 20.1311 77.8221 20.2931C78.6382 20.9767 80.159 21.3185 81.2904 21.3185C81.8468 21.3185 82.9039 21.2465 83.2749 21.0486C83.2934 20.8148 83.3305 20.5989 82.8297 20.401C82.6999 20.347 82.1064 20.2031 81.9766 20.2031C81.1605 20.1491 80.8081 20.0772 80.1034 19.8973C79.7324 19.8073 78.156 19.1957 77.8036 18.9798C77.4697 18.7999 77.2657 18.8179 76.9319 18.9978Z" fill="#D61C2B"/>
<path fill-rule="evenodd" clip-rule="evenodd" d="M103.973 17.3967C103.973 17.8644 103.973 17.8644 104.27 18.2602C104.622 18.7639 105.253 18.9978 105.79 18.7459L105.846 18.7099C105.865 18.7099 105.865 18.7099 105.883 18.6919C106.143 18.584 105.976 18.638 106.143 18.548C106.217 18.494 106.18 18.53 106.273 18.494C106.477 18.4041 106.681 18.1882 106.848 18.0083C107.015 17.8284 106.977 17.6665 106.977 17.3787C106.977 16.821 106.903 16.6231 106.607 16.3532C106.273 16.0474 106.032 15.8855 105.494 15.9934L105.327 16.0654C105.327 16.0654 105.308 16.0834 105.29 16.0834L104.974 16.1913C104.77 16.2633 104.659 16.3712 104.492 16.4792C104.362 16.5691 104.418 16.5511 104.307 16.6411C104.084 16.857 103.973 17.0369 103.973 17.3967Z" fill="#FFFFED"/>
<path fill-rule="evenodd" clip-rule="evenodd" d="M85.3891 3.41769C85.3891 3.81347 85.4448 3.92141 85.4819 4.24523C86.3536 4.22724 86.91 4.08332 87.2253 3.41769C87.9671 1.85255 86.131 0.503299 84.944 1.72662C84.8327 1.85255 84.2578 2.64412 84.1465 2.86C83.7756 3.56161 83.9981 3.59759 83.8498 3.81347C83.4788 4.38915 83.8312 4.46111 84.6473 4.64102C85.5932 4.8569 84.944 4.1193 85.0553 2.84201C85.0924 2.30231 86.2237 1.78059 86.5947 2.37427C86.7616 2.64412 86.7802 3.36372 85.9826 3.47166C85.6488 3.52563 85.6117 3.43568 85.3891 3.41769Z" fill="#B5F7B5"/>
<path fill-rule="evenodd" clip-rule="evenodd" d="M81.2716 14.4999C81.216 14.2301 81.1418 14.2121 81.3644 13.7083C81.4385 13.5284 81.6982 12.2691 81.7724 11.9453C81.8466 11.6035 81.8095 11.3157 81.9393 11.0098L82.2175 10.9918C82.0877 10.8659 81.7167 10.9559 81.5869 11.0458C81.5127 11.0998 81.4756 11.1717 81.4015 11.2437C81.3273 11.3157 81.2531 11.3696 81.1603 11.4416C80.9378 11.6395 80.5298 11.9993 80.1774 12.1252C79.2129 12.431 77.8034 11.9993 77.0615 12.1252C77.0615 12.1432 77.0615 12.1432 77.0615 12.1612C77.0615 12.1792 77.0615 12.1792 77.0801 12.1792L77.0986 12.1972L77.247 12.3051C77.3397 12.3591 77.3954 12.3951 77.5066 12.449C77.6921 12.557 77.8405 12.6469 78.026 12.7729C78.2485 12.9168 78.3969 12.8988 78.5638 13.0067C79.1573 13.3845 79.2315 13.5464 80.1403 13.8882C81.0676 14.248 80.7523 13.8523 81.1603 14.374L81.2716 14.4999Z" fill="#669C66"/>
<path fill-rule="evenodd" clip-rule="evenodd" d="M97.8154 15.0938C97.4073 15.1658 97.3517 15.2018 96.9066 15.6155C96.4986 15.9933 96.5542 15.9753 96.6098 16.623C96.6469 17.0547 96.5913 17.1987 97.0364 17.5764C97.1848 17.7024 97.3146 17.7384 97.5743 17.7384C98.2976 17.7564 98.6314 17.7564 99.1507 17.1987C99.3733 16.9648 99.5773 16.9108 99.466 16.1732C99.3918 15.7055 99.0209 15.0938 98.4831 15.0578C98.2234 15.0398 98.0379 15.0578 97.8154 15.0938Z" fill="#FFFFED"/>
<path fill-rule="evenodd" clip-rule="evenodd" d="M80.7524 21.5518C80.6597 21.8217 80.6412 22.2714 80.5484 22.6132C80.3815 23.2789 79.7509 25.2578 79.8622 25.6895C80.0848 25.6176 80.196 25.3657 80.363 25.2218L80.8452 24.7361C81.0306 24.4842 81.1234 24.4662 81.3459 24.2683C81.5314 24.0884 81.6241 23.9445 81.7911 23.7466C82.3289 23.1709 82.8482 21.8936 83.2192 21.3359C82.5144 21.4978 81.5685 21.6058 80.7524 21.5518Z" fill="#669C66"/>
<path fill-rule="evenodd" clip-rule="evenodd" d="M67.1948 10.9742C66.4714 11.1181 66.7125 11.0102 66.1932 11.352C65.6925 11.6758 65.4514 11.9997 65.1175 12.3775C65.0063 12.5034 64.8579 12.5753 64.895 12.8632C64.9692 13.3129 65.3401 13.3669 65.8965 13.3129C66.4714 13.241 68.3447 12.3235 68.1221 11.37C68.0108 10.9203 67.677 10.8843 67.1948 10.9742Z" fill="#FAF542"/>
<path fill-rule="evenodd" clip-rule="evenodd" d="M83.386 3.65228L83.9795 2.42895L83.8497 2.28503C83.794 2.21307 83.7755 2.17709 83.7198 2.10513C83.6271 1.9792 83.5344 1.90724 83.4231 1.78131C83.2191 1.52945 83.0521 1.34955 82.8481 1.13367C82.6441 0.917787 82.5328 0.647936 82.0877 0.683916C81.8466 0.701906 81.4015 0.971757 81.2717 1.11568C81.0676 1.33156 81.0676 1.85327 81.2717 2.06915C81.8281 2.66282 81.995 2.71679 82.6256 3.16655C82.7739 3.2565 83.182 3.6163 83.386 3.65228Z" fill="#B5F7B5"/>
<path fill-rule="evenodd" clip-rule="evenodd" d="M77.6736 16.4792C77.6921 16.4792 77.6921 16.4792 77.7107 16.4972L78.0074 16.6411C78.5082 16.9289 80.1588 17.4506 80.6225 17.4506C80.5298 17.2707 80.6782 16.785 80.7523 16.5871L80.9749 16.6051C80.8822 16.4792 80.7152 16.4252 80.5854 16.3352C80.4185 16.2273 80.3072 16.1913 80.1588 16.0834C79.7508 15.8315 79.6581 15.6156 79.1017 15.2738C78.5082 14.896 78.6751 14.8781 77.9518 14.4463C77.9518 14.6622 77.9332 14.7161 77.8961 14.932C77.8591 15.1299 77.8034 16.2093 77.8034 16.4432L77.6736 16.4792Z" fill="#669C66"/>
<path fill-rule="evenodd" clip-rule="evenodd" d="M76.431 15.9575C76.8576 16.1194 77.3213 16.2813 77.6737 16.4972L77.7849 16.4792C77.7849 16.2453 77.8406 15.1659 77.8777 14.968C77.9148 14.7701 77.9333 14.6981 77.9333 14.4823C77.8962 14.3024 77.3398 14.0145 77.1729 13.8706C77.006 13.7447 76.5052 13.3129 76.3197 13.2949L76.2456 13.3129C76.2456 13.5648 76.1343 13.7447 76.0972 14.0145C76.0415 14.3383 75.9117 15.2918 75.9303 15.5617C75.9488 15.7776 76.2827 15.7056 76.431 15.9575Z" fill="#D4FA91"/>
<path fill-rule="evenodd" clip-rule="evenodd" d="M81.2717 14.5003C81.3273 15.04 82.403 15.04 82.5514 14.6442C82.6071 14.3923 82.6442 14.3204 82.6812 14.0325C82.7183 13.7986 82.6998 13.5828 82.7183 13.3309C82.7554 12.8452 82.8111 12.4494 82.8111 11.9457C82.774 11.8017 82.6442 11.5679 82.57 11.4239C82.4587 11.2081 82.4216 11.0641 82.2176 10.9922L81.9394 11.0102C81.8095 11.316 81.8466 11.6039 81.7725 11.9457C81.6983 12.2695 81.4386 13.5468 81.3644 13.7087C81.1419 14.2304 81.2161 14.2484 81.2717 14.5003Z" fill="#D4FA91"/>
<path fill-rule="evenodd" clip-rule="evenodd" d="M85.2407 16.6049C85.1851 16.8028 84.6658 17.8282 84.6658 17.8642L85.0367 17.8822C85.2036 17.9002 86.6688 17.7023 86.7801 17.6303C86.7986 17.4504 87.0398 16.8927 87.1139 16.6768C87.1696 16.4969 87.2252 16.335 87.2809 16.1911C87.318 16.0832 87.4292 15.8313 87.3365 15.7773C87.0397 15.8133 86.5575 16.0472 86.2793 16.1731C86.0939 16.2451 85.9269 16.317 85.76 16.407C85.556 16.4969 85.3891 16.5509 85.2407 16.6049Z" fill="#D4FA91"/>
<path fill-rule="evenodd" clip-rule="evenodd" d="M81.9208 16.8384C81.995 16.9103 82.0321 16.9283 82.0135 17.0183L81.7724 17.6119L81.6426 17.6299C82.1433 17.9897 84.1649 17.8818 84.5915 17.9178C84.6471 17.9178 84.7399 17.9358 84.7955 17.9358C84.8512 17.9358 84.8512 17.9358 84.9068 17.9178C85.0181 17.8818 84.9253 17.9178 84.9995 17.8818L84.6286 17.8638C84.6286 17.8278 85.1479 16.8024 85.2035 16.6045C84.6842 16.6944 84.2206 16.8743 83.6271 16.9283C82.9408 17.0183 82.5514 16.9643 81.9208 16.8384Z" fill="#669C66"/>
<path fill-rule="evenodd" clip-rule="evenodd" d="M77.5437 20.4548C77.4881 20.2569 77.2284 20.023 77.0986 19.8251C76.5607 19.1055 76.672 18.8896 76.4124 18.3679C76.3382 18.206 76.1527 17.8282 76.0414 17.7383C75.8745 17.7383 76.3382 20.5807 76.9502 21.2284C77.08 21.3723 77.1542 21.4802 77.3768 21.5702C77.4881 21.6061 77.5808 21.6601 77.655 21.6961C77.7663 21.7501 77.7848 21.786 77.9147 21.84C77.8776 21.7141 77.8219 21.6421 77.7848 21.4982C77.7477 21.3723 77.7292 21.2823 77.6921 21.1744C77.5808 20.8865 77.5437 20.7786 77.5437 20.4548Z" fill="#D4FA91"/>
<path fill-rule="evenodd" clip-rule="evenodd" d="M53.8968 17.8822C52.8025 18.2061 53.0065 19.5013 54.1935 19.4294C54.6387 19.3934 54.8983 18.9796 54.8798 18.5119C54.8612 18.0621 54.3976 17.7383 53.8968 17.8822Z" fill="#0A1714"/>
<path fill-rule="evenodd" clip-rule="evenodd" d="M37.0193 17.9725C36.5556 18.1164 36.2959 18.5302 36.4072 18.944C36.5185 19.4117 36.908 19.5916 37.4458 19.4477C37.7797 19.3577 38.1506 18.9799 38.095 18.4582C38.0393 17.9545 37.5015 17.8106 37.0193 17.9725Z" fill="#0A1714"/>
<path fill-rule="evenodd" clip-rule="evenodd" d="M21.2175 17.9724C21.0135 18.0803 20.9578 18.0983 20.8651 18.3681C20.4942 19.3396 21.4771 19.5195 21.9408 19.2856C22.2375 19.1417 22.6085 18.656 22.3488 18.2602C22.2005 17.9904 21.6441 17.7385 21.2175 17.9724Z" fill="#0A1714"/>
<path fill-rule="evenodd" clip-rule="evenodd" d="M105.271 16.7124C104.882 16.8563 104.603 17.0183 104.678 17.558C104.807 18.5114 106.421 18.1336 106.254 17.1802C106.217 16.8743 105.661 16.5685 105.271 16.7124Z" fill="#0A1714"/>
<path fill-rule="evenodd" clip-rule="evenodd" d="M97.9082 15.7055C96.7954 16.0293 97.2034 17.2347 98.242 16.9828C99.1879 16.7669 98.9653 15.3997 97.9082 15.7055Z" fill="#050505"/>
<path fill-rule="evenodd" clip-rule="evenodd" d="M80.6226 17.4686C80.9194 17.5226 81.4016 17.6665 81.6612 17.6485L81.7911 17.6305L82.0322 17.0368C82.0507 16.9469 82.0136 16.9109 81.9394 16.8569C81.587 16.8389 81.179 16.641 80.9936 16.641L80.771 16.623C80.6783 16.8029 80.5299 17.2887 80.6226 17.4686Z" fill="#D4FA91"/>
</g>
<defs>
<clipPath id="clip0_1122_1056">
<rect width="134" height="29" fill="white"/>
</clipPath>
</defs>
</svg>
