<svg width="913" height="440" viewBox="0 0 913 440" fill="none" xmlns="http://www.w3.org/2000/svg">
<path opacity="0.8" fill-rule="evenodd" clip-rule="evenodd" d="M756.788 -184.149C731.662 -162.117 705.792 -119.342 690.273 -48.4787C665.723 63.6252 692.081 174.403 736.414 268.262C787.826 221.67 833.316 147 864.686 37.9045C884.989 -32.7059 884.438 -89.2032 873.429 -129.437C862.329 -170.003 841.47 -191.966 822.162 -199.981C804.135 -207.464 781.116 -205.482 756.788 -184.149ZM766.138 324.531C833.934 268.522 888.646 178.922 924.266 55.0463C946.959 -23.8768 947.885 -92.2283 933.224 -145.809C918.654 -199.058 887.798 -239.876 845.924 -257.258C802.768 -275.173 755.135 -265.168 715.921 -230.782C677.505 -197.096 646.943 -140.42 629.714 -61.749C600.387 72.1642 634.361 201.103 685.176 304.754C613.153 343.429 529.83 339.97 446.503 297.803C411.344 280.011 389.59 258.169 376.866 234.854C405.854 237.746 434.097 237.112 460.2 232.026C502.012 223.879 539.994 203.849 564.335 167.136C600.477 112.625 610.724 44.528 584.115 -4.97501C570.294 -30.687 546.958 -49.956 515.543 -57.3078C484.931 -64.4713 449.448 -59.7304 410.71 -43.7769C394.666 -37.1694 379.642 -23.6605 367.134 -9.12695C354.024 6.10727 341.262 25.303 330.443 46.8432C314.912 77.7613 302.476 115.37 299.81 154.861C254.309 139.899 208.408 117.128 168.183 88.9932C116.03 52.5152 75.9413 8.81641 57.0823 -35.7041L0 -11.5095C24.9644 47.4242 74.8838 99.4066 132.657 139.815C184.986 176.416 245.83 204.995 305.493 221.319C318.624 272.864 353.495 320.235 418.518 353.139C516.759 402.853 622.069 409.207 714.671 359.318C755.667 428.59 802.284 483.961 838.14 518L880.817 473.019C848.548 442.384 804.631 390.313 766.138 324.531ZM361.281 170.233C393.743 175.652 423.463 176.005 448.346 171.156C478.501 165.281 499.823 152.238 512.67 132.861C540.523 90.8505 542.026 47.6726 529.512 24.3926C523.772 13.7133 514.83 6.21375 501.42 3.07571C487.207 -0.250488 465.319 0.797455 434.312 13.5671C431.56 14.7006 424.198 19.6192 414.118 31.3316C404.642 42.3432 394.616 57.2116 385.839 74.6854C371.273 103.682 361.326 137.427 361.281 170.233Z" fill="url(#paint0_linear_1095_1904)"/>
<defs>
<linearGradient id="paint0_linear_1095_1904" x1="878.477" y1="345.542" x2="-284.518" y2="-81.8276" gradientUnits="userSpaceOnUse">
<stop stop-color="#42B8EB" stop-opacity="0.12"/>
<stop offset="1" stop-color="#42B8EB" stop-opacity="0"/>
</linearGradient>
</defs>
</svg>