<svg width="133" height="76" viewBox="0 0 133 76" fill="none" xmlns="http://www.w3.org/2000/svg">
<path d="M0.675049 38C0.675049 24.936 0.675049 18.404 3.1501 13.3851C5.48681 8.64669 9.32174 4.81176 14.0601 2.47505C19.079 0 25.611 0 38.675 0H94.675C107.739 0 114.271 0 119.29 2.47505C124.028 4.81176 127.863 8.64669 130.2 13.3851C132.675 18.404 132.675 24.936 132.675 38C132.675 51.064 132.675 57.596 130.2 62.6149C127.863 67.3533 124.028 71.1882 119.29 73.5249C114.271 76 107.739 76 94.675 76H38.6751C25.611 76 19.079 76 14.0601 73.5249C9.32174 71.1882 5.48681 67.3533 3.1501 62.6149C0.675049 57.596 0.675049 51.064 0.675049 38Z" fill="white"/>
<path fill-rule="evenodd" clip-rule="evenodd" d="M40.2993 43.6619V43.9847C40.2993 44.5948 39.8041 45.0899 39.194 45.0899C38.5839 45.0899 38.0887 44.5948 38.0887 43.9847V43.6899H38.0475C36.3955 43.6899 35.0515 42.3415 35.0515 40.6836C35.0515 40.0735 35.5466 39.5784 36.1567 39.5784C36.7668 39.5784 37.262 40.0735 37.262 40.6836C37.262 41.1228 37.6142 41.4794 38.0475 41.4794H40.0252C40.6264 41.4794 41.1157 40.9901 41.1157 40.3889C41.1157 39.7861 40.6264 39.2969 40.0252 39.2969H38.4395C36.5708 39.2969 35.0515 37.7775 35.0515 35.9089C35.0515 34.1596 36.3866 32.7331 38.0887 32.5548V32.0464C38.0887 31.4362 38.5839 30.9411 39.194 30.9411C39.8041 30.9411 40.2993 31.4362 40.2993 32.0464V32.5194H40.3302C41.9822 32.5194 43.3247 33.8619 43.3247 35.511C43.3247 36.1211 42.8296 36.6752 42.2195 36.6752C41.6094 36.6752 41.1142 36.239 41.1142 35.6289V35.511C41.1142 35.0807 40.762 34.7299 40.3302 34.7299H38.4395C37.7896 34.7299 37.262 35.2575 37.262 35.9089C37.262 36.5588 37.7896 37.0864 38.4395 37.0864H40.0252C41.8452 37.0864 43.3262 38.5674 43.3262 40.3889C43.3262 42.1146 41.9896 43.5205 40.2993 43.6619ZM39.1881 24C31.469 24 25.1881 30.2809 25.1881 38C25.1881 45.7207 31.469 52 39.1881 52C46.9073 52 53.1881 45.7207 53.1881 38C53.1881 30.2809 46.9073 24 39.1881 24Z" fill="#1BD1D5"/>
<path d="M74.3722 43.7999H72.7722V40.2799H69.1882V38.7439H72.7722V35.2559H74.3722V38.7439H77.9402V40.2799H74.3722V43.7999Z" fill="#161819"/>
<path d="M83.776 31.9919C85.92 31.9919 87.504 33.0799 87.504 35.0479C87.504 37.5919 84.944 39.9119 81.568 42.2959H87.808V43.7999H79.408V42.3599C83.392 39.3199 85.76 37.2399 85.76 35.2239C85.76 34.0559 84.992 33.3199 83.728 33.3199C82.544 33.3199 81.392 33.9919 81.392 35.8639H79.696C79.648 33.5439 81.296 31.9919 83.776 31.9919Z" fill="#161819"/>
<path d="M93.5681 42.6639C95.3441 42.6639 96.3681 41.1119 96.3681 37.9919C96.3681 34.9039 95.3441 33.3199 93.5681 33.3199C91.8241 33.3199 90.7681 34.9039 90.7681 37.9919C90.7681 41.1119 91.8241 42.6639 93.5681 42.6639ZM93.5681 44.0079C90.4801 44.0079 89.0081 41.6239 89.0081 37.9919C89.0081 34.3759 90.4801 31.9919 93.5681 31.9919C96.6721 31.9919 98.1281 34.3759 98.1281 37.9919C98.1281 41.6239 96.6721 44.0079 93.5681 44.0079Z" fill="#161819"/>
<path d="M104.115 42.6639C105.891 42.6639 106.915 41.1119 106.915 37.9919C106.915 34.9039 105.891 33.3199 104.115 33.3199C102.371 33.3199 101.315 34.9039 101.315 37.9919C101.315 41.1119 102.371 42.6639 104.115 42.6639ZM104.115 44.0079C101.027 44.0079 99.555 41.6239 99.555 37.9919C99.555 34.3759 101.027 31.9919 104.115 31.9919C107.219 31.9919 108.675 34.3759 108.675 37.9919C108.675 41.6239 107.219 44.0079 104.115 44.0079Z" fill="#161819"/>
</svg>
