<svg width="204" height="145" viewBox="0 0 204 145" fill="none" xmlns="http://www.w3.org/2000/svg">
<g filter="url(#filter0_d_1095_1707)">
<path d="M34.321 51.9919C34.321 38.9279 34.321 32.3959 36.7961 27.377C39.1328 22.6386 42.9677 18.8037 47.7061 16.467C52.725 13.9919 59.257 13.9919 72.321 13.9919H131.462C144.526 13.9919 151.058 13.9919 156.077 16.467C160.816 18.8037 164.651 22.6386 166.987 27.377C169.462 32.3959 169.462 38.9279 169.462 51.9919C169.462 65.056 169.462 71.588 166.987 76.6069C164.651 81.3453 160.816 85.1802 156.077 87.5169C151.058 89.9919 144.526 89.9919 131.462 89.9919H72.3211C59.257 89.9919 52.725 89.9919 47.7061 87.5169C42.9677 85.1802 39.1328 81.3453 36.7961 76.6069C34.321 71.588 34.321 65.056 34.321 51.9919Z" fill="white"/>
<path d="M73.8974 48.4405C73.8823 48.4405 73.8674 48.4402 73.8525 48.4396H70.8968C70.8819 48.4402 70.867 48.4405 70.852 48.4405C70.8369 48.4405 70.822 48.4402 70.8071 48.4396H70.7071V50.4144H73.6725C73.6812 50.4142 73.69 50.4141 73.6988 50.4141H73.8976C74.429 50.3978 74.8539 49.9619 74.8539 49.427C74.8539 48.8957 74.4338 48.4621 73.9078 48.4405L73.8974 48.4405Z" fill="#42B8EB"/>
<path d="M70.7071 55.5469V52.6144L73.8931 52.6145L73.9068 52.6143L73.9218 52.6141H74.1414C74.9509 52.6141 75.6075 53.2706 75.6075 54.0808C75.6075 54.8904 74.9508 55.5469 74.1414 55.5469H70.7071Z" fill="#42B8EB"/>
<path fill-rule="evenodd" clip-rule="evenodd" d="M72.321 65.9919C80.053 65.9919 86.321 59.7239 86.321 51.9919C86.321 44.26 80.053 37.9919 72.321 37.9919C64.5891 37.9919 58.321 44.26 58.321 51.9919C58.321 59.7239 64.5891 65.9919 72.321 65.9919ZM71.952 45.992C71.952 45.3845 71.4595 44.892 70.852 44.892C70.2444 44.892 69.752 45.3845 69.752 45.992V46.2396H68.8231C68.2156 46.2396 67.7231 46.7321 67.7231 47.3396C67.7231 47.8373 68.0536 48.2577 68.5071 48.3935V55.5918C68.0516 55.7263 67.7192 56.1478 67.7192 56.6469C67.7192 57.2544 68.2117 57.7469 68.8192 57.7469H69.752V57.9922C69.752 58.5997 70.2444 59.0922 70.852 59.0922C71.4595 59.0922 71.952 58.5997 71.952 57.9922V57.7469H72.7974V57.9922C72.7974 58.5997 73.2898 59.0922 73.8974 59.0922C74.5049 59.0922 74.9974 58.5997 74.9974 57.9922V57.6464C76.6088 57.2608 77.8075 55.811 77.8075 54.0808C77.8075 52.944 77.2902 51.9278 76.478 51.2552C76.841 50.7373 77.0539 50.1068 77.0539 49.427C77.0539 48.0651 76.1994 46.9025 74.9974 46.4461V45.992C74.9974 45.3845 74.5049 44.892 73.8974 44.892C73.2898 44.892 72.7974 45.3845 72.7974 45.992V46.2396H71.952V45.992Z" fill="#42B8EB"/>
<path d="M107.505 56.7119H105.905V53.1919H102.321V51.6559H105.905V48.1679H107.505V51.6559H111.073V53.1919H107.505V56.7119Z" fill="#161819"/>
<path d="M116.525 56.7119H114.845V47.7519H112.205V46.6159C113.853 46.5679 114.749 46.3599 115.325 45.1119H116.525V56.7119Z" fill="#161819"/>
<path d="M118.85 56.7119V54.7119H120.85V56.8559L119.81 59.0799H118.77L119.73 56.7119H118.85Z" fill="#161819"/>
<path d="M126.753 44.9039C128.897 44.9039 130.481 45.9919 130.481 47.9599C130.481 50.5039 127.921 52.8239 124.545 55.2079H130.785V56.7119H122.385V55.2719C126.369 52.2319 128.737 50.1519 128.737 48.1359C128.737 46.9679 127.969 46.2319 126.705 46.2319C125.521 46.2319 124.369 46.9039 124.369 48.7759H122.673C122.625 46.4559 124.273 44.9039 126.753 44.9039Z" fill="#161819"/>
<path d="M138.433 48.8239C138.433 47.2399 137.473 46.2319 136.049 46.2319C134.625 46.2319 133.633 47.2399 133.633 48.8239C133.633 50.3919 134.625 51.4479 136.033 51.4479C137.441 51.4479 138.433 50.3919 138.433 48.8239ZM135.905 55.5759C137.601 55.5759 138.529 53.8959 138.609 51.3519C138.081 52.1839 137.105 52.8399 135.681 52.8399C133.537 52.8399 131.889 51.2399 131.889 48.8719C131.889 46.6319 133.537 44.9039 136.033 44.9039C138.977 44.9039 140.321 47.0479 140.321 50.5359C140.321 53.8639 139.121 56.9199 135.745 56.9199C133.425 56.9199 132.273 55.4319 132.097 53.9119H133.841C134.017 54.9999 134.769 55.5759 135.905 55.5759Z" fill="#161819"/>
<path d="M145.462 56.7119H143.782V47.7519H141.142V46.6159C142.79 46.5679 143.686 46.3599 144.262 45.1119H145.462V56.7119Z" fill="#161819"/>
</g>
<defs>
<filter id="filter0_d_1095_1707" x="0.321045" y="0.991943" width="203.141" height="144" filterUnits="userSpaceOnUse" color-interpolation-filters="sRGB">
<feFlood flood-opacity="0" result="BackgroundImageFix"/>
<feColorMatrix in="SourceAlpha" type="matrix" values="0 0 0 0 0 0 0 0 0 0 0 0 0 0 0 0 0 0 127 0" result="hardAlpha"/>
<feOffset dy="21"/>
<feGaussianBlur stdDeviation="17"/>
<feComposite in2="hardAlpha" operator="out"/>
<feColorMatrix type="matrix" values="0 0 0 0 0 0 0 0 0 0 0 0 0 0 0 0 0 0 0.06 0"/>
<feBlend mode="normal" in2="BackgroundImageFix" result="effect1_dropShadow_1095_1707"/>
<feBlend mode="normal" in="SourceGraphic" in2="effect1_dropShadow_1095_1707" result="shape"/>
</filter>
</defs>
</svg>
