<svg width="213" height="80" viewBox="0 0 213 80" fill="none" xmlns="http://www.w3.org/2000/svg">
<path d="M0.678833 38.4C0.678833 24.9587 0.678833 18.2381 3.29468 13.1042C5.59564 8.58834 9.26717 4.9168 13.7831 2.61584C18.9169 0 25.6376 0 39.0788 0H174.279C187.72 0 194.441 0 199.575 2.61584C204.09 4.9168 207.762 8.58834 210.063 13.1042C212.679 18.2381 212.679 24.9587 212.679 38.4V41.6C212.679 55.0413 212.679 61.7619 210.063 66.8958C207.762 71.4117 204.09 75.0832 199.575 77.3842C194.441 80 187.72 80 174.279 80H39.0788C25.6376 80 18.9169 80 13.7831 77.3842C9.26717 75.0832 5.59564 71.4117 3.29468 66.8958C0.678833 61.7619 0.678833 55.0413 0.678833 41.6V38.4Z" fill="white"/>
<path fill-rule="evenodd" clip-rule="evenodd" d="M41.4571 38.0769L36.0264 43.5103C35.8384 43.6983 35.5838 43.8036 35.3184 43.8036C35.0531 43.8036 34.7984 43.6983 34.6118 43.5103L31.9758 40.8703C31.5865 40.4783 31.5865 39.8449 31.9772 39.4543C32.3692 39.0649 33.0012 39.0663 33.3918 39.4556L35.3198 41.3876L40.0424 36.6622C40.4331 36.2716 41.0664 36.2716 41.4571 36.6622C41.8478 37.0529 41.8478 37.6863 41.4571 38.0769ZM48.2838 37.4476L47.3518 36.5156C46.9264 36.0889 46.6931 35.5209 46.6931 34.9196V33.5862C46.6931 31.6009 45.0771 29.9862 43.0931 29.9862H41.7571C41.1531 29.9862 40.5864 29.7529 40.1624 29.3289L39.2144 28.3822C37.8051 26.9849 35.5224 26.9916 34.1238 28.3969L33.1945 29.3289C32.7665 29.7542 32.1998 29.9876 31.5972 29.9876H30.2625C28.3012 29.9889 26.7012 31.5676 26.6652 33.5222C26.6638 33.5436 26.6625 33.5649 26.6625 33.5876V34.9169C26.6625 35.5196 26.4292 36.0862 26.0038 36.5116L25.0598 37.4569C25.0585 37.4609 25.0545 37.4623 25.0518 37.4649C23.6585 38.8756 23.6705 41.1583 25.0745 42.5489L26.0065 43.4836C26.4305 43.9089 26.6652 44.4743 26.6652 45.0769V46.4169C26.6652 48.4009 28.2785 50.0156 30.2625 50.0156H31.5945C32.1985 50.0169 32.7652 50.2503 33.1892 50.6729L34.1398 51.6209C34.8171 52.2943 35.7158 52.6649 36.6718 52.6649H36.6878C37.6491 52.6609 38.5504 52.2823 39.2251 51.6036L40.1598 50.6703C40.5798 50.2516 41.1611 50.0116 41.7544 50.0116H43.0958C45.0758 50.0116 46.6904 48.3996 46.6944 46.4169V45.0796C46.6944 44.4783 46.9278 43.9116 47.3504 43.4863L48.2984 42.5383C49.6984 41.1303 49.6904 38.8463 48.2838 37.4476Z" fill="#1BD1D5"/>
<path d="M73.4468 22.4V23.808H67.8468V34H66.2148V22.4H73.4468Z" fill="#161819"/>
<path d="M73.9947 29.728C73.9947 32.032 75.2427 32.928 76.5707 32.928C77.8987 32.928 79.1467 31.936 79.1467 29.728C79.1467 27.424 77.8987 26.528 76.5707 26.528C75.2427 26.528 73.9947 27.376 73.9947 29.728ZM76.5707 25.248C78.5707 25.248 80.6987 26.608 80.6987 29.728C80.6987 32.848 78.5707 34.208 76.5707 34.208C74.5707 34.208 72.4427 32.848 72.4427 29.728C72.4427 26.608 74.5707 25.248 76.5707 25.248Z" fill="#161819"/>
<path d="M88.591 26.656H85.647V34H84.191V26.656H81.247V25.392H88.591V26.656Z" fill="#161819"/>
<path d="M90.6978 29.728C90.6978 32.032 91.9458 32.928 93.2738 32.928C94.6019 32.928 95.8498 31.936 95.8498 29.728C95.8498 27.424 94.6019 26.528 93.2738 26.528C91.9458 26.528 90.6978 27.376 90.6978 29.728ZM93.2738 25.248C95.2738 25.248 97.4018 26.608 97.4018 29.728C97.4018 32.848 95.2738 34.208 93.2738 34.208C91.2738 34.208 89.1458 32.848 89.1458 29.728C89.1458 26.608 91.2738 25.248 93.2738 25.248Z" fill="#161819"/>
<path d="M99.2233 25.392H102.967C104.695 25.392 106.103 25.84 106.103 27.584C106.103 28.496 105.703 29.136 104.903 29.472C105.799 29.728 106.455 30.336 106.455 31.488C106.455 33.28 105.063 34 103.223 34H99.2233V25.392ZM100.679 29.008H102.871C103.943 29.008 104.583 28.72 104.583 27.744C104.583 26.848 103.911 26.656 102.823 26.656H100.679V29.008ZM100.679 30.208V32.736H102.999C104.279 32.736 104.935 32.368 104.935 31.472C104.935 30.512 104.295 30.208 102.951 30.208H100.679Z" fill="#161819"/>
<path d="M109.073 29.728C109.073 32.032 110.321 32.928 111.649 32.928C112.977 32.928 114.225 31.936 114.225 29.728C114.225 27.424 112.977 26.528 111.649 26.528C110.321 26.528 109.073 27.376 109.073 29.728ZM111.649 25.248C113.649 25.248 115.777 26.608 115.777 29.728C115.777 32.848 113.649 34.208 111.649 34.208C109.649 34.208 107.521 32.848 107.521 29.728C107.521 26.608 109.649 25.248 111.649 25.248Z" fill="#161819"/>
<path d="M73.9048 55H72.3088V46.208H67.4648V55H65.8688V44.85H73.9048V55Z" fill="#8A8E98" fill-opacity="0.6"/>
<path d="M82.2787 47.468V55H80.8227V48.63H78.4847L78.4147 50.044C78.2607 53.222 77.5887 55 75.6427 55H75.3767V53.838H75.5307C76.4268 53.838 76.8607 52.69 77.0147 49.82L77.1267 47.468H82.2787Z" fill="#8A8E98" fill-opacity="0.6"/>
<path d="M89.0112 51.962V51.416C86.6732 51.64 85.4412 51.976 85.4412 52.942C85.4412 53.628 85.9732 54.062 86.8692 54.062C88.0592 54.062 89.0112 53.46 89.0112 51.962ZM86.5472 55.182C85.0212 55.182 83.8592 54.342 83.8592 52.97C83.8592 51.136 86.0292 50.632 88.9412 50.338V50.184C88.9412 48.854 88.2412 48.406 87.3172 48.406C86.3092 48.406 85.7352 48.91 85.6792 49.848H84.2092C84.3212 48.238 85.6512 47.286 87.3732 47.286C89.3192 47.286 90.4252 48.224 90.4112 50.478C90.4112 50.66 90.3832 51.962 90.3832 52.284C90.3832 53.418 90.4532 54.328 90.5932 55H89.1932C89.1372 54.706 89.1092 54.496 89.0672 54.006C88.6192 54.776 87.7792 55.182 86.5472 55.182Z" fill="#8A8E98" fill-opacity="0.6"/>
<path d="M97.9281 48.63H95.2821V55H93.8261V48.63H91.1661V47.468H97.9281V48.63Z" fill="#8A8E98" fill-opacity="0.6"/>
<path d="M101.977 53.936C103.041 53.936 103.629 53.502 103.951 52.788H105.421C105.085 54.034 103.937 55.182 102.033 55.182C99.6114 55.182 98.2814 53.404 98.2814 51.22C98.2814 48.882 99.8494 47.328 101.991 47.328C104.315 47.328 105.673 49.232 105.519 51.682H99.7794C99.9334 53.082 100.787 53.936 101.977 53.936ZM101.977 48.518C100.843 48.518 100.017 49.092 99.8074 50.534H104.007C103.965 49.428 103.167 48.518 101.977 48.518Z" fill="#8A8E98" fill-opacity="0.6"/>
<path d="M107.886 55H106.136L108.908 51.052L106.374 47.468H108.04L110.084 50.52H111.008V47.468H112.464V50.52H113.374L115.432 47.468H117.112L114.578 51.024L117.336 55H115.614L113.374 51.682H112.464V55H111.008V51.682H110.126L107.886 55Z" fill="#8A8E98" fill-opacity="0.6"/>
<path d="M126.15 51.038C126.948 51.276 127.522 51.822 127.522 52.83C127.522 54.342 126.234 55.182 124.456 55.182C122.832 55.182 121.264 54.44 121.152 52.662H122.608C122.65 53.558 123.322 54.006 124.386 54.006C125.45 54.006 126.066 53.614 126.066 52.9C126.066 52.06 125.52 51.738 124.512 51.738H123.294V50.576H124.428C125.268 50.576 125.87 50.226 125.87 49.498C125.87 48.784 125.31 48.476 124.428 48.476C123.602 48.476 122.748 48.868 122.748 49.82H121.292C121.404 48.154 122.762 47.3 124.442 47.3C126.248 47.3 127.34 48.28 127.34 49.414C127.34 50.156 126.822 50.716 126.15 51.038Z" fill="#8A8E98" fill-opacity="0.6"/>
<path d="M133.691 51.962V51.416C131.353 51.64 130.121 51.976 130.121 52.942C130.121 53.628 130.653 54.062 131.549 54.062C132.739 54.062 133.691 53.46 133.691 51.962ZM131.227 55.182C129.701 55.182 128.539 54.342 128.539 52.97C128.539 51.136 130.709 50.632 133.621 50.338V50.184C133.621 48.854 132.921 48.406 131.997 48.406C130.989 48.406 130.415 48.91 130.359 49.848H128.889C129.001 48.238 130.331 47.286 132.053 47.286C133.999 47.286 135.105 48.224 135.091 50.478C135.091 50.66 135.063 51.962 135.063 52.284C135.063 53.418 135.133 54.328 135.273 55H133.873C133.817 54.706 133.789 54.496 133.747 54.006C133.299 54.776 132.459 55.182 131.227 55.182Z" fill="#8A8E98" fill-opacity="0.6"/>
<path d="M142.643 55H141.187V52.018C140.347 52.228 139.689 52.312 139.003 52.312C137.421 52.312 136.567 51.598 136.567 49.96V47.468H138.023V49.68C138.023 50.73 138.513 51.094 139.563 51.094C140.053 51.094 140.529 51.01 141.187 50.856V47.468H142.643V55Z" fill="#8A8E98" fill-opacity="0.6"/>
<path d="M146.167 55H144.739V47.468H146.167V52.914L149.849 47.468H151.277V55H149.849V49.568L146.167 55Z" fill="#8A8E98" fill-opacity="0.6"/>
<path d="M156.445 47.328C158.167 47.328 159.483 48.546 159.707 50.016H158.251C158.097 49.162 157.327 48.574 156.375 48.574C155.325 48.574 154.359 49.4 154.359 51.234C154.359 53.096 155.325 53.936 156.375 53.936C157.313 53.936 158.097 53.39 158.307 52.494H159.777C159.469 54.076 158.013 55.182 156.347 55.182C154.163 55.182 152.805 53.53 152.805 51.248C152.805 49.022 154.219 47.328 156.445 47.328Z" fill="#8A8E98" fill-opacity="0.6"/>
<path d="M167.345 47.468V55H165.889V48.63H163.551L163.481 50.044C163.327 53.222 162.655 55 160.709 55H160.443V53.838H160.597C161.493 53.838 161.927 52.69 162.081 49.82L162.193 47.468H167.345Z" fill="#8A8E98" fill-opacity="0.6"/>
<path d="M172.552 53.936C173.616 53.936 174.204 53.502 174.526 52.788H175.996C175.66 54.034 174.512 55.182 172.608 55.182C170.186 55.182 168.856 53.404 168.856 51.22C168.856 48.882 170.424 47.328 172.566 47.328C174.89 47.328 176.248 49.232 176.094 51.682H170.354C170.508 53.082 171.362 53.936 172.552 53.936ZM172.552 48.518C171.418 48.518 170.592 49.092 170.382 50.534H174.582C174.54 49.428 173.742 48.518 172.552 48.518Z" fill="#8A8E98" fill-opacity="0.6"/>
<path d="M184.186 55H182.73V51.724H179.062V55H177.606V47.468H179.062V50.562H182.73V47.468H184.186V55Z" fill="#8A8E98" fill-opacity="0.6"/>
<path d="M187.407 52.032H186.469L186.175 47.776V44.85H187.687V47.776L187.407 52.032ZM187.813 55H186.063V53.25H187.813V55Z" fill="#8A8E98" fill-opacity="0.6"/>
</svg>
