<svg width="146" height="76" viewBox="0 0 146 76" fill="none" xmlns="http://www.w3.org/2000/svg">
<path d="M0.692017 38C0.692017 24.936 0.692017 18.404 3.16707 13.3851C5.50378 8.64669 9.33871 4.81176 14.0771 2.47505C19.096 0 25.628 0 38.692 0H107.679C120.743 0 127.275 0 132.294 2.47505C137.032 4.81176 140.867 8.64669 143.204 13.3851C145.679 18.404 145.679 24.936 145.679 38C145.679 51.064 145.679 57.596 143.204 62.6149C140.867 67.3533 137.032 71.1882 132.294 73.5249C127.275 76 120.743 76 107.679 76H38.692C25.628 76 19.096 76 14.0771 73.5249C9.33871 71.1882 5.50378 67.3533 3.16707 62.6149C0.692017 57.596 0.692017 51.064 0.692017 38Z" fill="white"/>
<path d="M38.1935 34.43H40.4615C41.3015 34.43 41.9836 35.1132 41.9836 35.9532C41.9836 36.7865 41.3015 37.4652 40.4615 37.4652H38.1935V34.43Z" fill="#42B8EB"/>
<path fill-rule="evenodd" clip-rule="evenodd" d="M24.692 38C24.692 30.2808 30.9729 24 38.692 24C46.4112 24 52.692 30.2808 52.692 38C52.692 45.7192 46.4112 52 38.692 52C30.9729 52 24.692 45.7192 24.692 38ZM38.0362 40.1516H41.0204C43.343 40.1516 45.2337 38.2682 45.2337 35.9516C45.2337 33.6276 43.343 31.7368 41.0204 31.7368H36.931C36.3209 31.7368 35.8257 32.232 35.8257 32.8421V37.9411H35.5973C34.9872 37.9411 34.492 38.4362 34.492 39.0463C34.492 39.6564 34.9872 40.1516 35.5973 40.1516H35.8257V40.7411H35.5973C34.9872 40.7411 34.492 41.2362 34.492 41.8463C34.492 42.4564 34.9872 42.9516 35.5973 42.9516H35.8257V44.2632C35.8257 44.8733 36.3209 45.3684 36.931 45.3684C37.5411 45.3684 38.0362 44.8733 38.0362 44.2632V42.9516H39.1813C39.7914 42.9516 40.2865 42.4564 40.2865 41.8463C40.2865 41.2362 39.7914 40.7411 39.1813 40.7411H38.0362V40.1516Z" fill="#42B8EB"/>
<path d="M73.876 42.72H72.276V39.2H68.692V37.664H72.276V34.176H73.876V37.664H77.444V39.2H73.876V42.72Z" fill="#161819"/>
<path d="M83.0718 41.584C84.5278 41.584 85.5678 40.816 85.5678 39.472C85.5678 37.872 84.2238 37.36 82.4318 37.36H82.0318V35.904H82.3678C84.3038 35.904 85.2638 35.328 85.2638 34.048C85.2638 32.832 84.2878 32.24 83.1198 32.24C81.6478 32.24 80.8478 33.136 80.6718 34.48H79.0078C79.1838 32.352 80.7038 30.912 83.1998 30.912C85.1678 30.912 87.0078 31.728 87.0078 33.904C87.0078 35.072 86.3518 36.064 85.1998 36.56C86.7678 37.072 87.3118 38.256 87.3118 39.44C87.3118 41.792 85.2958 42.928 83.0398 42.928C80.3518 42.928 78.9758 41.2 78.8478 39.216H80.5118C80.6878 40.56 81.4878 41.584 83.0718 41.584Z" fill="#161819"/>
<path d="M88.6113 42.72V40.72H90.6113V42.864L89.5713 45.088H88.5313L89.4913 42.72H88.6113Z" fill="#161819"/>
<path d="M96.025 41.584C97.801 41.584 98.825 40.032 98.825 36.912C98.825 33.824 97.801 32.24 96.025 32.24C94.281 32.24 93.225 33.824 93.225 36.912C93.225 40.032 94.281 41.584 96.025 41.584ZM96.025 42.928C92.937 42.928 91.465 40.544 91.465 36.912C91.465 33.296 92.937 30.912 96.025 30.912C99.129 30.912 100.585 33.296 100.585 36.912C100.585 40.544 99.129 42.928 96.025 42.928Z" fill="#161819"/>
<path d="M106.572 41.584C108.348 41.584 109.372 40.032 109.372 36.912C109.372 33.824 108.348 32.24 106.572 32.24C104.828 32.24 103.772 33.824 103.772 36.912C103.772 40.032 104.828 41.584 106.572 41.584ZM106.572 42.928C103.484 42.928 102.012 40.544 102.012 36.912C102.012 33.296 103.484 30.912 106.572 30.912C109.676 30.912 111.132 33.296 111.132 36.912C111.132 40.544 109.676 42.928 106.572 42.928Z" fill="#161819"/>
<path d="M117.119 41.584C118.895 41.584 119.919 40.032 119.919 36.912C119.919 33.824 118.895 32.24 117.119 32.24C115.375 32.24 114.319 33.824 114.319 36.912C114.319 40.032 115.375 41.584 117.119 41.584ZM117.119 42.928C114.031 42.928 112.559 40.544 112.559 36.912C112.559 33.296 114.031 30.912 117.119 30.912C120.223 30.912 121.679 33.296 121.679 36.912C121.679 40.544 120.223 42.928 117.119 42.928Z" fill="#161819"/>
</svg>
