<svg width="136" height="77" viewBox="0 0 136 77" fill="none" xmlns="http://www.w3.org/2000/svg">
<path d="M0 38.9919C0 25.9279 0 19.3959 2.47505 14.377C4.81176 9.63864 8.64669 5.80371 13.3851 3.467C18.404 0.991943 24.936 0.991943 38 0.991943H97.1412C110.205 0.991943 116.737 0.991943 121.756 3.467C126.495 5.80371 130.329 9.63864 132.666 14.377C135.141 19.3959 135.141 25.9279 135.141 38.9919C135.141 52.056 135.141 58.588 132.666 63.6069C130.329 68.3453 126.495 72.1802 121.756 74.5169C116.737 76.9919 110.205 76.9919 97.1412 76.9919H38C24.936 76.9919 18.404 76.9919 13.3851 74.5169C8.64669 72.1802 4.81176 68.3453 2.47505 63.6069C0 58.588 0 52.056 0 38.9919Z" fill="white"/>
<path d="M39.5763 35.4405C39.5613 35.4405 39.5463 35.4402 39.5315 35.4396H36.5757C36.5609 35.4402 36.5459 35.4405 36.5309 35.4405C36.5159 35.4405 36.5009 35.4402 36.4861 35.4396H36.386V37.4144H39.3514C39.3602 37.4142 39.3689 37.4141 39.3777 37.4141H39.5765C40.1079 37.3978 40.5328 36.9619 40.5328 36.427C40.5328 35.8957 40.1127 35.4621 39.5867 35.4405L39.5763 35.4405Z" fill="#42B8EB"/>
<path d="M36.386 42.5469V39.6144L39.572 39.6145L39.5857 39.6143L39.6008 39.6141H39.8204C40.6299 39.6141 41.2865 40.2706 41.2865 41.0808C41.2865 41.8904 40.6297 42.5469 39.8204 42.5469H36.386Z" fill="#42B8EB"/>
<path fill-rule="evenodd" clip-rule="evenodd" d="M38 52.9919C45.732 52.9919 52 46.7239 52 38.9919C52 31.26 45.732 24.9919 38 24.9919C30.268 24.9919 24 31.26 24 38.9919C24 46.7239 30.268 52.9919 38 52.9919ZM37.6309 32.992C37.6309 32.3845 37.1384 31.892 36.5309 31.892C35.9234 31.892 35.4309 32.3845 35.4309 32.992V33.2396H34.5021C33.8946 33.2396 33.4021 33.7321 33.4021 34.3396C33.4021 34.8373 33.7326 35.2577 34.186 35.3935V42.5918C33.7306 42.7263 33.3982 43.1478 33.3982 43.6469C33.3982 44.2544 33.8907 44.7469 34.4982 44.7469H35.4309V44.9922C35.4309 45.5997 35.9234 46.0922 36.5309 46.0922C37.1384 46.0922 37.6309 45.5997 37.6309 44.9922V44.7469H38.4763V44.9922C38.4763 45.5997 38.9688 46.0922 39.5763 46.0922C40.1838 46.0922 40.6763 45.5997 40.6763 44.9922V44.6464C42.2878 44.2608 43.4865 42.811 43.4865 41.0808C43.4865 39.944 42.9691 38.9278 42.1569 38.2552C42.5199 37.7373 42.7328 37.1068 42.7328 36.427C42.7328 35.0651 41.8783 33.9025 40.6763 33.4461V32.992C40.6763 32.3845 40.1838 31.892 39.5763 31.892C38.9688 31.892 38.4763 32.3845 38.4763 32.992V33.2396H37.6309V32.992Z" fill="#42B8EB"/>
<path d="M73.184 43.7119H71.584V40.1919H68V38.6559H71.584V35.1679H73.184V38.6559H76.752V40.1919H73.184V43.7119Z" fill="#161819"/>
<path d="M82.2038 43.7119H80.5238V34.7519H77.8838V33.6159C79.5318 33.5679 80.4278 33.3599 81.0038 32.1119H82.2038V43.7119Z" fill="#161819"/>
<path d="M84.5286 43.7119V41.7119H86.5286V43.8559L85.4886 46.0799H84.4486L85.4086 43.7119H84.5286Z" fill="#161819"/>
<path d="M92.4315 31.9039C94.5755 31.9039 96.1595 32.9919 96.1595 34.9599C96.1595 37.5039 93.5995 39.8239 90.2235 42.2079H96.4635V43.7119H88.0635V42.2719C92.0475 39.2319 94.4155 37.1519 94.4155 35.1359C94.4155 33.9679 93.6475 33.2319 92.3835 33.2319C91.1995 33.2319 90.0475 33.9039 90.0475 35.7759H88.3515C88.3035 33.4559 89.9515 31.9039 92.4315 31.9039Z" fill="#161819"/>
<path d="M104.112 35.8239C104.112 34.2399 103.152 33.2319 101.728 33.2319C100.304 33.2319 99.3116 34.2399 99.3116 35.8239C99.3116 37.3919 100.304 38.4479 101.712 38.4479C103.12 38.4479 104.112 37.3919 104.112 35.8239ZM101.584 42.5759C103.28 42.5759 104.208 40.8959 104.288 38.3519C103.76 39.1839 102.784 39.8399 101.36 39.8399C99.2156 39.8399 97.5676 38.2399 97.5676 35.8719C97.5676 33.6319 99.2156 31.9039 101.712 31.9039C104.656 31.9039 106 34.0479 106 37.5359C106 40.8639 104.8 43.9199 101.424 43.9199C99.1036 43.9199 97.9516 42.4319 97.7756 40.9119H99.5196C99.6956 41.9999 100.448 42.5759 101.584 42.5759Z" fill="#161819"/>
<path d="M111.141 43.7119H109.461V34.7519H106.821V33.6159C108.469 33.5679 109.365 33.3599 109.941 32.1119H111.141V43.7119Z" fill="#161819"/>
</svg>

