<svg width="222" height="80" viewBox="0 0 222 80" fill="none" xmlns="http://www.w3.org/2000/svg">
<path d="M0.307983 38.4C0.307983 24.9587 0.307983 18.2381 2.92383 13.1042C5.22479 8.58834 8.89632 4.9168 13.4122 2.61584C18.5461 0 25.2667 0 38.708 0H182.908C196.349 0 203.07 0 208.204 2.61584C212.72 4.9168 216.391 8.58834 218.692 13.1042C221.308 18.2381 221.308 24.9587 221.308 38.4V41.6C221.308 55.0413 221.308 61.7619 218.692 66.8958C216.391 71.4117 212.72 75.0832 208.204 77.3842C203.07 80 196.349 80 182.908 80H38.708C25.2667 80 18.5461 80 13.4122 77.3842C8.89632 75.0832 5.22479 71.4117 2.92383 66.8958C0.307983 61.7619 0.307983 55.0413 0.307983 41.6V38.4Z" fill="white"/>
<path fill-rule="evenodd" clip-rule="evenodd" d="M27.8227 52.2319C27.8124 52.2323 27.8021 52.2324 27.7918 52.2324C26.5985 52.2324 25.4758 51.7751 24.6332 50.9457C23.7758 50.0817 23.3078 48.9564 23.3078 47.7657V38.0991C23.3078 37.195 23.7518 36.387 24.4972 35.9364C25.1878 35.5164 26.0305 35.4924 26.7505 35.8657L27.6198 36.319C27.8638 36.4444 28.1532 36.451 28.4278 36.3364L30.0665 35.599C30.133 35.572 30.1993 35.5514 30.2654 35.5367V31.0452C30.2654 30.1466 30.7067 29.3386 31.4454 28.8852C32.1347 28.4626 32.9747 28.4279 33.6961 28.7932L34.5761 29.2519C34.8281 29.3879 35.1041 29.3946 35.3668 29.2772L37.8281 28.1852C39.0921 27.6279 40.4814 27.6292 41.7428 28.1839L44.2068 29.2772C44.4694 29.3946 44.7468 29.3879 44.9828 29.2599L45.8694 28.7986C46.6001 28.4279 47.4388 28.4612 48.1294 28.8852C48.8681 29.3386 49.3081 30.1466 49.3081 31.0452L49.2974 46.3399C49.2974 49.9745 47.2588 52.2319 43.9761 52.2319H27.8227ZM30.2654 37.7029V47.7652C30.2654 49.1252 29.1561 50.2319 27.7921 50.2319L27.7658 50.2323C27.1102 50.2257 26.4965 49.9732 26.0438 49.5271C25.5692 49.0497 25.3078 48.4244 25.3078 47.7657V38.0991C25.3078 37.8044 25.4798 37.6791 25.5318 37.6471C25.6691 37.5608 25.7807 37.6168 25.8227 37.6379L25.8252 37.6391L26.7012 38.0951C27.4745 38.4951 28.3892 38.5244 29.2265 38.1711L30.2654 37.7029ZM43.1913 44.2852H36.6913C36.1393 44.2852 35.6913 43.8372 35.6913 43.2852C35.6913 42.7332 36.1393 42.2852 36.6913 42.2852H43.1913C43.7433 42.2852 44.1913 42.7332 44.1913 43.2852C44.1913 43.8372 43.7433 44.2852 43.1913 44.2852ZM38.4657 40.0869C38.6617 40.2816 38.9164 40.3789 39.1724 40.3789C39.4284 40.3789 39.6844 40.2816 39.879 40.0856L43.8951 36.0723C44.2857 35.6816 44.2857 35.0483 43.8951 34.6576C43.5057 34.2669 42.8724 34.2669 42.4817 34.6576L39.1724 37.9643L37.9164 36.7109C37.5257 36.3229 36.8924 36.3216 36.5017 36.7123C36.1124 37.1043 36.1124 37.7376 36.5031 38.1283L38.4657 40.0869Z" fill="#8A8E98" fill-opacity="0.5"/>
<path d="M70.6181 27.918C70.6181 30.452 72.0041 31.852 73.7821 31.852C75.5321 31.852 76.9321 30.452 76.9321 27.918C76.9321 25.37 75.5321 23.998 73.7821 23.998C72.0041 23.998 70.6181 25.37 70.6181 27.918ZM78.5701 27.918C78.5701 31.012 76.7221 33.182 73.7821 33.182C70.8281 33.182 68.9801 31.012 68.9801 27.918C68.9801 24.824 70.8281 22.668 73.7821 22.668C76.7221 22.668 78.5701 24.824 78.5701 27.918Z" fill="#161819"/>
<path d="M86.7916 25.468V33H85.3356V26.63H81.7516V33H80.2956V25.468H86.7916Z" fill="#161819"/>
<path d="M95.0272 25.468V33H93.5712V26.63H91.2332L91.1632 28.044C91.0092 31.222 90.3372 33 88.3912 33H88.1252V31.838H88.2792C89.1752 31.838 89.6092 30.69 89.7632 27.82L89.8752 25.468H95.0272Z" fill="#161819"/>
<path d="M101.76 29.962V29.416C99.4217 29.64 98.1897 29.976 98.1897 30.942C98.1897 31.628 98.7217 32.062 99.6177 32.062C100.808 32.062 101.76 31.46 101.76 29.962ZM99.2957 33.182C97.7697 33.182 96.6077 32.342 96.6077 30.97C96.6077 29.136 98.7777 28.632 101.69 28.338V28.184C101.69 26.854 100.99 26.406 100.066 26.406C99.0577 26.406 98.4837 26.91 98.4277 27.848H96.9577C97.0697 26.238 98.3997 25.286 100.122 25.286C102.068 25.286 103.174 26.224 103.16 28.478C103.16 28.66 103.132 29.962 103.132 30.284C103.132 31.418 103.202 32.328 103.342 33H101.942C101.886 32.706 101.858 32.496 101.816 32.006C101.368 32.776 100.528 33.182 99.2957 33.182Z" fill="#161819"/>
<path d="M110.677 26.63H108.031V33H106.575V26.63H103.915V25.468H110.677V26.63Z" fill="#161819"/>
<path d="M116.17 29.962V29.416C113.832 29.64 112.6 29.976 112.6 30.942C112.6 31.628 113.132 32.062 114.028 32.062C115.218 32.062 116.17 31.46 116.17 29.962ZM113.706 33.182C112.18 33.182 111.018 32.342 111.018 30.97C111.018 29.136 113.188 28.632 116.1 28.338V28.184C116.1 26.854 115.4 26.406 114.476 26.406C113.468 26.406 112.894 26.91 112.838 27.848H111.368C111.48 26.238 112.81 25.286 114.532 25.286C116.478 25.286 117.584 26.224 117.57 28.478C117.57 28.66 117.542 29.962 117.542 30.284C117.542 31.418 117.612 32.328 117.752 33H116.352C116.296 32.706 116.268 32.496 116.226 32.006C115.778 32.776 114.938 33.182 113.706 33.182Z" fill="#161819"/>
<path d="M125.771 25.328C127.493 25.328 128.809 26.546 129.033 28.016H127.577C127.423 27.162 126.653 26.574 125.701 26.574C124.651 26.574 123.685 27.4 123.685 29.234C123.685 31.096 124.651 31.936 125.701 31.936C126.639 31.936 127.423 31.39 127.633 30.494H129.103C128.795 32.076 127.339 33.182 125.673 33.182C123.489 33.182 122.131 31.53 122.131 29.248C122.131 27.022 123.545 25.328 125.771 25.328Z" fill="#161819"/>
<path d="M136.224 33H134.768V30.018C133.928 30.228 133.27 30.312 132.584 30.312C131.002 30.312 130.148 29.598 130.148 27.96V25.468H131.604V27.68C131.604 28.73 132.094 29.094 133.144 29.094C133.634 29.094 134.11 29.01 134.768 28.856V25.468H136.224V33Z" fill="#161819"/>
<path d="M141.427 31.936C142.491 31.936 143.079 31.502 143.401 30.788H144.871C144.535 32.034 143.387 33.182 141.483 33.182C139.061 33.182 137.731 31.404 137.731 29.22C137.731 26.882 139.299 25.328 141.441 25.328C143.765 25.328 145.123 27.232 144.969 29.682H139.229C139.383 31.082 140.237 31.936 141.427 31.936ZM141.427 26.518C140.293 26.518 139.467 27.092 139.257 28.534H143.457C143.415 27.428 142.617 26.518 141.427 26.518Z" fill="#161819"/>
<path d="M152.157 26.63H149.511V33H148.055V26.63H145.395V25.468H152.157V26.63Z" fill="#161819"/>
<path d="M157.65 29.962V29.416C155.312 29.64 154.08 29.976 154.08 30.942C154.08 31.628 154.612 32.062 155.508 32.062C156.698 32.062 157.65 31.46 157.65 29.962ZM155.186 33.182C153.66 33.182 152.498 32.342 152.498 30.97C152.498 29.136 154.668 28.632 157.58 28.338V28.184C157.58 26.854 156.88 26.406 155.956 26.406C154.948 26.406 154.374 26.91 154.318 27.848H152.848C152.96 26.238 154.29 25.286 156.012 25.286C157.958 25.286 159.064 26.224 159.05 28.478C159.05 28.66 159.022 29.962 159.022 30.284C159.022 31.418 159.092 32.328 159.232 33H157.832C157.776 32.706 157.748 32.496 157.706 32.006C157.258 32.776 156.418 33.182 155.186 33.182Z" fill="#161819"/>
<path d="M82.7701 49.216C82.7701 50.854 81.8741 51.806 80.5301 51.806C79.1721 51.806 78.2761 50.854 78.2761 49.216C78.2761 47.536 79.2841 46.668 80.5301 46.668C81.7761 46.668 82.7701 47.48 82.7701 49.216ZM81.5521 49.216C81.5521 48.278 81.1881 47.704 80.5301 47.704C79.8161 47.704 79.4801 48.278 79.4801 49.216C79.4801 50.112 79.8021 50.742 80.5301 50.742C81.2021 50.742 81.5521 50.112 81.5521 49.216ZM82.7001 53.612H78.3601V52.408H82.7001V53.612ZM77.6741 57H75.5881L70.9401 48.334V57H69.5121V46.85H71.6121L76.2461 55.488V46.85H77.6741V57Z" fill="#8A8E98" fill-opacity="0.6"/>
<path d="M85.4345 53.752C85.4345 55.152 86.3025 56.118 87.6465 56.118C88.9345 56.118 89.8725 55.138 89.8725 53.752C89.8725 52.366 88.9625 51.344 87.6605 51.344C86.3305 51.344 85.4345 52.366 85.4345 53.752ZM87.7725 47.732C86.1905 47.732 85.3505 49.3 85.2805 51.652C85.7425 50.854 86.6105 50.238 87.9545 50.238C89.8445 50.238 91.2305 51.652 91.2305 53.682C91.2305 55.572 89.8305 57.182 87.6605 57.182C85.1265 57.182 83.9645 55.418 83.9645 52.282C83.9645 49.426 84.9725 46.668 87.9265 46.668C89.9145 46.668 90.8385 47.914 91.0625 49.202H89.6765C89.5085 48.292 88.8225 47.732 87.7725 47.732Z" fill="#8A8E98" fill-opacity="0.6"/>
<path d="M97.1837 48.6L93.5577 53.29H97.1837V48.6ZM100.334 53.29V54.494H98.4717V57H97.1837V54.494H92.1437V53.29L97.1697 46.85H98.4717V53.29H100.334Z" fill="#8A8E98" fill-opacity="0.6"/>
<path d="M104.436 57H103.162V49.062H100.81V48.194C102.252 48.152 103.022 47.942 103.568 46.85H104.436V57Z" fill="#8A8E98" fill-opacity="0.6"/>
<path d="M111.074 48.6L107.448 53.29H111.074V48.6ZM114.224 53.29V54.494H112.362V57H111.074V54.494H106.034V53.29L111.06 46.85H112.362V53.29H114.224Z" fill="#8A8E98" fill-opacity="0.6"/>
<path d="M116.675 53.752C116.675 55.152 117.543 56.118 118.887 56.118C120.175 56.118 121.113 55.138 121.113 53.752C121.113 52.366 120.203 51.344 118.901 51.344C117.571 51.344 116.675 52.366 116.675 53.752ZM119.013 47.732C117.431 47.732 116.591 49.3 116.521 51.652C116.983 50.854 117.851 50.238 119.195 50.238C121.085 50.238 122.471 51.652 122.471 53.682C122.471 55.572 121.071 57.182 118.901 57.182C116.367 57.182 115.205 55.418 115.205 52.282C115.205 49.426 116.213 46.668 119.167 46.668C121.155 46.668 122.079 47.914 122.303 49.202H120.917C120.749 48.292 120.063 47.732 119.013 47.732Z" fill="#8A8E98" fill-opacity="0.6"/>
<path d="M126.94 57H125.666V49.062H123.314V48.194C124.756 48.152 125.526 47.942 126.072 46.85H126.94V57Z" fill="#8A8E98" fill-opacity="0.6"/>
<path d="M134.474 50.658V46.85H135.748V57H134.474V55.866C134.012 56.664 133.228 57.182 132.01 57.182C130.274 57.182 128.79 55.768 128.79 53.262C128.79 50.798 130.274 49.342 132.01 49.342C133.228 49.342 134.012 49.86 134.474 50.658ZM134.53 53.262C134.53 51.274 133.466 50.434 132.332 50.434C131.03 50.434 130.176 51.456 130.176 53.262C130.176 55.068 131.03 56.09 132.332 56.09C133.466 56.09 134.53 55.25 134.53 53.262Z" fill="#8A8E98" fill-opacity="0.6"/>
<path d="M140.697 56.118C142.041 56.118 142.993 55.432 142.993 54.158C142.993 52.702 141.691 52.226 140.067 52.226H139.857V51.064H140.025C141.803 51.064 142.727 50.574 142.727 49.384C142.727 48.306 141.831 47.732 140.753 47.732C139.395 47.732 138.653 48.544 138.541 49.706H137.225C137.38 47.914 138.653 46.668 140.781 46.668C142.531 46.668 144.071 47.382 144.071 49.244C144.071 50.294 143.483 51.162 142.419 51.596C143.931 52.086 144.351 53.066 144.351 54.144C144.351 56.188 142.629 57.182 140.683 57.182C138.275 57.182 137.225 55.698 137.071 54.004H138.387C138.541 55.25 139.255 56.118 140.697 56.118Z" fill="#8A8E98" fill-opacity="0.6"/>
<path d="M148.914 56.118C150.258 56.118 151.21 55.432 151.21 54.158C151.21 52.702 149.908 52.226 148.284 52.226H148.074V51.064H148.242C150.02 51.064 150.944 50.574 150.944 49.384C150.944 48.306 150.048 47.732 148.97 47.732C147.612 47.732 146.87 48.544 146.758 49.706H145.442C145.596 47.914 146.87 46.668 148.998 46.668C150.748 46.668 152.288 47.382 152.288 49.244C152.288 50.294 151.7 51.162 150.636 51.596C152.148 52.086 152.568 53.066 152.568 54.144C152.568 56.188 150.846 57.182 148.9 57.182C146.492 57.182 145.442 55.698 145.288 54.004H146.604C146.758 55.25 147.472 56.118 148.914 56.118Z" fill="#8A8E98" fill-opacity="0.6"/>
<path d="M157.131 56.118C158.475 56.118 159.427 55.432 159.427 54.158C159.427 52.702 158.125 52.226 156.501 52.226H156.291V51.064H156.459C158.237 51.064 159.161 50.574 159.161 49.384C159.161 48.306 158.265 47.732 157.187 47.732C155.829 47.732 155.087 48.544 154.975 49.706H153.659C153.813 47.914 155.087 46.668 157.215 46.668C158.965 46.668 160.505 47.382 160.505 49.244C160.505 50.294 159.917 51.162 158.853 51.596C160.365 52.086 160.785 53.066 160.785 54.144C160.785 56.188 159.063 57.182 157.117 57.182C154.709 57.182 153.659 55.698 153.505 54.004H154.821C154.975 55.25 155.689 56.118 157.131 56.118Z" fill="#8A8E98" fill-opacity="0.6"/>
<path d="M165.194 57H163.92V49.062H161.568V48.194C163.01 48.152 163.78 47.942 164.326 46.85H165.194V57Z" fill="#8A8E98" fill-opacity="0.6"/>
<path d="M170.782 46.668C172.658 46.668 174.002 47.606 174.002 49.328C174.002 51.68 171.552 53.752 168.71 55.81H174.282V57H166.974V55.852C170.558 53.206 172.658 51.302 172.658 49.496C172.658 48.432 171.972 47.732 170.754 47.732C169.662 47.732 168.612 48.334 168.57 50.014H167.254C167.212 47.998 168.612 46.668 170.782 46.668Z" fill="#8A8E98" fill-opacity="0.6"/>
<path d="M179.194 46.668C181.266 46.668 182.582 47.76 182.582 49.258C182.582 50.098 182.19 51.036 181.182 51.596C182.484 52.114 182.89 53.22 182.89 54.144C182.89 56.09 181.266 57.182 179.194 57.182C177.108 57.182 175.484 56.09 175.484 54.144C175.484 53.234 175.876 52.114 177.206 51.596C176.198 51.036 175.806 50.098 175.806 49.258C175.806 47.76 177.122 46.668 179.194 46.668ZM179.194 52.128C177.738 52.128 176.842 52.954 176.842 54.144C176.842 55.334 177.738 56.118 179.194 56.118C180.636 56.118 181.546 55.334 181.546 54.144C181.546 52.954 180.636 52.128 179.194 52.128ZM181.294 49.412C181.294 48.404 180.468 47.732 179.194 47.732C177.906 47.732 177.08 48.404 177.08 49.412C177.08 50.434 177.92 51.19 179.194 51.19C180.468 51.19 181.294 50.434 181.294 49.412Z" fill="#8A8E98" fill-opacity="0.6"/>
</svg>
