<svg width="40" height="40" viewBox="0 0 40 40" fill="none" xmlns="http://www.w3.org/2000/svg">
<path fill-rule="evenodd" clip-rule="evenodd" d="M11.6079 5.70312C9.26733 5.70312 7.2712 6.53991 5.86631 8.04709C4.47051 9.54451 3.75 11.6037 3.75 13.8983V24.8762C3.75 27.1692 4.4668 29.2287 5.86153 30.7268C7.26565 32.235 9.26242 33.0713 11.6079 33.0713H17.152C17.8424 33.0713 18.402 32.5117 18.402 31.8213C18.402 31.131 17.8424 30.5713 17.152 30.5713H11.6079C9.87994 30.5713 8.57278 29.9701 7.69131 29.0233C6.80045 28.0664 6.25 26.6533 6.25 24.8762V17.0347H33.7488V19.3873C33.7488 20.0777 34.3085 20.6373 34.9988 20.6373C35.6892 20.6373 36.2488 20.0777 36.2488 19.3873V13.8983C36.2488 11.6052 35.532 9.54578 34.1373 8.04765C32.7332 6.53943 30.7364 5.70312 28.391 5.70312H11.6079ZM33.7488 14.5347V13.8983C33.7488 12.1212 33.1984 10.7081 32.3075 9.75114C31.4261 8.80433 30.1189 8.20312 28.391 8.20312H11.6079C9.88638 8.20312 8.57858 8.80385 7.69504 9.75171C6.80241 10.7093 6.25 12.1227 6.25 13.8983V14.5347H33.7488Z" fill="#42B8EB"/>
<path d="M32.1047 22.5195C32.795 22.5195 33.3547 23.0791 33.3547 23.7695V30.0973L34.1316 29.3477C34.6284 28.8684 35.4198 28.8826 35.8991 29.3794C36.3784 29.8763 36.3642 30.6676 35.8674 31.1469L33.0364 33.8781C32.8076 34.1338 32.4749 34.2948 32.1047 34.2948C31.7315 34.2948 31.3965 34.1313 31.1674 33.8719L28.3414 31.1472C27.8444 30.668 27.83 29.8767 28.3091 29.3797C28.7883 28.8827 29.5796 28.8683 30.0766 29.3474L30.8547 30.0976V23.7695C30.8547 23.0791 31.4143 22.5195 32.1047 22.5195Z" fill="#42B8EB"/>
<path d="M23.1903 25.8843V32.218C23.1903 32.9084 23.75 33.468 24.4403 33.468C25.1307 33.468 25.6903 32.9084 25.6903 32.218V25.8854L26.4675 26.6349C26.9645 27.114 27.7558 27.0996 28.235 26.6027C28.7142 26.1057 28.6998 25.3144 28.2028 24.8352L25.3392 22.0741C25.112 21.8389 24.7932 21.6927 24.4403 21.6927C24.4401 21.6927 24.4405 21.6927 24.4403 21.6927C24.1272 21.6925 23.8136 21.8093 23.5713 22.0431L20.6768 24.8354C20.18 25.3147 20.1658 26.106 20.6451 26.6029C21.1244 27.0997 21.9157 27.1139 22.4125 26.6346L23.1903 25.8843Z" fill="#42B8EB"/>
</svg>