<svg width="40" height="40" viewBox="0 0 40 40" fill="none" xmlns="http://www.w3.org/2000/svg">
<path fill-rule="evenodd" clip-rule="evenodd" d="M8.61682 16.0127C6.02431 15.4418 4.08374 13.1301 4.08374 10.3664C4.08374 7.17407 6.67288 4.58496 9.8652 4.58496C13.0575 4.58496 15.6467 7.17407 15.6467 10.3664C15.6467 13.129 13.7077 15.4398 11.1168 16.012V16.8839C11.1168 18.2581 12.2315 19.3728 13.6055 19.3728H26.4182C27.7921 19.3728 28.9069 18.2581 28.9069 16.8839V16.0171C26.3043 15.4537 24.3535 13.1373 24.3535 10.3664C24.3535 7.17403 26.9428 4.58496 30.135 4.58496C33.3273 4.58496 35.9166 7.17404 35.9166 10.3664C35.9166 13.1218 33.9876 15.4278 31.4069 16.0075V16.8839C31.4069 19.6387 29.1729 21.8728 26.4182 21.8728H21.2607V24.8851C23.8535 25.4559 25.7942 27.7677 25.7942 30.5315C25.7942 33.7239 23.2051 36.313 20.0126 36.313C16.8204 36.313 14.2312 33.7239 14.2312 30.5315C14.2312 27.7691 16.17 25.4582 18.7607 24.8859V21.8728H13.6055C10.8507 21.8728 8.61682 19.6387 8.61682 16.8839V16.0127ZM6.58374 10.3664C6.58374 8.55479 8.05358 7.08496 9.8652 7.08496C11.6768 7.08496 13.1467 8.55479 13.1467 10.3664C13.1467 12.15 11.7219 13.6023 9.94902 13.6468C9.92185 13.6451 9.89444 13.6442 9.86682 13.6442C9.8389 13.6442 9.81119 13.6451 9.78373 13.6469C8.00972 13.6036 6.58374 12.1508 6.58374 10.3664ZM30.1569 13.6442C30.1824 13.6442 30.2078 13.6449 30.2329 13.6464C31.9993 13.5946 33.4166 12.1452 33.4166 10.3664C33.4166 8.55483 31.9466 7.08496 30.135 7.08496C28.3235 7.08496 26.8535 8.55483 26.8535 10.3664C26.8535 12.1558 28.2878 13.6119 30.0688 13.6472C30.0979 13.6452 30.1272 13.6442 30.1569 13.6442ZM16.7312 30.5315C16.7312 28.7199 18.2011 27.2499 20.0126 27.2499C21.8243 27.2499 23.2942 28.7199 23.2942 30.5315C23.2942 32.3432 21.8243 33.813 20.0126 33.813C18.2011 33.813 16.7312 32.3432 16.7312 30.5315Z" fill="#42B8EB"/>
</svg>