<svg width="41" height="40" viewBox="0 0 41 40" fill="none" xmlns="http://www.w3.org/2000/svg">
<path fill-rule="evenodd" clip-rule="evenodd" d="M9.05516 11.7824C9.43389 7.97205 12.6388 5.06885 16.4686 5.06885H24.8702C28.7001 5.06885 31.905 7.97205 32.2837 11.7824L32.6737 15.7185C33.5368 15.8327 34.4004 15.959 35.2645 16.0972C35.9462 16.2063 36.4104 16.8473 36.3013 17.529C36.1923 18.2107 35.5512 18.6749 34.8695 18.5658C25.327 17.039 15.8608 17.0179 6.47022 18.5649C5.78905 18.6771 5.14588 18.2159 5.03366 17.5347C4.92145 16.8535 5.38268 16.2104 6.06385 16.0981C6.93071 15.9553 7.79815 15.8255 8.66615 15.7087L9.05516 11.7824ZM11.2086 15.4035C17.4879 14.7413 23.7965 14.7524 30.1316 15.417L29.796 12.0297C29.5443 9.49764 27.4148 7.56885 24.8702 7.56885H16.4686C13.9242 7.56885 11.7948 9.49745 11.5429 12.0293L11.2086 15.4035Z" fill="#42B8EB"/>
<path fill-rule="evenodd" clip-rule="evenodd" d="M18.7893 26.3525C18.0698 23.6137 15.5772 21.5938 12.6124 21.5938C9.08523 21.5938 6.22644 24.4529 6.22644 27.98C6.22644 31.5072 9.08533 34.3658 12.6124 34.3658C15.8349 34.3658 18.4996 31.9797 18.9359 28.8776C20.1436 28.5925 21.2925 28.5944 22.3995 28.8631C22.8295 31.9722 25.4975 34.3658 28.725 34.3658C32.2521 34.3658 35.111 31.5072 35.111 27.98C35.111 24.4529 32.2522 21.5938 28.725 21.5938C25.7654 21.5938 23.2765 23.6067 22.552 26.3381C21.3215 26.0991 20.0646 26.1047 18.7893 26.3525ZM12.6124 24.0938C10.466 24.0938 8.72644 25.8335 8.72644 27.98C8.72644 30.1264 10.4659 31.8658 12.6124 31.8658C14.759 31.8658 16.4985 30.1263 16.4985 27.98L16.4984 27.9482C16.4981 27.9374 16.498 27.9267 16.498 27.9159C16.4638 25.799 14.7375 24.0938 12.6124 24.0938ZM28.725 24.0938C26.5786 24.0938 24.839 25.8335 24.839 27.98C24.839 30.1264 26.5785 31.8658 28.725 31.8658C30.8715 31.8658 32.611 30.1264 32.611 27.98C32.611 25.8335 30.8714 24.0938 28.725 24.0938Z" fill="#42B8EB"/>
</svg>