<svg width="40" height="40" viewBox="0 0 40 40" fill="none" xmlns="http://www.w3.org/2000/svg">
<path fill-rule="evenodd" clip-rule="evenodd" d="M16.3148 13.3689C16.3148 12.6785 16.8744 12.1189 17.5648 12.1189H22.26C24.9189 12.1189 27.0765 14.2735 27.0765 16.9339C27.0765 19.5937 24.9196 21.75 22.2609 21.7519H18.8148V22.4533H20.1475C20.8378 22.4533 21.3975 23.013 21.3975 23.7033C21.3975 24.3937 20.8378 24.9533 20.1475 24.9533H18.8148V26.4893C18.8148 27.1796 18.2551 27.7393 17.5648 27.7393C16.8744 27.7393 16.3148 27.1796 16.3148 26.4893V24.9533H16.0345C15.3441 24.9533 14.7845 24.3937 14.7845 23.7033C14.7845 23.013 15.3441 22.4533 16.0345 22.4533H16.3148V21.7519H16.0345C15.3441 21.7519 14.7845 21.1923 14.7845 20.5019C14.7845 19.8115 15.3441 19.2519 16.0345 19.2519H16.3148V13.3689ZM18.8148 19.2519H22.259C23.5389 19.251 24.5765 18.2127 24.5765 16.9339C24.5765 15.6557 23.5396 14.6189 22.26 14.6189H18.8148V19.2519Z" fill="#42B8EB"/>
<path fill-rule="evenodd" clip-rule="evenodd" d="M6.74783 6.30184C8.33343 4.60074 10.5904 3.65015 13.2516 3.65015H26.7471C29.4144 3.65015 31.6724 4.6002 33.2573 6.30231C34.8328 7.99436 35.6501 10.328 35.6501 12.9424V25.6579C35.6501 28.2722 34.8328 30.606 33.257 32.298C31.6719 34.0002 29.4135 34.9501 26.7455 34.9501H13.2516C10.5842 34.9501 8.32655 34.0001 6.74201 32.2978C5.16689 30.6057 4.3501 28.272 4.3501 25.6579V12.9424C4.3501 10.3267 5.17133 7.99319 6.74783 6.30184ZM8.5766 8.00643C7.50312 9.15811 6.8501 10.8457 6.8501 12.9424V25.6579C6.8501 27.7561 7.50055 29.4435 8.5719 30.5945C9.63385 31.7353 11.2019 32.4501 13.2516 32.4501H26.7455C28.7961 32.4501 30.365 31.7352 31.4275 30.5943C32.4994 29.4433 33.1501 27.7559 33.1501 25.6579V12.9424C33.1501 10.8444 32.4994 9.15694 31.4277 8.00596C30.3653 6.86504 28.7968 6.15015 26.7471 6.15015H13.2516C11.2097 6.15015 9.64099 6.8645 8.5766 8.00643Z" fill="#42B8EB"/>
</svg>