<svg width="40" height="40" viewBox="0 0 40 40" fill="none" xmlns="http://www.w3.org/2000/svg">
<path d="M15.9594 15.894C16.4475 15.4059 17.239 15.4059 17.7271 15.894L19.975 18.1419L22.2229 15.894C22.711 15.4059 23.5025 15.4059 23.9906 15.894C24.4788 16.3822 24.4788 17.1736 23.9906 17.6618L21.7428 19.9097L23.9905 22.1574C24.4786 22.6455 24.4786 23.437 23.9905 23.9251C23.5023 24.4133 22.7109 24.4133 22.2227 23.9251L19.975 21.6774L17.7273 23.9251C17.2392 24.4133 16.4477 24.4133 15.9595 23.9251C15.4714 23.437 15.4714 22.6455 15.9595 22.1574L18.2072 19.9097L15.9594 17.6618C15.4712 17.1736 15.4712 16.3822 15.9594 15.894Z" fill="#42B8EB"/>
<path fill-rule="evenodd" clip-rule="evenodd" d="M18.7426 3.50697C19.1704 3.41308 19.6182 3.33325 19.9751 3.33325C20.3319 3.33325 20.7798 3.41308 21.2076 3.50697C21.665 3.60733 22.2056 3.74854 22.7919 3.91622C23.9663 4.25208 25.3704 4.70742 26.7468 5.19271C28.1225 5.67774 29.4884 6.19897 30.5843 6.66872C31.1309 6.90299 31.6256 7.13094 32.0266 7.34054C32.3815 7.52598 32.8028 7.76637 33.0823 8.04603C33.467 8.43073 33.7631 8.86457 33.9296 9.50674C34.0732 10.0608 34.1088 10.7339 34.1151 11.5699C34.1202 12.2552 34.1043 13.137 34.0838 14.2723C34.0787 14.555 34.0733 14.8537 34.0679 15.1686C34.0406 16.7598 34.0118 18.8057 34.0118 21.4649C34.0118 27.3695 30.4585 31.3348 27.0989 33.7543C25.4115 34.9695 23.7321 35.8275 22.4783 36.3815C21.8496 36.6593 21.3234 36.8628 20.9504 36.9979C20.7638 37.0655 20.6153 37.1162 20.5111 37.1507C20.459 37.1679 20.4179 37.1811 20.3887 37.1903L20.3539 37.2012L20.3433 37.2045L20.3397 37.2056L20.3384 37.206C20.3378 37.2061 20.3373 37.2063 19.9751 36.0099C19.6129 37.2063 19.6124 37.2061 19.6118 37.206L19.6105 37.2056L19.6069 37.2045L19.5963 37.2012L19.5615 37.1903C19.5323 37.1811 19.4912 37.1679 19.4391 37.1507C19.3349 37.1162 19.1863 37.0655 18.9998 36.9979C18.6268 36.8628 18.1006 36.6593 17.4719 36.3815C16.2181 35.8275 14.5387 34.9695 12.8513 33.7543C9.49169 31.3348 5.93843 27.3695 5.93843 21.4649C5.93843 18.8057 5.90958 16.7598 5.88224 15.1687C5.87679 14.8518 5.87137 14.5517 5.86624 14.2675C5.84578 13.1346 5.82989 12.2543 5.83492 11.5701C5.84107 10.7342 5.87648 10.0613 6.01975 9.50742C6.18579 8.86553 6.48121 8.43166 6.8655 8.04675L6.86621 8.04603C7.14572 7.76653 7.56725 7.52608 7.92264 7.34043C8.32381 7.13088 8.81855 6.90295 9.36524 6.66868C10.4614 6.19895 11.8275 5.67772 13.2032 5.1927C14.5798 4.70742 15.9839 4.25207 17.1583 3.91622C17.7446 3.74854 18.2852 3.60733 18.7426 3.50697ZM19.9751 34.6917C20.0135 34.6781 20.0547 34.6634 20.0986 34.6475C20.4249 34.5292 20.8977 34.3468 21.4678 34.0949C22.6115 33.5894 24.1287 32.8124 25.6379 31.7256C28.6717 29.5408 31.5118 26.2336 31.5118 21.4649C31.5118 18.7866 31.5408 16.7253 31.5683 15.1257C31.5739 14.8007 31.5794 14.496 31.5845 14.2099L31.5845 14.2083C31.6049 13.078 31.62 12.2389 31.6151 11.5886C31.6089 10.7536 31.5678 10.3587 31.5096 10.1342C31.4742 9.99777 31.4432 9.94244 31.3145 9.8138L31.3138 9.81308C31.3202 9.81943 31.3174 9.81754 31.3025 9.80754C31.2627 9.78084 31.1367 9.69627 30.8687 9.55623C30.5464 9.38775 30.1159 9.18788 29.5994 8.96654C28.5694 8.52503 27.2579 8.02377 25.9155 7.55046C24.5738 7.07741 23.219 6.63859 22.1045 6.31986C21.5464 6.16025 21.06 6.03406 20.6717 5.94886C20.2539 5.85717 20.0374 5.83325 19.9751 5.83325C19.9128 5.83325 19.6963 5.85717 19.2785 5.94886C18.8902 6.03407 18.4038 6.16026 17.8457 6.31987C16.7311 6.6386 15.3763 7.07742 14.0345 7.55047C12.6919 8.02378 11.3803 8.52506 10.35 8.96658C9.83341 9.18793 9.40274 9.38782 9.08014 9.55633C8.8111 9.69686 8.68489 9.78163 8.64527 9.80824C8.631 9.81783 8.62797 9.81986 8.63354 9.81424C8.5063 9.94184 8.47534 9.99722 8.44008 10.1335C8.38195 10.3582 8.341 10.7534 8.33485 11.5885C8.33008 12.2378 8.34517 13.075 8.3655 14.2026C8.37069 14.4906 8.37624 14.7981 8.38187 15.1257C8.40936 16.7253 8.43843 18.7866 8.43843 21.4649C8.43843 26.2336 11.2785 29.5408 14.3122 31.7256C15.8215 32.8124 17.3387 33.5894 18.4824 34.0949C19.0525 34.3468 19.5252 34.5292 19.8516 34.6475C19.8955 34.6634 19.9367 34.6781 19.9751 34.6917ZM19.6116 34.8139C19.6114 34.814 19.6114 34.814 19.6116 34.8139V34.8139Z" fill="#42B8EB"/>
<path d="M19.9751 36.0099L20.3373 37.2063C20.1011 37.2778 19.8491 37.2778 19.6129 37.2063L19.9751 36.0099Z" fill="#42B8EB"/>
</svg>