<svg width="40" height="40" viewBox="0 0 40 40" fill="none" xmlns="http://www.w3.org/2000/svg">
<path d="M28.5107 5.35662C28.871 4.76773 29.6404 4.58241 30.2293 4.94269C32.5293 6.3498 34.5124 8.24896 36.0305 10.4619C36.4211 11.0312 36.2762 11.8093 35.7069 12.1998C35.1377 12.5903 34.3596 12.4454 33.969 11.8762C32.6459 9.94744 30.9187 8.2952 28.9246 7.07524C28.3357 6.71496 28.1504 5.94551 28.5107 5.35662Z" fill="#42B8EB"/>
<path d="M11.0622 7.08955C11.65 6.72749 11.833 5.95748 11.471 5.36968C11.1089 4.78189 10.3389 4.5989 9.75109 4.96097C7.47056 6.36571 5.48917 8.24821 3.9696 10.4616C3.57887 11.0308 3.7235 11.8089 4.29264 12.1996C4.86178 12.5904 5.63991 12.4457 6.03064 11.8766C7.3522 9.95158 9.07787 8.31187 11.0622 7.08955Z" fill="#42B8EB"/>
<path d="M26.2377 18.8589C26.7258 18.3706 26.7256 17.5791 26.2373 17.0911C25.749 16.6031 24.9575 16.6033 24.4695 17.0916L19.1464 22.4174L17.0175 20.285C16.5298 19.7965 15.7383 19.7959 15.2498 20.2836C14.7612 20.7714 14.7606 21.5629 15.2483 22.0514L18.2614 25.0692C18.4958 25.304 18.8139 25.436 19.1456 25.4361C19.4774 25.4361 19.7955 25.3044 20.0301 25.0697L26.2377 18.8589Z" fill="#42B8EB"/>
<path fill-rule="evenodd" clip-rule="evenodd" d="M19.9918 7.80261C12.4141 7.80261 6.27295 13.9458 6.27295 21.523C6.27295 29.1006 12.4143 35.2419 19.9918 35.2419C27.569 35.2419 33.7122 29.1008 33.7122 21.523C33.7122 13.9456 27.5692 7.80261 19.9918 7.80261ZM8.77295 21.523C8.77295 15.3261 13.7952 10.3026 19.9918 10.3026C26.1885 10.3026 31.2122 15.3263 31.2122 21.523C31.2122 27.7197 26.1887 32.7419 19.9918 32.7419C13.795 32.7419 8.77295 27.7199 8.77295 21.523Z" fill="#42B8EB"/>
</svg>