<svg width="144" height="144" viewBox="0 0 144 144" fill="none" fill-opacity="0.6" xmlns="http://www.w3.org/2000/svg">
<path fill-rule="evenodd" clip-rule="evenodd" d="M124.903 75.2404C124.967 74.1685 125 73.0881 125 72C125 42.7289 101.271 19 72 19C42.7289 19 19 42.7289 19 72C19 73.0882 19.0328 74.1686 19.0974 75.2405C18.9289 75.8872 18.978 76.582 19.2525 77.2066C21.8683 104.034 44.4857 125 72 125C99.5145 125 122.132 104.034 124.747 77.2067C125.022 76.5821 125.071 75.8871 124.903 75.2404ZM34.7445 43.3427C39.8583 36.7044 46.7066 31.4712 54.6111 28.3216L69 37.6321V53.3944L54.89 62.801L41.0512 58.1881L34.7445 43.3427ZM72 32.4267L62.1275 26.0386C65.3108 25.3581 68.6136 25 72 25C75.3864 25 78.6892 25.3581 81.8725 26.0386L72 32.4267ZM75 37.6321L89.3889 28.3216C97.2933 31.4711 104.142 36.7042 109.255 43.3424L102.797 58.5453L89.1318 62.8157L75 53.3945V37.6321ZM104.257 64.3752L91.5924 68.3329L86.4747 88.8037L92.1155 97.2649L112.365 96.0898C115.752 90.4275 117.981 83.9932 118.725 77.1136L104.257 64.3752ZM81.3944 92L87.4129 101.028L82.5111 117.82C79.1317 118.592 75.6135 119 72 119C68.3917 119 64.8784 118.593 61.5034 117.824L56.9935 101.822L62.7231 92H81.3944ZM52.6864 97.298L31.5993 96.0306C28.2327 90.3827 26.0167 83.9692 25.275 77.1137L39.9892 64.1586L52.398 68.2949L57.5601 88.9431L52.6864 97.298ZM54.6719 115.703L51.1528 103.217L36.0783 102.311C41.0377 108.182 47.4105 112.821 54.6719 115.703ZM107.88 102.36C102.94 108.193 96.6032 112.804 89.3864 115.679L93.0227 103.222L107.88 102.36ZM118.923 69.2941L108.608 60.212L113.209 49.3808C116.491 55.3479 118.515 62.1049 118.923 69.2941ZM30.7907 49.381C27.5085 55.3481 25.4847 62.105 25.0766 69.2942L35.392 60.212L30.7907 49.381ZM63.0089 86L58.4231 67.6568L71.9999 58.6056L85.5768 67.6568L80.9909 86H63.0089Z" fill="#E5E6E8"/>
</svg>