<svg width="144" height="144" viewBox="0 0 144 144" fill="none" fill-opacity="0.6" xmlns="http://www.w3.org/2000/svg">
<path fill-rule="evenodd" clip-rule="evenodd" d="M72.5812 21.7604C75.2832 18.8619 79.1066 17.2734 83.5338 17.2734H114.001C118.438 17.2734 122.263 18.8606 124.964 21.7619C127.642 24.6391 128.992 28.5655 128.992 32.8773V52.8077C128.992 57.1195 127.642 61.0459 124.964 63.923C122.263 66.8243 118.438 68.4114 114.001 68.4114H83.5338C79.097 68.4114 75.2719 66.8243 72.571 63.923C69.8926 61.0459 68.5428 57.1195 68.5428 52.8077V32.8773C68.5428 28.5615 69.9009 24.6356 72.5812 21.7604ZM74.5428 39.2705V52.8077C74.5428 55.8807 75.4931 58.2562 76.9626 59.8347C78.4095 61.389 80.5798 62.4114 83.5338 62.4114H114.001C116.955 62.4114 119.126 61.389 120.572 59.8347C122.042 58.2562 122.992 55.8807 122.992 52.8077V39.2705H74.5428ZM122.992 33.2705H74.5428V32.8773C74.5428 29.8082 75.4966 27.4322 76.97 25.8517C78.4216 24.2945 80.5937 23.2734 83.5338 23.2734H114.001C116.955 23.2734 119.126 24.2958 120.572 25.8501C122.042 27.4287 122.992 29.8042 122.992 32.8773V33.2705Z" fill="#E5E6E8"/>
<path fill-rule="evenodd" clip-rule="evenodd" d="M29.9909 75.5862C25.5637 75.5862 21.7403 77.1746 19.0383 80.073C16.358 82.9482 15 86.874 15 91.1898V111.12C15 115.432 16.3498 119.358 19.028 122.235C21.7289 125.137 25.554 126.724 29.9909 126.724H60.4584C64.8953 126.724 68.7205 125.137 71.4213 122.235C74.0996 119.358 75.4494 115.432 75.4494 111.12V91.1898C75.4494 86.878 74.0996 82.9517 71.4213 80.0746C68.7204 77.1733 64.8952 75.5862 60.4584 75.5862H29.9909ZM69.4494 91.6062V91.1898C69.4494 88.1168 68.4991 85.7413 67.0296 84.1628C65.5827 82.6085 63.4124 81.5862 60.4584 81.5862H29.9909C27.0507 81.5862 24.8787 82.6072 23.4271 84.1643C21.9537 85.7448 21 88.1208 21 91.1898V91.6062H69.4494ZM21 97.6062H69.4494V111.12C69.4494 114.193 68.4991 116.569 67.0296 118.147C65.5826 119.702 63.4123 120.724 60.4584 120.724H29.9909C27.0371 120.724 24.8668 119.702 23.4198 118.147C21.9503 116.569 21 114.193 21 111.12V97.6062Z" fill="#E5E6E8"/>
<path d="M120.839 97.8208L123.878 100.857C125.05 102.029 126.949 102.028 128.12 100.856C129.291 99.6839 129.291 97.7844 128.119 96.6133L119.964 88.4641C118.792 87.2933 116.893 87.2936 115.722 88.4648L107.572 96.614C106.4 97.7855 106.4 99.685 107.572 100.857C108.743 102.028 110.643 102.028 111.814 100.857L114.839 97.8327V103.331C114.839 112.936 107.057 120.717 97.4592 120.717C95.8024 120.717 94.4592 122.06 94.4592 123.717C94.4592 125.374 95.8024 126.717 97.4592 126.717C110.372 126.717 120.839 116.249 120.839 103.331V97.8208Z" fill="#E5E6E8"/>
<path d="M46.5302 23.2734C36.9323 23.2734 29.1504 31.0542 29.1504 40.6591V46.1698L32.1837 43.1365C33.3553 41.9649 35.2548 41.9649 36.4264 43.1365C37.598 44.3081 37.598 46.2076 36.4264 47.3791L28.2768 55.5288C27.1055 56.7 25.2066 56.7004 24.0349 55.5295L15.8794 47.3799C14.7074 46.2087 14.7068 44.3092 15.8779 43.1372C17.0491 41.9653 18.9486 41.9646 20.1206 43.1357L23.1504 46.1634V40.6591C23.1504 27.7416 33.6175 17.2734 46.5302 17.2734C48.1871 17.2734 49.5302 18.6166 49.5302 20.2734C49.5302 21.9303 48.1871 23.2734 46.5302 23.2734Z" fill="#E5E6E8"/>
</svg>