<svg width="200" height="144" viewBox="0 0 200 144" fill="none" xmlns="http://www.w3.org/2000/svg">
<path fill-rule="evenodd" clip-rule="evenodd" d="M98.5756 -33.2638C97.9403 -35.6348 95.5032 -37.0418 93.1322 -36.4065C90.7613 -35.7712 89.3542 -33.3342 89.9895 -30.9632L93.1993 -18.9843L65.0131 -11.4318L61.8034 -23.4106C61.1681 -25.7816 58.731 -27.1886 56.36 -26.5533C53.9891 -25.918 52.5821 -23.4809 53.2174 -21.11L56.4271 -9.13121L45.7103 -6.25968L45.6903 -6.25436L45.6703 -6.24894L36.2247 -3.71801C33.8537 -3.08271 32.4467 -0.645657 33.082 1.72531C33.7173 4.09626 36.1543 5.5033 38.5253 4.868L43.6979 3.48201L71.5086 107.273L66.2889 108.671C63.9179 109.307 62.5109 111.744 63.1462 114.115C63.7815 116.486 66.2186 117.893 68.5895 117.257L88.839 111.832L92.0411 123.782C92.6764 126.153 95.1135 127.56 97.4844 126.925C99.8554 126.289 101.262 123.852 100.627 121.481L97.425 109.531L125.611 101.978L128.813 113.929C129.449 116.3 131.886 117.707 134.257 117.072C136.628 116.436 138.035 113.999 137.399 111.628L134.19 99.6526C152.852 93.8933 163.774 74.3442 158.674 55.3107C154.794 40.8311 142.737 30.7218 128.801 28.6281C134.703 21.2924 137.138 11.3385 134.518 1.55833C130.579 -13.1419 116.554 -22.4503 101.884 -20.9176L98.5756 -33.2638ZM127.64 92.2323L130.55 91.4528C145.284 87.5046 154.038 72.3526 150.088 57.6114C146.138 42.8679 130.985 34.1152 116.244 38.065L113.484 38.8047C113.423 38.8223 113.361 38.8398 113.3 38.8571C113.282 38.8622 113.264 38.8671 113.246 38.8718L65.7902 51.5876L80.0946 104.972L90.7845 102.108L90.8313 102.095L90.8783 102.083L127.567 92.252C127.579 92.2486 127.591 92.2453 127.604 92.242C127.616 92.2387 127.628 92.2355 127.64 92.2323ZM99.4906 -11.4675C99.5923 -11.4873 99.6941 -11.5108 99.7957 -11.538C99.8545 -11.5537 99.9126 -11.5706 99.9702 -11.5885C111.341 -14.3227 122.887 -7.50363 125.932 3.85895C128.982 15.2412 122.375 26.9509 111.096 30.242L108.599 30.9111C108.543 30.9261 108.487 30.9422 108.432 30.9593L63.4896 43.0016L52.2839 1.18139L62.7143 -1.61343C62.8174 -1.63342 62.9206 -1.65716 63.0236 -1.68475C63.1265 -1.71235 63.2277 -1.74335 63.327 -1.77759L99.4186 -11.4483L99.4906 -11.4675Z" fill="white" fill-opacity="0.1"/>
</svg>