<svg width="144" height="144" viewBox="0 0 144 144" fill="none" fill-opacity="0.6" xmlns="http://www.w3.org/2000/svg">
<path d="M46.5384 72.9655C48.1426 72.551 49.7791 73.5153 50.1936 75.1195L55.6522 96.242C56.0668 97.8461 55.1024 99.4826 53.4983 99.8972C51.8941 100.312 50.2576 99.3474 49.8431 97.7432L44.3845 76.6207C43.9699 75.0166 44.9343 73.3801 46.5384 72.9655Z" fill="#E5E6E8"/>
<path d="M105.58 76.6208C105.995 75.0166 105.03 73.3801 103.426 72.9655C101.822 72.551 100.185 73.5153 99.7709 75.1195L94.3122 96.242C93.8976 97.8461 94.8619 99.4826 96.4661 99.8972C98.0702 100.312 99.7067 99.3474 100.121 97.7432L105.58 76.6208Z" fill="#E5E6E8"/>
<path d="M77.982 75.8701C77.982 74.2133 76.6388 72.8701 74.982 72.8701C73.3251 72.8701 71.982 74.2133 71.982 75.8701V96.9926C71.982 98.6495 73.3251 99.9926 74.982 99.9926C76.6388 99.9926 77.982 98.6495 77.982 96.9926V75.8701Z" fill="#E5E6E8"/>
<path fill-rule="evenodd" clip-rule="evenodd" d="M85.7622 22.5299C84.7597 21.2107 82.8777 20.954 81.5585 21.9564C80.2393 22.9589 79.9826 24.841 80.9851 26.1602L99.2973 50.2574H50.0671L68.3792 26.1601C69.3816 24.841 69.1249 22.9589 67.8057 21.9564C66.4865 20.954 64.6045 21.2107 63.602 22.5299L42.5312 50.2574H40.395C33.2616 50.2574 27.0852 52.2714 23.3478 57.185C19.6367 62.064 18.9542 68.9908 20.8987 77.3901L26.4721 104.122C28.8981 117.265 38.7203 122.646 46.5765 122.646H102.776C110.633 122.646 120.455 117.265 122.881 104.122L128.454 77.3906C130.402 68.991 129.719 62.0639 126.007 57.1847C122.269 52.2713 116.091 50.2574 108.958 50.2574H106.833L85.7622 22.5299ZM26.7509 76.0665C24.9893 68.4808 25.9492 63.6757 28.1233 60.8174C30.276 57.9872 34.2406 56.2574 40.395 56.2574H108.958C115.112 56.2574 119.079 57.9873 121.232 60.8177C123.406 63.6757 124.366 68.4803 122.602 76.0654L122.595 76.0956L122.587 76.1328L117 102.932C116.997 102.947 116.994 102.961 116.991 102.976L116.986 103.004C115.13 113.127 107.949 116.646 102.776 116.646H46.5765C41.4044 116.646 34.223 113.127 32.367 103.004L32.361 102.972L32.353 102.932L26.7655 76.1328C26.7609 76.1106 26.756 76.0885 26.7509 76.0665Z" fill="#E5E6E8"/>
</svg>