<svg width="144" height="144" viewBox="0 0 144 144" fill="none" fill-opacity="0.6" xmlns="http://www.w3.org/2000/svg">
<path d="M54.0862 50.175C54.0862 48.5182 52.743 47.175 51.0862 47.175C49.4293 47.175 48.0862 48.5182 48.0862 50.175V74.2568C48.0862 75.9137 49.4293 77.2568 51.0862 77.2568C52.743 77.2568 54.0862 75.9137 54.0862 74.2568V50.175Z" fill="#E5E6E8"/>
<path d="M95.9053 55.1226C95.9053 53.4657 94.5621 52.1226 92.9053 52.1226C91.2484 52.1226 89.9053 53.4657 89.9053 55.1226V74.2614C89.9053 75.9183 91.2484 77.2614 92.9053 77.2614C94.5621 77.2614 95.9053 75.9183 95.9053 74.2614V55.1226Z" fill="#E5E6E8"/>
<path d="M76.1203 62.9488C76.1203 61.2919 74.7771 59.9488 73.1203 59.9488C71.4634 59.9488 70.1203 61.2919 70.1203 62.9488V74.2643C70.1203 75.9211 71.4634 77.2643 73.1203 77.2643C74.7771 77.2643 76.1203 75.9211 76.1203 74.2643V62.9488Z" fill="#E5E6E8"/>
<path fill-rule="evenodd" clip-rule="evenodd" d="M24.8157 47.006C24.8157 35.7658 33.9264 26.655 45.1667 26.655H98.8278C110.064 26.655 119.174 35.7664 119.174 47.006V91.275H120.668C124.075 91.275 126.84 94.0318 126.84 97.4413V100.361C126.84 109.741 119.231 117.35 109.852 117.35H34.1484C24.7687 117.35 17.16 109.741 17.16 100.361V97.4413C17.16 94.0354 19.9214 91.275 23.3265 91.275H24.8157V47.006ZM113.174 47.006V91.275H30.8157V47.006C30.8157 39.0795 37.2401 32.655 45.1667 32.655H98.8278C106.749 32.655 113.174 39.0789 113.174 47.006ZM23.3265 97.275C23.2345 97.275 23.16 97.3497 23.16 97.4413V100.361C23.16 106.427 28.0826 111.35 34.1484 111.35H109.852C115.917 111.35 120.84 106.427 120.84 100.361V97.4413C120.84 97.3533 120.769 97.275 120.668 97.275H23.3265Z" fill="#E5E6E8"/>
</svg>