<svg width="144" height="144" viewBox="0 0 144 144" fill="none" fill-opacity="0.6" xmlns="http://www.w3.org/2000/svg">
<path fill-rule="evenodd" clip-rule="evenodd" d="M72 52.3269C72.8409 52.3269 73.6432 52.6798 74.2114 53.2997L89.4951 69.9728C90.5465 71.1198 90.5465 72.8802 89.4951 74.0272L74.2114 90.7002C73.6432 91.3201 72.8409 91.6731 72 91.6731C71.159 91.6731 70.3567 91.3201 69.7885 90.7002L54.5048 74.0272C53.4535 72.8802 53.4535 71.1198 54.5048 69.9728L69.7885 53.2997C70.3567 52.6798 71.159 52.3269 72 52.3269ZM60.786 72L72 84.2334L83.2139 72L72 59.7666L60.786 72Z" fill="#E5E6E8"/>
<path fill-rule="evenodd" clip-rule="evenodd" d="M72 131C104.585 131 131 104.585 131 72C131 39.4152 104.585 13 72 13C39.4152 13 13 39.4152 13 72C13 104.585 39.4152 131 72 131ZM93.0141 120.671C86.5711 123.456 79.4658 125 72 125C64.5342 125 57.4289 123.456 50.986 120.671C51.0122 120.625 51.0373 120.578 51.0614 120.53L58.4765 105.747C67.1375 109.213 76.8626 109.213 85.5235 105.747L92.9387 120.53C92.9627 120.578 92.9879 120.625 93.0141 120.671ZM98.3699 117.985C98.3486 117.936 98.3259 117.888 98.3018 117.84L90.8893 103.062C93.3142 101.585 95.6035 99.7974 97.7003 97.7006C99.7973 95.6037 101.584 93.3143 103.062 90.8893L117.84 98.3018C117.888 98.3259 117.936 98.3486 117.985 98.3699C113.302 106.517 106.517 113.302 98.3699 117.985ZM120.671 93.0141C120.625 92.9879 120.578 92.9627 120.53 92.9387L105.746 85.5234C109.212 76.8626 109.212 67.1375 105.746 58.4766L120.53 51.0614C120.578 51.0373 120.625 51.0122 120.671 50.986C123.456 57.4289 125 64.5342 125 72C125 79.4658 123.456 86.5711 120.671 93.0141ZM117.985 45.6302C117.936 45.6515 117.888 45.6742 117.84 45.6982L103.062 53.1107C101.584 50.6857 99.7973 48.3963 97.7004 46.2994L97.6993 46.2983C95.6027 44.2019 93.3138 42.4152 90.8893 40.9381L98.3018 26.1603C98.3259 26.1123 98.3486 26.064 98.3698 26.0154C106.517 30.6976 113.302 37.4828 117.985 45.6302ZM93.0141 23.3293C92.9879 23.3753 92.9627 23.4223 92.9387 23.4702L85.5235 38.2534C76.8626 34.7873 67.1375 34.7873 58.4765 38.2532L51.0614 23.4702C51.0373 23.4223 51.0122 23.3753 50.986 23.3292C57.4289 20.5437 64.5342 19 72 19C79.4658 19 86.5711 20.5437 93.0141 23.3293ZM45.6302 26.0154C37.4828 30.6976 30.6976 37.4828 26.0154 45.6302C26.064 45.6515 26.1123 45.6742 26.1603 45.6982L40.9378 53.1106C42.4151 50.6856 44.2022 48.3963 46.2991 46.2994C48.3961 44.2024 50.6856 42.4152 53.1106 40.9378L45.6982 26.1603C45.6742 26.1123 45.6515 26.064 45.6302 26.0154ZM23.3292 50.986C20.5437 57.4289 19 64.5342 19 72C19 79.4658 20.5437 86.5711 23.3293 93.0141C23.3753 92.9879 23.4223 92.9627 23.4702 92.9387L38.2531 85.5236C34.7871 76.8626 34.787 67.1374 38.2531 58.4764L23.4702 51.0614C23.4223 51.0373 23.3753 51.0122 23.3292 50.986ZM26.0154 98.3698C30.6976 106.517 37.4828 113.302 45.6302 117.985C45.6515 117.936 45.6742 117.888 45.6982 117.84L53.1106 103.062C50.6855 101.585 48.3961 99.7976 46.2991 97.7006C44.2023 95.6037 42.4152 93.3144 40.9378 90.8895L26.1603 98.3018C26.1123 98.3259 26.064 98.3486 26.0154 98.3698ZM44.6214 58.892C44.7226 58.7551 44.8135 58.6078 44.8924 58.4505C44.9724 58.291 45.0368 58.1278 45.0862 57.9627C46.4802 55.2919 48.2987 52.7851 50.5418 50.542C52.785 48.2987 55.2922 46.4801 57.9632 45.0861C58.1282 45.0366 58.2912 44.9723 58.4505 44.8924C58.6076 44.8136 58.7547 44.7228 58.8914 44.6218C67.1573 40.6642 76.8441 40.6645 85.1097 44.6226C85.2461 44.7233 85.3929 44.8138 85.5496 44.8924C85.7085 44.972 85.871 45.0363 86.0355 45.0857C88.7068 46.4797 91.2142 48.2985 93.4577 50.542C95.7013 52.7856 97.5202 55.2932 98.9143 57.9647C98.9637 58.1292 99.0279 58.2917 99.1075 58.4505C99.1861 58.6071 99.2766 58.7539 99.3772 58.8902C103.336 67.1564 103.335 76.8439 99.3771 85.11C99.2765 85.2463 99.1861 85.393 99.1075 85.5496C99.0279 85.7084 98.9637 85.8708 98.9144 86.0352C97.5202 88.7067 95.7014 91.2143 93.4577 93.4579C91.2143 95.7014 88.7069 97.5202 86.0356 98.9142C85.8711 98.9636 85.7085 99.0279 85.5496 99.1075C85.3929 99.1862 85.246 99.2767 85.1096 99.3774C76.8441 103.335 67.1574 103.336 58.8916 99.3783C58.7549 99.2772 58.6076 99.1864 58.4505 99.1075C58.2911 99.0276 58.128 98.9632 57.963 98.9138C55.292 97.5198 52.785 95.7012 50.5418 93.4579C48.2987 91.2148 46.4801 88.7079 45.0861 86.0371C45.0367 85.872 44.9723 85.709 44.8924 85.5496C44.8135 85.3924 44.7227 85.2452 44.6216 85.1084C40.6643 76.8432 40.6642 67.1572 44.6214 58.892Z" fill="#E5E6E8"/>
</svg>