<svg width="144" height="144" viewBox="0 0 144 144" fill="none" fill-opacity="0.6" xmlns="http://www.w3.org/2000/svg">
<path d="M38.1206 35.8505C49.5305 24.351 65.3707 19.9096 80.2119 22.5677C81.8428 22.8598 83.4017 21.7745 83.6938 20.1436C83.9859 18.5127 82.9006 16.9538 81.2697 16.6617C64.5702 13.6708 46.718 18.6669 33.8614 31.6244C14.7529 50.8821 13.3102 81.0165 29.4526 101.917L20.7449 100.186C19.1198 99.8628 17.5406 100.918 17.2176 102.543C16.8945 104.168 17.9501 105.748 19.5751 106.071L35.026 109.142C35.8064 109.297 36.6165 109.136 37.278 108.694C37.9395 108.251 38.3982 107.565 38.5534 106.784L41.6076 91.4172C41.9306 89.7921 40.8751 88.2129 39.25 87.8899C37.625 87.5669 36.0458 88.6225 35.7228 90.2475L34.1466 98.1776C19.8791 79.6273 21.1797 52.9236 38.1206 35.8505Z" fill="#E5E6E8"/>
<path d="M123.254 38.7735L114.54 37.0415C130.69 57.9421 129.249 88.0825 110.138 107.343C97.282 120.301 79.4291 125.297 62.7297 122.305C61.0988 122.013 60.0135 120.454 60.3056 118.824C60.5977 117.193 62.1567 116.107 63.7876 116.399C78.6288 119.058 94.4695 114.617 105.879 103.117C122.821 86.043 124.121 59.3377 109.851 40.7872L108.276 48.7117C107.953 50.3368 106.374 51.3923 104.749 51.0693C103.124 50.7463 102.068 49.167 102.391 47.542L105.446 32.1751C105.769 30.55 107.348 29.4945 108.973 29.8175L124.424 32.8887C126.049 33.2117 127.104 34.7909 126.781 36.416C126.458 38.041 124.879 39.0965 123.254 38.7735Z" fill="#E5E6E8"/>
<path d="M56.2875 61.4177C56.2875 55.2898 61.2496 50.325 67.3747 50.325H69V46.485C69 44.8281 70.3431 43.485 72 43.485C73.6569 43.485 75 44.8281 75 46.485V50.325H82.4048C84.0617 50.325 85.4048 51.6681 85.4048 53.325C85.4048 54.9818 84.0617 56.325 82.4048 56.325H72.292C72.1959 56.3342 72.0985 56.339 72 56.339C71.9015 56.339 71.8041 56.3342 71.708 56.325H67.3747C64.566 56.325 62.2875 58.6008 62.2875 61.4177C62.2875 64.2297 64.5672 66.5099 67.3747 66.5099H76.627C82.7495 66.5099 87.7198 71.4726 87.7198 77.6027C87.7198 83.726 82.7506 88.6949 76.627 88.6949H75V92.4745C75 94.1313 73.6569 95.4745 72 95.4745C70.3431 95.4745 69 94.1313 69 92.4745V88.6949H61.5963C59.9394 88.6949 58.5963 87.3518 58.5963 85.6949C58.5963 84.0381 59.9394 82.6949 61.5963 82.6949H71.7166C71.8099 82.6862 71.9044 82.6817 72 82.6817C72.0956 82.6817 72.1901 82.6862 72.2834 82.6949H76.627C79.4371 82.6949 81.7198 80.412 81.7198 77.6027C81.7198 74.7888 79.4383 72.5099 76.627 72.5099H67.3747C61.2484 72.5099 56.2875 67.5383 56.2875 61.4177Z" fill="#E5E6E8"/>
</svg>