<svg width="144" height="144" viewBox="0 0 144 144" fill="none" fill-opacity="0.6" xmlns="http://www.w3.org/2000/svg">
<path fill-rule="evenodd" clip-rule="evenodd" d="M35.9137 74.9397L23.9166 69.0759C13.2446 63.8602 13.2439 48.6524 23.9109 43.436L61.5556 25.0369C67.3244 22.2146 74.0696 22.2144 79.8386 25.0362L117.529 43.4527C122.605 45.9336 125.267 50.6765 125.514 55.5295C125.566 55.7524 125.592 55.9847 125.591 56.2233L125.4 87.4067C125.39 89.0636 124.039 90.3985 122.382 90.3883C120.725 90.3782 119.39 89.0269 119.4 87.37L119.519 67.9288C118.903 68.3589 118.239 68.7505 117.529 69.0979L104.572 75.43V101.826C104.572 107.889 100.993 113.539 95.3108 115.919C78.7012 122.877 61.9548 122.78 45.2513 115.886L45.2499 115.886C39.5283 113.521 35.9137 107.857 35.9137 101.758V74.9397ZM77.2032 30.4265C73.0975 28.4179 68.2979 28.4179 64.1923 30.4265L26.5462 48.8263C20.3668 51.8487 20.3651 60.662 26.5512 63.6853L65.2419 82.596C69.109 84.1181 73.4548 83.9588 77.2211 82.1183L114.894 63.7071C121.08 60.6847 121.08 51.8663 114.894 48.8434L77.2032 30.4265ZM62.8042 88.0828L63.3272 88.3385C63.6366 88.4897 63.9593 88.5828 64.283 88.6221C69.3861 90.2679 74.9689 89.897 79.8554 87.5091L98.5718 78.3622V101.826C98.5718 105.57 96.3555 108.977 92.9927 110.385C77.8923 116.71 62.8044 116.639 47.5401 110.34C44.1496 108.938 41.9137 105.523 41.9137 101.758V77.9248L61.5226 87.509C61.9447 87.7153 62.3724 87.9067 62.8042 88.0828Z" fill="#E5E6E8"/>
</svg>