<svg width="200" height="144" viewBox="0 0 200 144" fill="none" xmlns="http://www.w3.org/2000/svg">
<path fill-rule="evenodd" clip-rule="evenodd" d="M53.2952 -4.43502C50.9243 -3.79972 49.5172 -1.36267 50.1525 1.00829L67.5155 65.8078L56.9812 68.6304C54.6102 69.2657 53.2032 71.7028 53.8385 74.0737C54.4738 76.4447 56.9108 77.8517 59.2818 77.2164L69.8161 74.3938L75.8217 96.8068L65.3182 99.6212C62.9473 100.257 61.5402 102.694 62.1755 105.065C62.8108 107.436 65.2479 108.843 67.6188 108.207L78.1223 105.393L84.2046 128.092C84.8399 130.463 87.277 131.87 89.6479 131.235C92.0189 130.6 93.4259 128.163 92.7906 125.792L86.7083 103.092L107.453 97.5336C109.824 96.8983 111.231 94.4612 110.596 92.0903C109.961 89.7193 107.524 88.3123 105.153 88.9476L84.4077 94.5062L78.4021 72.0932L119.585 61.0583L119.587 61.0578C141.033 55.3011 153.748 33.2489 148.004 11.8109C142.257 -9.63529 120.221 -22.3676 98.7708 -16.6202L53.2952 -4.43502ZM76.1015 63.5071L59.8889 3.00068L101.071 -8.03415C117.777 -12.5103 134.941 -2.5954 139.418 14.1116C143.892 30.8103 133.987 47.9876 117.284 52.4723L76.1015 63.5071Z" fill="white" fill-opacity="0.2"/>
</svg>