<svg width="1132" height="638" viewBox="0 0 1132 638" fill="none" xmlns="http://www.w3.org/2000/svg">
<path fill-rule="evenodd" clip-rule="evenodd" d="M945.814 -16.2537C920.691 5.75066 894.824 48.4714 879.307 119.244C856.001 225.545 878.553 330.653 918.954 421.437C975.8 377.327 1024.21 307.946 1053.7 205.517C1074 134.996 1073.45 78.5713 1062.44 38.3884C1051.34 -2.12582 1030.48 -24.06 1011.18 -32.0647C993.154 -39.5382 970.138 -37.5591 945.814 -16.2537ZM947.143 477.744C1019.73 425.211 1078.95 341.835 1113.27 222.637C1135.96 143.814 1136.88 75.5501 1122.23 22.0379C1107.66 -31.1429 1076.81 -71.9093 1034.94 -89.2695C991.787 -107.161 944.161 -97.1692 904.952 -62.827C866.541 -29.1836 835.983 27.4203 818.756 105.991C791.049 232.367 819.882 354.308 865.878 454.485C860.775 456.968 855.635 459.291 850.464 461.458C764.028 497.675 664.655 492.035 577.209 456.975C534.184 439.724 512.232 415.573 501.565 390.709C496.47 378.83 493.598 365.952 492.682 352.422C504.014 355.614 515.161 358.375 526.069 360.666C588.458 373.768 652.544 373.425 695.124 337.582C752.945 288.91 763.149 216.719 731.291 164.168C698.463 110.015 628.226 87.1132 547.38 120.37C534.743 125.569 522.98 135.064 512.968 145.125C502.523 155.62 492.103 168.65 482.42 183.26C466.443 207.366 451.585 237.124 441.869 269.276C411.407 256.85 379.884 241.733 348.409 224.547C281.814 188.185 216.85 143.332 164.263 97.1366C111.016 50.3612 73.1072 4.50919 57.0745 -33.2961L0 -9.1323C21.4594 41.4693 67.6506 94.7346 123.333 143.65C179.676 193.145 248.47 240.558 318.683 278.896C355.769 299.146 393.65 317.083 430.664 331.489C429.242 359.258 432.915 387.889 444.591 415.109C462.627 457.152 498.131 492.004 554.124 514.454C653.661 554.362 770.205 562.247 874.436 518.574C881.026 515.813 887.55 512.852 894.001 509.69C937.248 586.858 988.543 648.386 1027.15 685L1069.83 640.076C1035.19 607.237 987.361 549.949 947.143 477.744ZM500.335 290.14C513.585 294.132 526.45 297.457 538.819 300.055C597.56 312.391 635.874 306.472 655.185 290.216C691.533 259.619 693.077 220.677 678.272 196.255C664.438 173.436 629.602 153.526 570.979 177.641C569.344 178.314 564.419 181.263 556.924 188.793C549.863 195.89 541.959 205.601 534.103 217.455C520.515 237.958 508.042 263.39 500.335 290.14Z" fill="url(#paint0_linear_1095_1419)"/>
<defs>
<linearGradient id="paint0_linear_1095_1419" x1="846.737" y1="260.809" x2="383.526" y2="105.878" gradientUnits="userSpaceOnUse">
<stop stop-color="#DFDFDF" stop-opacity="0.12"/>
<stop offset="1" stop-color="#DFDFDF" stop-opacity="0.08"/>
</linearGradient>
</defs>
</svg>
