<svg width="144" height="144" viewBox="0 0 144 144" fill="none" fill-opacity="0.6" xmlns="http://www.w3.org/2000/svg">
<path fill-rule="evenodd" clip-rule="evenodd" d="M63.0709 109.963L74.872 99.8862L94.6625 119.673C99.6513 124.661 108.192 122.209 109.762 115.323L128.781 32.0638C130.309 25.3803 123.672 19.7483 117.325 22.3429L20.4551 61.9888C12.11 65.4034 13.7218 77.6801 22.6734 78.8162L46.3201 81.815L51.2094 105.871C52.313 111.309 58.8545 113.555 63.0709 109.963ZM119.596 27.8963C121.446 27.1407 123.377 28.783 122.932 30.7275L103.912 113.988L103.912 113.989C103.392 116.268 100.56 117.086 98.9048 115.43L77.5823 94.1115C77.5151 94.0101 77.4411 93.9116 77.36 93.8167C77.1723 93.5969 76.9597 93.4108 76.7299 93.2592L67.2284 83.7595C66.0567 82.5881 64.1572 82.5882 62.9857 83.7599C61.8143 84.9316 61.8144 86.8311 62.9861 88.0026L70.6158 95.6308L59.1804 105.396L59.1782 105.398C58.4327 106.03 57.2817 105.625 57.0894 104.677L52.1702 80.4736L94.2513 52.1408C95.6256 51.2155 95.9896 49.3512 95.0643 47.9768C94.1389 46.6024 92.2746 46.2384 90.9003 47.1638L48.0852 75.9908L23.4286 72.8639C20.5995 72.5049 20.0861 68.6225 22.7277 67.5417L119.596 27.8963Z" fill="#E5E6E8"/>
</svg>