<svg width="144" height="144" viewBox="0 0 144 144" fill="none" fill-opacity="0.6" xmlns="http://www.w3.org/2000/svg">
<path fill-rule="evenodd" clip-rule="evenodd" d="M30.3127 29.5175C35.6018 24.5941 42.9395 22 51.2489 22H92.751C101.064 22 108.401 24.6077 113.689 29.536C118.999 34.4861 122 41.5554 122 49.9735V94.0216C122 102.461 119.001 109.533 113.688 114.48C108.399 119.404 101.061 122 92.751 122H51.2489C42.9391 122 35.6012 119.404 30.3122 114.479C24.9991 109.531 22 102.458 22 94.0164V49.9735C22 41.5344 24.9994 34.4635 30.3127 29.5175ZM34.4008 33.9092C30.4349 37.601 28 43.0169 28 49.9735V91.3171L40.3059 74.8638C41.2582 73.5906 43.0383 73.2814 44.3641 74.1589L60.5066 84.8432L78.4663 58.3024L66.5483 60.518C64.9194 60.8209 63.3533 59.7458 63.0505 58.1169C62.7477 56.4879 63.8227 54.9219 65.4517 54.6191L84.003 51.1703C84.3537 51.047 84.7254 50.9894 85.098 51.0012C86.5291 50.953 87.8258 51.9369 88.1307 53.3796L91.9351 71.3796C92.2778 73.0007 91.2414 74.5925 89.6203 74.9352C87.9993 75.2778 86.4074 74.2414 86.0648 72.6204L83.6747 61.3116L63.8117 90.6651C62.8898 92.0274 61.0429 92.3933 59.6713 91.4855L43.4143 80.7255L28.7476 100.335C29.7537 104.331 31.7303 107.601 34.4013 110.088C38.3916 113.804 44.1782 116 51.2489 116H92.751C99.8217 116 105.608 113.804 109.599 110.089C113.565 106.395 116 100.978 116 94.0216V49.9735C116 43.0417 113.566 37.6242 109.598 33.925C105.606 30.204 99.8184 28 92.751 28H51.2489C44.1778 28 38.3911 30.1948 34.4008 33.9092Z" fill="#E5E6E8"/>
</svg>